=== Track 0 ===
<meta message time_signature numerator=4 denominator=4 clocks_per_click=24 notated_32nd_notes_per_beat=8 time=0>
<meta message key_signature key='A' time=0>
<meta message set_tempo tempo=387097 time=0>
control_change channel=0 control=121 value=0 time=0
program_change channel=0 program=0 time=0
control_change channel=0 control=7 value=100 time=0
control_change channel=0 control=10 value=64 time=0
control_change channel=0 control=91 value=0 time=0
control_change channel=0 control=93 value=0 time=0
<meta message midi_port port=0 time=0>
note_on channel=0 note=73 velocity=57 time=0
note_on channel=0 note=81 velocity=57 time=0
note_on channel=0 note=73 velocity=0 time=157
note_on channel=0 note=81 velocity=0 time=0
note_on channel=0 note=76 velocity=57 time=323
note_on channel=0 note=83 velocity=57 time=0
note_on channel=0 note=76 velocity=0 time=157
note_on channel=0 note=83 velocity=0 time=0
note_on channel=0 note=76 velocity=57 time=323
note_on channel=0 note=85 velocity=57 time=0
control_change channel=0 control=64 value=127 time=2
note_on channel=0 note=76 velocity=0 time=453
note_on channel=0 note=85 velocity=0 time=0
note_on channel=0 note=78 velocity=57 time=25
note_on channel=0 note=78 velocity=0 time=227
note_on channel=0 note=85 velocity=57 time=13
note_on channel=0 note=85 velocity=0 time=170
note_on channel=0 note=78 velocity=57 time=10
note_on channel=0 note=86 velocity=57 time=60
control_change channel=0 control=64 value=0 time=1
note_on channel=0 note=78 velocity=0 time=907
note_on channel=0 note=86 velocity=0 time=3
note_on channel=0 note=77 velocity=57 time=49
note_on channel=0 note=85 velocity=57 time=0
note_on channel=0 note=77 velocity=0 time=455
note_on channel=0 note=85 velocity=0 time=0
note_on channel=0 note=78 velocity=57 time=25
control_change channel=0 control=64 value=0 time=361
control_change channel=0 control=64 value=127 time=1
note_on channel=0 note=78 velocity=0 time=17
note_on channel=0 note=74 velocity=57 time=21
note_on channel=0 note=78 velocity=57 time=40
note_on channel=0 note=83 velocity=57 time=40
note_on channel=0 note=74 velocity=0 time=451
note_on channel=0 note=78 velocity=0 time=2
note_on channel=0 note=83 velocity=0 time=2
note_on channel=0 note=73 velocity=57 time=25
note_on channel=0 note=73 velocity=0 time=227
note_on channel=0 note=74 velocity=57 time=13
note_on channel=0 note=74 velocity=0 time=170
note_on channel=0 note=68 velocity=57 time=10
control_change channel=0 control=64 value=0 time=1
control_change channel=0 control=64 value=127 time=1
note_on channel=0 note=73 velocity=57 time=58
note_on channel=0 note=80 velocity=57 time=0
control_change channel=0 control=2 value=57 time=0
control_change channel=0 control=2 value=58 time=82
control_change channel=0 control=2 value=59 time=41
control_change channel=0 control=2 value=60 time=41
control_change channel=0 control=2 value=61 time=41
note_on channel=0 note=68 velocity=0 time=19
note_on channel=0 note=73 velocity=0 time=3
note_on channel=0 note=80 velocity=0 time=0
note_on channel=0 note=77 velocity=62 time=13
control_change channel=0 control=2 value=62 time=6
control_change channel=0 control=2 value=63 time=41
control_change channel=0 control=2 value=64 time=41
control_change channel=0 control=2 value=65 time=41
control_change channel=0 control=2 value=66 time=41
control_change channel=0 control=2 value=67 time=41
note_on channel=0 note=77 velocity=0 time=16
note_on channel=0 note=65 velocity=68 time=13
note_on channel=0 note=73 velocity=68 time=0
control_change channel=0 control=2 value=68 time=12
control_change channel=0 control=2 value=69 time=41
control_change channel=0 control=2 value=70 time=41
control_change channel=0 control=2 value=71 time=41
control_change channel=0 control=2 value=72 time=41
control_change channel=0 control=2 value=73 time=41
note_on channel=0 note=65 velocity=0 time=10
note_on channel=0 note=73 velocity=0 time=0
note_on channel=0 note=71 velocity=74 time=13
control_change channel=0 control=2 value=74 time=18
control_change channel=0 control=2 value=75 time=41
control_change channel=0 control=2 value=76 time=41
control_change channel=0 control=2 value=77 time=41
control_change channel=0 control=2 value=78 time=41
control_change channel=0 control=2 value=79 time=41
note_on channel=0 note=71 velocity=0 time=4
note_on channel=0 note=73 velocity=80 time=13
control_change channel=0 control=64 value=0 time=1
control_change channel=0 control=2 value=80 time=122
note_on channel=0 note=73 velocity=0 time=218
note_on channel=0 note=65 velocity=81 time=19
note_on channel=0 note=65 velocity=0 time=113
note_on channel=0 note=66 velocity=81 time=7
note_on channel=0 note=66 velocity=0 time=113
note_on channel=0 note=69 velocity=81 time=7
control_change channel=0 control=2 value=81 time=0
control_change channel=0 control=2 value=80 time=26
control_change channel=0 control=2 value=79 time=13
control_change channel=0 control=2 value=78 time=13
control_change channel=0 control=2 value=77 time=13
control_change channel=0 control=2 value=76 time=13
control_change channel=0 control=2 value=75 time=13
control_change channel=0 control=2 value=74 time=13
note_on channel=0 note=69 velocity=0 time=9
control_change channel=0 control=2 value=73 time=4
note_on channel=0 note=73 velocity=73 time=3
control_change channel=0 control=2 value=72 time=10
control_change channel=0 control=2 value=71 time=13
control_change channel=0 control=2 value=70 time=13
control_change channel=0 control=2 value=69 time=13
control_change channel=0 control=2 value=68 time=13
control_change channel=0 control=2 value=67 time=13
control_change channel=0 control=2 value=66 time=13
note_on channel=0 note=73 velocity=0 time=25
control_change channel=0 control=2 value=65 time=1
note_on channel=0 note=78 velocity=64 time=6
control_change channel=0 control=2 value=64 time=7
control_change channel=0 control=2 value=63 time=13
control_change channel=0 control=2 value=62 time=13
control_change channel=0 control=2 value=61 time=13
control_change channel=0 control=2 value=60 time=13
control_change channel=0 control=2 value=59 time=13
control_change channel=0 control=2 value=58 time=13
control_change channel=0 control=2 value=57 time=13
control_change channel=0 control=2 value=56 time=13
note_on channel=0 note=78 velocity=0 time=2
note_on channel=0 note=81 velocity=55 time=7
note_on channel=0 note=81 velocity=0 time=113
note_on channel=0 note=90 velocity=55 time=7
note_on channel=0 note=90 velocity=0 time=113
note_on channel=0 note=85 velocity=55 time=7
note_on channel=0 note=85 velocity=0 time=113
note_on channel=0 note=81 velocity=55 time=7
note_on channel=0 note=81 velocity=0 time=113
note_on channel=0 note=80 velocity=55 time=7
note_on channel=0 note=80 velocity=0 time=113
note_on channel=0 note=85 velocity=55 time=7
note_on channel=0 note=85 velocity=0 time=113
note_on channel=0 note=73 velocity=55 time=7
note_on channel=0 note=73 velocity=0 time=227
note_on channel=0 note=61 velocity=55 time=13
note_on channel=0 note=69 velocity=55 time=0
note_on channel=0 note=61 velocity=0 time=157
note_on channel=0 note=69 velocity=0 time=0
note_on channel=0 note=61 velocity=55 time=323
note_on channel=0 note=71 velocity=55 time=0
note_on channel=0 note=61 velocity=0 time=117
note_on channel=0 note=71 velocity=0 time=0
note_on channel=0 note=61 velocity=55 time=243
note_on channel=0 note=66 velocity=55 time=60
note_on channel=0 note=73 velocity=55 time=60
note_on channel=0 note=61 velocity=0 time=221
note_on channel=0 note=66 velocity=0 time=3
note_on channel=0 note=73 velocity=0 time=3
note_on channel=0 note=78 velocity=55 time=13
note_on channel=0 note=78 velocity=0 time=227
note_on channel=0 note=73 velocity=55 time=13
note_on channel=0 note=73 velocity=0 time=398
note_on channel=0 note=66 velocity=55 time=22
note_on channel=0 note=74 velocity=55 time=60
note_on channel=0 note=66 velocity=0 time=851
note_on channel=0 note=74 velocity=0 time=3
note_on channel=0 note=66 velocity=55 time=46
note_on channel=0 note=73 velocity=55 time=60
note_on channel=0 note=66 velocity=0 time=452
note_on channel=0 note=73 velocity=0 time=3
note_on channel=0 note=66 velocity=55 time=25
note_on channel=0 note=66 velocity=0 time=341
note_on channel=0 note=62 velocity=55 time=19
note_on channel=0 note=66 velocity=55 time=60
note_on channel=0 note=71 velocity=55 time=60
note_on channel=0 note=62 velocity=0 time=221
note_on channel=0 note=66 velocity=0 time=3
note_on channel=0 note=71 velocity=0 time=3
note_on channel=0 note=73 velocity=55 time=13
note_on channel=0 note=73 velocity=0 time=227
note_on channel=0 note=61 velocity=55 time=13
note_on channel=0 note=69 velocity=55 time=0
note_on channel=0 note=61 velocity=0 time=78
note_on channel=0 note=69 velocity=0 time=0
note_on channel=0 note=61 velocity=55 time=162
note_on channel=0 note=68 velocity=55 time=0
note_on channel=0 note=61 velocity=0 time=78
note_on channel=0 note=68 velocity=0 time=0
note_on channel=0 note=59 velocity=55 time=162
note_on channel=0 note=66 velocity=55 time=0
note_on channel=0 note=59 velocity=0 time=157
note_on channel=0 note=66 velocity=0 time=0
note_on channel=0 note=59 velocity=55 time=323
note_on channel=0 note=65 velocity=55 time=0
note_on channel=0 note=59 velocity=0 time=455
note_on channel=0 note=65 velocity=0 time=0
note_on channel=0 note=57 velocity=64 time=25
note_on channel=0 note=61 velocity=64 time=0
note_on channel=0 note=66 velocity=64 time=0
note_on channel=0 note=57 velocity=0 time=455
note_on channel=0 note=61 velocity=0 time=0
note_on channel=0 note=66 velocity=0 time=0
note_on channel=0 note=61 velocity=64 time=25
note_on channel=0 note=61 velocity=0 time=113
note_on channel=0 note=73 velocity=64 time=7
note_on channel=0 note=73 velocity=0 time=113
note_on channel=0 note=73 velocity=73 time=7
note_on channel=0 note=73 velocity=0 time=113
note_on channel=0 note=68 velocity=64 time=7
note_on channel=0 note=68 velocity=0 time=113
note_on channel=0 note=80 velocity=64 time=7
note_on channel=0 note=80 velocity=0 time=113
note_on channel=0 note=85 velocity=64 time=7
note_on channel=0 note=85 velocity=0 time=113
note_on channel=0 note=80 velocity=64 time=7
note_on channel=0 note=80 velocity=0 time=113
note_on channel=0 note=73 velocity=64 time=7
note_on channel=0 note=73 velocity=0 time=113
note_on channel=0 note=85 velocity=64 time=7
note_on channel=0 note=97 velocity=64 time=82
note_on channel=0 note=97 velocity=0 time=396
note_on channel=0 note=85 velocity=0 time=1
note_on channel=0 note=69 velocity=58 time=1
note_on channel=0 note=69 velocity=0 time=683
note_on channel=0 note=73 velocity=58 time=37
note_on channel=0 note=73 velocity=0 time=227
note_on channel=0 note=73 velocity=58 time=13
note_on channel=0 note=79 velocity=58 time=0
note_on channel=0 note=73 velocity=0 time=227
note_on channel=0 note=79 velocity=0 time=0
note_on channel=0 note=78 velocity=58 time=13
note_on channel=0 note=78 velocity=0 time=455
note_on channel=0 note=78 velocity=58 time=25
note_on channel=0 note=78 velocity=0 time=170
note_on channel=0 note=78 velocity=58 time=10
control_change channel=0 control=64 value=0 time=1
control_change channel=0 control=64 value=127 time=1
note_on channel=0 note=78 velocity=0 time=54
note_on channel=0 note=76 velocity=58 time=4
note_on channel=0 note=76 velocity=0 time=227
note_on channel=0 note=74 velocity=58 time=13
note_on channel=0 note=74 velocity=0 time=227
note_on channel=0 note=73 velocity=58 time=13
note_on channel=0 note=73 velocity=0 time=227
note_on channel=0 note=71 velocity=58 time=13
note_on channel=0 note=71 velocity=0 time=227
note_on channel=0 note=73 velocity=58 time=13
control_change channel=0 control=64 value=0 time=1
control_change channel=0 control=64 value=127 time=1
note_on channel=0 note=73 velocity=0 time=453
note_on channel=0 note=66 velocity=58 time=25
note_on channel=0 note=66 velocity=0 time=0
note_on channel=0 note=78 velocity=58 time=240
note_on channel=0 note=78 velocity=0 time=170
note_on channel=0 note=78 velocity=58 time=10
control_change channel=0 control=64 value=0 time=1
control_change channel=0 control=64 value=127 time=1
note_on channel=0 note=78 velocity=0 time=54
note_on channel=0 note=76 velocity=58 time=4
note_on channel=0 note=76 velocity=0 time=227
note_on channel=0 note=74 velocity=58 time=13
note_on channel=0 note=74 velocity=0 time=227
note_on channel=0 note=73 velocity=58 time=13
note_on channel=0 note=73 velocity=0 time=227
note_on channel=0 note=71 velocity=58 time=13
note_on channel=0 note=71 velocity=0 time=227
note_on channel=0 note=73 velocity=58 time=13
control_change channel=0 control=64 value=0 time=1
control_change channel=0 control=64 value=127 time=1
note_on channel=0 note=73 velocity=0 time=225
note_on channel=0 note=78 velocity=58 time=13
note_on channel=0 note=78 velocity=0 time=227
note_on channel=0 note=66 velocity=58 time=13
note_on channel=0 note=66 velocity=0 time=0
note_on channel=0 note=73 velocity=58 time=240
note_on channel=0 note=73 velocity=0 time=170
note_on channel=0 note=73 velocity=58 time=10
control_change channel=0 control=64 value=0 time=1
note_on channel=0 note=73 velocity=0 time=55
note_on channel=0 note=71 velocity=58 time=4
note_on channel=0 note=71 velocity=0 time=227
note_on channel=0 note=69 velocity=58 time=13
note_on channel=0 note=69 velocity=0 time=119
note_on channel=0 note=68 velocity=58 time=121
note_on channel=0 note=68 velocity=0 time=119
note_on channel=0 note=66 velocity=58 time=121
note_on channel=0 note=66 velocity=0 time=119
note_on channel=0 note=66 velocity=58 time=121
note_on channel=0 note=66 velocity=0 time=119
note_on channel=0 note=61 velocity=58 time=121
note_on channel=0 note=61 velocity=0 time=78
note_on channel=0 note=68 velocity=58 time=162
note_on channel=0 note=68 velocity=0 time=227
note_on channel=0 note=73 velocity=58 time=13
note_on channel=0 note=73 velocity=0 time=227
note_on channel=0 note=61 velocity=58 time=13
note_on channel=0 note=69 velocity=58 time=0
control_change channel=0 control=2 value=58 time=121
note_on channel=0 note=61 velocity=0 time=36
note_on channel=0 note=69 velocity=0 time=0
note_on channel=0 note=61 velocity=59 time=323
note_on channel=0 note=68 velocity=59 time=0
control_change channel=0 control=2 value=59 time=153
note_on channel=0 note=61 velocity=0 time=4
note_on channel=0 note=68 velocity=0 time=0
control_change channel=0 control=2 value=60 time=252
note_on channel=0 note=69 velocity=61 time=71
note_on channel=0 note=61 velocity=61 time=0
control_change channel=0 control=64 value=127 time=2
control_change channel=0 control=2 value=61 time=183
note_on channel=0 note=69 velocity=0 time=42
note_on channel=0 note=64 velocity=62 time=13
control_change channel=0 control=2 value=62 time=201
note_on channel=0 note=61 velocity=0 time=14
note_on channel=0 note=64 velocity=0 time=12
note_on channel=0 note=73 velocity=63 time=13
control_change channel=0 control=2 value=63 time=217
note_on channel=0 note=73 velocity=0 time=10
note_on channel=0 note=78 velocity=64 time=13
note_on channel=0 note=78 velocity=0 time=170
note_on channel=0 note=78 velocity=65 time=10
control_change channel=0 control=64 value=0 time=1
control_change channel=0 control=64 value=127 time=1
control_change channel=0 control=2 value=64 time=51
note_on channel=0 note=78 velocity=0 time=3
note_on channel=0 note=76 velocity=65 time=4
note_on channel=0 note=76 velocity=0 time=227
note_on channel=0 note=74 velocity=66 time=13
control_change channel=0 control=2 value=65 time=9
note_on channel=0 note=74 velocity=0 time=218
note_on channel=0 note=73 velocity=67 time=13
control_change channel=0 control=2 value=66 time=25
note_on channel=0 note=73 velocity=0 time=202
note_on channel=0 note=71 velocity=68 time=13
control_change channel=0 control=2 value=67 time=41
note_on channel=0 note=71 velocity=0 time=186
note_on channel=0 note=73 velocity=69 time=13
control_change channel=0 control=64 value=0 time=1
control_change channel=0 control=2 value=68 time=56
note_on channel=0 note=73 velocity=0 time=170
note_on channel=0 note=69 velocity=69 time=13
control_change channel=0 control=2 value=69 time=73
note_on channel=0 note=69 velocity=0 time=154
note_on channel=0 note=76 velocity=70 time=13
control_change channel=0 control=2 value=70 time=89
note_on channel=0 note=76 velocity=0 time=138
note_on channel=0 note=83 velocity=71 time=13
control_change channel=0 control=2 value=71 time=105
note_on channel=0 note=83 velocity=0 time=122
note_on channel=0 note=81 velocity=72 time=13
control_change channel=0 control=64 value=127 time=2
control_change channel=0 control=2 value=72 time=119
note_on channel=0 note=81 velocity=0 time=106
note_on channel=0 note=80 velocity=73 time=13
control_change channel=0 control=2 value=73 time=137
note_on channel=0 note=80 velocity=0 time=90
note_on channel=0 note=78 velocity=74 time=13
control_change channel=0 control=2 value=74 time=153
note_on channel=0 note=78 velocity=0 time=74
note_on channel=0 note=80 velocity=75 time=13
control_change channel=0 control=2 value=75 time=169
note_on channel=0 note=80 velocity=0 time=1
note_on channel=0 note=73 velocity=67 time=10
control_change channel=0 control=64 value=0 time=1
control_change channel=0 control=64 value=127 time=1
note_on channel=0 note=78 velocity=67 time=28
note_on channel=0 note=85 velocity=76 time=30
control_change channel=0 control=2 value=76 time=185
note_on channel=0 note=73 velocity=0 time=152
note_on channel=0 note=78 velocity=0 time=2
note_on channel=0 note=85 velocity=0 time=2
note_on channel=0 note=73 velocity=77 time=19
control_change channel=0 control=2 value=77 time=81
note_on channel=0 note=73 velocity=0 time=32
note_on channel=0 note=77 velocity=78 time=7
note_on channel=0 note=85 velocity=78 time=0
control_change channel=0 control=2 value=78 time=217
note_on channel=0 note=77 velocity=0 time=10
note_on channel=0 note=85 velocity=0 time=0
note_on channel=0 note=73 velocity=79 time=13
note_on channel=0 note=73 velocity=0 time=227
control_change channel=0 control=2 value=79 time=6
note_on channel=0 note=69 velocity=80 time=7
note_on channel=0 note=73 velocity=80 time=0
note_on channel=0 note=78 velocity=80 time=0
control_change channel=0 control=64 value=0 time=1
note_on channel=0 note=69 velocity=0 time=910
note_on channel=0 note=73 velocity=0 time=0
note_on channel=0 note=78 velocity=0 time=0
note_on channel=0 note=70 velocity=80 time=49
note_on channel=0 note=73 velocity=80 time=0
note_on channel=0 note=79 velocity=80 time=0
note_on channel=0 note=70 velocity=0 time=683
note_on channel=0 note=73 velocity=0 time=0
note_on channel=0 note=79 velocity=0 time=0
note_on channel=0 note=70 velocity=80 time=37
note_on channel=0 note=73 velocity=80 time=0
note_on channel=0 note=78 velocity=80 time=0
note_on channel=0 note=70 velocity=0 time=227
note_on channel=0 note=73 velocity=0 time=0
note_on channel=0 note=78 velocity=0 time=0
note_on channel=0 note=66 velocity=80 time=13
note_on channel=0 note=69 velocity=80 time=0
note_on channel=0 note=76 velocity=80 time=0
note_on channel=0 note=66 velocity=0 time=227
note_on channel=0 note=69 velocity=0 time=0
note_on channel=0 note=76 velocity=0 time=0
note_on channel=0 note=62 velocity=80 time=13
note_on channel=0 note=62 velocity=0 time=113
note_on channel=0 note=69 velocity=80 time=7
note_on channel=0 note=69 velocity=0 time=113
note_on channel=0 note=74 velocity=80 time=7
note_on channel=0 note=74 velocity=0 time=227
note_on channel=0 note=66 velocity=80 time=13
note_on channel=0 note=66 velocity=0 time=227
note_on channel=0 note=61 velocity=80 time=13
note_on channel=0 note=66 velocity=80 time=0
note_on channel=0 note=73 velocity=80 time=0
note_on channel=0 note=61 velocity=0 time=157
note_on channel=0 note=66 velocity=0 time=0
note_on channel=0 note=73 velocity=0 time=0
note_on channel=0 note=65 velocity=96 time=323
note_on channel=0 note=71 velocity=96 time=0
note_on channel=0 note=73 velocity=96 time=0
note_on channel=0 note=65 velocity=0 time=455
note_on channel=0 note=71 velocity=0 time=0
note_on channel=0 note=73 velocity=0 time=0
note_on channel=0 note=54 velocity=96 time=25
note_on channel=0 note=57 velocity=96 time=0
note_on channel=0 note=61 velocity=96 time=0
note_on channel=0 note=54 velocity=0 time=341
note_on channel=0 note=57 velocity=0 time=0
note_on channel=0 note=61 velocity=0 time=0
note_on channel=0 note=73 velocity=96 time=19
note_on channel=0 note=85 velocity=96 time=0
note_on channel=0 note=73 velocity=0 time=113
note_on channel=0 note=85 velocity=0 time=0
note_on channel=0 note=73 velocity=96 time=7
note_on channel=0 note=78 velocity=96 time=0
note_on channel=0 note=85 velocity=96 time=0
note_on channel=0 note=73 velocity=0 time=455
note_on channel=0 note=78 velocity=0 time=0
note_on channel=0 note=85 velocity=0 time=0
note_on channel=0 note=54 velocity=96 time=25
note_on channel=0 note=56 velocity=96 time=0
note_on channel=0 note=59 velocity=96 time=0
note_on channel=0 note=62 velocity=96 time=0
note_on channel=0 note=54 velocity=0 time=341
note_on channel=0 note=56 velocity=0 time=0
note_on channel=0 note=59 velocity=0 time=0
note_on channel=0 note=62 velocity=0 time=0
note_on channel=0 note=74 velocity=96 time=19
note_on channel=0 note=86 velocity=96 time=0
note_on channel=0 note=74 velocity=0 time=113
note_on channel=0 note=86 velocity=0 time=0
note_on channel=0 note=74 velocity=96 time=7
note_on channel=0 note=80 velocity=96 time=0
note_on channel=0 note=86 velocity=96 time=0
note_on channel=0 note=74 velocity=0 time=455
note_on channel=0 note=80 velocity=0 time=0
note_on channel=0 note=86 velocity=0 time=0
note_on channel=0 note=73 velocity=96 time=25
note_on channel=0 note=78 velocity=96 time=0
note_on channel=0 note=85 velocity=96 time=0
note_on channel=0 note=73 velocity=0 time=303
note_on channel=0 note=78 velocity=0 time=0
note_on channel=0 note=85 velocity=0 time=0
note_on channel=0 note=73 velocity=82 time=17
note_on channel=0 note=73 velocity=0 time=75
note_on channel=0 note=78 velocity=82 time=5
note_on channel=0 note=78 velocity=0 time=75
note_on channel=0 note=71 velocity=82 time=5
note_on channel=0 note=77 velocity=82 time=0
note_on channel=0 note=81 velocity=82 time=0
note_on channel=0 note=71 velocity=0 time=119
note_on channel=0 note=77 velocity=0 time=0
note_on channel=0 note=81 velocity=0 time=0
note_on channel=0 note=71 velocity=82 time=121
note_on channel=0 note=77 velocity=82 time=0
note_on channel=0 note=71 velocity=0 time=119
note_on channel=0 note=77 velocity=0 time=0
note_on channel=0 note=69 velocity=82 time=121
note_on channel=0 note=73 velocity=82 time=0
note_on channel=0 note=78 velocity=82 time=0
note_on channel=0 note=69 velocity=0 time=227
note_on channel=0 note=73 velocity=0 time=0
note_on channel=0 note=78 velocity=0 time=0
note_on channel=0 note=78 velocity=64 time=133
note_on channel=0 note=81 velocity=64 time=40
note_on channel=0 note=85 velocity=64 time=40
note_on channel=0 note=90 velocity=64 time=40
note_on channel=0 note=78 velocity=0 time=113
note_on channel=0 note=81 velocity=0 time=2
note_on channel=0 note=85 velocity=0 time=2
note_on channel=0 note=90 velocity=0 time=2
note_on channel=0 note=92 velocity=64 time=121
note_on channel=0 note=92 velocity=0 time=119
note_on channel=0 note=85 velocity=64 time=121
note_on channel=0 note=93 velocity=64 time=0
note_on channel=0 note=85 velocity=0 time=227
note_on channel=0 note=93 velocity=0 time=0
note_on channel=0 note=81 velocity=64 time=13
note_on channel=0 note=81 velocity=0 time=227
note_on channel=0 note=85 velocity=64 time=13
note_on channel=0 note=85 velocity=0 time=227
note_on channel=0 note=93 velocity=64 time=13
note_on channel=0 note=93 velocity=0 time=227
note_on channel=0 note=86 velocity=64 time=13
note_on channel=0 note=92 velocity=64 time=0
note_on channel=0 note=86 velocity=0 time=227
note_on channel=0 note=92 velocity=0 time=0
note_on channel=0 note=83 velocity=64 time=13
note_on channel=0 note=83 velocity=0 time=227
note_on channel=0 note=86 velocity=64 time=13
note_on channel=0 note=86 velocity=0 time=227
note_on channel=0 note=92 velocity=64 time=13
note_on channel=0 note=92 velocity=0 time=227
note_on channel=0 note=81 velocity=64 time=13
note_on channel=0 note=90 velocity=64 time=0
note_on channel=0 note=81 velocity=0 time=227
note_on channel=0 note=90 velocity=0 time=0
note_on channel=0 note=78 velocity=64 time=13
note_on channel=0 note=78 velocity=0 time=227
note_on channel=0 note=81 velocity=64 time=13
note_on channel=0 note=81 velocity=0 time=227
note_on channel=0 note=88 velocity=64 time=13
note_on channel=0 note=88 velocity=0 time=227
note_on channel=0 note=81 velocity=64 time=13
note_on channel=0 note=86 velocity=64 time=0
note_on channel=0 note=81 velocity=0 time=227
note_on channel=0 note=86 velocity=0 time=0
note_on channel=0 note=78 velocity=64 time=13
note_on channel=0 note=78 velocity=0 time=227
note_on channel=0 note=81 velocity=64 time=13
note_on channel=0 note=81 velocity=0 time=227
note_on channel=0 note=86 velocity=64 time=13
note_on channel=0 note=86 velocity=0 time=227
<meta message key_signature key='A' time=13>
note_on channel=0 note=85 velocity=64 time=0
note_on channel=0 note=85 velocity=0 time=455
note_on channel=0 note=78 velocity=64 time=25
note_on channel=0 note=78 velocity=0 time=341
note_on channel=0 note=77 velocity=64 time=19
note_on channel=0 note=80 velocity=64 time=60
note_on channel=0 note=85 velocity=64 time=60
note_on channel=0 note=77 velocity=0 time=420
note_on channel=0 note=80 velocity=0 time=3
note_on channel=0 note=85 velocity=0 time=3
note_on channel=0 note=71 velocity=60 time=24
note_on channel=0 note=81 velocity=64 time=30
note_on channel=0 note=71 velocity=0 time=225
note_on channel=0 note=81 velocity=0 time=2
note_on channel=0 note=80 velocity=64 time=13
note_on channel=0 note=80 velocity=0 time=227
note_on channel=0 note=69 velocity=64 time=13
note_on channel=0 note=73 velocity=64 time=0
note_on channel=0 note=78 velocity=64 time=0
note_on channel=0 note=69 velocity=0 time=239
note_on channel=0 note=73 velocity=0 time=0
note_on channel=0 note=78 velocity=0 time=0
note_on channel=0 note=65 velocity=64 time=1201
note_on channel=0 note=71 velocity=64 time=0
note_on channel=0 note=73 velocity=64 time=0
note_on channel=0 note=65 velocity=0 time=157
note_on channel=0 note=71 velocity=0 time=0
note_on channel=0 note=73 velocity=0 time=0
note_on channel=0 note=61 velocity=64 time=323
note_on channel=0 note=69 velocity=64 time=0
note_on channel=0 note=61 velocity=0 time=157
note_on channel=0 note=69 velocity=0 time=0
note_on channel=0 note=64 velocity=64 time=323
note_on channel=0 note=71 velocity=64 time=0
note_on channel=0 note=64 velocity=0 time=157
note_on channel=0 note=71 velocity=0 time=0
note_on channel=0 note=64 velocity=64 time=323
note_on channel=0 note=73 velocity=64 time=0
note_on channel=0 note=64 velocity=0 time=455
note_on channel=0 note=73 velocity=0 time=0
note_on channel=0 note=69 velocity=64 time=25
note_on channel=0 note=69 velocity=0 time=227
note_on channel=0 note=76 velocity=64 time=13
note_on channel=0 note=76 velocity=0 time=170
note_on channel=0 note=78 velocity=64 time=10
note_on channel=0 note=78 velocity=0 time=56
note_on channel=0 note=66 velocity=64 time=4
note_on channel=0 note=71 velocity=64 time=0
note_on channel=0 note=76 velocity=64 time=0
note_on channel=0 note=66 velocity=0 time=239
note_on channel=0 note=71 velocity=0 time=0
note_on channel=0 note=76 velocity=0 time=0
note_on channel=0 note=74 velocity=64 time=1
note_on channel=0 note=74 velocity=0 time=119
note_on channel=0 note=73 velocity=64 time=121
note_on channel=0 note=73 velocity=0 time=119
note_on channel=0 note=71 velocity=64 time=121
note_on channel=0 note=71 velocity=0 time=119
note_on channel=0 note=61 velocity=64 time=121
note_on channel=0 note=66 velocity=64 time=0
note_on channel=0 note=69 velocity=64 time=0
note_on channel=0 note=73 velocity=64 time=0
note_on channel=0 note=61 velocity=0 time=239
note_on channel=0 note=66 velocity=0 time=0
note_on channel=0 note=69 velocity=0 time=0
note_on channel=0 note=73 velocity=0 time=0
note_on channel=0 note=66 velocity=64 time=241
note_on channel=0 note=66 velocity=0 time=227
note_on channel=0 note=76 velocity=64 time=13
note_on channel=0 note=76 velocity=0 time=170
note_on channel=0 note=78 velocity=64 time=10
note_on channel=0 note=78 velocity=0 time=56
note_on channel=0 note=66 velocity=64 time=4
note_on channel=0 note=71 velocity=64 time=0
note_on channel=0 note=76 velocity=64 time=0
note_on channel=0 note=66 velocity=0 time=239
note_on channel=0 note=71 velocity=0 time=0
note_on channel=0 note=76 velocity=0 time=0
note_on channel=0 note=74 velocity=64 time=1
note_on channel=0 note=74 velocity=0 time=119
note_on channel=0 note=73 velocity=64 time=121
note_on channel=0 note=73 velocity=0 time=119
note_on channel=0 note=71 velocity=64 time=121
note_on channel=0 note=71 velocity=0 time=119
note_on channel=0 note=61 velocity=64 time=121
note_on channel=0 note=66 velocity=64 time=0
note_on channel=0 note=69 velocity=64 time=0
note_on channel=0 note=73 velocity=64 time=0
note_on channel=0 note=61 velocity=0 time=239
note_on channel=0 note=66 velocity=0 time=0
note_on channel=0 note=69 velocity=0 time=0
note_on channel=0 note=73 velocity=0 time=0
note_on channel=0 note=61 velocity=64 time=241
note_on channel=0 note=61 velocity=0 time=227
note_on channel=0 note=69 velocity=64 time=13
note_on channel=0 note=69 velocity=0 time=170
note_on channel=0 note=71 velocity=64 time=10
note_on channel=0 note=71 velocity=0 time=56
note_on channel=0 note=59 velocity=64 time=4
note_on channel=0 note=62 velocity=64 time=0
note_on channel=0 note=69 velocity=64 time=0
note_on channel=0 note=59 velocity=0 time=239
note_on channel=0 note=62 velocity=0 time=0
note_on channel=0 note=69 velocity=0 time=0
note_on channel=0 note=68 velocity=64 time=1
note_on channel=0 note=68 velocity=0 time=119
note_on channel=0 note=66 velocity=64 time=121
note_on channel=0 note=66 velocity=0 time=119
note_on channel=0 note=68 velocity=64 time=121
note_on channel=0 note=68 velocity=0 time=119
note_on channel=0 note=56 velocity=64 time=121
note_on channel=0 note=61 velocity=64 time=0
note_on channel=0 note=66 velocity=64 time=0
note_on channel=0 note=56 velocity=0 time=239
note_on channel=0 note=61 velocity=0 time=0
note_on channel=0 note=66 velocity=0 time=0
note_on channel=0 note=56 velocity=64 time=241
note_on channel=0 note=59 velocity=64 time=0
note_on channel=0 note=65 velocity=64 time=0
note_on channel=0 note=56 velocity=0 time=227
note_on channel=0 note=59 velocity=0 time=0
note_on channel=0 note=65 velocity=0 time=0
note_on channel=0 note=61 velocity=64 time=13
note_on channel=0 note=61 velocity=0 time=227
note_on channel=0 note=61 velocity=64 time=13
note_on channel=0 note=69 velocity=64 time=0
note_on channel=0 note=61 velocity=0 time=157
note_on channel=0 note=69 velocity=0 time=0
note_on channel=0 note=61 velocity=64 time=323
note_on channel=0 note=65 velocity=64 time=0
note_on channel=0 note=71 velocity=64 time=0
note_on channel=0 note=61 velocity=0 time=157
note_on channel=0 note=65 velocity=0 time=0
note_on channel=0 note=71 velocity=0 time=0
note_on channel=0 note=61 velocity=64 time=323
note_on channel=0 note=66 velocity=64 time=0
note_on channel=0 note=69 velocity=64 time=0
note_on channel=0 note=73 velocity=64 time=0
note_on channel=0 note=61 velocity=0 time=455
note_on channel=0 note=66 velocity=0 time=0
note_on channel=0 note=69 velocity=0 time=0
note_on channel=0 note=73 velocity=0 time=0
note_on channel=0 note=69 velocity=64 time=25
note_on channel=0 note=69 velocity=0 time=227
note_on channel=0 note=76 velocity=64 time=13
note_on channel=0 note=76 velocity=0 time=170
note_on channel=0 note=78 velocity=64 time=10
note_on channel=0 note=78 velocity=0 time=56
note_on channel=0 note=66 velocity=64 time=4
note_on channel=0 note=68 velocity=64 time=0
note_on channel=0 note=71 velocity=64 time=0
note_on channel=0 note=76 velocity=64 time=0
note_on channel=0 note=66 velocity=0 time=239
note_on channel=0 note=68 velocity=0 time=0
note_on channel=0 note=71 velocity=0 time=0
note_on channel=0 note=76 velocity=0 time=0
note_on channel=0 note=74 velocity=64 time=1
note_on channel=0 note=74 velocity=0 time=119
note_on channel=0 note=73 velocity=64 time=121
note_on channel=0 note=73 velocity=0 time=119
note_on channel=0 note=71 velocity=64 time=121
note_on channel=0 note=71 velocity=0 time=119
note_on channel=0 note=61 velocity=64 time=121
note_on channel=0 note=66 velocity=64 time=0
note_on channel=0 note=69 velocity=64 time=0
note_on channel=0 note=73 velocity=64 time=0
note_on channel=0 note=61 velocity=0 time=227
note_on channel=0 note=66 velocity=0 time=0
note_on channel=0 note=69 velocity=0 time=0
note_on channel=0 note=73 velocity=0 time=0
note_on channel=0 note=66 velocity=64 time=253
note_on channel=0 note=66 velocity=0 time=227
note_on channel=0 note=76 velocity=64 time=13
note_on channel=0 note=76 velocity=0 time=170
note_on channel=0 note=78 velocity=64 time=10
note_on channel=0 note=78 velocity=0 time=56
note_on channel=0 note=66 velocity=64 time=4
note_on channel=0 note=71 velocity=64 time=0
note_on channel=0 note=76 velocity=64 time=0
note_on channel=0 note=66 velocity=0 time=239
note_on channel=0 note=71 velocity=0 time=0
note_on channel=0 note=76 velocity=0 time=0
note_on channel=0 note=74 velocity=64 time=1
note_on channel=0 note=74 velocity=0 time=119
note_on channel=0 note=73 velocity=64 time=121
note_on channel=0 note=73 velocity=0 time=119
note_on channel=0 note=71 velocity=64 time=121
note_on channel=0 note=71 velocity=0 time=119
note_on channel=0 note=66 velocity=64 time=121
note_on channel=0 note=69 velocity=64 time=0
note_on channel=0 note=73 velocity=64 time=0
note_on channel=0 note=66 velocity=0 time=227
note_on channel=0 note=69 velocity=0 time=0
note_on channel=0 note=73 velocity=0 time=0
note_on channel=0 note=61 velocity=64 time=13
note_on channel=0 note=61 velocity=0 time=119
note_on channel=0 note=65 velocity=64 time=121
note_on channel=0 note=69 velocity=64 time=0
note_on channel=0 note=65 velocity=0 time=119
note_on channel=0 note=69 velocity=0 time=0
note_on channel=0 note=68 velocity=64 time=121
note_on channel=0 note=68 velocity=0 time=119
note_on channel=0 note=57 velocity=64 time=121
note_on channel=0 note=61 velocity=64 time=0
note_on channel=0 note=66 velocity=64 time=0
note_on channel=0 note=57 velocity=0 time=911
note_on channel=0 note=61 velocity=0 time=0
note_on channel=0 note=66 velocity=0 time=0
note_on channel=0 note=64 velocity=64 time=529
note_on channel=0 note=76 velocity=64 time=0
note_on channel=0 note=64 velocity=0 time=227
note_on channel=0 note=76 velocity=0 time=0
note_on channel=0 note=69 velocity=64 time=13
note_on channel=0 note=81 velocity=64 time=0
note_on channel=0 note=69 velocity=0 time=113
note_on channel=0 note=81 velocity=0 time=0
note_on channel=0 note=71 velocity=64 time=7
note_on channel=0 note=83 velocity=64 time=0
note_on channel=0 note=71 velocity=0 time=113
note_on channel=0 note=83 velocity=0 time=0
note_on channel=0 note=73 velocity=64 time=7
note_on channel=0 note=85 velocity=64 time=0
note_on channel=0 note=73 velocity=0 time=119
note_on channel=0 note=85 velocity=0 time=0
note_on channel=0 note=73 velocity=64 time=121
note_on channel=0 note=85 velocity=64 time=0
note_on channel=0 note=73 velocity=0 time=119
note_on channel=0 note=85 velocity=0 time=0
note_on channel=0 note=73 velocity=64 time=121
note_on channel=0 note=85 velocity=64 time=0
note_on channel=0 note=73 velocity=0 time=239
note_on channel=0 note=85 velocity=0 time=0
note_on channel=0 note=76 velocity=64 time=1
note_on channel=0 note=88 velocity=64 time=0
note_on channel=0 note=76 velocity=0 time=119
note_on channel=0 note=88 velocity=0 time=0
note_on channel=0 note=73 velocity=64 time=121
note_on channel=0 note=85 velocity=64 time=0
note_on channel=0 note=73 velocity=0 time=239
note_on channel=0 note=85 velocity=0 time=0
note_on channel=0 note=71 velocity=64 time=1
note_on channel=0 note=83 velocity=64 time=0
note_on channel=0 note=71 velocity=0 time=119
note_on channel=0 note=83 velocity=0 time=0
note_on channel=0 note=69 velocity=64 time=121
note_on channel=0 note=81 velocity=64 time=0
note_on channel=0 note=69 velocity=0 time=119
note_on channel=0 note=81 velocity=0 time=0
note_on channel=0 note=68 velocity=64 time=121
note_on channel=0 note=80 velocity=64 time=0
note_on channel=0 note=68 velocity=0 time=119
note_on channel=0 note=80 velocity=0 time=0
note_on channel=0 note=69 velocity=64 time=121
note_on channel=0 note=81 velocity=64 time=0
note_on channel=0 note=69 velocity=0 time=119
note_on channel=0 note=81 velocity=0 time=0
note_on channel=0 note=69 velocity=64 time=121
note_on channel=0 note=81 velocity=64 time=0
note_on channel=0 note=69 velocity=0 time=119
note_on channel=0 note=81 velocity=0 time=0
note_on channel=0 note=69 velocity=64 time=121
note_on channel=0 note=81 velocity=64 time=0
note_on channel=0 note=69 velocity=0 time=239
note_on channel=0 note=81 velocity=0 time=0
note_on channel=0 note=71 velocity=64 time=1
note_on channel=0 note=83 velocity=64 time=0
note_on channel=0 note=71 velocity=0 time=119
note_on channel=0 note=83 velocity=0 time=0
note_on channel=0 note=69 velocity=64 time=121
note_on channel=0 note=81 velocity=64 time=0
note_on channel=0 note=69 velocity=0 time=239
note_on channel=0 note=81 velocity=0 time=0
note_on channel=0 note=68 velocity=64 time=1
note_on channel=0 note=80 velocity=64 time=0
note_on channel=0 note=68 velocity=0 time=119
note_on channel=0 note=80 velocity=0 time=0
note_on channel=0 note=66 velocity=64 time=121
note_on channel=0 note=78 velocity=64 time=0
note_on channel=0 note=66 velocity=0 time=239
note_on channel=0 note=78 velocity=0 time=0
note_on channel=0 note=65 velocity=64 time=1
note_on channel=0 note=77 velocity=64 time=0
note_on channel=0 note=65 velocity=0 time=119
note_on channel=0 note=77 velocity=0 time=0
note_on channel=0 note=66 velocity=64 time=121
note_on channel=0 note=78 velocity=64 time=0
note_on channel=0 note=66 velocity=0 time=479
note_on channel=0 note=78 velocity=0 time=0
note_on channel=0 note=78 velocity=64 time=1
note_on channel=0 note=90 velocity=64 time=0
note_on channel=0 note=78 velocity=0 time=455
note_on channel=0 note=90 velocity=0 time=0
note_on channel=0 note=76 velocity=64 time=25
note_on channel=0 note=88 velocity=64 time=0
note_on channel=0 note=76 velocity=0 time=119
note_on channel=0 note=88 velocity=0 time=0
note_on channel=0 note=74 velocity=64 time=121
note_on channel=0 note=86 velocity=64 time=0
note_on channel=0 note=74 velocity=0 time=119
note_on channel=0 note=86 velocity=0 time=0
note_on channel=0 note=73 velocity=64 time=121
note_on channel=0 note=85 velocity=64 time=0
note_on channel=0 note=73 velocity=0 time=119
note_on channel=0 note=85 velocity=0 time=0
note_on channel=0 note=83 velocity=64 time=121
note_on channel=0 note=95 velocity=64 time=0
note_on channel=0 note=83 velocity=0 time=119
note_on channel=0 note=95 velocity=0 time=0
note_on channel=0 note=81 velocity=64 time=121
note_on channel=0 note=93 velocity=64 time=0
note_on channel=0 note=81 velocity=0 time=239
note_on channel=0 note=93 velocity=0 time=0
note_on channel=0 note=80 velocity=64 time=1
note_on channel=0 note=92 velocity=64 time=0
note_on channel=0 note=80 velocity=0 time=119
note_on channel=0 note=92 velocity=0 time=0
note_on channel=0 note=78 velocity=64 time=121
note_on channel=0 note=90 velocity=64 time=0
note_on channel=0 note=78 velocity=0 time=119
note_on channel=0 note=90 velocity=0 time=0
note_on channel=0 note=77 velocity=64 time=121
note_on channel=0 note=89 velocity=64 time=0
note_on channel=0 note=77 velocity=0 time=119
note_on channel=0 note=89 velocity=0 time=0
note_on channel=0 note=78 velocity=64 time=121
note_on channel=0 note=90 velocity=64 time=0
note_on channel=0 note=78 velocity=0 time=239
note_on channel=0 note=90 velocity=0 time=0
note_on channel=0 note=73 velocity=64 time=241
note_on channel=0 note=73 velocity=0 time=113
note_on channel=0 note=78 velocity=64 time=7
note_on channel=0 note=78 velocity=0 time=113
note_on channel=0 note=81 velocity=64 time=7
note_on channel=0 note=81 velocity=0 time=113
note_on channel=0 note=85 velocity=64 time=7
note_on channel=0 note=85 velocity=0 time=113
note_on channel=0 note=88 velocity=64 time=7
note_on channel=0 note=88 velocity=0 time=119
note_on channel=0 note=76 velocity=64 time=121
note_on channel=0 note=76 velocity=0 time=113
note_on channel=0 note=80 velocity=64 time=7
note_on channel=0 note=80 velocity=0 time=113
note_on channel=0 note=88 velocity=64 time=7
note_on channel=0 note=88 velocity=0 time=113
note_on channel=0 note=76 velocity=64 time=7
note_on channel=0 note=76 velocity=0 time=113
note_on channel=0 note=80 velocity=64 time=7
note_on channel=0 note=80 velocity=0 time=113
note_on channel=0 note=90 velocity=64 time=7
note_on channel=0 note=90 velocity=0 time=113
note_on channel=0 note=88 velocity=64 time=7
note_on channel=0 note=88 velocity=0 time=113
note_on channel=0 note=76 velocity=64 time=7
note_on channel=0 note=76 velocity=0 time=113
note_on channel=0 note=80 velocity=64 time=7
note_on channel=0 note=80 velocity=0 time=113
note_on channel=0 note=86 velocity=64 time=7
note_on channel=0 note=86 velocity=0 time=113
note_on channel=0 note=85 velocity=64 time=7
note_on channel=0 note=85 velocity=0 time=113
note_on channel=0 note=76 velocity=64 time=7
note_on channel=0 note=76 velocity=0 time=113
note_on channel=0 note=80 velocity=64 time=7
note_on channel=0 note=80 velocity=0 time=113
note_on channel=0 note=86 velocity=64 time=7
note_on channel=0 note=86 velocity=0 time=113
note_on channel=0 note=85 velocity=64 time=7
note_on channel=0 note=85 velocity=0 time=119
note_on channel=0 note=69 velocity=64 time=121
note_on channel=0 note=69 velocity=0 time=0
note_on channel=0 note=77 velocity=64 time=120
note_on channel=0 note=77 velocity=0 time=113
note_on channel=0 note=85 velocity=64 time=7
note_on channel=0 note=85 velocity=0 time=113
note_on channel=0 note=73 velocity=64 time=7
note_on channel=0 note=73 velocity=0 time=113
note_on channel=0 note=77 velocity=64 time=7
note_on channel=0 note=77 velocity=0 time=113
note_on channel=0 note=86 velocity=64 time=7
note_on channel=0 note=86 velocity=0 time=113
note_on channel=0 note=85 velocity=64 time=7
note_on channel=0 note=85 velocity=0 time=113
note_on channel=0 note=69 velocity=64 time=7
note_on channel=0 note=69 velocity=0 time=113
note_on channel=0 note=73 velocity=64 time=7
note_on channel=0 note=73 velocity=0 time=113
note_on channel=0 note=80 velocity=64 time=7
note_on channel=0 note=80 velocity=0 time=113
note_on channel=0 note=78 velocity=64 time=7
note_on channel=0 note=78 velocity=0 time=113
note_on channel=0 note=73 velocity=64 time=7
note_on channel=0 note=73 velocity=0 time=113
note_on channel=0 note=78 velocity=64 time=7
note_on channel=0 note=78 velocity=0 time=113
note_on channel=0 note=83 velocity=64 time=7
note_on channel=0 note=83 velocity=0 time=113
note_on channel=0 note=85 velocity=64 time=7
note_on channel=0 note=85 velocity=0 time=119
note_on channel=0 note=74 velocity=64 time=241
note_on channel=0 note=74 velocity=0 time=113
note_on channel=0 note=80 velocity=64 time=7
note_on channel=0 note=80 velocity=0 time=113
note_on channel=0 note=74 velocity=64 time=7
note_on channel=0 note=74 velocity=0 time=113
note_on channel=0 note=78 velocity=64 time=7
note_on channel=0 note=78 velocity=0 time=113
note_on channel=0 note=83 velocity=64 time=7
note_on channel=0 note=83 velocity=0 time=113
note_on channel=0 note=81 velocity=64 time=7
note_on channel=0 note=81 velocity=0 time=113
note_on channel=0 note=73 velocity=64 time=7
note_on channel=0 note=73 velocity=0 time=113
note_on channel=0 note=78 velocity=64 time=7
note_on channel=0 note=78 velocity=0 time=113
note_on channel=0 note=85 velocity=64 time=7
note_on channel=0 note=85 velocity=0 time=113
note_on channel=0 note=81 velocity=64 time=7
note_on channel=0 note=81 velocity=0 time=113
note_on channel=0 note=85 velocity=64 time=7
note_on channel=0 note=85 velocity=0 time=113
note_on channel=0 note=90 velocity=64 time=7
note_on channel=0 note=90 velocity=0 time=113
note_on channel=0 note=78 velocity=64 time=7
note_on channel=0 note=78 velocity=0 time=113
note_on channel=0 note=80 velocity=64 time=7
control_change channel=0 control=2 value=64 time=0
control_change channel=0 control=2 value=65 time=96
note_on channel=0 note=80 velocity=0 time=17
note_on channel=0 note=85 velocity=65 time=7
control_change channel=0 control=2 value=66 time=72
note_on channel=0 note=85 velocity=0 time=41
note_on channel=0 note=89 velocity=66 time=7
control_change channel=0 control=2 value=67 time=48
note_on channel=0 note=89 velocity=0 time=65
note_on channel=0 note=95 velocity=67 time=7
control_change channel=0 control=2 value=68 time=24
note_on channel=0 note=95 velocity=0 time=89
note_on channel=0 note=81 velocity=69 time=7
note_on channel=0 note=93 velocity=69 time=0
control_change channel=0 control=2 value=69 time=0
control_change channel=0 control=2 value=70 time=96
control_change channel=0 control=2 value=71 time=96
note_on channel=0 note=81 velocity=0 time=47
note_on channel=0 note=93 velocity=0 time=0
note_on channel=0 note=80 velocity=71 time=1
note_on channel=0 note=92 velocity=71 time=0
control_change channel=0 control=2 value=72 time=48
note_on channel=0 note=80 velocity=0 time=71
note_on channel=0 note=92 velocity=0 time=0
control_change channel=0 control=2 value=73 time=25
note_on channel=0 note=78 velocity=74 time=96
note_on channel=0 note=85 velocity=74 time=0
note_on channel=0 note=90 velocity=74 time=0
note_on channel=0 note=78 velocity=0 time=239
note_on channel=0 note=85 velocity=0 time=0
note_on channel=0 note=90 velocity=0 time=0
note_on channel=0 note=66 velocity=96 time=721
control_change channel=0 control=2 value=120 time=60
control_change channel=0 control=2 value=119 time=2
control_change channel=0 control=2 value=118 time=1
control_change channel=0 control=2 value=117 time=2
control_change channel=0 control=2 value=116 time=1
control_change channel=0 control=2 value=115 time=2
control_change channel=0 control=2 value=114 time=1
control_change channel=0 control=2 value=113 time=2
control_change channel=0 control=2 value=112 time=1
control_change channel=0 control=2 value=111 time=2
control_change channel=0 control=2 value=110 time=1
control_change channel=0 control=2 value=109 time=2
control_change channel=0 control=2 value=108 time=1
control_change channel=0 control=2 value=107 time=2
control_change channel=0 control=2 value=106 time=1
control_change channel=0 control=2 value=105 time=2
control_change channel=0 control=2 value=104 time=1
control_change channel=0 control=2 value=103 time=2
control_change channel=0 control=2 value=102 time=1
control_change channel=0 control=2 value=101 time=2
control_change channel=0 control=2 value=100 time=1
control_change channel=0 control=2 value=99 time=2
control_change channel=0 control=2 value=98 time=1
control_change channel=0 control=2 value=97 time=2
control_change channel=0 control=2 value=96 time=1
control_change channel=0 control=2 value=95 time=2
control_change channel=0 control=2 value=94 time=1
control_change channel=0 control=2 value=93 time=2
control_change channel=0 control=2 value=92 time=1
control_change channel=0 control=2 value=91 time=2
control_change channel=0 control=2 value=90 time=1
control_change channel=0 control=2 value=89 time=2
control_change channel=0 control=2 value=88 time=1
control_change channel=0 control=2 value=87 time=2
control_change channel=0 control=2 value=86 time=1
control_change channel=0 control=2 value=85 time=2
control_change channel=0 control=2 value=84 time=1
control_change channel=0 control=2 value=83 time=2
control_change channel=0 control=2 value=82 time=1
control_change channel=0 control=2 value=81 time=2
note_on channel=0 note=66 velocity=0 time=240
note_on channel=0 note=65 velocity=80 time=1
note_on channel=0 note=65 velocity=0 time=113
note_on channel=0 note=66 velocity=80 time=7
note_on channel=0 note=66 velocity=0 time=113
note_on channel=0 note=68 velocity=80 time=7
note_on channel=0 note=68 velocity=0 time=113
note_on channel=0 note=69 velocity=80 time=7
note_on channel=0 note=69 velocity=0 time=113
note_on channel=0 note=71 velocity=80 time=7
note_on channel=0 note=71 velocity=0 time=113
note_on channel=0 note=73 velocity=80 time=7
note_on channel=0 note=73 velocity=0 time=113
note_on channel=0 note=78 velocity=80 time=7
note_on channel=0 note=78 velocity=0 time=113
note_on channel=0 note=73 velocity=80 time=7
note_on channel=0 note=73 velocity=0 time=113
note_on channel=0 note=78 velocity=80 time=7
note_on channel=0 note=78 velocity=0 time=113
note_on channel=0 note=71 velocity=80 time=7
note_on channel=0 note=71 velocity=0 time=113
note_on channel=0 note=78 velocity=80 time=7
note_on channel=0 note=78 velocity=0 time=113
note_on channel=0 note=71 velocity=80 time=7
note_on channel=0 note=71 velocity=0 time=113
note_on channel=0 note=78 velocity=80 time=7
note_on channel=0 note=78 velocity=0 time=113
note_on channel=0 note=73 velocity=80 time=7
note_on channel=0 note=73 velocity=0 time=113
note_on channel=0 note=81 velocity=80 time=7
note_on channel=0 note=81 velocity=0 time=113
note_on channel=0 note=78 velocity=80 time=7
note_on channel=0 note=78 velocity=0 time=113
note_on channel=0 note=85 velocity=80 time=7
note_on channel=0 note=85 velocity=0 time=113
note_on channel=0 note=78 velocity=80 time=7
note_on channel=0 note=78 velocity=0 time=113
note_on channel=0 note=86 velocity=80 time=7
note_on channel=0 note=86 velocity=0 time=113
note_on channel=0 note=83 velocity=80 time=7
note_on channel=0 note=83 velocity=0 time=113
note_on channel=0 note=78 velocity=80 time=7
note_on channel=0 note=78 velocity=0 time=113
note_on channel=0 note=81 velocity=80 time=7
note_on channel=0 note=81 velocity=0 time=113
note_on channel=0 note=78 velocity=80 time=7
note_on channel=0 note=78 velocity=0 time=113
note_on channel=0 note=73 velocity=80 time=7
note_on channel=0 note=73 velocity=0 time=113
note_on channel=0 note=69 velocity=80 time=7
note_on channel=0 note=69 velocity=0 time=113
note_on channel=0 note=56 velocity=80 time=7
note_on channel=0 note=59 velocity=80 time=0
note_on channel=0 note=65 velocity=80 time=0
note_on channel=0 note=56 velocity=0 time=227
note_on channel=0 note=59 velocity=0 time=0
note_on channel=0 note=65 velocity=0 time=0
note_on channel=0 note=56 velocity=80 time=13
note_on channel=0 note=59 velocity=80 time=0
note_on channel=0 note=65 velocity=80 time=0
note_on channel=0 note=56 velocity=0 time=227
note_on channel=0 note=59 velocity=0 time=0
note_on channel=0 note=65 velocity=0 time=0
note_on channel=0 note=66 velocity=92 time=13
note_on channel=0 note=66 velocity=0 time=341
note_on channel=0 note=73 velocity=80 time=19
note_on channel=0 note=73 velocity=0 time=113
note_on channel=0 note=73 velocity=80 time=7
note_on channel=0 note=73 velocity=0 time=113
note_on channel=0 note=85 velocity=80 time=7
note_on channel=0 note=85 velocity=0 time=113
note_on channel=0 note=81 velocity=80 time=7
note_on channel=0 note=81 velocity=0 time=113
note_on channel=0 note=78 velocity=80 time=7
note_on channel=0 note=78 velocity=0 time=113
note_on channel=0 note=83 velocity=80 time=7
note_on channel=0 note=83 velocity=0 time=113
note_on channel=0 note=90 velocity=80 time=7
note_on channel=0 note=90 velocity=0 time=113
note_on channel=0 note=86 velocity=80 time=7
note_on channel=0 note=86 velocity=0 time=113
note_on channel=0 note=83 velocity=80 time=7
note_on channel=0 note=83 velocity=0 time=113
note_on channel=0 note=86 velocity=80 time=7
note_on channel=0 note=86 velocity=0 time=113
note_on channel=0 note=78 velocity=80 time=7
note_on channel=0 note=78 velocity=0 time=113
note_on channel=0 note=74 velocity=80 time=7
note_on channel=0 note=74 velocity=0 time=113
note_on channel=0 note=71 velocity=80 time=7
note_on channel=0 note=71 velocity=0 time=113
note_on channel=0 note=73 velocity=80 time=7
note_on channel=0 note=73 velocity=0 time=227
note_on channel=0 note=65 velocity=80 time=13
note_on channel=0 note=69 velocity=80 time=0
note_on channel=0 note=65 velocity=0 time=113
note_on channel=0 note=69 velocity=0 time=0
note_on channel=0 note=65 velocity=80 time=7
note_on channel=0 note=69 velocity=80 time=0
note_on channel=0 note=65 velocity=0 time=113
note_on channel=0 note=69 velocity=0 time=0
note_on channel=0 note=65 velocity=80 time=7
note_on channel=0 note=69 velocity=80 time=0
note_on channel=0 note=65 velocity=0 time=227
note_on channel=0 note=69 velocity=0 time=0
note_on channel=0 note=68 velocity=80 time=13
note_on channel=0 note=71 velocity=80 time=0
note_on channel=0 note=77 velocity=80 time=0
note_on channel=0 note=68 velocity=0 time=119
note_on channel=0 note=71 velocity=0 time=0
note_on channel=0 note=77 velocity=0 time=0
note_on channel=0 note=66 velocity=80 time=121
note_on channel=0 note=69 velocity=80 time=0
note_on channel=0 note=73 velocity=80 time=0
note_on channel=0 note=78 velocity=80 time=0
note_on channel=0 note=66 velocity=0 time=239
note_on channel=0 note=69 velocity=0 time=0
note_on channel=0 note=73 velocity=0 time=0
note_on channel=0 note=78 velocity=0 time=0
note_on channel=0 note=73 velocity=64 time=241
note_on channel=0 note=77 velocity=64 time=0
note_on channel=0 note=80 velocity=64 time=0
note_on channel=0 note=83 velocity=64 time=0
note_on channel=0 note=85 velocity=64 time=0
note_on channel=0 note=73 velocity=0 time=455
note_on channel=0 note=77 velocity=0 time=0
note_on channel=0 note=80 velocity=0 time=0
note_on channel=0 note=83 velocity=0 time=0
note_on channel=0 note=85 velocity=0 time=0
note_on channel=0 note=78 velocity=40 time=25
note_on channel=0 note=78 velocity=0 time=341
note_on channel=0 note=77 velocity=49 time=19
note_on channel=0 note=77 velocity=0 time=113
note_on channel=0 note=78 velocity=49 time=7
note_on channel=0 note=78 velocity=0 time=113
note_on channel=0 note=80 velocity=49 time=7
note_on channel=0 note=80 velocity=0 time=113
note_on channel=0 note=81 velocity=49 time=7
note_on channel=0 note=81 velocity=0 time=113
note_on channel=0 note=83 velocity=49 time=7
note_on channel=0 note=83 velocity=0 time=113
note_on channel=0 note=85 velocity=49 time=7
note_on channel=0 note=85 velocity=0 time=113
note_on channel=0 note=90 velocity=49 time=7
note_on channel=0 note=90 velocity=0 time=113
note_on channel=0 note=85 velocity=49 time=7
note_on channel=0 note=85 velocity=0 time=113
note_on channel=0 note=90 velocity=49 time=7
note_on channel=0 note=90 velocity=0 time=113
note_on channel=0 note=83 velocity=49 time=7
note_on channel=0 note=83 velocity=0 time=113
note_on channel=0 note=90 velocity=49 time=7
note_on channel=0 note=90 velocity=0 time=113
note_on channel=0 note=83 velocity=49 time=7
note_on channel=0 note=83 velocity=0 time=113
note_on channel=0 note=90 velocity=49 time=7
note_on channel=0 note=90 velocity=0 time=113
note_on channel=0 note=85 velocity=49 time=7
note_on channel=0 note=85 velocity=0 time=113
note_on channel=0 note=93 velocity=49 time=7
note_on channel=0 note=93 velocity=0 time=113
note_on channel=0 note=90 velocity=49 time=7
note_on channel=0 note=90 velocity=0 time=113
note_on channel=0 note=97 velocity=49 time=7
note_on channel=0 note=97 velocity=0 time=113
note_on channel=0 note=90 velocity=49 time=7
note_on channel=0 note=90 velocity=0 time=113
note_on channel=0 note=98 velocity=49 time=7
note_on channel=0 note=98 velocity=0 time=113
note_on channel=0 note=95 velocity=49 time=7
note_on channel=0 note=95 velocity=0 time=113
note_on channel=0 note=90 velocity=49 time=7
note_on channel=0 note=90 velocity=0 time=113
note_on channel=0 note=93 velocity=49 time=7
note_on channel=0 note=93 velocity=0 time=113
note_on channel=0 note=90 velocity=49 time=7
note_on channel=0 note=90 velocity=0 time=113
note_on channel=0 note=85 velocity=49 time=7
note_on channel=0 note=85 velocity=0 time=113
note_on channel=0 note=81 velocity=49 time=7
note_on channel=0 note=81 velocity=0 time=113
note_on channel=0 note=71 velocity=64 time=7
note_on channel=0 note=77 velocity=64 time=0
note_on channel=0 note=81 velocity=64 time=0
note_on channel=0 note=71 velocity=0 time=227
note_on channel=0 note=77 velocity=0 time=0
note_on channel=0 note=81 velocity=0 time=0
note_on channel=0 note=71 velocity=64 time=13
note_on channel=0 note=77 velocity=64 time=0
note_on channel=0 note=80 velocity=64 time=0
note_on channel=0 note=71 velocity=0 time=227
note_on channel=0 note=77 velocity=0 time=0
note_on channel=0 note=80 velocity=0 time=0
note_on channel=0 note=61 velocity=80 time=1933
note_on channel=0 note=66 velocity=80 time=0
note_on channel=0 note=68 velocity=80 time=0
note_on channel=0 note=73 velocity=80 time=0
note_on channel=0 note=61 velocity=0 time=227
note_on channel=0 note=66 velocity=0 time=0
note_on channel=0 note=68 velocity=0 time=0
note_on channel=0 note=73 velocity=0 time=0
note_on channel=0 note=65 velocity=80 time=133
note_on channel=0 note=65 velocity=0 time=113
note_on channel=0 note=61 velocity=80 time=7
note_on channel=0 note=65 velocity=80 time=0
note_on channel=0 note=69 velocity=80 time=0
note_on channel=0 note=61 velocity=0 time=119
note_on channel=0 note=65 velocity=0 time=0
note_on channel=0 note=69 velocity=0 time=0
note_on channel=0 note=61 velocity=80 time=121
note_on channel=0 note=65 velocity=80 time=0
note_on channel=0 note=68 velocity=80 time=0
note_on channel=0 note=61 velocity=0 time=119
note_on channel=0 note=65 velocity=0 time=0
note_on channel=0 note=68 velocity=0 time=0
note_on channel=0 note=57 velocity=80 time=121
note_on channel=0 note=61 velocity=80 time=0
note_on channel=0 note=66 velocity=80 time=0
note_on channel=0 note=57 velocity=0 time=239
note_on channel=0 note=61 velocity=0 time=0
note_on channel=0 note=66 velocity=0 time=0
note_on channel=0 note=78 velocity=70 time=241
note_on channel=0 note=81 velocity=70 time=0
note_on channel=0 note=85 velocity=70 time=0
note_on channel=0 note=90 velocity=70 time=0
note_on channel=0 note=78 velocity=0 time=157
note_on channel=0 note=81 velocity=0 time=0
note_on channel=0 note=85 velocity=0 time=0
note_on channel=0 note=90 velocity=0 time=0
note_on channel=0 note=73 velocity=58 time=323
note_on channel=0 note=73 velocity=0 time=227
note_on channel=0 note=74 velocity=58 time=133
note_on channel=0 note=74 velocity=0 time=113
note_on channel=0 note=73 velocity=58 time=7
note_on channel=0 note=73 velocity=0 time=119
note_on channel=0 note=66 velocity=58 time=121
note_on channel=0 note=66 velocity=0 time=0
note_on channel=0 note=69 velocity=58 time=240
note_on channel=0 note=69 velocity=0 time=227
note_on channel=0 note=65 velocity=58 time=133
note_on channel=0 note=65 velocity=0 time=119
note_on channel=0 note=66 velocity=58 time=1
note_on channel=0 note=66 velocity=0 time=79
note_on channel=0 note=69 velocity=58 time=41
note_on channel=0 note=69 velocity=0 time=79
note_on channel=0 note=73 velocity=58 time=41
note_on channel=0 note=73 velocity=0 time=79
note_on channel=0 note=78 velocity=58 time=41
note_on channel=0 note=78 velocity=0 time=84
note_on channel=0 note=80 velocity=58 time=6
note_on channel=0 note=80 velocity=0 time=55
note_on channel=0 note=78 velocity=58 time=5
note_on channel=0 note=78 velocity=0 time=198
note_on channel=0 note=76 velocity=58 time=12
note_on channel=0 note=76 velocity=0 time=119
note_on channel=0 note=74 velocity=58 time=121
note_on channel=0 note=74 velocity=0 time=239
note_on channel=0 note=76 velocity=58 time=1
note_on channel=0 note=76 velocity=0 time=119
note_on channel=0 note=74 velocity=58 time=121
note_on channel=0 note=74 velocity=0 time=227
note_on channel=0 note=73 velocity=58 time=13
note_on channel=0 note=73 velocity=0 time=119
note_on channel=0 note=73 velocity=58 time=121
note_on channel=0 note=73 velocity=0 time=79
note_on channel=0 note=77 velocity=58 time=41
note_on channel=0 note=77 velocity=0 time=79
note_on channel=0 note=78 velocity=58 time=41
note_on channel=0 note=78 velocity=0 time=79
note_on channel=0 note=81 velocity=58 time=41
note_on channel=0 note=81 velocity=0 time=84
note_on channel=0 note=86 velocity=58 time=6
note_on channel=0 note=86 velocity=0 time=55
note_on channel=0 note=85 velocity=58 time=5
note_on channel=0 note=85 velocity=0 time=139
note_on channel=0 note=83 velocity=58 time=71
note_on channel=0 note=83 velocity=0 time=79
note_on channel=0 note=78 velocity=58 time=41
note_on channel=0 note=78 velocity=0 time=79
note_on channel=0 note=66 velocity=58 time=41
note_on channel=0 note=66 velocity=0 time=79
note_on channel=0 note=72 velocity=58 time=41
note_on channel=0 note=72 velocity=0 time=79
note_on channel=0 note=73 velocity=58 time=41
note_on channel=0 note=73 velocity=0 time=79
note_on channel=0 note=78 velocity=58 time=41
note_on channel=0 note=78 velocity=0 time=79
note_on channel=0 note=81 velocity=58 time=41
note_on channel=0 note=81 velocity=0 time=198
note_on channel=0 note=83 velocity=58 time=12
control_change channel=0 control=2 value=58 time=30
note_on channel=0 note=83 velocity=0 time=25
note_on channel=0 note=81 velocity=58 time=5
control_change channel=0 control=2 value=59 time=34
control_change channel=0 control=2 value=60 time=32
control_change channel=0 control=2 value=61 time=32
control_change channel=0 control=2 value=62 time=32
control_change channel=0 control=2 value=63 time=32
control_change channel=0 control=2 value=64 time=32
note_on channel=0 note=81 velocity=0 time=4
note_on channel=0 note=80 velocity=65 time=12
control_change channel=0 control=2 value=65 time=16
control_change channel=0 control=2 value=66 time=32
control_change channel=0 control=2 value=67 time=32
control_change channel=0 control=2 value=68 time=32
control_change channel=0 control=2 value=69 time=32
control_change channel=0 control=2 value=70 time=32
control_change channel=0 control=2 value=71 time=32
note_on channel=0 note=80 velocity=0 time=19
note_on channel=0 note=74 velocity=72 time=13
control_change channel=0 control=2 value=72 time=0
control_change channel=0 control=2 value=73 time=32
control_change channel=0 control=2 value=74 time=32
control_change channel=0 control=2 value=75 time=32
control_change channel=0 control=2 value=76 time=32
control_change channel=0 control=2 value=77 time=32
control_change channel=0 control=2 value=78 time=32
control_change channel=0 control=2 value=79 time=32
note_on channel=0 note=74 velocity=0 time=3
note_on channel=0 note=73 velocity=80 time=13
note_on channel=0 note=73 velocity=0 time=227
note_on channel=0 note=68 velocity=80 time=13
note_on channel=0 note=68 velocity=0 time=79
note_on channel=0 note=65 velocity=80 time=41
note_on channel=0 note=65 velocity=0 time=79
note_on channel=0 note=66 velocity=80 time=41
note_on channel=0 note=66 velocity=0 time=79
note_on channel=0 note=68 velocity=80 time=41
note_on channel=0 note=68 velocity=0 time=79
note_on channel=0 note=69 velocity=80 time=41
note_on channel=0 note=62 velocity=80 time=0
note_on channel=0 note=69 velocity=0 time=227
note_on channel=0 note=71 velocity=80 time=13
note_on channel=0 note=62 velocity=0 time=67
note_on channel=0 note=71 velocity=0 time=12
note_on channel=0 note=66 velocity=80 time=41
note_on channel=0 note=66 velocity=0 time=79
note_on channel=0 note=76 velocity=80 time=41
note_on channel=0 note=69 velocity=80 time=0
note_on channel=0 note=76 velocity=0 time=79
note_on channel=0 note=69 velocity=0 time=0
note_on channel=0 note=74 velocity=77 time=41
control_change channel=0 control=2 value=80 time=1
control_change channel=0 control=2 value=79 time=54
note_on channel=0 note=74 velocity=0 time=24
control_change channel=0 control=2 value=78 time=3
control_change channel=0 control=2 value=77 time=27
note_on channel=0 note=73 velocity=73 time=11
note_on channel=0 note=68 velocity=73 time=0
control_change channel=0 control=2 value=76 time=16
control_change channel=0 control=2 value=75 time=27
control_change channel=0 control=2 value=74 time=27
control_change channel=0 control=2 value=73 time=27
control_change channel=0 control=2 value=72 time=27
control_change channel=0 control=2 value=71 time=27
control_change channel=0 control=2 value=70 time=27
control_change channel=0 control=2 value=69 time=27
note_on channel=0 note=73 velocity=0 time=22
note_on channel=0 note=68 velocity=0 time=0
control_change channel=0 control=2 value=68 time=5
note_on channel=0 note=61 velocity=66 time=8
control_change channel=0 control=2 value=67 time=19
control_change channel=0 control=2 value=66 time=27
control_change channel=0 control=2 value=65 time=27
control_change channel=0 control=2 value=64 time=27
control_change channel=0 control=2 value=63 time=27
control_change channel=0 control=2 value=62 time=27
control_change channel=0 control=2 value=61 time=27
control_change channel=0 control=2 value=60 time=27
note_on channel=0 note=61 velocity=0 time=19
control_change channel=0 control=2 value=59 time=8
note_on channel=0 note=73 velocity=58 time=5
note_on channel=0 note=73 velocity=0 time=227
note_on channel=0 note=78 velocity=58 time=13
note_on channel=0 note=78 velocity=0 time=79
note_on channel=0 note=80 velocity=58 time=41
note_on channel=0 note=80 velocity=0 time=79
note_on channel=0 note=81 velocity=58 time=41
note_on channel=0 note=81 velocity=0 time=79
note_on channel=0 note=80 velocity=58 time=41
note_on channel=0 note=80 velocity=0 time=79
note_on channel=0 note=78 velocity=58 time=41
note_on channel=0 note=78 velocity=0 time=79
note_on channel=0 note=77 velocity=58 time=41
note_on channel=0 note=77 velocity=0 time=79
note_on channel=0 note=76 velocity=58 time=41
note_on channel=0 note=76 velocity=0 time=227
note_on channel=0 note=73 velocity=58 time=133
note_on channel=0 note=73 velocity=0 time=79
note_on channel=0 note=78 velocity=58 time=41
note_on channel=0 note=78 velocity=0 time=79
note_on channel=0 note=76 velocity=58 time=41
note_on channel=0 note=76 velocity=0 time=79
note_on channel=0 note=71 velocity=58 time=41
note_on channel=0 note=71 velocity=0 time=79
note_on channel=0 note=72 velocity=58 time=41
note_on channel=0 note=72 velocity=0 time=79
note_on channel=0 note=73 velocity=58 time=41
note_on channel=0 note=73 velocity=0 time=227
note_on channel=0 note=78 velocity=58 time=13
note_on channel=0 note=78 velocity=0 time=79
note_on channel=0 note=80 velocity=58 time=41
note_on channel=0 note=80 velocity=0 time=79
note_on channel=0 note=81 velocity=58 time=41
note_on channel=0 note=81 velocity=0 time=79
note_on channel=0 note=80 velocity=58 time=41
note_on channel=0 note=80 velocity=0 time=79
note_on channel=0 note=78 velocity=58 time=41
note_on channel=0 note=78 velocity=0 time=79
note_on channel=0 note=77 velocity=58 time=41
note_on channel=0 note=77 velocity=0 time=79
note_on channel=0 note=78 velocity=58 time=41
control_change channel=0 control=2 value=58 time=0
control_change channel=0 control=2 value=59 time=86
control_change channel=0 control=2 value=60 time=43
control_change channel=0 control=2 value=61 time=43
control_change channel=0 control=2 value=62 time=43
note_on channel=0 note=78 velocity=0 time=24
note_on channel=0 note=76 velocity=63 time=1
control_change channel=0 control=2 value=63 time=18
control_change channel=0 control=2 value=64 time=43
control_change channel=0 control=2 value=65 time=43
note_on channel=0 note=76 velocity=0 time=15
control_change channel=0 control=2 value=66 time=28
control_change channel=0 control=2 value=67 time=43
control_change channel=0 control=2 value=68 time=43
note_on channel=0 note=78 velocity=69 time=7
control_change channel=0 control=2 value=69 time=36
note_on channel=0 note=78 velocity=0 time=43
control_change channel=0 control=2 value=70 time=0
note_on channel=0 note=80 velocity=71 time=41
control_change channel=0 control=2 value=71 time=2
control_change channel=0 control=2 value=72 time=43
note_on channel=0 note=80 velocity=0 time=34
control_change channel=0 control=2 value=73 time=9
note_on channel=0 note=81 velocity=74 time=32
control_change channel=0 control=2 value=74 time=11
control_change channel=0 control=2 value=75 time=43
note_on channel=0 note=81 velocity=0 time=25
control_change channel=0 control=2 value=76 time=18
note_on channel=0 note=86 velocity=77 time=23
control_change channel=0 control=2 value=77 time=20
control_change channel=0 control=2 value=78 time=43
note_on channel=0 note=86 velocity=0 time=16
control_change channel=0 control=2 value=79 time=27
note_on channel=0 note=85 velocity=80 time=14
note_on channel=0 note=85 velocity=0 time=227
note_on channel=0 note=73 velocity=80 time=13
note_on channel=0 note=85 velocity=80 time=0
note_on channel=0 note=73 velocity=0 time=0
note_on channel=0 note=85 velocity=0 time=227
note_on channel=0 note=78 velocity=80 time=13
note_on channel=0 note=90 velocity=80 time=0
note_on channel=0 note=78 velocity=0 time=119
note_on channel=0 note=90 velocity=0 time=0
note_on channel=0 note=80 velocity=80 time=121
note_on channel=0 note=92 velocity=80 time=0
note_on channel=0 note=80 velocity=0 time=198
note_on channel=0 note=92 velocity=0 time=0
note_on channel=0 note=83 velocity=80 time=12
note_on channel=0 note=83 velocity=0 time=27
note_on channel=0 note=81 velocity=80 time=3
note_on channel=0 note=93 velocity=80 time=0
note_on channel=0 note=81 velocity=0 time=226
note_on channel=0 note=93 velocity=0 time=0
note_on channel=0 note=80 velocity=80 time=14
note_on channel=0 note=92 velocity=80 time=0
note_on channel=0 note=80 velocity=0 time=119
note_on channel=0 note=92 velocity=0 time=0
note_on channel=0 note=78 velocity=80 time=121
note_on channel=0 note=90 velocity=80 time=0
note_on channel=0 note=78 velocity=0 time=119
note_on channel=0 note=90 velocity=0 time=0
note_on channel=0 note=77 velocity=80 time=121
note_on channel=0 note=89 velocity=80 time=0
note_on channel=0 note=77 velocity=0 time=119
note_on channel=0 note=89 velocity=0 time=0
note_on channel=0 note=78 velocity=80 time=121
note_on channel=0 note=90 velocity=80 time=0
note_on channel=0 note=78 velocity=0 time=455
note_on channel=0 note=90 velocity=0 time=0
note_on channel=0 note=78 velocity=80 time=25
note_on channel=0 note=78 velocity=0 time=113
note_on channel=0 note=90 velocity=80 time=7
note_on channel=0 note=90 velocity=0 time=113
note_on channel=0 note=78 velocity=80 time=7
note_on channel=0 note=78 velocity=0 time=113
note_on channel=0 note=90 velocity=80 time=7
note_on channel=0 note=90 velocity=0 time=113
note_on channel=0 note=80 velocity=80 time=7
note_on channel=0 note=80 velocity=0 time=113
note_on channel=0 note=90 velocity=80 time=7
note_on channel=0 note=90 velocity=0 time=113
note_on channel=0 note=80 velocity=80 time=7
note_on channel=0 note=80 velocity=0 time=113
note_on channel=0 note=90 velocity=80 time=7
note_on channel=0 note=90 velocity=0 time=113
note_on channel=0 note=82 velocity=80 time=7
note_on channel=0 note=82 velocity=0 time=113
note_on channel=0 note=90 velocity=80 time=7
note_on channel=0 note=90 velocity=0 time=113
note_on channel=0 note=82 velocity=80 time=7
note_on channel=0 note=82 velocity=0 time=113
note_on channel=0 note=90 velocity=80 time=7
note_on channel=0 note=90 velocity=0 time=113
note_on channel=0 note=78 velocity=80 time=247
note_on channel=0 note=78 velocity=0 time=113
note_on channel=0 note=90 velocity=80 time=7
note_on channel=0 note=90 velocity=0 time=113
note_on channel=0 note=85 velocity=80 time=7
note_on channel=0 note=85 velocity=0 time=113
note_on channel=0 note=90 velocity=80 time=7
note_on channel=0 note=90 velocity=0 time=113
note_on channel=0 note=85 velocity=80 time=7
note_on channel=0 note=85 velocity=0 time=113
note_on channel=0 note=90 velocity=80 time=7
note_on channel=0 note=90 velocity=0 time=113
note_on channel=0 note=83 velocity=80 time=7
note_on channel=0 note=83 velocity=0 time=113
note_on channel=0 note=90 velocity=80 time=7
note_on channel=0 note=90 velocity=0 time=113
note_on channel=0 note=83 velocity=80 time=7
note_on channel=0 note=83 velocity=0 time=113
note_on channel=0 note=90 velocity=80 time=7
note_on channel=0 note=90 velocity=0 time=113
note_on channel=0 note=81 velocity=80 time=7
note_on channel=0 note=81 velocity=0 time=113
note_on channel=0 note=90 velocity=80 time=7
note_on channel=0 note=90 velocity=0 time=113
note_on channel=0 note=81 velocity=80 time=7
note_on channel=0 note=81 velocity=0 time=113
note_on channel=0 note=90 velocity=80 time=7
note_on channel=0 note=90 velocity=0 time=113
note_on channel=0 note=80 velocity=80 time=7
note_on channel=0 note=80 velocity=0 time=113
note_on channel=0 note=85 velocity=80 time=7
note_on channel=0 note=85 velocity=0 time=113
note_on channel=0 note=80 velocity=80 time=7
note_on channel=0 note=80 velocity=0 time=113
note_on channel=0 note=85 velocity=80 time=7
note_on channel=0 note=85 velocity=0 time=113
note_on channel=0 note=78 velocity=80 time=7
note_on channel=0 note=78 velocity=0 time=113
note_on channel=0 note=85 velocity=80 time=7
note_on channel=0 note=85 velocity=0 time=113
note_on channel=0 note=78 velocity=80 time=7
note_on channel=0 note=78 velocity=0 time=113
note_on channel=0 note=85 velocity=80 time=7
note_on channel=0 note=85 velocity=0 time=113
note_on channel=0 note=77 velocity=80 time=7
note_on channel=0 note=77 velocity=0 time=113
note_on channel=0 note=85 velocity=80 time=7
note_on channel=0 note=85 velocity=0 time=113
note_on channel=0 note=77 velocity=80 time=7
note_on channel=0 note=77 velocity=0 time=113
note_on channel=0 note=85 velocity=80 time=7
note_on channel=0 note=85 velocity=0 time=113
note_on channel=0 note=78 velocity=80 time=7
note_on channel=0 note=78 velocity=0 time=113
note_on channel=0 note=85 velocity=80 time=7
note_on channel=0 note=85 velocity=0 time=113
note_on channel=0 note=78 velocity=80 time=7
note_on channel=0 note=78 velocity=0 time=113
note_on channel=0 note=85 velocity=80 time=7
note_on channel=0 note=85 velocity=0 time=113
note_on channel=0 note=73 velocity=80 time=247
note_on channel=0 note=73 velocity=0 time=113
note_on channel=0 note=78 velocity=80 time=7
note_on channel=0 note=78 velocity=0 time=113
note_on channel=0 note=76 velocity=80 time=7
note_on channel=0 note=76 velocity=0 time=113
note_on channel=0 note=85 velocity=80 time=7
note_on channel=0 note=85 velocity=0 time=113
note_on channel=0 note=83 velocity=80 time=7
note_on channel=0 note=83 velocity=0 time=113
note_on channel=0 note=85 velocity=80 time=7
note_on channel=0 note=85 velocity=0 time=113
note_on channel=0 note=80 velocity=80 time=7
note_on channel=0 note=80 velocity=0 time=113
note_on channel=0 note=89 velocity=80 time=7
note_on channel=0 note=89 velocity=0 time=113
note_on channel=0 note=83 velocity=80 time=7
note_on channel=0 note=83 velocity=0 time=113
note_on channel=0 note=89 velocity=80 time=7
note_on channel=0 note=89 velocity=0 time=113
note_on channel=0 note=85 velocity=80 time=7
note_on channel=0 note=85 velocity=0 time=227
note_on channel=0 note=89 velocity=80 time=13
note_on channel=0 note=89 velocity=0 time=113
note_on channel=0 note=97 velocity=80 time=7
note_on channel=0 note=97 velocity=0 time=113
note_on channel=0 note=73 velocity=80 time=247
note_on channel=0 note=73 velocity=0 time=113
note_on channel=0 note=78 velocity=80 time=7
note_on channel=0 note=78 velocity=0 time=113
note_on channel=0 note=73 velocity=80 time=7
note_on channel=0 note=73 velocity=0 time=113
note_on channel=0 note=81 velocity=80 time=7
note_on channel=0 note=81 velocity=0 time=113
note_on channel=0 note=78 velocity=80 time=7
note_on channel=0 note=78 velocity=0 time=113
note_on channel=0 note=85 velocity=80 time=7
note_on channel=0 note=85 velocity=0 time=113
note_on channel=0 note=82 velocity=80 time=7
note_on channel=0 note=82 velocity=0 time=113
note_on channel=0 note=90 velocity=80 time=7
note_on channel=0 note=90 velocity=0 time=113
note_on channel=0 note=85 velocity=80 time=7
note_on channel=0 note=85 velocity=0 time=113
note_on channel=0 note=91 velocity=80 time=7
note_on channel=0 note=91 velocity=0 time=113
note_on channel=0 note=90 velocity=80 time=7
note_on channel=0 note=90 velocity=0 time=113
note_on channel=0 note=85 velocity=80 time=7
note_on channel=0 note=85 velocity=0 time=113
note_on channel=0 note=82 velocity=80 time=7
note_on channel=0 note=82 velocity=0 time=113
note_on channel=0 note=78 velocity=80 time=7
note_on channel=0 note=78 velocity=0 time=113
note_on channel=0 note=78 velocity=80 time=247
note_on channel=0 note=78 velocity=0 time=113
note_on channel=0 note=90 velocity=80 time=7
note_on channel=0 note=90 velocity=0 time=113
note_on channel=0 note=85 velocity=80 time=7
note_on channel=0 note=85 velocity=0 time=113
note_on channel=0 note=90 velocity=80 time=7
note_on channel=0 note=90 velocity=0 time=113
note_on channel=0 note=85 velocity=80 time=7
note_on channel=0 note=85 velocity=0 time=113
note_on channel=0 note=90 velocity=80 time=7
note_on channel=0 note=90 velocity=0 time=113
note_on channel=0 note=83 velocity=80 time=7
note_on channel=0 note=83 velocity=0 time=113
note_on channel=0 note=90 velocity=80 time=7
note_on channel=0 note=90 velocity=0 time=113
note_on channel=0 note=83 velocity=80 time=7
note_on channel=0 note=83 velocity=0 time=113
note_on channel=0 note=90 velocity=80 time=7
note_on channel=0 note=90 velocity=0 time=113
note_on channel=0 note=81 velocity=80 time=7
note_on channel=0 note=81 velocity=0 time=113
note_on channel=0 note=90 velocity=80 time=7
note_on channel=0 note=90 velocity=0 time=113
note_on channel=0 note=81 velocity=80 time=7
note_on channel=0 note=81 velocity=0 time=113
note_on channel=0 note=90 velocity=80 time=7
note_on channel=0 note=90 velocity=0 time=113
note_on channel=0 note=80 velocity=80 time=7
note_on channel=0 note=80 velocity=0 time=113
note_on channel=0 note=85 velocity=80 time=7
note_on channel=0 note=85 velocity=0 time=113
note_on channel=0 note=80 velocity=80 time=7
note_on channel=0 note=80 velocity=0 time=113
note_on channel=0 note=85 velocity=80 time=7
note_on channel=0 note=85 velocity=0 time=113
note_on channel=0 note=78 velocity=80 time=7
note_on channel=0 note=78 velocity=0 time=113
note_on channel=0 note=85 velocity=80 time=7
note_on channel=0 note=85 velocity=0 time=113
note_on channel=0 note=81 velocity=80 time=7
note_on channel=0 note=81 velocity=0 time=113
note_on channel=0 note=90 velocity=80 time=7
note_on channel=0 note=90 velocity=0 time=113
note_on channel=0 note=77 velocity=80 time=7
note_on channel=0 note=77 velocity=0 time=113
note_on channel=0 note=85 velocity=80 time=7
note_on channel=0 note=85 velocity=0 time=113
note_on channel=0 note=81 velocity=80 time=7
note_on channel=0 note=81 velocity=0 time=113
note_on channel=0 note=85 velocity=80 time=7
note_on channel=0 note=85 velocity=0 time=113
note_on channel=0 note=81 velocity=80 time=7
note_on channel=0 note=81 velocity=0 time=113
note_on channel=0 note=90 velocity=80 time=7
note_on channel=0 note=90 velocity=0 time=113
note_on channel=0 note=85 velocity=80 time=7
note_on channel=0 note=85 velocity=0 time=113
note_on channel=0 note=93 velocity=80 time=7
note_on channel=0 note=93 velocity=0 time=113
note_on channel=0 note=78 velocity=80 time=247
note_on channel=0 note=78 velocity=0 time=113
note_on channel=0 note=85 velocity=80 time=7
note_on channel=0 note=85 velocity=0 time=113
note_on channel=0 note=80 velocity=80 time=7
note_on channel=0 note=80 velocity=0 time=113
note_on channel=0 note=85 velocity=80 time=7
note_on channel=0 note=85 velocity=0 time=113
note_on channel=0 note=80 velocity=80 time=7
note_on channel=0 note=80 velocity=0 time=113
note_on channel=0 note=90 velocity=80 time=7
note_on channel=0 note=90 velocity=0 time=113
note_on channel=0 note=77 velocity=80 time=7
note_on channel=0 note=77 velocity=0 time=113
note_on channel=0 note=83 velocity=80 time=7
note_on channel=0 note=83 velocity=0 time=113
note_on channel=0 note=81 velocity=80 time=7
note_on channel=0 note=81 velocity=0 time=113
note_on channel=0 note=85 velocity=80 time=7
note_on channel=0 note=85 velocity=0 time=113
note_on channel=0 note=83 velocity=80 time=7
note_on channel=0 note=83 velocity=0 time=113
note_on channel=0 note=89 velocity=80 time=7
note_on channel=0 note=89 velocity=0 time=113
note_on channel=0 note=97 velocity=80 time=7
note_on channel=0 note=97 velocity=0 time=227
note_on channel=0 note=66 velocity=80 time=13
note_on channel=0 note=69 velocity=80 time=0
note_on channel=0 note=78 velocity=80 time=0
note_on channel=0 note=66 velocity=0 time=239
note_on channel=0 note=69 velocity=0 time=0
note_on channel=0 note=78 velocity=0 time=0
note_on channel=0 note=73 velocity=80 time=1
note_on channel=0 note=73 velocity=0 time=119
note_on channel=0 note=69 velocity=80 time=121
note_on channel=0 note=73 velocity=80 time=0
note_on channel=0 note=78 velocity=80 time=0
note_on channel=0 note=81 velocity=80 time=0
note_on channel=0 note=69 velocity=0 time=119
note_on channel=0 note=73 velocity=0 time=0
note_on channel=0 note=78 velocity=0 time=0
note_on channel=0 note=81 velocity=0 time=0
note_on channel=0 note=68 velocity=80 time=121
note_on channel=0 note=71 velocity=80 time=0
note_on channel=0 note=76 velocity=80 time=0
note_on channel=0 note=80 velocity=80 time=0
note_on channel=0 note=68 velocity=0 time=119
note_on channel=0 note=71 velocity=0 time=0
note_on channel=0 note=76 velocity=0 time=0
note_on channel=0 note=80 velocity=0 time=0
note_on channel=0 note=66 velocity=80 time=121
note_on channel=0 note=69 velocity=80 time=0
note_on channel=0 note=73 velocity=80 time=0
note_on channel=0 note=78 velocity=80 time=0
note_on channel=0 note=66 velocity=0 time=239
note_on channel=0 note=69 velocity=0 time=0
note_on channel=0 note=73 velocity=0 time=0
note_on channel=0 note=78 velocity=0 time=0
note_on channel=0 note=68 velocity=80 time=1
note_on channel=0 note=80 velocity=80 time=0
note_on channel=0 note=68 velocity=0 time=119
note_on channel=0 note=80 velocity=0 time=0
note_on channel=0 note=69 velocity=80 time=121
note_on channel=0 note=73 velocity=80 time=0
note_on channel=0 note=77 velocity=80 time=0
note_on channel=0 note=81 velocity=80 time=0
note_on channel=0 note=69 velocity=0 time=119
note_on channel=0 note=73 velocity=0 time=0
note_on channel=0 note=77 velocity=0 time=0
note_on channel=0 note=81 velocity=0 time=0
note_on channel=0 note=71 velocity=80 time=121
note_on channel=0 note=83 velocity=80 time=0
note_on channel=0 note=71 velocity=0 time=119
note_on channel=0 note=83 velocity=0 time=0
note_on channel=0 note=73 velocity=80 time=121
note_on channel=0 note=85 velocity=80 time=0
note_on channel=0 note=57 velocity=60 time=240
note_on channel=0 note=57 velocity=0 time=113
note_on channel=0 note=61 velocity=60 time=7
note_on channel=0 note=61 velocity=0 time=113
note_on channel=0 note=68 velocity=60 time=7
note_on channel=0 note=68 velocity=0 time=113
note_on channel=0 note=66 velocity=60 time=7
note_on channel=0 note=66 velocity=0 time=113
note_on channel=0 note=57 velocity=60 time=7
note_on channel=0 note=61 velocity=60 time=120
note_on channel=0 note=57 velocity=0 time=95
note_on channel=0 note=61 velocity=0 time=18
note_on channel=0 note=73 velocity=0 time=6
note_on channel=0 note=85 velocity=0 time=0
note_on channel=0 note=66 velocity=60 time=1
note_on channel=0 note=66 velocity=0 time=113
note_on channel=0 note=61 velocity=60 time=7
note_on channel=0 note=61 velocity=0 time=113
note_on channel=0 note=73 velocity=60 time=7
note_on channel=0 note=73 velocity=0 time=113
note_on channel=0 note=68 velocity=60 time=7
note_on channel=0 note=68 velocity=0 time=113
note_on channel=0 note=61 velocity=60 time=7
note_on channel=0 note=61 velocity=0 time=113
note_on channel=0 note=68 velocity=60 time=7
note_on channel=0 note=68 velocity=0 time=113
note_on channel=0 note=61 velocity=60 time=7
note_on channel=0 note=61 velocity=0 time=113
note_on channel=0 note=73 velocity=60 time=7
note_on channel=0 note=73 velocity=0 time=113
note_on channel=0 note=66 velocity=60 time=7
note_on channel=0 note=66 velocity=0 time=227
note_on channel=0 note=69 velocity=60 time=13
note_on channel=0 note=69 velocity=0 time=113
note_on channel=0 note=73 velocity=60 time=7
note_on channel=0 note=73 velocity=0 time=113
note_on channel=0 note=80 velocity=60 time=7
note_on channel=0 note=80 velocity=0 time=113
note_on channel=0 note=78 velocity=60 time=7
note_on channel=0 note=78 velocity=0 time=113
note_on channel=0 note=73 velocity=60 time=7
note_on channel=0 note=73 velocity=0 time=113
note_on channel=0 note=80 velocity=60 time=7
note_on channel=0 note=80 velocity=0 time=113
note_on channel=0 note=76 velocity=60 time=7
note_on channel=0 note=76 velocity=0 time=113
note_on channel=0 note=71 velocity=60 time=7
note_on channel=0 note=71 velocity=0 time=113
note_on channel=0 note=69 velocity=60 time=7
note_on channel=0 note=69 velocity=0 time=113
note_on channel=0 note=76 velocity=60 time=7
note_on channel=0 note=76 velocity=0 time=113
note_on channel=0 note=64 velocity=60 time=7
note_on channel=0 note=64 velocity=0 time=113
note_on channel=0 note=71 velocity=60 time=7
note_on channel=0 note=71 velocity=0 time=113
note_on channel=0 note=69 velocity=60 time=7
note_on channel=0 note=69 velocity=0 time=113
note_on channel=0 note=76 velocity=60 time=7
note_on channel=0 note=76 velocity=0 time=113
note_on channel=0 note=76 velocity=60 time=7
note_on channel=0 note=76 velocity=0 time=227
note_on channel=0 note=64 velocity=60 time=13
note_on channel=0 note=64 velocity=0 time=113
note_on channel=0 note=69 velocity=60 time=7
note_on channel=0 note=69 velocity=0 time=113
note_on channel=0 note=76 velocity=60 time=7
note_on channel=0 note=76 velocity=0 time=113
note_on channel=0 note=74 velocity=60 time=7
note_on channel=0 note=74 velocity=0 time=113
note_on channel=0 note=69 velocity=60 time=7
note_on channel=0 note=69 velocity=0 time=113
note_on channel=0 note=66 velocity=60 time=7
note_on channel=0 note=66 velocity=0 time=113
note_on channel=0 note=74 velocity=60 time=7
note_on channel=0 note=74 velocity=0 time=113
note_on channel=0 note=73 velocity=60 time=7
note_on channel=0 note=73 velocity=0 time=113
note_on channel=0 note=69 velocity=60 time=7
note_on channel=0 note=69 velocity=0 time=113
note_on channel=0 note=78 velocity=60 time=7
note_on channel=0 note=78 velocity=0 time=113
note_on channel=0 note=73 velocity=60 time=7
note_on channel=0 note=73 velocity=0 time=113
note_on channel=0 note=81 velocity=60 time=7
note_on channel=0 note=81 velocity=0 time=113
note_on channel=0 note=78 velocity=60 time=7
note_on channel=0 note=78 velocity=0 time=113
note_on channel=0 note=85 velocity=60 time=7
note_on channel=0 note=85 velocity=0 time=113
note_on channel=0 note=62 velocity=60 time=127
note_on channel=0 note=62 velocity=0 time=113
note_on channel=0 note=69 velocity=60 time=7
note_on channel=0 note=69 velocity=0 time=113
note_on channel=0 note=73 velocity=60 time=7
note_on channel=0 note=73 velocity=0 time=113
note_on channel=0 note=80 velocity=60 time=7
note_on channel=0 note=80 velocity=0 time=113
note_on channel=0 note=78 velocity=60 time=7
note_on channel=0 note=78 velocity=0 time=113
note_on channel=0 note=74 velocity=60 time=7
note_on channel=0 note=74 velocity=0 time=113
note_on channel=0 note=81 velocity=60 time=7
note_on channel=0 note=81 velocity=0 time=113
note_on channel=0 note=73 velocity=60 time=7
note_on channel=0 note=73 velocity=0 time=113
note_on channel=0 note=85 velocity=60 time=7
note_on channel=0 note=85 velocity=0 time=113
note_on channel=0 note=73 velocity=60 time=7
note_on channel=0 note=73 velocity=0 time=113
note_on channel=0 note=85 velocity=60 time=7
note_on channel=0 note=85 velocity=0 time=113
note_on channel=0 note=75 velocity=60 time=7
note_on channel=0 note=75 velocity=0 time=113
note_on channel=0 note=85 velocity=60 time=7
note_on channel=0 note=85 velocity=0 time=113
note_on channel=0 note=77 velocity=60 time=7
note_on channel=0 note=77 velocity=0 time=113
note_on channel=0 note=85 velocity=60 time=7
note_on channel=0 note=85 velocity=0 time=113
note_on channel=0 note=69 velocity=60 time=247
note_on channel=0 note=69 velocity=0 time=113
note_on channel=0 note=73 velocity=60 time=7
note_on channel=0 note=73 velocity=0 time=113
note_on channel=0 note=80 velocity=60 time=7
note_on channel=0 note=80 velocity=0 time=113
note_on channel=0 note=78 velocity=60 time=7
note_on channel=0 note=78 velocity=0 time=113
note_on channel=0 note=69 velocity=60 time=7
note_on channel=0 note=69 velocity=0 time=113
note_on channel=0 note=73 velocity=60 time=7
note_on channel=0 note=73 velocity=0 time=113
note_on channel=0 note=78 velocity=60 time=7
note_on channel=0 note=78 velocity=0 time=113
note_on channel=0 note=73 velocity=60 time=7
note_on channel=0 note=73 velocity=0 time=113
note_on channel=0 note=85 velocity=60 time=7
note_on channel=0 note=85 velocity=0 time=113
note_on channel=0 note=80 velocity=60 time=7
note_on channel=0 note=80 velocity=0 time=113
note_on channel=0 note=73 velocity=60 time=7
note_on channel=0 note=73 velocity=0 time=113
note_on channel=0 note=80 velocity=60 time=7
note_on channel=0 note=80 velocity=0 time=113
note_on channel=0 note=73 velocity=60 time=7
note_on channel=0 note=73 velocity=0 time=113
note_on channel=0 note=85 velocity=60 time=7
note_on channel=0 note=85 velocity=0 time=113
note_on channel=0 note=78 velocity=60 time=7
note_on channel=0 note=78 velocity=0 time=227
note_on channel=0 note=69 velocity=60 time=13
note_on channel=0 note=69 velocity=0 time=113
note_on channel=0 note=73 velocity=60 time=7
note_on channel=0 note=73 velocity=0 time=113
note_on channel=0 note=80 velocity=60 time=7
note_on channel=0 note=80 velocity=0 time=113
note_on channel=0 note=78 velocity=60 time=7
note_on channel=0 note=78 velocity=0 time=113
note_on channel=0 note=73 velocity=60 time=7
note_on channel=0 note=73 velocity=0 time=113
note_on channel=0 note=80 velocity=60 time=7
note_on channel=0 note=80 velocity=0 time=113
note_on channel=0 note=76 velocity=60 time=7
note_on channel=0 note=76 velocity=0 time=113
note_on channel=0 note=71 velocity=60 time=7
note_on channel=0 note=71 velocity=0 time=113
note_on channel=0 note=69 velocity=60 time=7
note_on channel=0 note=69 velocity=0 time=113
note_on channel=0 note=76 velocity=60 time=7
note_on channel=0 note=76 velocity=0 time=113
note_on channel=0 note=64 velocity=60 time=7
note_on channel=0 note=64 velocity=0 time=113
note_on channel=0 note=71 velocity=60 time=7
note_on channel=0 note=71 velocity=0 time=113
note_on channel=0 note=69 velocity=60 time=7
note_on channel=0 note=69 velocity=0 time=113
note_on channel=0 note=64 velocity=60 time=7
note_on channel=0 note=64 velocity=0 time=113
note_on channel=0 note=76 velocity=60 time=7
note_on channel=0 note=76 velocity=0 time=227
note_on channel=0 note=64 velocity=60 time=13
note_on channel=0 note=64 velocity=0 time=113
note_on channel=0 note=69 velocity=60 time=7
note_on channel=0 note=69 velocity=0 time=113
note_on channel=0 note=76 velocity=60 time=7
note_on channel=0 note=76 velocity=0 time=113
note_on channel=0 note=74 velocity=60 time=7
note_on channel=0 note=74 velocity=0 time=113
note_on channel=0 note=69 velocity=60 time=7
note_on channel=0 note=69 velocity=0 time=113
note_on channel=0 note=66 velocity=60 time=7
note_on channel=0 note=66 velocity=0 time=113
note_on channel=0 note=74 velocity=60 time=7
note_on channel=0 note=74 velocity=0 time=113
note_on channel=0 note=73 velocity=60 time=7
note_on channel=0 note=73 velocity=0 time=113
note_on channel=0 note=69 velocity=60 time=7
note_on channel=0 note=69 velocity=0 time=113
note_on channel=0 note=78 velocity=60 time=7
note_on channel=0 note=78 velocity=0 time=113
note_on channel=0 note=73 velocity=60 time=7
note_on channel=0 note=73 velocity=0 time=113
note_on channel=0 note=81 velocity=60 time=7
note_on channel=0 note=81 velocity=0 time=113
note_on channel=0 note=78 velocity=60 time=7
note_on channel=0 note=78 velocity=0 time=113
note_on channel=0 note=85 velocity=60 time=7
note_on channel=0 note=85 velocity=0 time=113
note_on channel=0 note=62 velocity=61 time=127
control_change channel=0 control=2 value=61 time=0
note_on channel=0 note=62 velocity=0 time=113
note_on channel=0 note=69 velocity=62 time=7
control_change channel=0 control=2 value=62 time=68
note_on channel=0 note=69 velocity=0 time=45
note_on channel=0 note=73 velocity=63 time=7
control_change channel=0 control=2 value=63 time=42
note_on channel=0 note=73 velocity=0 time=71
note_on channel=0 note=80 velocity=65 time=7
control_change channel=0 control=2 value=64 time=16
control_change channel=0 control=2 value=65 time=94
note_on channel=0 note=80 velocity=0 time=3
note_on channel=0 note=78 velocity=66 time=7
control_change channel=0 control=2 value=66 time=84
note_on channel=0 note=78 velocity=0 time=29
note_on channel=0 note=74 velocity=67 time=7
control_change channel=0 control=2 value=67 time=58
note_on channel=0 note=74 velocity=0 time=55
note_on channel=0 note=81 velocity=68 time=7
control_change channel=0 control=2 value=68 time=32
note_on channel=0 note=81 velocity=0 time=81
note_on channel=0 note=79 velocity=70 time=7
control_change channel=0 control=2 value=69 time=6
control_change channel=0 control=2 value=70 time=94
note_on channel=0 note=79 velocity=0 time=13
note_on channel=0 note=67 velocity=71 time=7
control_change channel=0 control=2 value=71 time=74
note_on channel=0 note=67 velocity=0 time=39
note_on channel=0 note=69 velocity=72 time=7
control_change channel=0 control=2 value=72 time=48
note_on channel=0 note=69 velocity=0 time=65
note_on channel=0 note=71 velocity=73 time=7
control_change channel=0 control=2 value=73 time=22
note_on channel=0 note=71 velocity=0 time=91
control_change channel=0 control=2 value=74 time=3
note_on channel=0 note=79 velocity=75 time=4
control_change channel=0 control=2 value=75 time=90
note_on channel=0 note=79 velocity=0 time=23
note_on channel=0 note=81 velocity=76 time=7
control_change channel=0 control=2 value=76 time=64
note_on channel=0 note=81 velocity=0 time=49
note_on channel=0 note=83 velocity=77 time=7
control_change channel=0 control=2 value=77 time=38
note_on channel=0 note=83 velocity=0 time=75
note_on channel=0 note=90 velocity=78 time=7
control_change channel=0 control=2 value=78 time=12
control_change channel=0 control=2 value=79 time=94
note_on channel=0 note=90 velocity=0 time=1831
note_on channel=0 note=61 velocity=64 time=103
note_on channel=0 note=69 velocity=64 time=0
note_on channel=0 note=61 velocity=0 time=157
note_on channel=0 note=69 velocity=0 time=0
note_on channel=0 note=64 velocity=64 time=323
note_on channel=0 note=71 velocity=64 time=0
note_on channel=0 note=64 velocity=0 time=157
note_on channel=0 note=71 velocity=0 time=0
note_on channel=0 note=64 velocity=64 time=323
note_on channel=0 note=73 velocity=64 time=0
note_on channel=0 note=64 velocity=0 time=455
note_on channel=0 note=73 velocity=0 time=0
note_on channel=0 note=69 velocity=64 time=25
note_on channel=0 note=69 velocity=0 time=227
note_on channel=0 note=76 velocity=64 time=13
note_on channel=0 note=76 velocity=0 time=170
note_on channel=0 note=78 velocity=64 time=10
note_on channel=0 note=78 velocity=0 time=56
note_on channel=0 note=66 velocity=64 time=4
note_on channel=0 note=71 velocity=64 time=0
note_on channel=0 note=76 velocity=64 time=0
note_on channel=0 note=66 velocity=0 time=239
note_on channel=0 note=71 velocity=0 time=0
note_on channel=0 note=76 velocity=0 time=0
note_on channel=0 note=74 velocity=64 time=1
note_on channel=0 note=74 velocity=0 time=119
note_on channel=0 note=73 velocity=64 time=121
note_on channel=0 note=73 velocity=0 time=119
note_on channel=0 note=71 velocity=64 time=121
note_on channel=0 note=71 velocity=0 time=119
note_on channel=0 note=61 velocity=64 time=121
note_on channel=0 note=66 velocity=64 time=0
note_on channel=0 note=69 velocity=64 time=0
note_on channel=0 note=73 velocity=64 time=0
note_on channel=0 note=61 velocity=0 time=239
note_on channel=0 note=66 velocity=0 time=0
note_on channel=0 note=69 velocity=0 time=0
note_on channel=0 note=73 velocity=0 time=0
note_on channel=0 note=66 velocity=64 time=241
note_on channel=0 note=66 velocity=0 time=227
note_on channel=0 note=76 velocity=64 time=13
note_on channel=0 note=76 velocity=0 time=170
note_on channel=0 note=78 velocity=64 time=10
note_on channel=0 note=78 velocity=0 time=56
note_on channel=0 note=66 velocity=64 time=4
note_on channel=0 note=71 velocity=64 time=0
note_on channel=0 note=76 velocity=64 time=0
note_on channel=0 note=66 velocity=0 time=239
note_on channel=0 note=71 velocity=0 time=0
note_on channel=0 note=76 velocity=0 time=0
note_on channel=0 note=74 velocity=64 time=1
note_on channel=0 note=74 velocity=0 time=119
note_on channel=0 note=73 velocity=64 time=121
note_on channel=0 note=73 velocity=0 time=119
note_on channel=0 note=71 velocity=64 time=121
note_on channel=0 note=71 velocity=0 time=119
note_on channel=0 note=61 velocity=64 time=121
note_on channel=0 note=66 velocity=64 time=0
note_on channel=0 note=69 velocity=64 time=0
note_on channel=0 note=73 velocity=64 time=0
note_on channel=0 note=61 velocity=0 time=239
note_on channel=0 note=66 velocity=0 time=0
note_on channel=0 note=69 velocity=0 time=0
note_on channel=0 note=73 velocity=0 time=0
note_on channel=0 note=61 velocity=64 time=241
note_on channel=0 note=61 velocity=0 time=227
note_on channel=0 note=69 velocity=64 time=13
note_on channel=0 note=69 velocity=0 time=170
note_on channel=0 note=71 velocity=64 time=10
note_on channel=0 note=71 velocity=0 time=56
note_on channel=0 note=59 velocity=64 time=4
note_on channel=0 note=62 velocity=64 time=0
note_on channel=0 note=69 velocity=64 time=0
note_on channel=0 note=59 velocity=0 time=239
note_on channel=0 note=62 velocity=0 time=0
note_on channel=0 note=69 velocity=0 time=0
note_on channel=0 note=68 velocity=64 time=1
note_on channel=0 note=68 velocity=0 time=119
note_on channel=0 note=66 velocity=64 time=121
note_on channel=0 note=66 velocity=0 time=119
note_on channel=0 note=68 velocity=64 time=121
note_on channel=0 note=68 velocity=0 time=119
note_on channel=0 note=56 velocity=64 time=121
note_on channel=0 note=61 velocity=64 time=0
note_on channel=0 note=66 velocity=64 time=0
note_on channel=0 note=56 velocity=0 time=239
note_on channel=0 note=61 velocity=0 time=0
note_on channel=0 note=66 velocity=0 time=0
note_on channel=0 note=56 velocity=64 time=241
note_on channel=0 note=59 velocity=64 time=0
note_on channel=0 note=65 velocity=64 time=0
note_on channel=0 note=56 velocity=0 time=227
note_on channel=0 note=59 velocity=0 time=0
note_on channel=0 note=65 velocity=0 time=0
note_on channel=0 note=61 velocity=64 time=13
note_on channel=0 note=61 velocity=0 time=227
note_on channel=0 note=61 velocity=64 time=13
note_on channel=0 note=69 velocity=64 time=0
note_on channel=0 note=61 velocity=0 time=157
note_on channel=0 note=69 velocity=0 time=0
note_on channel=0 note=61 velocity=64 time=323
note_on channel=0 note=65 velocity=64 time=0
note_on channel=0 note=71 velocity=64 time=0
note_on channel=0 note=61 velocity=0 time=157
note_on channel=0 note=65 velocity=0 time=0
note_on channel=0 note=71 velocity=0 time=0
note_on channel=0 note=61 velocity=64 time=323
note_on channel=0 note=66 velocity=64 time=0
note_on channel=0 note=69 velocity=64 time=0
note_on channel=0 note=73 velocity=64 time=0
note_on channel=0 note=61 velocity=0 time=455
note_on channel=0 note=66 velocity=0 time=0
note_on channel=0 note=69 velocity=0 time=0
note_on channel=0 note=73 velocity=0 time=0
note_on channel=0 note=69 velocity=64 time=25
note_on channel=0 note=69 velocity=0 time=227
note_on channel=0 note=76 velocity=64 time=13
note_on channel=0 note=76 velocity=0 time=170
note_on channel=0 note=78 velocity=64 time=10
note_on channel=0 note=78 velocity=0 time=56
note_on channel=0 note=66 velocity=64 time=4
note_on channel=0 note=68 velocity=64 time=0
note_on channel=0 note=71 velocity=64 time=0
note_on channel=0 note=76 velocity=64 time=0
note_on channel=0 note=66 velocity=0 time=239
note_on channel=0 note=68 velocity=0 time=0
note_on channel=0 note=71 velocity=0 time=0
note_on channel=0 note=76 velocity=0 time=0
note_on channel=0 note=74 velocity=64 time=1
note_on channel=0 note=74 velocity=0 time=119
note_on channel=0 note=73 velocity=64 time=121
note_on channel=0 note=73 velocity=0 time=119
note_on channel=0 note=71 velocity=64 time=121
note_on channel=0 note=71 velocity=0 time=119
note_on channel=0 note=61 velocity=64 time=121
note_on channel=0 note=66 velocity=64 time=0
note_on channel=0 note=69 velocity=64 time=0
note_on channel=0 note=73 velocity=64 time=0
note_on channel=0 note=61 velocity=0 time=227
note_on channel=0 note=66 velocity=0 time=0
note_on channel=0 note=69 velocity=0 time=0
note_on channel=0 note=73 velocity=0 time=0
note_on channel=0 note=66 velocity=64 time=253
note_on channel=0 note=66 velocity=0 time=227
note_on channel=0 note=76 velocity=64 time=13
note_on channel=0 note=76 velocity=0 time=170
note_on channel=0 note=78 velocity=64 time=10
note_on channel=0 note=78 velocity=0 time=56
note_on channel=0 note=66 velocity=64 time=4
note_on channel=0 note=71 velocity=64 time=0
note_on channel=0 note=76 velocity=64 time=0
note_on channel=0 note=66 velocity=0 time=239
note_on channel=0 note=71 velocity=0 time=0
note_on channel=0 note=76 velocity=0 time=0
note_on channel=0 note=74 velocity=64 time=1
note_on channel=0 note=74 velocity=0 time=119
note_on channel=0 note=73 velocity=64 time=121
note_on channel=0 note=73 velocity=0 time=119
note_on channel=0 note=71 velocity=64 time=121
note_on channel=0 note=71 velocity=0 time=119
note_on channel=0 note=66 velocity=64 time=121
note_on channel=0 note=69 velocity=64 time=0
note_on channel=0 note=73 velocity=64 time=0
note_on channel=0 note=66 velocity=0 time=227
note_on channel=0 note=69 velocity=0 time=0
note_on channel=0 note=73 velocity=0 time=0
note_on channel=0 note=61 velocity=64 time=13
note_on channel=0 note=61 velocity=0 time=119
note_on channel=0 note=65 velocity=64 time=121
note_on channel=0 note=69 velocity=64 time=0
note_on channel=0 note=65 velocity=0 time=119
note_on channel=0 note=69 velocity=0 time=0
note_on channel=0 note=68 velocity=64 time=121
note_on channel=0 note=68 velocity=0 time=119
note_on channel=0 note=57 velocity=64 time=121
note_on channel=0 note=61 velocity=64 time=0
note_on channel=0 note=66 velocity=64 time=0
note_on channel=0 note=57 velocity=0 time=911
note_on channel=0 note=61 velocity=0 time=0
note_on channel=0 note=66 velocity=0 time=0
note_on channel=0 note=64 velocity=64 time=529
note_on channel=0 note=76 velocity=64 time=0
note_on channel=0 note=64 velocity=0 time=227
note_on channel=0 note=76 velocity=0 time=0
note_on channel=0 note=69 velocity=64 time=13
note_on channel=0 note=81 velocity=64 time=0
note_on channel=0 note=69 velocity=0 time=113
note_on channel=0 note=81 velocity=0 time=0
note_on channel=0 note=71 velocity=64 time=7
note_on channel=0 note=83 velocity=64 time=0
note_on channel=0 note=71 velocity=0 time=113
note_on channel=0 note=83 velocity=0 time=0
note_on channel=0 note=73 velocity=64 time=7
note_on channel=0 note=85 velocity=64 time=0
note_on channel=0 note=73 velocity=0 time=119
note_on channel=0 note=85 velocity=0 time=0
note_on channel=0 note=73 velocity=64 time=121
note_on channel=0 note=85 velocity=64 time=0
note_on channel=0 note=73 velocity=0 time=119
note_on channel=0 note=85 velocity=0 time=0
note_on channel=0 note=73 velocity=64 time=121
note_on channel=0 note=85 velocity=64 time=0
note_on channel=0 note=73 velocity=0 time=239
note_on channel=0 note=85 velocity=0 time=0
note_on channel=0 note=76 velocity=64 time=1
note_on channel=0 note=88 velocity=64 time=0
note_on channel=0 note=76 velocity=0 time=119
note_on channel=0 note=88 velocity=0 time=0
note_on channel=0 note=73 velocity=64 time=121
note_on channel=0 note=85 velocity=64 time=0
note_on channel=0 note=73 velocity=0 time=239
note_on channel=0 note=85 velocity=0 time=0
note_on channel=0 note=71 velocity=64 time=1
note_on channel=0 note=83 velocity=64 time=0
note_on channel=0 note=71 velocity=0 time=119
note_on channel=0 note=83 velocity=0 time=0
note_on channel=0 note=69 velocity=64 time=121
note_on channel=0 note=81 velocity=64 time=0
note_on channel=0 note=69 velocity=0 time=119
note_on channel=0 note=81 velocity=0 time=0
note_on channel=0 note=68 velocity=64 time=121
note_on channel=0 note=80 velocity=64 time=0
note_on channel=0 note=68 velocity=0 time=119
note_on channel=0 note=80 velocity=0 time=0
note_on channel=0 note=69 velocity=64 time=121
note_on channel=0 note=81 velocity=64 time=0
note_on channel=0 note=69 velocity=0 time=119
note_on channel=0 note=81 velocity=0 time=0
note_on channel=0 note=69 velocity=64 time=121
note_on channel=0 note=81 velocity=64 time=0
note_on channel=0 note=69 velocity=0 time=119
note_on channel=0 note=81 velocity=0 time=0
note_on channel=0 note=69 velocity=64 time=121
note_on channel=0 note=81 velocity=64 time=0
note_on channel=0 note=69 velocity=0 time=239
note_on channel=0 note=81 velocity=0 time=0
note_on channel=0 note=71 velocity=64 time=1
note_on channel=0 note=83 velocity=64 time=0
note_on channel=0 note=71 velocity=0 time=119
note_on channel=0 note=83 velocity=0 time=0
note_on channel=0 note=69 velocity=64 time=121
note_on channel=0 note=81 velocity=64 time=0
note_on channel=0 note=69 velocity=0 time=239
note_on channel=0 note=81 velocity=0 time=0
note_on channel=0 note=68 velocity=64 time=1
note_on channel=0 note=80 velocity=64 time=0
note_on channel=0 note=68 velocity=0 time=119
note_on channel=0 note=80 velocity=0 time=0
note_on channel=0 note=66 velocity=64 time=121
note_on channel=0 note=78 velocity=64 time=0
note_on channel=0 note=66 velocity=0 time=239
note_on channel=0 note=78 velocity=0 time=0
note_on channel=0 note=65 velocity=64 time=1
note_on channel=0 note=77 velocity=64 time=0
note_on channel=0 note=65 velocity=0 time=119
note_on channel=0 note=77 velocity=0 time=0
note_on channel=0 note=66 velocity=64 time=121
note_on channel=0 note=78 velocity=64 time=0
note_on channel=0 note=66 velocity=0 time=479
note_on channel=0 note=78 velocity=0 time=0
note_on channel=0 note=78 velocity=64 time=1
note_on channel=0 note=90 velocity=64 time=0
note_on channel=0 note=78 velocity=0 time=455
note_on channel=0 note=90 velocity=0 time=0
note_on channel=0 note=76 velocity=64 time=25
note_on channel=0 note=88 velocity=64 time=0
note_on channel=0 note=76 velocity=0 time=119
note_on channel=0 note=88 velocity=0 time=0
note_on channel=0 note=74 velocity=64 time=121
note_on channel=0 note=86 velocity=64 time=0
note_on channel=0 note=74 velocity=0 time=119
note_on channel=0 note=86 velocity=0 time=0
note_on channel=0 note=73 velocity=64 time=121
note_on channel=0 note=85 velocity=64 time=0
note_on channel=0 note=73 velocity=0 time=119
note_on channel=0 note=85 velocity=0 time=0
note_on channel=0 note=83 velocity=64 time=121
note_on channel=0 note=95 velocity=64 time=0
note_on channel=0 note=83 velocity=0 time=119
note_on channel=0 note=95 velocity=0 time=0
note_on channel=0 note=81 velocity=64 time=121
note_on channel=0 note=93 velocity=64 time=0
note_on channel=0 note=81 velocity=0 time=239
note_on channel=0 note=93 velocity=0 time=0
note_on channel=0 note=80 velocity=64 time=1
note_on channel=0 note=92 velocity=64 time=0
note_on channel=0 note=80 velocity=0 time=119
note_on channel=0 note=92 velocity=0 time=0
note_on channel=0 note=78 velocity=64 time=121
note_on channel=0 note=90 velocity=64 time=0
note_on channel=0 note=78 velocity=0 time=119
note_on channel=0 note=90 velocity=0 time=0
note_on channel=0 note=77 velocity=64 time=121
note_on channel=0 note=89 velocity=64 time=0
note_on channel=0 note=77 velocity=0 time=119
note_on channel=0 note=89 velocity=0 time=0
note_on channel=0 note=78 velocity=64 time=121
note_on channel=0 note=90 velocity=64 time=0
note_on channel=0 note=78 velocity=0 time=239
note_on channel=0 note=90 velocity=0 time=0
note_on channel=0 note=73 velocity=64 time=241
note_on channel=0 note=73 velocity=0 time=113
note_on channel=0 note=78 velocity=64 time=7
note_on channel=0 note=78 velocity=0 time=113
note_on channel=0 note=81 velocity=64 time=7
note_on channel=0 note=81 velocity=0 time=113
note_on channel=0 note=85 velocity=64 time=7
note_on channel=0 note=85 velocity=0 time=113
note_on channel=0 note=88 velocity=64 time=7
note_on channel=0 note=88 velocity=0 time=119
note_on channel=0 note=76 velocity=64 time=121
note_on channel=0 note=76 velocity=0 time=113
note_on channel=0 note=80 velocity=64 time=7
note_on channel=0 note=80 velocity=0 time=113
note_on channel=0 note=88 velocity=64 time=7
note_on channel=0 note=88 velocity=0 time=113
note_on channel=0 note=76 velocity=64 time=7
note_on channel=0 note=76 velocity=0 time=113
note_on channel=0 note=80 velocity=64 time=7
note_on channel=0 note=80 velocity=0 time=113
note_on channel=0 note=90 velocity=64 time=7
note_on channel=0 note=90 velocity=0 time=113
note_on channel=0 note=88 velocity=64 time=7
note_on channel=0 note=88 velocity=0 time=113
note_on channel=0 note=76 velocity=64 time=7
note_on channel=0 note=76 velocity=0 time=113
note_on channel=0 note=80 velocity=64 time=7
note_on channel=0 note=80 velocity=0 time=113
note_on channel=0 note=86 velocity=64 time=7
note_on channel=0 note=86 velocity=0 time=113
note_on channel=0 note=85 velocity=64 time=7
note_on channel=0 note=85 velocity=0 time=113
note_on channel=0 note=76 velocity=64 time=7
note_on channel=0 note=76 velocity=0 time=113
note_on channel=0 note=80 velocity=64 time=7
note_on channel=0 note=80 velocity=0 time=113
note_on channel=0 note=86 velocity=64 time=7
note_on channel=0 note=86 velocity=0 time=113
note_on channel=0 note=85 velocity=64 time=7
note_on channel=0 note=85 velocity=0 time=119
note_on channel=0 note=69 velocity=64 time=121
note_on channel=0 note=69 velocity=0 time=0
note_on channel=0 note=77 velocity=64 time=120
note_on channel=0 note=77 velocity=0 time=113
note_on channel=0 note=85 velocity=64 time=7
note_on channel=0 note=85 velocity=0 time=113
note_on channel=0 note=73 velocity=64 time=7
note_on channel=0 note=73 velocity=0 time=113
note_on channel=0 note=77 velocity=64 time=7
note_on channel=0 note=77 velocity=0 time=113
note_on channel=0 note=86 velocity=64 time=7
note_on channel=0 note=86 velocity=0 time=113
note_on channel=0 note=85 velocity=64 time=7
note_on channel=0 note=85 velocity=0 time=113
note_on channel=0 note=69 velocity=64 time=7
note_on channel=0 note=69 velocity=0 time=113
note_on channel=0 note=73 velocity=64 time=7
note_on channel=0 note=73 velocity=0 time=113
note_on channel=0 note=80 velocity=64 time=7
note_on channel=0 note=80 velocity=0 time=113
note_on channel=0 note=78 velocity=64 time=7
note_on channel=0 note=78 velocity=0 time=113
note_on channel=0 note=73 velocity=64 time=7
note_on channel=0 note=73 velocity=0 time=113
note_on channel=0 note=78 velocity=64 time=7
note_on channel=0 note=78 velocity=0 time=113
note_on channel=0 note=83 velocity=64 time=7
note_on channel=0 note=83 velocity=0 time=113
note_on channel=0 note=85 velocity=64 time=7
note_on channel=0 note=85 velocity=0 time=119
note_on channel=0 note=74 velocity=64 time=241
note_on channel=0 note=74 velocity=0 time=113
note_on channel=0 note=80 velocity=64 time=7
note_on channel=0 note=80 velocity=0 time=113
note_on channel=0 note=74 velocity=64 time=7
note_on channel=0 note=74 velocity=0 time=113
note_on channel=0 note=78 velocity=64 time=7
note_on channel=0 note=78 velocity=0 time=113
note_on channel=0 note=83 velocity=64 time=7
note_on channel=0 note=83 velocity=0 time=113
note_on channel=0 note=81 velocity=64 time=7
note_on channel=0 note=81 velocity=0 time=113
note_on channel=0 note=73 velocity=64 time=7
note_on channel=0 note=73 velocity=0 time=113
note_on channel=0 note=78 velocity=64 time=7
note_on channel=0 note=78 velocity=0 time=113
note_on channel=0 note=85 velocity=64 time=7
note_on channel=0 note=85 velocity=0 time=113
note_on channel=0 note=81 velocity=64 time=7
note_on channel=0 note=81 velocity=0 time=113
note_on channel=0 note=85 velocity=64 time=7
note_on channel=0 note=85 velocity=0 time=113
note_on channel=0 note=90 velocity=64 time=7
note_on channel=0 note=90 velocity=0 time=113
note_on channel=0 note=78 velocity=64 time=7
note_on channel=0 note=78 velocity=0 time=113
note_on channel=0 note=80 velocity=64 time=7
note_on channel=0 note=80 velocity=0 time=113
note_on channel=0 note=85 velocity=64 time=7
note_on channel=0 note=85 velocity=0 time=113
note_on channel=0 note=89 velocity=64 time=7
note_on channel=0 note=89 velocity=0 time=113
note_on channel=0 note=95 velocity=64 time=7
note_on channel=0 note=95 velocity=0 time=113
note_on channel=0 note=81 velocity=64 time=7
note_on channel=0 note=93 velocity=64 time=0
note_on channel=0 note=81 velocity=0 time=239
note_on channel=0 note=93 velocity=0 time=0
note_on channel=0 note=80 velocity=64 time=1
note_on channel=0 note=92 velocity=64 time=0
note_on channel=0 note=80 velocity=0 time=119
note_on channel=0 note=92 velocity=0 time=0
note_on channel=0 note=78 velocity=64 time=121
note_on channel=0 note=90 velocity=64 time=0
note_on channel=0 note=78 velocity=0 time=239
note_on channel=0 note=90 velocity=0 time=0
note_on channel=0 note=57 velocity=64 time=241
note_on channel=0 note=61 velocity=64 time=0
note_on channel=0 note=66 velocity=64 time=0
note_on channel=0 note=57 velocity=0 time=157
note_on channel=0 note=61 velocity=0 time=0
note_on channel=0 note=66 velocity=0 time=0
note_on channel=0 note=73 velocity=57 time=323
note_on channel=0 note=81 velocity=57 time=0
note_on channel=0 note=73 velocity=0 time=157
note_on channel=0 note=81 velocity=0 time=0
note_on channel=0 note=76 velocity=57 time=323
note_on channel=0 note=83 velocity=57 time=0
note_on channel=0 note=76 velocity=0 time=157
note_on channel=0 note=83 velocity=0 time=0
note_on channel=0 note=76 velocity=57 time=323
note_on channel=0 note=85 velocity=57 time=0
control_change channel=0 control=64 value=127 time=2
note_on channel=0 note=76 velocity=0 time=453
note_on channel=0 note=85 velocity=0 time=0
note_on channel=0 note=78 velocity=57 time=25
note_on channel=0 note=78 velocity=0 time=227
note_on channel=0 note=85 velocity=57 time=13
note_on channel=0 note=85 velocity=0 time=170
note_on channel=0 note=78 velocity=57 time=10
note_on channel=0 note=86 velocity=57 time=60
control_change channel=0 control=64 value=0 time=1
note_on channel=0 note=78 velocity=0 time=907
note_on channel=0 note=86 velocity=0 time=3
note_on channel=0 note=77 velocity=57 time=49
note_on channel=0 note=85 velocity=57 time=0
note_on channel=0 note=77 velocity=0 time=455
note_on channel=0 note=85 velocity=0 time=0
note_on channel=0 note=78 velocity=57 time=25
control_change channel=0 control=64 value=0 time=361
control_change channel=0 control=64 value=127 time=1
note_on channel=0 note=78 velocity=0 time=17
note_on channel=0 note=74 velocity=57 time=21
note_on channel=0 note=78 velocity=57 time=40
note_on channel=0 note=83 velocity=57 time=40
note_on channel=0 note=74 velocity=0 time=451
note_on channel=0 note=78 velocity=0 time=2
note_on channel=0 note=83 velocity=0 time=2
note_on channel=0 note=73 velocity=57 time=25
note_on channel=0 note=73 velocity=0 time=227
note_on channel=0 note=74 velocity=57 time=13
note_on channel=0 note=74 velocity=0 time=170
note_on channel=0 note=68 velocity=57 time=10
control_change channel=0 control=64 value=0 time=1
control_change channel=0 control=64 value=127 time=1
note_on channel=0 note=73 velocity=57 time=58
note_on channel=0 note=80 velocity=57 time=0
control_change channel=0 control=2 value=57 time=0
control_change channel=0 control=2 value=58 time=82
control_change channel=0 control=2 value=59 time=41
control_change channel=0 control=2 value=60 time=41
control_change channel=0 control=2 value=61 time=41
note_on channel=0 note=68 velocity=0 time=19
note_on channel=0 note=73 velocity=0 time=3
note_on channel=0 note=80 velocity=0 time=0
note_on channel=0 note=77 velocity=62 time=13
control_change channel=0 control=2 value=62 time=6
control_change channel=0 control=2 value=63 time=41
control_change channel=0 control=2 value=64 time=41
control_change channel=0 control=2 value=65 time=41
control_change channel=0 control=2 value=66 time=41
control_change channel=0 control=2 value=67 time=41
note_on channel=0 note=77 velocity=0 time=16
note_on channel=0 note=65 velocity=68 time=13
note_on channel=0 note=73 velocity=68 time=0
control_change channel=0 control=2 value=68 time=12
control_change channel=0 control=2 value=69 time=41
control_change channel=0 control=2 value=70 time=41
control_change channel=0 control=2 value=71 time=41
control_change channel=0 control=2 value=72 time=41
control_change channel=0 control=2 value=73 time=41
note_on channel=0 note=65 velocity=0 time=10
note_on channel=0 note=73 velocity=0 time=0
note_on channel=0 note=71 velocity=74 time=13
control_change channel=0 control=2 value=74 time=18
control_change channel=0 control=2 value=75 time=41
control_change channel=0 control=2 value=76 time=41
control_change channel=0 control=2 value=77 time=41
control_change channel=0 control=2 value=78 time=41
control_change channel=0 control=2 value=79 time=41
note_on channel=0 note=71 velocity=0 time=4
note_on channel=0 note=73 velocity=80 time=13
control_change channel=0 control=64 value=0 time=1
control_change channel=0 control=2 value=80 time=122
note_on channel=0 note=73 velocity=0 time=218
note_on channel=0 note=65 velocity=81 time=19
note_on channel=0 note=65 velocity=0 time=113
note_on channel=0 note=66 velocity=81 time=7
note_on channel=0 note=66 velocity=0 time=113
note_on channel=0 note=69 velocity=81 time=7
control_change channel=0 control=2 value=81 time=0
control_change channel=0 control=2 value=80 time=26
control_change channel=0 control=2 value=79 time=13
control_change channel=0 control=2 value=78 time=13
control_change channel=0 control=2 value=77 time=13
control_change channel=0 control=2 value=76 time=13
control_change channel=0 control=2 value=75 time=13
control_change channel=0 control=2 value=74 time=13
note_on channel=0 note=69 velocity=0 time=9
control_change channel=0 control=2 value=73 time=4
note_on channel=0 note=73 velocity=73 time=3
control_change channel=0 control=2 value=72 time=10
control_change channel=0 control=2 value=71 time=13
control_change channel=0 control=2 value=70 time=13
control_change channel=0 control=2 value=69 time=13
control_change channel=0 control=2 value=68 time=13
control_change channel=0 control=2 value=67 time=13
control_change channel=0 control=2 value=66 time=13
note_on channel=0 note=73 velocity=0 time=25
control_change channel=0 control=2 value=65 time=1
note_on channel=0 note=78 velocity=64 time=6
control_change channel=0 control=2 value=64 time=7
control_change channel=0 control=2 value=63 time=13
control_change channel=0 control=2 value=62 time=13
control_change channel=0 control=2 value=61 time=13
control_change channel=0 control=2 value=60 time=13
control_change channel=0 control=2 value=59 time=13
control_change channel=0 control=2 value=58 time=13
control_change channel=0 control=2 value=57 time=13
control_change channel=0 control=2 value=56 time=13
note_on channel=0 note=78 velocity=0 time=2
note_on channel=0 note=81 velocity=55 time=7
note_on channel=0 note=81 velocity=0 time=113
note_on channel=0 note=90 velocity=55 time=7
note_on channel=0 note=90 velocity=0 time=113
note_on channel=0 note=85 velocity=55 time=7
note_on channel=0 note=85 velocity=0 time=113
note_on channel=0 note=81 velocity=55 time=7
note_on channel=0 note=81 velocity=0 time=113
note_on channel=0 note=80 velocity=55 time=7
note_on channel=0 note=80 velocity=0 time=113
note_on channel=0 note=85 velocity=55 time=7
note_on channel=0 note=85 velocity=0 time=113
note_on channel=0 note=73 velocity=55 time=7
note_on channel=0 note=73 velocity=0 time=227
note_on channel=0 note=61 velocity=55 time=13
note_on channel=0 note=69 velocity=55 time=0
note_on channel=0 note=61 velocity=0 time=157
note_on channel=0 note=69 velocity=0 time=0
note_on channel=0 note=61 velocity=55 time=323
note_on channel=0 note=71 velocity=55 time=0
note_on channel=0 note=61 velocity=0 time=117
note_on channel=0 note=71 velocity=0 time=0
note_on channel=0 note=61 velocity=55 time=243
note_on channel=0 note=66 velocity=55 time=60
note_on channel=0 note=73 velocity=55 time=60
note_on channel=0 note=61 velocity=0 time=221
note_on channel=0 note=66 velocity=0 time=3
note_on channel=0 note=73 velocity=0 time=3
note_on channel=0 note=78 velocity=55 time=13
note_on channel=0 note=78 velocity=0 time=227
note_on channel=0 note=73 velocity=55 time=13
note_on channel=0 note=73 velocity=0 time=398
note_on channel=0 note=66 velocity=55 time=22
note_on channel=0 note=74 velocity=55 time=60
note_on channel=0 note=66 velocity=0 time=851
note_on channel=0 note=74 velocity=0 time=3
note_on channel=0 note=66 velocity=55 time=46
note_on channel=0 note=73 velocity=55 time=60
note_on channel=0 note=66 velocity=0 time=452
note_on channel=0 note=73 velocity=0 time=3
note_on channel=0 note=66 velocity=55 time=25
note_on channel=0 note=66 velocity=0 time=341
note_on channel=0 note=62 velocity=55 time=19
note_on channel=0 note=66 velocity=55 time=60
note_on channel=0 note=71 velocity=55 time=60
note_on channel=0 note=62 velocity=0 time=221
note_on channel=0 note=66 velocity=0 time=3
note_on channel=0 note=71 velocity=0 time=3
note_on channel=0 note=73 velocity=55 time=13
note_on channel=0 note=73 velocity=0 time=227
note_on channel=0 note=61 velocity=55 time=13
note_on channel=0 note=69 velocity=55 time=0
note_on channel=0 note=61 velocity=0 time=78
note_on channel=0 note=69 velocity=0 time=0
note_on channel=0 note=61 velocity=55 time=162
note_on channel=0 note=68 velocity=55 time=0
note_on channel=0 note=61 velocity=0 time=78
note_on channel=0 note=68 velocity=0 time=0
note_on channel=0 note=59 velocity=55 time=162
note_on channel=0 note=66 velocity=55 time=0
note_on channel=0 note=59 velocity=0 time=157
note_on channel=0 note=66 velocity=0 time=0
note_on channel=0 note=59 velocity=55 time=323
note_on channel=0 note=65 velocity=55 time=0
note_on channel=0 note=59 velocity=0 time=455
note_on channel=0 note=65 velocity=0 time=0
note_on channel=0 note=57 velocity=64 time=25
note_on channel=0 note=61 velocity=64 time=0
note_on channel=0 note=66 velocity=64 time=0
note_on channel=0 note=57 velocity=0 time=455
note_on channel=0 note=61 velocity=0 time=0
note_on channel=0 note=66 velocity=0 time=0
note_on channel=0 note=61 velocity=64 time=25
note_on channel=0 note=61 velocity=0 time=113
note_on channel=0 note=73 velocity=64 time=7
note_on channel=0 note=73 velocity=0 time=113
note_on channel=0 note=73 velocity=73 time=7
note_on channel=0 note=73 velocity=0 time=113
note_on channel=0 note=68 velocity=64 time=7
note_on channel=0 note=68 velocity=0 time=113
note_on channel=0 note=80 velocity=64 time=7
note_on channel=0 note=80 velocity=0 time=113
note_on channel=0 note=85 velocity=64 time=7
note_on channel=0 note=85 velocity=0 time=113
note_on channel=0 note=80 velocity=64 time=7
note_on channel=0 note=80 velocity=0 time=113
note_on channel=0 note=73 velocity=64 time=7
note_on channel=0 note=73 velocity=0 time=113
note_on channel=0 note=85 velocity=64 time=7
note_on channel=0 note=97 velocity=64 time=82
note_on channel=0 note=97 velocity=0 time=396
note_on channel=0 note=85 velocity=0 time=1
note_on channel=0 note=69 velocity=58 time=1
note_on channel=0 note=69 velocity=0 time=455
note_on channel=0 note=71 velocity=58 time=25
note_on channel=0 note=71 velocity=0 time=227
note_on channel=0 note=61 velocity=58 time=13
note_on channel=0 note=61 velocity=0 time=227
note_on channel=0 note=67 velocity=58 time=13
note_on channel=0 note=73 velocity=58 time=0
note_on channel=0 note=67 velocity=0 time=455
note_on channel=0 note=73 velocity=0 time=0
note_on channel=0 note=66 velocity=58 time=25
note_on channel=0 note=66 velocity=0 time=227
note_on channel=0 note=78 velocity=58 time=13
note_on channel=0 note=78 velocity=0 time=170
note_on channel=0 note=78 velocity=58 time=10
note_on channel=0 note=78 velocity=0 time=56
note_on channel=0 note=76 velocity=58 time=4
note_on channel=0 note=76 velocity=0 time=227
note_on channel=0 note=74 velocity=58 time=13
note_on channel=0 note=74 velocity=0 time=227
note_on channel=0 note=73 velocity=58 time=13
note_on channel=0 note=73 velocity=0 time=227
note_on channel=0 note=71 velocity=58 time=13
note_on channel=0 note=71 velocity=0 time=227
note_on channel=0 note=73 velocity=58 time=13
note_on channel=0 note=73 velocity=0 time=455
note_on channel=0 note=66 velocity=58 time=25
note_on channel=0 note=66 velocity=0 time=0
note_on channel=0 note=78 velocity=58 time=240
note_on channel=0 note=78 velocity=0 time=170
note_on channel=0 note=78 velocity=58 time=10
note_on channel=0 note=78 velocity=0 time=56
note_on channel=0 note=76 velocity=58 time=4
note_on channel=0 note=76 velocity=0 time=227
note_on channel=0 note=74 velocity=58 time=13
note_on channel=0 note=74 velocity=0 time=227
note_on channel=0 note=73 velocity=58 time=13
note_on channel=0 note=73 velocity=0 time=227
note_on channel=0 note=71 velocity=58 time=13
note_on channel=0 note=71 velocity=0 time=227
note_on channel=0 note=73 velocity=58 time=13
note_on channel=0 note=73 velocity=0 time=227
note_on channel=0 note=78 velocity=58 time=13
note_on channel=0 note=78 velocity=0 time=227
note_on channel=0 note=66 velocity=58 time=13
note_on channel=0 note=66 velocity=0 time=0
note_on channel=0 note=73 velocity=58 time=240
note_on channel=0 note=73 velocity=0 time=170
note_on channel=0 note=73 velocity=58 time=10
note_on channel=0 note=73 velocity=0 time=56
note_on channel=0 note=71 velocity=58 time=4
note_on channel=0 note=71 velocity=0 time=227
note_on channel=0 note=69 velocity=58 time=13
note_on channel=0 note=69 velocity=0 time=119
note_on channel=0 note=68 velocity=58 time=121
note_on channel=0 note=68 velocity=0 time=119
note_on channel=0 note=66 velocity=58 time=121
note_on channel=0 note=66 velocity=0 time=119
note_on channel=0 note=66 velocity=58 time=121
note_on channel=0 note=66 velocity=0 time=119
note_on channel=0 note=61 velocity=58 time=121
note_on channel=0 note=61 velocity=0 time=78
note_on channel=0 note=68 velocity=58 time=162
note_on channel=0 note=68 velocity=0 time=227
note_on channel=0 note=73 velocity=58 time=13
note_on channel=0 note=73 velocity=0 time=227
note_on channel=0 note=61 velocity=58 time=13
note_on channel=0 note=69 velocity=58 time=0
control_change channel=0 control=2 value=58 time=121
note_on channel=0 note=61 velocity=0 time=36
note_on channel=0 note=69 velocity=0 time=0
note_on channel=0 note=61 velocity=59 time=323
note_on channel=0 note=68 velocity=59 time=0
control_change channel=0 control=2 value=59 time=153
note_on channel=0 note=61 velocity=0 time=4
note_on channel=0 note=68 velocity=0 time=0
control_change channel=0 control=2 value=60 time=252
note_on channel=0 note=69 velocity=61 time=71
note_on channel=0 note=61 velocity=61 time=0
control_change channel=0 control=2 value=61 time=185
note_on channel=0 note=69 velocity=0 time=42
note_on channel=0 note=64 velocity=62 time=13
control_change channel=0 control=2 value=62 time=201
note_on channel=0 note=61 velocity=0 time=14
note_on channel=0 note=64 velocity=0 time=12
note_on channel=0 note=73 velocity=63 time=13
control_change channel=0 control=2 value=63 time=217
note_on channel=0 note=73 velocity=0 time=10
note_on channel=0 note=78 velocity=64 time=13
note_on channel=0 note=78 velocity=0 time=170
note_on channel=0 note=78 velocity=65 time=10
control_change channel=0 control=2 value=64 time=53
note_on channel=0 note=78 velocity=0 time=3
note_on channel=0 note=76 velocity=65 time=4
note_on channel=0 note=76 velocity=0 time=227
note_on channel=0 note=74 velocity=66 time=13
control_change channel=0 control=2 value=65 time=9
note_on channel=0 note=74 velocity=0 time=218
note_on channel=0 note=73 velocity=67 time=13
control_change channel=0 control=2 value=66 time=25
note_on channel=0 note=73 velocity=0 time=202
note_on channel=0 note=71 velocity=68 time=13
control_change channel=0 control=2 value=67 time=41
note_on channel=0 note=71 velocity=0 time=186
note_on channel=0 note=73 velocity=69 time=13
control_change channel=0 control=2 value=68 time=57
note_on channel=0 note=73 velocity=0 time=170
note_on channel=0 note=69 velocity=69 time=13
control_change channel=0 control=2 value=69 time=73
note_on channel=0 note=69 velocity=0 time=154
note_on channel=0 note=76 velocity=70 time=13
control_change channel=0 control=2 value=70 time=89
note_on channel=0 note=76 velocity=0 time=138
note_on channel=0 note=83 velocity=71 time=13
control_change channel=0 control=2 value=71 time=105
note_on channel=0 note=83 velocity=0 time=122
note_on channel=0 note=81 velocity=72 time=13
control_change channel=0 control=2 value=72 time=121
note_on channel=0 note=81 velocity=0 time=106
note_on channel=0 note=80 velocity=73 time=13
control_change channel=0 control=2 value=73 time=137
note_on channel=0 note=80 velocity=0 time=90
note_on channel=0 note=78 velocity=74 time=13
control_change channel=0 control=2 value=74 time=153
note_on channel=0 note=78 velocity=0 time=74
note_on channel=0 note=80 velocity=75 time=13
control_change channel=0 control=2 value=75 time=169
note_on channel=0 note=80 velocity=0 time=1
note_on channel=0 note=73 velocity=76 time=10
note_on channel=0 note=78 velocity=76 time=30
note_on channel=0 note=85 velocity=76 time=30
control_change channel=0 control=2 value=76 time=185
note_on channel=0 note=73 velocity=0 time=152
note_on channel=0 note=78 velocity=0 time=2
note_on channel=0 note=85 velocity=0 time=2
note_on channel=0 note=73 velocity=77 time=19
control_change channel=0 control=2 value=77 time=81
note_on channel=0 note=73 velocity=0 time=32
note_on channel=0 note=77 velocity=78 time=7
note_on channel=0 note=85 velocity=78 time=0
control_change channel=0 control=2 value=78 time=217
note_on channel=0 note=77 velocity=0 time=10
note_on channel=0 note=85 velocity=0 time=0
note_on channel=0 note=73 velocity=79 time=13
note_on channel=0 note=73 velocity=0 time=227
control_change channel=0 control=2 value=79 time=6
note_on channel=0 note=69 velocity=80 time=7
note_on channel=0 note=73 velocity=80 time=0
note_on channel=0 note=78 velocity=80 time=0
note_on channel=0 note=69 velocity=0 time=911
note_on channel=0 note=73 velocity=0 time=0
note_on channel=0 note=78 velocity=0 time=0
note_on channel=0 note=70 velocity=80 time=49
note_on channel=0 note=73 velocity=80 time=0
note_on channel=0 note=79 velocity=80 time=0
note_on channel=0 note=70 velocity=0 time=683
note_on channel=0 note=73 velocity=0 time=0
note_on channel=0 note=79 velocity=0 time=0
note_on channel=0 note=70 velocity=80 time=37
note_on channel=0 note=73 velocity=80 time=0
note_on channel=0 note=78 velocity=80 time=0
note_on channel=0 note=70 velocity=0 time=227
note_on channel=0 note=73 velocity=0 time=0
note_on channel=0 note=78 velocity=0 time=0
note_on channel=0 note=66 velocity=80 time=13
note_on channel=0 note=69 velocity=80 time=0
note_on channel=0 note=76 velocity=80 time=0
note_on channel=0 note=66 velocity=0 time=227
note_on channel=0 note=69 velocity=0 time=0
note_on channel=0 note=76 velocity=0 time=0
note_on channel=0 note=62 velocity=80 time=13
note_on channel=0 note=62 velocity=0 time=113
note_on channel=0 note=69 velocity=80 time=7
note_on channel=0 note=69 velocity=0 time=113
note_on channel=0 note=74 velocity=80 time=7
note_on channel=0 note=74 velocity=0 time=227
note_on channel=0 note=66 velocity=80 time=13
note_on channel=0 note=66 velocity=0 time=227
note_on channel=0 note=61 velocity=80 time=13
note_on channel=0 note=66 velocity=80 time=0
note_on channel=0 note=73 velocity=80 time=0
note_on channel=0 note=61 velocity=0 time=157
note_on channel=0 note=66 velocity=0 time=0
note_on channel=0 note=73 velocity=0 time=0
note_on channel=0 note=65 velocity=96 time=323
note_on channel=0 note=71 velocity=96 time=0
note_on channel=0 note=73 velocity=96 time=0
note_on channel=0 note=65 velocity=0 time=455
note_on channel=0 note=71 velocity=0 time=0
note_on channel=0 note=73 velocity=0 time=0
note_on channel=0 note=54 velocity=96 time=25
note_on channel=0 note=57 velocity=96 time=0
note_on channel=0 note=61 velocity=96 time=0
note_on channel=0 note=54 velocity=0 time=341
note_on channel=0 note=57 velocity=0 time=0
note_on channel=0 note=61 velocity=0 time=0
note_on channel=0 note=73 velocity=96 time=19
note_on channel=0 note=85 velocity=96 time=0
note_on channel=0 note=73 velocity=0 time=113
note_on channel=0 note=85 velocity=0 time=0
note_on channel=0 note=73 velocity=96 time=7
note_on channel=0 note=78 velocity=96 time=0
note_on channel=0 note=85 velocity=96 time=0
note_on channel=0 note=73 velocity=0 time=455
note_on channel=0 note=78 velocity=0 time=0
note_on channel=0 note=85 velocity=0 time=0
note_on channel=0 note=54 velocity=96 time=25
note_on channel=0 note=56 velocity=96 time=0
note_on channel=0 note=59 velocity=96 time=0
note_on channel=0 note=62 velocity=96 time=0
note_on channel=0 note=54 velocity=0 time=341
note_on channel=0 note=56 velocity=0 time=0
note_on channel=0 note=59 velocity=0 time=0
note_on channel=0 note=62 velocity=0 time=0
note_on channel=0 note=74 velocity=96 time=19
note_on channel=0 note=86 velocity=96 time=0
note_on channel=0 note=74 velocity=0 time=113
note_on channel=0 note=86 velocity=0 time=0
note_on channel=0 note=74 velocity=96 time=7
note_on channel=0 note=80 velocity=96 time=0
note_on channel=0 note=86 velocity=96 time=0
note_on channel=0 note=74 velocity=0 time=455
note_on channel=0 note=80 velocity=0 time=0
note_on channel=0 note=86 velocity=0 time=0
note_on channel=0 note=73 velocity=96 time=25
note_on channel=0 note=78 velocity=96 time=0
note_on channel=0 note=85 velocity=96 time=0
note_on channel=0 note=73 velocity=0 time=303
note_on channel=0 note=78 velocity=0 time=0
note_on channel=0 note=85 velocity=0 time=0
note_on channel=0 note=73 velocity=82 time=17
note_on channel=0 note=73 velocity=0 time=75
note_on channel=0 note=78 velocity=82 time=5
note_on channel=0 note=78 velocity=0 time=75
note_on channel=0 note=71 velocity=82 time=5
note_on channel=0 note=77 velocity=82 time=0
note_on channel=0 note=81 velocity=82 time=0
note_on channel=0 note=71 velocity=0 time=119
note_on channel=0 note=77 velocity=0 time=0
note_on channel=0 note=81 velocity=0 time=0
note_on channel=0 note=71 velocity=82 time=121
note_on channel=0 note=77 velocity=82 time=0
note_on channel=0 note=71 velocity=0 time=119
note_on channel=0 note=77 velocity=0 time=0
note_on channel=0 note=69 velocity=82 time=121
note_on channel=0 note=73 velocity=82 time=0
note_on channel=0 note=78 velocity=82 time=0
note_on channel=0 note=69 velocity=0 time=227
note_on channel=0 note=73 velocity=0 time=0
note_on channel=0 note=78 velocity=0 time=0
note_on channel=0 note=78 velocity=64 time=133
note_on channel=0 note=81 velocity=64 time=40
note_on channel=0 note=85 velocity=64 time=40
note_on channel=0 note=90 velocity=64 time=40
note_on channel=0 note=78 velocity=0 time=113
note_on channel=0 note=81 velocity=0 time=2
note_on channel=0 note=85 velocity=0 time=2
note_on channel=0 note=90 velocity=0 time=2
note_on channel=0 note=92 velocity=64 time=121
note_on channel=0 note=92 velocity=0 time=119
note_on channel=0 note=85 velocity=64 time=121
note_on channel=0 note=93 velocity=64 time=0
note_on channel=0 note=85 velocity=0 time=227
note_on channel=0 note=93 velocity=0 time=0
note_on channel=0 note=81 velocity=64 time=13
note_on channel=0 note=81 velocity=0 time=227
note_on channel=0 note=85 velocity=64 time=13
note_on channel=0 note=85 velocity=0 time=227
note_on channel=0 note=93 velocity=64 time=13
note_on channel=0 note=93 velocity=0 time=227
note_on channel=0 note=86 velocity=64 time=13
note_on channel=0 note=92 velocity=64 time=0
note_on channel=0 note=86 velocity=0 time=227
note_on channel=0 note=92 velocity=0 time=0
note_on channel=0 note=83 velocity=64 time=13
note_on channel=0 note=83 velocity=0 time=227
note_on channel=0 note=86 velocity=64 time=13
note_on channel=0 note=86 velocity=0 time=227
note_on channel=0 note=92 velocity=64 time=13
note_on channel=0 note=92 velocity=0 time=227
note_on channel=0 note=81 velocity=64 time=13
note_on channel=0 note=90 velocity=64 time=0
note_on channel=0 note=81 velocity=0 time=227
note_on channel=0 note=90 velocity=0 time=0
note_on channel=0 note=78 velocity=64 time=13
note_on channel=0 note=78 velocity=0 time=227
note_on channel=0 note=81 velocity=64 time=13
note_on channel=0 note=81 velocity=0 time=227
note_on channel=0 note=88 velocity=64 time=13
note_on channel=0 note=88 velocity=0 time=227
note_on channel=0 note=81 velocity=64 time=13
note_on channel=0 note=86 velocity=64 time=0
control_change channel=0 control=2 value=64 time=0
control_change channel=0 control=2 value=65 time=180
note_on channel=0 note=81 velocity=0 time=47
note_on channel=0 note=86 velocity=0 time=0
note_on channel=0 note=78 velocity=65 time=13
control_change channel=0 control=2 value=66 time=120
note_on channel=0 note=78 velocity=0 time=107
note_on channel=0 note=81 velocity=66 time=13
control_change channel=0 control=2 value=67 time=60
note_on channel=0 note=81 velocity=0 time=167
note_on channel=0 note=86 velocity=68 time=13
control_change channel=0 control=2 value=68 time=0
control_change channel=0 control=2 value=69 time=180
note_on channel=0 note=86 velocity=0 time=47
note_on channel=0 note=85 velocity=69 time=13
control_change channel=0 control=2 value=70 time=120
control_change channel=0 control=2 value=71 time=180
note_on channel=0 note=85 velocity=0 time=155
note_on channel=0 note=78 velocity=72 time=25
control_change channel=0 control=2 value=72 time=0
control_change channel=0 control=2 value=73 time=180
note_on channel=0 note=78 velocity=0 time=161
note_on channel=0 note=77 velocity=74 time=19
control_change channel=0 control=2 value=74 time=0
note_on channel=0 note=80 velocity=74 time=60
note_on channel=0 note=85 velocity=74 time=60
control_change channel=0 control=2 value=75 time=60
control_change channel=0 control=2 value=76 time=180
note_on channel=0 note=77 velocity=0 time=180
control_change channel=0 control=2 value=77 time=0
note_on channel=0 note=80 velocity=0 time=3
note_on channel=0 note=85 velocity=0 time=3
note_on channel=0 note=71 velocity=72 time=24
note_on channel=0 note=81 velocity=77 time=30
control_change channel=0 control=2 value=78 time=120
note_on channel=0 note=71 velocity=0 time=105
note_on channel=0 note=81 velocity=0 time=2
note_on channel=0 note=80 velocity=78 time=13
control_change channel=0 control=2 value=79 time=60
note_on channel=0 note=80 velocity=0 time=167
note_on channel=0 note=69 velocity=80 time=13
note_on channel=0 note=73 velocity=80 time=0
note_on channel=0 note=78 velocity=80 time=0
note_on channel=0 note=69 velocity=0 time=239
note_on channel=0 note=73 velocity=0 time=0
note_on channel=0 note=78 velocity=0 time=0
note_on channel=0 note=81 velocity=49 time=1121
note_on channel=0 note=85 velocity=49 time=40
note_on channel=0 note=90 velocity=49 time=40
note_on channel=0 note=81 velocity=0 time=153
note_on channel=0 note=85 velocity=0 time=2
note_on channel=0 note=90 velocity=0 time=2
<meta message set_tempo tempo=1500000 time=323>
<meta message set_tempo tempo=387097 time=1920>
<meta message end_of_track time=1>
=== Track 1 ===
<meta message key_signature key='A' time=0>
<meta message midi_port port=0 time=0>
note_on channel=0 note=66 velocity=57 time=0
note_on channel=0 note=66 velocity=0 time=157
note_on channel=0 note=68 velocity=57 time=323
note_on channel=0 note=68 velocity=0 time=157
note_on channel=0 note=69 velocity=57 time=323
note_on channel=0 note=69 velocity=0 time=227
note_on channel=0 note=73 velocity=57 time=13
note_on channel=0 note=73 velocity=0 time=227
note_on channel=0 note=59 velocity=57 time=493
control_change channel=0 control=64 value=127 time=2
note_on channel=0 note=66 velocity=57 time=238
note_on channel=0 note=66 velocity=0 time=227
note_on channel=0 note=73 velocity=57 time=13
note_on channel=0 note=73 velocity=0 time=227
note_on channel=0 note=74 velocity=57 time=13
note_on channel=0 note=59 velocity=0 time=191
note_on channel=0 note=74 velocity=0 time=36
note_on channel=0 note=57 velocity=57 time=13
control_change channel=0 control=64 value=0 time=1
control_change channel=0 control=64 value=127 time=1
note_on channel=0 note=61 velocity=57 time=238
note_on channel=0 note=61 velocity=0 time=227
note_on channel=0 note=66 velocity=57 time=13
note_on channel=0 note=66 velocity=0 time=227
note_on channel=0 note=73 velocity=57 time=13
note_on channel=0 note=57 velocity=0 time=191
note_on channel=0 note=73 velocity=0 time=36
note_on channel=0 note=56 velocity=57 time=13
note_on channel=0 note=66 velocity=57 time=240
note_on channel=0 note=66 velocity=0 time=227
note_on channel=0 note=56 velocity=0 time=444
note_on channel=0 note=61 velocity=57 time=49
control_change channel=0 control=2 value=57 time=0
control_change channel=0 control=2 value=58 time=82
control_change channel=0 control=2 value=59 time=41
control_change channel=0 control=2 value=60 time=41
control_change channel=0 control=2 value=61 time=41
control_change channel=0 control=2 value=62 time=41
control_change channel=0 control=2 value=63 time=41
control_change channel=0 control=2 value=64 time=41
control_change channel=0 control=2 value=65 time=41
control_change channel=0 control=2 value=66 time=41
control_change channel=0 control=2 value=67 time=41
note_on channel=0 note=61 velocity=0 time=4
note_on channel=0 note=47 velocity=68 time=25
note_on channel=0 note=59 velocity=68 time=0
control_change channel=0 control=2 value=68 time=12
control_change channel=0 control=2 value=69 time=41
control_change channel=0 control=2 value=70 time=41
control_change channel=0 control=2 value=71 time=41
control_change channel=0 control=2 value=72 time=41
control_change channel=0 control=2 value=73 time=41
control_change channel=0 control=2 value=74 time=41
control_change channel=0 control=2 value=75 time=41
control_change channel=0 control=2 value=76 time=41
control_change channel=0 control=2 value=77 time=41
control_change channel=0 control=2 value=78 time=41
note_on channel=0 note=47 velocity=0 time=33
note_on channel=0 note=59 velocity=0 time=0
control_change channel=0 control=2 value=79 time=8
note_on channel=0 note=33 velocity=80 time=17
note_on channel=0 note=45 velocity=80 time=0
control_change channel=0 control=64 value=127 time=2
control_change channel=0 control=2 value=80 time=121
control_change channel=0 control=2 value=81 time=477
control_change channel=0 control=2 value=80 time=26
control_change channel=0 control=2 value=79 time=13
control_change channel=0 control=2 value=78 time=13
control_change channel=0 control=2 value=77 time=13
control_change channel=0 control=2 value=76 time=13
control_change channel=0 control=2 value=75 time=13
control_change channel=0 control=2 value=74 time=13
control_change channel=0 control=2 value=73 time=13
control_change channel=0 control=2 value=72 time=13
control_change channel=0 control=2 value=71 time=13
control_change channel=0 control=2 value=70 time=13
control_change channel=0 control=2 value=69 time=13
control_change channel=0 control=2 value=68 time=13
control_change channel=0 control=2 value=67 time=13
control_change channel=0 control=2 value=66 time=13
control_change channel=0 control=2 value=65 time=26
control_change channel=0 control=2 value=64 time=13
control_change channel=0 control=2 value=63 time=13
control_change channel=0 control=2 value=62 time=13
control_change channel=0 control=2 value=61 time=13
control_change channel=0 control=2 value=60 time=13
note_on channel=0 note=33 velocity=0 time=12
note_on channel=0 note=45 velocity=0 time=0
control_change channel=0 control=2 value=59 time=1
control_change channel=0 control=2 value=58 time=13
control_change channel=0 control=2 value=57 time=13
control_change channel=0 control=2 value=56 time=13
note_on channel=0 note=62 velocity=55 time=9
note_on channel=0 note=66 velocity=55 time=0
note_on channel=0 note=71 velocity=55 time=0
control_change channel=0 control=64 value=0 time=1
note_on channel=0 note=62 velocity=0 time=156
note_on channel=0 note=66 velocity=0 time=0
note_on channel=0 note=71 velocity=0 time=0
note_on channel=0 note=61 velocity=55 time=323
note_on channel=0 note=65 velocity=55 time=0
note_on channel=0 note=68 velocity=55 time=0
note_on channel=0 note=61 velocity=0 time=157
note_on channel=0 note=65 velocity=0 time=0
note_on channel=0 note=68 velocity=0 time=0
note_on channel=0 note=45 velocity=55 time=323
note_on channel=0 note=57 velocity=55 time=0
note_on channel=0 note=45 velocity=0 time=157
note_on channel=0 note=57 velocity=0 time=0
note_on channel=0 note=41 velocity=55 time=323
note_on channel=0 note=53 velocity=55 time=0
note_on channel=0 note=41 velocity=0 time=157
note_on channel=0 note=53 velocity=0 time=0
note_on channel=0 note=42 velocity=55 time=323
note_on channel=0 note=54 velocity=55 time=0
control_change channel=0 control=64 value=127 time=2
note_on channel=0 note=42 velocity=0 time=909
note_on channel=0 note=54 velocity=0 time=0
note_on channel=0 note=47 velocity=55 time=49
control_change channel=0 control=64 value=0 time=1
control_change channel=0 control=64 value=127 time=1
note_on channel=0 note=54 velocity=55 time=238
note_on channel=0 note=54 velocity=0 time=227
note_on channel=0 note=61 velocity=55 time=13
note_on channel=0 note=61 velocity=0 time=227
note_on channel=0 note=62 velocity=55 time=13
note_on channel=0 note=47 velocity=0 time=191
note_on channel=0 note=62 velocity=0 time=36
note_on channel=0 note=45 velocity=55 time=13
control_change channel=0 control=64 value=0 time=1
control_change channel=0 control=64 value=127 time=1
note_on channel=0 note=49 velocity=55 time=238
note_on channel=0 note=49 velocity=0 time=227
note_on channel=0 note=54 velocity=55 time=13
note_on channel=0 note=54 velocity=0 time=227
note_on channel=0 note=61 velocity=55 time=13
note_on channel=0 note=45 velocity=0 time=191
note_on channel=0 note=61 velocity=0 time=36
note_on channel=0 note=44 velocity=55 time=13
note_on channel=0 note=44 velocity=0 time=455
note_on channel=0 note=54 velocity=55 time=25
control_change channel=0 control=64 value=0 time=1
note_on channel=0 note=54 velocity=0 time=77
note_on channel=0 note=52 velocity=55 time=162
note_on channel=0 note=52 velocity=0 time=78
note_on channel=0 note=50 velocity=55 time=162
note_on channel=0 note=50 velocity=0 time=157
note_on channel=0 note=49 velocity=55 time=323
note_on channel=0 note=49 velocity=0 time=455
note_on channel=0 note=42 velocity=64 time=25
note_on channel=0 note=54 velocity=64 time=0
control_change channel=0 control=64 value=127 time=2
note_on channel=0 note=42 velocity=0 time=453
note_on channel=0 note=54 velocity=0 time=0
note_on channel=0 note=37 velocity=64 time=25
note_on channel=0 note=49 velocity=64 time=0
note_on channel=0 note=37 velocity=0 time=1367
note_on channel=0 note=49 velocity=0 time=0
note_on channel=0 note=54 velocity=58 time=73
control_change channel=0 control=64 value=0 time=1
control_change channel=0 control=64 value=127 time=1
note_on channel=0 note=54 velocity=0 time=225
note_on channel=0 note=61 velocity=58 time=13
note_on channel=0 note=61 velocity=0 time=227
note_on channel=0 note=66 velocity=58 time=13
note_on channel=0 note=66 velocity=0 time=455
note_on channel=0 note=42 velocity=58 time=25
control_change channel=0 control=64 value=0 time=1
control_change channel=0 control=64 value=127 time=1
note_on channel=0 note=42 velocity=0 time=225
note_on channel=0 note=54 velocity=58 time=13
note_on channel=0 note=54 velocity=0 time=227
note_on channel=0 note=66 velocity=58 time=13
note_on channel=0 note=66 velocity=0 time=455
note_on channel=0 note=47 velocity=58 time=25
note_on channel=0 note=47 velocity=0 time=227
note_on channel=0 note=59 velocity=58 time=13
note_on channel=0 note=59 velocity=0 time=227
note_on channel=0 note=62 velocity=58 time=13
note_on channel=0 note=68 velocity=58 time=0
note_on channel=0 note=62 velocity=0 time=455
note_on channel=0 note=68 velocity=0 time=0
note_on channel=0 note=45 velocity=58 time=25
note_on channel=0 note=45 velocity=0 time=227
note_on channel=0 note=54 velocity=58 time=13
note_on channel=0 note=54 velocity=0 time=227
note_on channel=0 note=57 velocity=58 time=13
note_on channel=0 note=66 velocity=58 time=0
note_on channel=0 note=57 velocity=0 time=455
note_on channel=0 note=66 velocity=0 time=0
note_on channel=0 note=44 velocity=58 time=25
note_on channel=0 note=44 velocity=0 time=227
note_on channel=0 note=56 velocity=58 time=13
note_on channel=0 note=56 velocity=0 time=227
note_on channel=0 note=59 velocity=58 time=13
note_on channel=0 note=66 velocity=58 time=0
note_on channel=0 note=59 velocity=0 time=455
note_on channel=0 note=66 velocity=0 time=0
note_on channel=0 note=45 velocity=58 time=25
note_on channel=0 note=45 velocity=0 time=227
note_on channel=0 note=54 velocity=58 time=13
note_on channel=0 note=54 velocity=0 time=227
note_on channel=0 note=61 velocity=58 time=13
note_on channel=0 note=66 velocity=58 time=0
note_on channel=0 note=61 velocity=0 time=455
note_on channel=0 note=66 velocity=0 time=0
note_on channel=0 note=44 velocity=58 time=25
note_on channel=0 note=56 velocity=58 time=0
note_on channel=0 note=44 velocity=0 time=227
note_on channel=0 note=56 velocity=0 time=0
note_on channel=0 note=54 velocity=58 time=13
note_on channel=0 note=59 velocity=58 time=0
note_on channel=0 note=54 velocity=0 time=119
note_on channel=0 note=59 velocity=0 time=0
note_on channel=0 note=59 velocity=58 time=121
note_on channel=0 note=62 velocity=58 time=0
note_on channel=0 note=59 velocity=0 time=157
note_on channel=0 note=62 velocity=0 time=0
note_on channel=0 note=37 velocity=58 time=323
note_on channel=0 note=49 velocity=58 time=0
note_on channel=0 note=37 velocity=0 time=157
note_on channel=0 note=49 velocity=0 time=0
note_on channel=0 note=53 velocity=58 time=323
note_on channel=0 note=56 velocity=58 time=0
note_on channel=0 note=59 velocity=58 time=0
note_on channel=0 note=53 velocity=0 time=455
note_on channel=0 note=56 velocity=0 time=0
note_on channel=0 note=59 velocity=0 time=0
note_on channel=0 note=54 velocity=58 time=25
note_on channel=0 note=57 velocity=58 time=0
control_change channel=0 control=2 value=58 time=121
note_on channel=0 note=54 velocity=0 time=36
note_on channel=0 note=57 velocity=0 time=0
note_on channel=0 note=53 velocity=59 time=323
note_on channel=0 note=57 velocity=59 time=0
control_change channel=0 control=2 value=59 time=153
note_on channel=0 note=53 velocity=0 time=4
note_on channel=0 note=57 velocity=0 time=0
control_change channel=0 control=2 value=60 time=252
note_on channel=0 note=52 velocity=61 time=71
note_on channel=0 note=57 velocity=61 time=0
control_change channel=0 control=2 value=61 time=185
control_change channel=0 control=2 value=62 time=256
note_on channel=0 note=52 velocity=0 time=14
note_on channel=0 note=57 velocity=0 time=0
note_on channel=0 note=51 velocity=63 time=25
note_on channel=0 note=59 velocity=63 time=0
control_change channel=0 control=2 value=63 time=217
note_on channel=0 note=51 velocity=0 time=238
note_on channel=0 note=59 velocity=0 time=0
control_change channel=0 control=2 value=64 time=18
note_on channel=0 note=50 velocity=65 time=7
note_on channel=0 note=59 velocity=65 time=0
control_change channel=0 control=2 value=65 time=249
control_change channel=0 control=2 value=66 time=256
control_change channel=0 control=2 value=67 time=256
note_on channel=0 note=50 velocity=0 time=150
note_on channel=0 note=59 velocity=0 time=0
note_on channel=0 note=49 velocity=69 time=49
note_on channel=0 note=52 velocity=69 time=0
note_on channel=0 note=59 velocity=69 time=0
control_change channel=0 control=64 value=127 time=2
control_change channel=0 control=2 value=68 time=55
control_change channel=0 control=2 value=69 time=256
control_change channel=0 control=2 value=70 time=256
control_change channel=0 control=2 value=71 time=256
note_on channel=0 note=49 velocity=0 time=86
note_on channel=0 note=52 velocity=0 time=0
note_on channel=0 note=59 velocity=0 time=0
note_on channel=0 note=50 velocity=72 time=49
control_change channel=0 control=64 value=0 time=1
control_change channel=0 control=2 value=72 time=120
note_on channel=0 note=50 velocity=0 time=106
note_on channel=0 note=57 velocity=73 time=13
control_change channel=0 control=2 value=73 time=137
note_on channel=0 note=57 velocity=0 time=90
note_on channel=0 note=64 velocity=74 time=13
control_change channel=0 control=2 value=74 time=153
note_on channel=0 note=64 velocity=0 time=74
note_on channel=0 note=69 velocity=75 time=13
control_change channel=0 control=2 value=75 time=169
note_on channel=0 note=69 velocity=0 time=58
note_on channel=0 note=49 velocity=76 time=13
control_change channel=0 control=2 value=76 time=185
control_change channel=0 control=2 value=77 time=256
note_on channel=0 note=49 velocity=0 time=14
note_on channel=0 note=37 velocity=78 time=25
note_on channel=0 note=49 velocity=78 time=0
control_change channel=0 control=2 value=78 time=217
note_on channel=0 note=37 velocity=0 time=238
note_on channel=0 note=49 velocity=0 time=0
control_change channel=0 control=2 value=79 time=18
note_on channel=0 note=42 velocity=80 time=7
note_on channel=0 note=54 velocity=80 time=0
control_change channel=0 control=64 value=127 time=2
note_on channel=0 note=42 velocity=0 time=339
note_on channel=0 note=54 velocity=0 time=0
note_on channel=0 note=54 velocity=80 time=19
note_on channel=0 note=54 velocity=0 time=113
note_on channel=0 note=57 velocity=106 time=7
note_on channel=0 note=61 velocity=106 time=0
control_change channel=0 control=2 value=120 time=60
control_change channel=0 control=2 value=119 time=2
control_change channel=0 control=2 value=118 time=1
control_change channel=0 control=2 value=117 time=2
control_change channel=0 control=2 value=116 time=1
control_change channel=0 control=2 value=115 time=2
control_change channel=0 control=2 value=114 time=1
control_change channel=0 control=2 value=113 time=2
control_change channel=0 control=2 value=112 time=1
control_change channel=0 control=2 value=111 time=2
control_change channel=0 control=2 value=110 time=1
control_change channel=0 control=2 value=109 time=2
control_change channel=0 control=2 value=108 time=1
control_change channel=0 control=2 value=107 time=2
control_change channel=0 control=2 value=106 time=1
control_change channel=0 control=2 value=105 time=2
control_change channel=0 control=2 value=104 time=1
control_change channel=0 control=2 value=103 time=2
control_change channel=0 control=2 value=102 time=1
control_change channel=0 control=2 value=101 time=2
control_change channel=0 control=2 value=100 time=1
control_change channel=0 control=2 value=99 time=2
control_change channel=0 control=2 value=98 time=1
control_change channel=0 control=2 value=97 time=2
control_change channel=0 control=2 value=96 time=1
control_change channel=0 control=2 value=95 time=2
control_change channel=0 control=2 value=94 time=1
control_change channel=0 control=2 value=93 time=2
control_change channel=0 control=2 value=92 time=1
control_change channel=0 control=2 value=91 time=2
control_change channel=0 control=2 value=90 time=1
control_change channel=0 control=2 value=89 time=2
control_change channel=0 control=2 value=88 time=1
control_change channel=0 control=2 value=87 time=2
control_change channel=0 control=2 value=86 time=1
control_change channel=0 control=2 value=85 time=2
control_change channel=0 control=2 value=84 time=1
control_change channel=0 control=2 value=83 time=2
control_change channel=0 control=2 value=82 time=1
control_change channel=0 control=2 value=81 time=2
note_on channel=0 note=57 velocity=0 time=120
note_on channel=0 note=61 velocity=0 time=0
note_on channel=0 note=49 velocity=80 time=1
note_on channel=0 note=49 velocity=0 time=227
note_on channel=0 note=42 velocity=80 time=13
note_on channel=0 note=54 velocity=80 time=0
control_change channel=0 control=64 value=0 time=1
control_change channel=0 control=64 value=127 time=1
note_on channel=0 note=42 velocity=0 time=339
note_on channel=0 note=54 velocity=0 time=0
note_on channel=0 note=54 velocity=80 time=19
note_on channel=0 note=54 velocity=0 time=113
note_on channel=0 note=58 velocity=106 time=7
note_on channel=0 note=66 velocity=106 time=0
control_change channel=0 control=2 value=120 time=60
control_change channel=0 control=2 value=119 time=2
control_change channel=0 control=2 value=118 time=1
control_change channel=0 control=2 value=117 time=2
control_change channel=0 control=2 value=116 time=1
control_change channel=0 control=2 value=115 time=2
control_change channel=0 control=2 value=114 time=1
control_change channel=0 control=2 value=113 time=2
control_change channel=0 control=2 value=112 time=1
control_change channel=0 control=2 value=111 time=2
control_change channel=0 control=2 value=110 time=1
control_change channel=0 control=2 value=109 time=2
control_change channel=0 control=2 value=108 time=1
control_change channel=0 control=2 value=107 time=2
control_change channel=0 control=2 value=106 time=1
control_change channel=0 control=2 value=105 time=2
control_change channel=0 control=2 value=104 time=1
control_change channel=0 control=2 value=103 time=2
control_change channel=0 control=2 value=102 time=1
control_change channel=0 control=2 value=101 time=2
control_change channel=0 control=2 value=100 time=1
control_change channel=0 control=2 value=99 time=2
control_change channel=0 control=2 value=98 time=1
control_change channel=0 control=2 value=97 time=2
control_change channel=0 control=2 value=96 time=1
control_change channel=0 control=2 value=95 time=2
control_change channel=0 control=2 value=94 time=1
control_change channel=0 control=2 value=93 time=2
control_change channel=0 control=2 value=92 time=1
control_change channel=0 control=2 value=91 time=2
control_change channel=0 control=2 value=90 time=1
control_change channel=0 control=2 value=89 time=2
control_change channel=0 control=2 value=88 time=1
control_change channel=0 control=2 value=87 time=2
control_change channel=0 control=2 value=86 time=1
control_change channel=0 control=2 value=85 time=2
control_change channel=0 control=2 value=84 time=1
control_change channel=0 control=2 value=83 time=2
control_change channel=0 control=2 value=82 time=1
control_change channel=0 control=2 value=81 time=2
note_on channel=0 note=58 velocity=0 time=120
note_on channel=0 note=66 velocity=0 time=0
note_on channel=0 note=54 velocity=80 time=1
note_on channel=0 note=54 velocity=0 time=227
note_on channel=0 note=35 velocity=80 time=13
note_on channel=0 note=47 velocity=80 time=0
control_change channel=0 control=64 value=0 time=1
control_change channel=0 control=64 value=127 time=1
note_on channel=0 note=35 velocity=0 time=681
note_on channel=0 note=47 velocity=0 time=0
note_on channel=0 note=57 velocity=80 time=37
note_on channel=0 note=57 velocity=0 time=227
note_on channel=0 note=37 velocity=80 time=13
note_on channel=0 note=49 velocity=80 time=0
control_change channel=0 control=64 value=0 time=1
note_on channel=0 note=37 velocity=0 time=156
note_on channel=0 note=49 velocity=0 time=0
note_on channel=0 note=37 velocity=96 time=323
note_on channel=0 note=49 velocity=96 time=0
note_on channel=0 note=37 velocity=0 time=455
note_on channel=0 note=49 velocity=0 time=0
note_on channel=0 note=33 velocity=96 time=25
note_on channel=0 note=45 velocity=96 time=0
control_change channel=0 control=64 value=127 time=2
note_on channel=0 note=33 velocity=0 time=795
note_on channel=0 note=45 velocity=0 time=0
note_on channel=0 note=47 velocity=96 time=43
note_on channel=0 note=47 velocity=0 time=113
note_on channel=0 note=35 velocity=96 time=7
note_on channel=0 note=47 velocity=96 time=0
control_change channel=0 control=64 value=0 time=1
control_change channel=0 control=64 value=127 time=1
note_on channel=0 note=35 velocity=0 time=909
note_on channel=0 note=47 velocity=0 time=0
note_on channel=0 note=49 velocity=96 time=49
note_on channel=0 note=61 velocity=96 time=0
control_change channel=0 control=64 value=0 time=1
note_on channel=0 note=49 velocity=0 time=454
note_on channel=0 note=61 velocity=0 time=0
note_on channel=0 note=61 velocity=82 time=25
note_on channel=0 note=61 velocity=0 time=119
note_on channel=0 note=59 velocity=82 time=121
note_on channel=0 note=59 velocity=0 time=119
note_on channel=0 note=57 velocity=82 time=121
note_on channel=0 note=57 velocity=0 time=227
note_on channel=0 note=69 velocity=64 time=253
note_on channel=0 note=69 velocity=0 time=119
note_on channel=0 note=71 velocity=64 time=121
note_on channel=0 note=71 velocity=0 time=119
note_on channel=0 note=73 velocity=64 time=121
control_change channel=0 control=64 value=127 time=2
note_on channel=0 note=73 velocity=0 time=909
note_on channel=0 note=71 velocity=64 time=49
control_change channel=0 control=64 value=0 time=1
control_change channel=0 control=64 value=127 time=1
note_on channel=0 note=71 velocity=0 time=909
note_on channel=0 note=69 velocity=64 time=49
control_change channel=0 control=64 value=0 time=1
control_change channel=0 control=64 value=127 time=1
note_on channel=0 note=69 velocity=0 time=909
note_on channel=0 note=59 velocity=64 time=49
control_change channel=0 control=64 value=0 time=1
control_change channel=0 control=64 value=127 time=1
note_on channel=0 note=59 velocity=0 time=225
note_on channel=0 note=66 velocity=64 time=13
note_on channel=0 note=66 velocity=0 time=227
note_on channel=0 note=73 velocity=64 time=13
note_on channel=0 note=73 velocity=0 time=455
<meta message key_signature key='A' time=25>
note_on channel=0 note=61 velocity=64 time=0
control_change channel=0 control=64 value=0 time=1
control_change channel=0 control=64 value=127 time=1
note_on channel=0 note=61 velocity=0 time=225
note_on channel=0 note=69 velocity=64 time=13
note_on channel=0 note=73 velocity=64 time=0
note_on channel=0 note=69 velocity=0 time=227
note_on channel=0 note=73 velocity=0 time=0
note_on channel=0 note=69 velocity=64 time=253
note_on channel=0 note=73 velocity=64 time=0
note_on channel=0 note=69 velocity=0 time=227
note_on channel=0 note=73 velocity=0 time=0
note_on channel=0 note=49 velocity=64 time=13
control_change channel=0 control=64 value=0 time=1
control_change channel=0 control=64 value=127 time=1
note_on channel=0 note=49 velocity=0 time=225
note_on channel=0 note=56 velocity=64 time=13
note_on channel=0 note=56 velocity=0 time=227
note_on channel=0 note=65 velocity=64 time=13
note_on channel=0 note=65 velocity=0 time=455
note_on channel=0 note=54 velocity=64 time=25
note_on channel=0 note=66 velocity=64 time=0
control_change channel=0 control=64 value=0 time=1
note_on channel=0 note=54 velocity=0 time=238
note_on channel=0 note=66 velocity=0 time=0
note_on channel=0 note=49 velocity=64 time=241
note_on channel=0 note=61 velocity=64 time=0
note_on channel=0 note=49 velocity=0 time=119
note_on channel=0 note=61 velocity=0 time=0
note_on channel=0 note=57 velocity=64 time=121
note_on channel=0 note=57 velocity=0 time=119
note_on channel=0 note=42 velocity=64 time=121
note_on channel=0 note=54 velocity=64 time=0
note_on channel=0 note=42 velocity=0 time=157
note_on channel=0 note=54 velocity=0 time=0
note_on channel=0 note=37 velocity=64 time=323
note_on channel=0 note=49 velocity=64 time=0
note_on channel=0 note=37 velocity=0 time=157
note_on channel=0 note=49 velocity=0 time=0
note_on channel=0 note=54 velocity=64 time=323
note_on channel=0 note=54 velocity=0 time=157
note_on channel=0 note=56 velocity=64 time=323
note_on channel=0 note=56 velocity=0 time=157
note_on channel=0 note=57 velocity=64 time=323
note_on channel=0 note=57 velocity=0 time=455
note_on channel=0 note=35 velocity=64 time=505
note_on channel=0 note=47 velocity=64 time=0
note_on channel=0 note=35 velocity=0 time=239
note_on channel=0 note=47 velocity=0 time=0
note_on channel=0 note=33 velocity=64 time=721
note_on channel=0 note=45 velocity=64 time=0
note_on channel=0 note=33 velocity=0 time=239
note_on channel=0 note=45 velocity=0 time=0
note_on channel=0 note=35 velocity=64 time=721
note_on channel=0 note=47 velocity=64 time=0
note_on channel=0 note=35 velocity=0 time=239
note_on channel=0 note=47 velocity=0 time=0
note_on channel=0 note=42 velocity=64 time=721
note_on channel=0 note=54 velocity=64 time=0
note_on channel=0 note=42 velocity=0 time=239
note_on channel=0 note=54 velocity=0 time=0
note_on channel=0 note=44 velocity=64 time=721
note_on channel=0 note=56 velocity=64 time=0
note_on channel=0 note=44 velocity=0 time=239
note_on channel=0 note=56 velocity=0 time=0
note_on channel=0 note=37 velocity=64 time=721
note_on channel=0 note=49 velocity=64 time=0
note_on channel=0 note=37 velocity=0 time=239
note_on channel=0 note=49 velocity=0 time=0
note_on channel=0 note=35 velocity=64 time=241
note_on channel=0 note=47 velocity=64 time=0
note_on channel=0 note=35 velocity=0 time=239
note_on channel=0 note=47 velocity=0 time=0
note_on channel=0 note=45 velocity=64 time=241
note_on channel=0 note=57 velocity=64 time=0
note_on channel=0 note=45 velocity=0 time=157
note_on channel=0 note=57 velocity=0 time=0
note_on channel=0 note=53 velocity=64 time=323
note_on channel=0 note=53 velocity=0 time=157
note_on channel=0 note=54 velocity=64 time=323
note_on channel=0 note=54 velocity=0 time=455
note_on channel=0 note=35 velocity=64 time=505
note_on channel=0 note=47 velocity=64 time=0
note_on channel=0 note=35 velocity=0 time=239
note_on channel=0 note=47 velocity=0 time=0
note_on channel=0 note=37 velocity=64 time=721
note_on channel=0 note=49 velocity=64 time=0
note_on channel=0 note=37 velocity=0 time=239
note_on channel=0 note=49 velocity=0 time=0
note_on channel=0 note=35 velocity=64 time=721
note_on channel=0 note=47 velocity=64 time=0
note_on channel=0 note=35 velocity=0 time=239
note_on channel=0 note=47 velocity=0 time=0
note_on channel=0 note=42 velocity=64 time=721
note_on channel=0 note=54 velocity=64 time=0
note_on channel=0 note=42 velocity=0 time=239
note_on channel=0 note=54 velocity=0 time=0
note_on channel=0 note=37 velocity=64 time=241
note_on channel=0 note=49 velocity=64 time=0
note_on channel=0 note=37 velocity=0 time=239
note_on channel=0 note=49 velocity=0 time=0
note_on channel=0 note=42 velocity=64 time=241
note_on channel=0 note=54 velocity=64 time=0
note_on channel=0 note=42 velocity=0 time=239
note_on channel=0 note=54 velocity=0 time=0
note_on channel=0 note=37 velocity=64 time=241
note_on channel=0 note=49 velocity=64 time=0
note_on channel=0 note=37 velocity=0 time=119
note_on channel=0 note=49 velocity=0 time=0
note_on channel=0 note=33 velocity=64 time=121
note_on channel=0 note=45 velocity=64 time=0
note_on channel=0 note=33 velocity=0 time=119
note_on channel=0 note=45 velocity=0 time=0
note_on channel=0 note=30 velocity=64 time=121
note_on channel=0 note=42 velocity=64 time=0
note_on channel=0 note=30 velocity=0 time=320
note_on channel=0 note=42 velocity=0 time=0
note_on channel=0 note=40 velocity=64 time=640
note_on channel=0 note=52 velocity=64 time=0
note_on channel=0 note=40 velocity=0 time=227
note_on channel=0 note=52 velocity=0 time=0
note_on channel=0 note=62 velocity=60 time=13
note_on channel=0 note=66 velocity=60 time=0
note_on channel=0 note=68 velocity=60 time=0
note_on channel=0 note=62 velocity=0 time=119
note_on channel=0 note=66 velocity=0 time=0
note_on channel=0 note=68 velocity=0 time=0
note_on channel=0 note=62 velocity=60 time=121
note_on channel=0 note=66 velocity=60 time=0
note_on channel=0 note=68 velocity=60 time=0
note_on channel=0 note=62 velocity=0 time=119
note_on channel=0 note=66 velocity=0 time=0
note_on channel=0 note=68 velocity=0 time=0
note_on channel=0 note=62 velocity=60 time=121
note_on channel=0 note=66 velocity=60 time=0
note_on channel=0 note=68 velocity=60 time=0
note_on channel=0 note=62 velocity=0 time=119
note_on channel=0 note=66 velocity=0 time=0
note_on channel=0 note=68 velocity=0 time=0
note_on channel=0 note=45 velocity=64 time=121
note_on channel=0 note=57 velocity=64 time=0
note_on channel=0 note=45 velocity=0 time=227
note_on channel=0 note=57 velocity=0 time=0
note_on channel=0 note=61 velocity=60 time=13
note_on channel=0 note=64 velocity=60 time=0
note_on channel=0 note=68 velocity=60 time=0
note_on channel=0 note=61 velocity=0 time=119
note_on channel=0 note=64 velocity=0 time=0
note_on channel=0 note=68 velocity=0 time=0
note_on channel=0 note=61 velocity=60 time=121
note_on channel=0 note=64 velocity=60 time=0
note_on channel=0 note=68 velocity=60 time=0
note_on channel=0 note=61 velocity=0 time=119
note_on channel=0 note=64 velocity=0 time=0
note_on channel=0 note=68 velocity=0 time=0
note_on channel=0 note=61 velocity=60 time=121
note_on channel=0 note=64 velocity=60 time=0
note_on channel=0 note=61 velocity=0 time=119
note_on channel=0 note=64 velocity=0 time=0
note_on channel=0 note=37 velocity=64 time=121
note_on channel=0 note=49 velocity=64 time=0
note_on channel=0 note=37 velocity=0 time=227
note_on channel=0 note=49 velocity=0 time=0
note_on channel=0 note=56 velocity=60 time=13
note_on channel=0 note=59 velocity=60 time=0
note_on channel=0 note=65 velocity=60 time=0
note_on channel=0 note=56 velocity=0 time=119
note_on channel=0 note=59 velocity=0 time=0
note_on channel=0 note=65 velocity=0 time=0
note_on channel=0 note=56 velocity=60 time=121
note_on channel=0 note=59 velocity=60 time=0
note_on channel=0 note=65 velocity=60 time=0
note_on channel=0 note=56 velocity=0 time=119
note_on channel=0 note=59 velocity=0 time=0
note_on channel=0 note=65 velocity=0 time=0
note_on channel=0 note=56 velocity=60 time=121
note_on channel=0 note=59 velocity=60 time=0
note_on channel=0 note=65 velocity=60 time=0
note_on channel=0 note=56 velocity=0 time=119
note_on channel=0 note=59 velocity=0 time=0
note_on channel=0 note=65 velocity=0 time=0
note_on channel=0 note=38 velocity=64 time=121
note_on channel=0 note=50 velocity=64 time=0
note_on channel=0 note=38 velocity=0 time=227
note_on channel=0 note=50 velocity=0 time=0
note_on channel=0 note=57 velocity=60 time=13
note_on channel=0 note=61 velocity=60 time=0
note_on channel=0 note=57 velocity=0 time=119
note_on channel=0 note=61 velocity=0 time=0
note_on channel=0 note=57 velocity=60 time=121
note_on channel=0 note=61 velocity=60 time=0
note_on channel=0 note=57 velocity=0 time=119
note_on channel=0 note=61 velocity=0 time=0
note_on channel=0 note=57 velocity=60 time=121
note_on channel=0 note=61 velocity=60 time=0
note_on channel=0 note=57 velocity=0 time=119
note_on channel=0 note=61 velocity=0 time=0
note_on channel=0 note=35 velocity=64 time=121
note_on channel=0 note=47 velocity=64 time=0
note_on channel=0 note=35 velocity=0 time=227
note_on channel=0 note=47 velocity=0 time=0
note_on channel=0 note=56 velocity=60 time=13
note_on channel=0 note=59 velocity=60 time=0
note_on channel=0 note=62 velocity=60 time=0
note_on channel=0 note=56 velocity=0 time=119
note_on channel=0 note=59 velocity=0 time=0
note_on channel=0 note=62 velocity=0 time=0
note_on channel=0 note=56 velocity=60 time=121
note_on channel=0 note=59 velocity=60 time=0
note_on channel=0 note=62 velocity=60 time=0
note_on channel=0 note=56 velocity=0 time=119
note_on channel=0 note=59 velocity=0 time=0
note_on channel=0 note=62 velocity=0 time=0
note_on channel=0 note=56 velocity=60 time=121
note_on channel=0 note=59 velocity=60 time=0
note_on channel=0 note=62 velocity=60 time=0
note_on channel=0 note=56 velocity=0 time=119
note_on channel=0 note=59 velocity=0 time=0
note_on channel=0 note=62 velocity=0 time=0
note_on channel=0 note=37 velocity=64 time=121
note_on channel=0 note=49 velocity=64 time=0
note_on channel=0 note=37 velocity=0 time=227
note_on channel=0 note=49 velocity=0 time=0
note_on channel=0 note=57 velocity=60 time=13
note_on channel=0 note=61 velocity=60 time=0
note_on channel=0 note=66 velocity=60 time=0
note_on channel=0 note=57 velocity=0 time=119
note_on channel=0 note=61 velocity=0 time=0
note_on channel=0 note=66 velocity=0 time=0
note_on channel=0 note=57 velocity=60 time=121
note_on channel=0 note=61 velocity=60 time=0
note_on channel=0 note=66 velocity=60 time=0
note_on channel=0 note=57 velocity=0 time=119
note_on channel=0 note=61 velocity=0 time=0
note_on channel=0 note=66 velocity=0 time=0
note_on channel=0 note=57 velocity=60 time=121
note_on channel=0 note=61 velocity=60 time=0
note_on channel=0 note=66 velocity=60 time=0
note_on channel=0 note=57 velocity=0 time=119
note_on channel=0 note=61 velocity=0 time=0
note_on channel=0 note=66 velocity=0 time=0
note_on channel=0 note=37 velocity=64 time=121
note_on channel=0 note=49 velocity=64 time=0
note_on channel=0 note=37 velocity=0 time=227
note_on channel=0 note=49 velocity=0 time=0
note_on channel=0 note=59 velocity=60 time=13
note_on channel=0 note=65 velocity=60 time=0
note_on channel=0 note=69 velocity=60 time=0
note_on channel=0 note=59 velocity=0 time=119
note_on channel=0 note=65 velocity=0 time=0
note_on channel=0 note=69 velocity=0 time=0
note_on channel=0 note=59 velocity=60 time=121
note_on channel=0 note=65 velocity=60 time=0
note_on channel=0 note=69 velocity=60 time=0
note_on channel=0 note=59 velocity=0 time=239
note_on channel=0 note=65 velocity=0 time=0
note_on channel=0 note=69 velocity=0 time=0
note_on channel=0 note=59 velocity=64 time=1
note_on channel=0 note=65 velocity=64 time=0
note_on channel=0 note=68 velocity=60 time=0
note_on channel=0 note=59 velocity=0 time=119
note_on channel=0 note=65 velocity=0 time=0
note_on channel=0 note=68 velocity=0 time=0
note_on channel=0 note=42 velocity=64 time=121
note_on channel=0 note=54 velocity=64 time=0
note_on channel=0 note=42 velocity=0 time=239
note_on channel=0 note=54 velocity=0 time=0
note_on channel=0 note=40 velocity=64 time=721
note_on channel=0 note=52 velocity=64 time=0
note_on channel=0 note=40 velocity=0 time=227
note_on channel=0 note=52 velocity=0 time=0
note_on channel=0 note=62 velocity=60 time=13
note_on channel=0 note=66 velocity=60 time=0
note_on channel=0 note=68 velocity=60 time=0
note_on channel=0 note=73 velocity=60 time=0
note_on channel=0 note=62 velocity=0 time=119
note_on channel=0 note=66 velocity=0 time=0
note_on channel=0 note=68 velocity=0 time=0
note_on channel=0 note=73 velocity=0 time=0
note_on channel=0 note=62 velocity=60 time=121
note_on channel=0 note=66 velocity=60 time=0
note_on channel=0 note=68 velocity=60 time=0
note_on channel=0 note=73 velocity=60 time=0
note_on channel=0 note=62 velocity=0 time=119
note_on channel=0 note=66 velocity=0 time=0
note_on channel=0 note=68 velocity=0 time=0
note_on channel=0 note=73 velocity=0 time=0
note_on channel=0 note=62 velocity=60 time=121
note_on channel=0 note=66 velocity=60 time=0
note_on channel=0 note=68 velocity=60 time=0
note_on channel=0 note=71 velocity=60 time=0
note_on channel=0 note=62 velocity=0 time=119
note_on channel=0 note=66 velocity=0 time=0
note_on channel=0 note=68 velocity=0 time=0
note_on channel=0 note=71 velocity=0 time=0
note_on channel=0 note=45 velocity=64 time=121
note_on channel=0 note=57 velocity=64 time=0
note_on channel=0 note=45 velocity=0 time=227
note_on channel=0 note=57 velocity=0 time=0
note_on channel=0 note=61 velocity=60 time=13
note_on channel=0 note=64 velocity=60 time=0
note_on channel=0 note=68 velocity=60 time=0
note_on channel=0 note=61 velocity=0 time=119
note_on channel=0 note=64 velocity=0 time=0
note_on channel=0 note=68 velocity=0 time=0
note_on channel=0 note=61 velocity=60 time=121
note_on channel=0 note=64 velocity=60 time=0
note_on channel=0 note=68 velocity=60 time=0
note_on channel=0 note=61 velocity=0 time=119
note_on channel=0 note=64 velocity=0 time=0
note_on channel=0 note=68 velocity=0 time=0
note_on channel=0 note=57 velocity=60 time=121
note_on channel=0 note=61 velocity=60 time=0
note_on channel=0 note=64 velocity=60 time=0
note_on channel=0 note=57 velocity=0 time=119
note_on channel=0 note=61 velocity=0 time=0
note_on channel=0 note=64 velocity=0 time=0
note_on channel=0 note=37 velocity=64 time=121
note_on channel=0 note=49 velocity=64 time=0
note_on channel=0 note=37 velocity=0 time=227
note_on channel=0 note=49 velocity=0 time=0
note_on channel=0 note=59 velocity=60 time=13
note_on channel=0 note=65 velocity=60 time=0
note_on channel=0 note=69 velocity=60 time=0
note_on channel=0 note=59 velocity=0 time=119
note_on channel=0 note=65 velocity=0 time=0
note_on channel=0 note=69 velocity=0 time=0
note_on channel=0 note=59 velocity=60 time=121
note_on channel=0 note=65 velocity=60 time=0
note_on channel=0 note=69 velocity=60 time=0
note_on channel=0 note=59 velocity=0 time=119
note_on channel=0 note=65 velocity=0 time=0
note_on channel=0 note=69 velocity=0 time=0
note_on channel=0 note=59 velocity=60 time=121
note_on channel=0 note=65 velocity=60 time=0
note_on channel=0 note=68 velocity=60 time=0
note_on channel=0 note=59 velocity=0 time=119
note_on channel=0 note=65 velocity=0 time=0
note_on channel=0 note=68 velocity=0 time=0
note_on channel=0 note=38 velocity=64 time=121
note_on channel=0 note=50 velocity=64 time=0
note_on channel=0 note=38 velocity=0 time=227
note_on channel=0 note=50 velocity=0 time=0
note_on channel=0 note=57 velocity=60 time=13
note_on channel=0 note=61 velocity=60 time=0
note_on channel=0 note=68 velocity=64 time=0
note_on channel=0 note=57 velocity=0 time=119
note_on channel=0 note=61 velocity=0 time=0
note_on channel=0 note=68 velocity=0 time=0
note_on channel=0 note=57 velocity=60 time=121
note_on channel=0 note=61 velocity=60 time=0
note_on channel=0 note=68 velocity=64 time=0
note_on channel=0 note=57 velocity=0 time=119
note_on channel=0 note=61 velocity=0 time=0
note_on channel=0 note=68 velocity=0 time=0
note_on channel=0 note=57 velocity=60 time=121
note_on channel=0 note=61 velocity=60 time=0
note_on channel=0 note=66 velocity=64 time=0
note_on channel=0 note=57 velocity=0 time=119
note_on channel=0 note=61 velocity=0 time=0
note_on channel=0 note=66 velocity=0 time=0
note_on channel=0 note=35 velocity=64 time=121
note_on channel=0 note=47 velocity=64 time=0
note_on channel=0 note=35 velocity=0 time=227
note_on channel=0 note=47 velocity=0 time=0
note_on channel=0 note=59 velocity=60 time=13
note_on channel=0 note=62 velocity=60 time=0
note_on channel=0 note=68 velocity=60 time=0
note_on channel=0 note=59 velocity=0 time=119
note_on channel=0 note=62 velocity=0 time=0
note_on channel=0 note=68 velocity=0 time=0
note_on channel=0 note=59 velocity=60 time=121
note_on channel=0 note=62 velocity=60 time=0
note_on channel=0 note=68 velocity=60 time=0
note_on channel=0 note=59 velocity=0 time=119
note_on channel=0 note=62 velocity=0 time=0
note_on channel=0 note=68 velocity=0 time=0
note_on channel=0 note=59 velocity=60 time=121
note_on channel=0 note=62 velocity=60 time=0
note_on channel=0 note=68 velocity=60 time=0
note_on channel=0 note=59 velocity=0 time=119
note_on channel=0 note=62 velocity=0 time=0
note_on channel=0 note=68 velocity=0 time=0
note_on channel=0 note=37 velocity=64 time=121
note_on channel=0 note=49 velocity=64 time=0
note_on channel=0 note=37 velocity=0 time=227
note_on channel=0 note=49 velocity=0 time=0
note_on channel=0 note=57 velocity=60 time=13
note_on channel=0 note=61 velocity=60 time=0
note_on channel=0 note=66 velocity=60 time=0
note_on channel=0 note=57 velocity=0 time=119
note_on channel=0 note=61 velocity=0 time=0
note_on channel=0 note=66 velocity=0 time=0
note_on channel=0 note=57 velocity=60 time=121
note_on channel=0 note=61 velocity=60 time=0
note_on channel=0 note=66 velocity=60 time=0
note_on channel=0 note=57 velocity=0 time=119
note_on channel=0 note=61 velocity=0 time=0
note_on channel=0 note=66 velocity=0 time=0
note_on channel=0 note=57 velocity=60 time=121
note_on channel=0 note=61 velocity=60 time=0
note_on channel=0 note=66 velocity=60 time=0
note_on channel=0 note=57 velocity=0 time=119
note_on channel=0 note=61 velocity=0 time=0
note_on channel=0 note=66 velocity=0 time=0
note_on channel=0 note=37 velocity=64 time=121
note_on channel=0 note=49 velocity=64 time=0
control_change channel=0 control=2 value=64 time=0
control_change channel=0 control=2 value=65 time=96
control_change channel=0 control=2 value=66 time=96
note_on channel=0 note=37 velocity=0 time=35
note_on channel=0 note=49 velocity=0 time=0
note_on channel=0 note=59 velocity=62 time=13
note_on channel=0 note=65 velocity=62 time=0
note_on channel=0 note=69 velocity=62 time=0
control_change channel=0 control=2 value=67 time=48
note_on channel=0 note=59 velocity=0 time=71
note_on channel=0 note=65 velocity=0 time=0
note_on channel=0 note=69 velocity=0 time=0
control_change channel=0 control=2 value=68 time=25
note_on channel=0 note=59 velocity=65 time=96
note_on channel=0 note=65 velocity=65 time=0
note_on channel=0 note=69 velocity=65 time=0
control_change channel=0 control=2 value=69 time=0
control_change channel=0 control=2 value=70 time=96
control_change channel=0 control=2 value=71 time=96
note_on channel=0 note=59 velocity=0 time=47
note_on channel=0 note=65 velocity=0 time=0
note_on channel=0 note=69 velocity=0 time=0
note_on channel=0 note=59 velocity=71 time=1
note_on channel=0 note=65 velocity=71 time=0
note_on channel=0 note=68 velocity=67 time=0
control_change channel=0 control=2 value=72 time=48
note_on channel=0 note=59 velocity=0 time=71
note_on channel=0 note=65 velocity=0 time=0
note_on channel=0 note=68 velocity=0 time=0
control_change channel=0 control=2 value=73 time=25
note_on channel=0 note=42 velocity=74 time=96
note_on channel=0 note=54 velocity=74 time=0
note_on channel=0 note=42 velocity=0 time=239
note_on channel=0 note=54 velocity=0 time=0
note_on channel=0 note=42 velocity=96 time=721
note_on channel=0 note=54 velocity=96 time=0
control_change channel=0 control=2 value=120 time=60
control_change channel=0 control=2 value=119 time=2
control_change channel=0 control=2 value=118 time=1
control_change channel=0 control=2 value=117 time=2
control_change channel=0 control=2 value=116 time=1
control_change channel=0 control=2 value=115 time=2
control_change channel=0 control=2 value=114 time=1
control_change channel=0 control=2 value=113 time=2
control_change channel=0 control=2 value=112 time=1
control_change channel=0 control=2 value=111 time=2
control_change channel=0 control=2 value=110 time=1
control_change channel=0 control=2 value=109 time=2
control_change channel=0 control=2 value=108 time=1
control_change channel=0 control=2 value=107 time=2
control_change channel=0 control=2 value=106 time=1
control_change channel=0 control=2 value=105 time=2
control_change channel=0 control=2 value=104 time=1
control_change channel=0 control=2 value=103 time=2
control_change channel=0 control=2 value=102 time=1
control_change channel=0 control=2 value=101 time=2
control_change channel=0 control=2 value=100 time=1
control_change channel=0 control=2 value=99 time=2
control_change channel=0 control=2 value=98 time=1
control_change channel=0 control=2 value=97 time=2
control_change channel=0 control=2 value=96 time=1
control_change channel=0 control=2 value=95 time=2
control_change channel=0 control=2 value=94 time=1
control_change channel=0 control=2 value=93 time=2
control_change channel=0 control=2 value=92 time=1
control_change channel=0 control=2 value=91 time=2
control_change channel=0 control=2 value=90 time=1
control_change channel=0 control=2 value=89 time=2
control_change channel=0 control=2 value=88 time=1
control_change channel=0 control=2 value=87 time=2
control_change channel=0 control=2 value=86 time=1
control_change channel=0 control=2 value=85 time=2
control_change channel=0 control=2 value=84 time=1
control_change channel=0 control=2 value=83 time=2
control_change channel=0 control=2 value=82 time=1
control_change channel=0 control=2 value=81 time=2
note_on channel=0 note=42 velocity=0 time=360
note_on channel=0 note=54 velocity=0 time=0
note_on channel=0 note=50 velocity=80 time=1
note_on channel=0 note=62 velocity=80 time=0
note_on channel=0 note=50 velocity=0 time=119
note_on channel=0 note=62 velocity=0 time=0
note_on channel=0 note=49 velocity=80 time=121
note_on channel=0 note=61 velocity=80 time=0
note_on channel=0 note=49 velocity=0 time=119
note_on channel=0 note=61 velocity=0 time=0
note_on channel=0 note=42 velocity=80 time=121
note_on channel=0 note=54 velocity=80 time=0
note_on channel=0 note=42 velocity=0 time=119
note_on channel=0 note=54 velocity=0 time=0
note_on channel=0 note=57 velocity=80 time=121
note_on channel=0 note=61 velocity=80 time=0
note_on channel=0 note=66 velocity=80 time=0
note_on channel=0 note=57 velocity=0 time=119
note_on channel=0 note=61 velocity=0 time=0
note_on channel=0 note=66 velocity=0 time=0
note_on channel=0 note=47 velocity=80 time=121
note_on channel=0 note=47 velocity=0 time=119
note_on channel=0 note=59 velocity=80 time=121
note_on channel=0 note=62 velocity=80 time=0
note_on channel=0 note=66 velocity=80 time=0
note_on channel=0 note=59 velocity=0 time=119
note_on channel=0 note=62 velocity=0 time=0
note_on channel=0 note=66 velocity=0 time=0
note_on channel=0 note=37 velocity=80 time=121
note_on channel=0 note=49 velocity=80 time=0
note_on channel=0 note=37 velocity=0 time=119
note_on channel=0 note=49 velocity=0 time=0
note_on channel=0 note=61 velocity=80 time=121
note_on channel=0 note=66 velocity=80 time=0
note_on channel=0 note=69 velocity=80 time=0
note_on channel=0 note=61 velocity=0 time=119
note_on channel=0 note=66 velocity=0 time=0
note_on channel=0 note=69 velocity=0 time=0
note_on channel=0 note=35 velocity=80 time=121
note_on channel=0 note=47 velocity=80 time=0
note_on channel=0 note=35 velocity=0 time=119
note_on channel=0 note=47 velocity=0 time=0
note_on channel=0 note=59 velocity=80 time=121
note_on channel=0 note=65 velocity=80 time=0
note_on channel=0 note=68 velocity=80 time=0
note_on channel=0 note=59 velocity=0 time=119
note_on channel=0 note=65 velocity=0 time=0
note_on channel=0 note=68 velocity=0 time=0
note_on channel=0 note=37 velocity=80 time=121
note_on channel=0 note=49 velocity=80 time=0
note_on channel=0 note=37 velocity=0 time=119
note_on channel=0 note=49 velocity=0 time=0
note_on channel=0 note=57 velocity=80 time=121
note_on channel=0 note=61 velocity=80 time=0
note_on channel=0 note=66 velocity=80 time=0
note_on channel=0 note=57 velocity=0 time=119
note_on channel=0 note=61 velocity=0 time=0
note_on channel=0 note=66 velocity=0 time=0
note_on channel=0 note=37 velocity=80 time=121
note_on channel=0 note=49 velocity=80 time=0
control_change channel=0 control=64 value=127 time=2
note_on channel=0 note=37 velocity=0 time=225
note_on channel=0 note=49 velocity=0 time=0
note_on channel=0 note=37 velocity=80 time=13
note_on channel=0 note=49 velocity=80 time=0
note_on channel=0 note=37 velocity=0 time=227
note_on channel=0 note=49 velocity=0 time=0
note_on channel=0 note=42 velocity=92 time=13
note_on channel=0 note=54 velocity=92 time=0
control_change channel=0 control=64 value=0 time=1
control_change channel=0 control=64 value=127 time=1
note_on channel=0 note=42 velocity=0 time=339
note_on channel=0 note=54 velocity=0 time=0
note_on channel=0 note=61 velocity=80 time=19
note_on channel=0 note=66 velocity=80 time=0
note_on channel=0 note=69 velocity=80 time=0
note_on channel=0 note=61 velocity=0 time=113
note_on channel=0 note=66 velocity=0 time=0
note_on channel=0 note=69 velocity=0 time=0
note_on channel=0 note=61 velocity=80 time=7
note_on channel=0 note=66 velocity=80 time=0
note_on channel=0 note=69 velocity=80 time=0
note_on channel=0 note=61 velocity=0 time=455
note_on channel=0 note=66 velocity=0 time=0
note_on channel=0 note=69 velocity=0 time=0
note_on channel=0 note=35 velocity=80 time=25
note_on channel=0 note=47 velocity=80 time=0
control_change channel=0 control=64 value=0 time=1
control_change channel=0 control=64 value=127 time=1
note_on channel=0 note=35 velocity=0 time=339
note_on channel=0 note=47 velocity=0 time=0
note_on channel=0 note=62 velocity=80 time=19
note_on channel=0 note=68 velocity=80 time=0
note_on channel=0 note=71 velocity=80 time=0
note_on channel=0 note=62 velocity=0 time=113
note_on channel=0 note=68 velocity=0 time=0
note_on channel=0 note=71 velocity=0 time=0
note_on channel=0 note=62 velocity=80 time=7
note_on channel=0 note=68 velocity=80 time=0
note_on channel=0 note=71 velocity=80 time=0
note_on channel=0 note=71 velocity=0 time=360
note_on channel=0 note=62 velocity=0 time=95
note_on channel=0 note=68 velocity=0 time=0
note_on channel=0 note=37 velocity=80 time=25
note_on channel=0 note=49 velocity=80 time=0
control_change channel=0 control=64 value=0 time=1
control_change channel=0 control=64 value=127 time=1
note_on channel=0 note=37 velocity=0 time=225
note_on channel=0 note=49 velocity=0 time=0
note_on channel=0 note=59 velocity=80 time=13
note_on channel=0 note=59 velocity=0 time=113
note_on channel=0 note=59 velocity=80 time=7
note_on channel=0 note=59 velocity=0 time=113
note_on channel=0 note=59 velocity=80 time=7
note_on channel=0 note=59 velocity=0 time=227
note_on channel=0 note=37 velocity=80 time=13
note_on channel=0 note=49 velocity=80 time=0
control_change channel=0 control=64 value=0 time=1
note_on channel=0 note=37 velocity=0 time=118
note_on channel=0 note=49 velocity=0 time=0
note_on channel=0 note=42 velocity=80 time=121
note_on channel=0 note=54 velocity=80 time=0
note_on channel=0 note=42 velocity=0 time=239
note_on channel=0 note=54 velocity=0 time=0
note_on channel=0 note=37 velocity=64 time=241
note_on channel=0 note=49 velocity=64 time=0
note_on channel=0 note=37 velocity=0 time=455
note_on channel=0 note=49 velocity=0 time=0
note_on channel=0 note=42 velocity=40 time=25
note_on channel=0 note=54 velocity=40 time=0
note_on channel=0 note=42 velocity=0 time=455
note_on channel=0 note=54 velocity=0 time=0
note_on channel=0 note=50 velocity=49 time=25
note_on channel=0 note=62 velocity=49 time=0
note_on channel=0 note=50 velocity=0 time=119
note_on channel=0 note=62 velocity=0 time=0
note_on channel=0 note=49 velocity=49 time=121
note_on channel=0 note=61 velocity=49 time=0
note_on channel=0 note=49 velocity=0 time=119
note_on channel=0 note=61 velocity=0 time=0
note_on channel=0 note=66 velocity=49 time=121
note_on channel=0 note=66 velocity=0 time=119
note_on channel=0 note=73 velocity=49 time=121
note_on channel=0 note=78 velocity=49 time=0
note_on channel=0 note=81 velocity=49 time=0
note_on channel=0 note=73 velocity=0 time=119
note_on channel=0 note=78 velocity=0 time=0
note_on channel=0 note=81 velocity=0 time=0
note_on channel=0 note=59 velocity=49 time=121
note_on channel=0 note=59 velocity=0 time=119
note_on channel=0 note=71 velocity=49 time=121
note_on channel=0 note=74 velocity=49 time=0
note_on channel=0 note=78 velocity=49 time=0
note_on channel=0 note=71 velocity=0 time=119
note_on channel=0 note=74 velocity=0 time=0
note_on channel=0 note=78 velocity=0 time=0
note_on channel=0 note=61 velocity=49 time=121
note_on channel=0 note=61 velocity=0 time=119
note_on channel=0 note=73 velocity=49 time=121
note_on channel=0 note=78 velocity=49 time=0
note_on channel=0 note=81 velocity=49 time=0
note_on channel=0 note=73 velocity=0 time=119
note_on channel=0 note=78 velocity=0 time=0
note_on channel=0 note=81 velocity=0 time=0
note_on channel=0 note=59 velocity=49 time=121
note_on channel=0 note=59 velocity=0 time=119
note_on channel=0 note=71 velocity=49 time=121
note_on channel=0 note=77 velocity=49 time=0
note_on channel=0 note=80 velocity=49 time=0
note_on channel=0 note=71 velocity=0 time=119
note_on channel=0 note=77 velocity=0 time=0
note_on channel=0 note=80 velocity=0 time=0
note_on channel=0 note=61 velocity=49 time=121
note_on channel=0 note=61 velocity=0 time=119
note_on channel=0 note=69 velocity=49 time=121
note_on channel=0 note=73 velocity=49 time=0
note_on channel=0 note=78 velocity=49 time=0
note_on channel=0 note=69 velocity=0 time=119
note_on channel=0 note=73 velocity=0 time=0
note_on channel=0 note=78 velocity=0 time=0
note_on channel=0 note=37 velocity=64 time=121
note_on channel=0 note=49 velocity=64 time=0
control_change channel=0 control=64 value=127 time=2
note_on channel=0 note=37 velocity=0 time=225
note_on channel=0 note=49 velocity=0 time=0
note_on channel=0 note=37 velocity=64 time=13
note_on channel=0 note=49 velocity=64 time=0
note_on channel=0 note=37 velocity=0 time=227
note_on channel=0 note=49 velocity=0 time=0
note_on channel=0 note=42 velocity=80 time=13
note_on channel=0 note=54 velocity=80 time=0
control_change channel=0 control=64 value=0 time=1
control_change channel=0 control=64 value=127 time=1
note_on channel=0 note=42 velocity=0 time=225
note_on channel=0 note=54 velocity=0 time=0
note_on channel=0 note=58 velocity=80 time=13
note_on channel=0 note=61 velocity=80 time=0
note_on channel=0 note=67 velocity=80 time=0
note_on channel=0 note=58 velocity=0 time=113
note_on channel=0 note=61 velocity=0 time=0
note_on channel=0 note=67 velocity=0 time=0
note_on channel=0 note=58 velocity=80 time=7
note_on channel=0 note=61 velocity=80 time=0
note_on channel=0 note=67 velocity=80 time=0
note_on channel=0 note=58 velocity=0 time=113
note_on channel=0 note=61 velocity=0 time=0
note_on channel=0 note=67 velocity=0 time=0
note_on channel=0 note=58 velocity=80 time=7
note_on channel=0 note=61 velocity=80 time=0
note_on channel=0 note=67 velocity=80 time=0
note_on channel=0 note=58 velocity=0 time=227
note_on channel=0 note=61 velocity=0 time=0
note_on channel=0 note=67 velocity=0 time=0
note_on channel=0 note=58 velocity=80 time=13
note_on channel=0 note=61 velocity=80 time=0
note_on channel=0 note=66 velocity=80 time=0
note_on channel=0 note=58 velocity=0 time=227
note_on channel=0 note=61 velocity=0 time=0
note_on channel=0 note=66 velocity=0 time=0
note_on channel=0 note=35 velocity=80 time=13
note_on channel=0 note=47 velocity=80 time=0
control_change channel=0 control=64 value=0 time=1
control_change channel=0 control=64 value=127 time=1
note_on channel=0 note=35 velocity=0 time=225
note_on channel=0 note=47 velocity=0 time=0
note_on channel=0 note=66 velocity=80 time=13
note_on channel=0 note=69 velocity=80 time=0
note_on channel=0 note=76 velocity=80 time=0
note_on channel=0 note=66 velocity=0 time=113
note_on channel=0 note=69 velocity=0 time=0
note_on channel=0 note=76 velocity=0 time=0
note_on channel=0 note=66 velocity=80 time=7
note_on channel=0 note=69 velocity=80 time=0
note_on channel=0 note=76 velocity=80 time=0
note_on channel=0 note=66 velocity=0 time=113
note_on channel=0 note=69 velocity=0 time=0
note_on channel=0 note=76 velocity=0 time=0
note_on channel=0 note=66 velocity=80 time=7
note_on channel=0 note=69 velocity=80 time=0
note_on channel=0 note=76 velocity=80 time=0
note_on channel=0 note=66 velocity=0 time=227
note_on channel=0 note=69 velocity=0 time=0
note_on channel=0 note=76 velocity=0 time=0
note_on channel=0 note=66 velocity=80 time=13
note_on channel=0 note=69 velocity=80 time=0
note_on channel=0 note=74 velocity=80 time=0
note_on channel=0 note=66 velocity=0 time=227
note_on channel=0 note=69 velocity=0 time=0
note_on channel=0 note=74 velocity=0 time=0
note_on channel=0 note=37 velocity=80 time=13
note_on channel=0 note=49 velocity=80 time=0
control_change channel=0 control=64 value=0 time=1
note_on channel=0 note=37 velocity=0 time=238
note_on channel=0 note=49 velocity=0 time=0
note_on channel=0 note=37 velocity=80 time=241
note_on channel=0 note=37 velocity=0 time=119
note_on channel=0 note=37 velocity=80 time=121
note_on channel=0 note=37 velocity=0 time=119
note_on channel=0 note=42 velocity=80 time=121
note_on channel=0 note=54 velocity=80 time=0
note_on channel=0 note=42 velocity=0 time=239
note_on channel=0 note=54 velocity=0 time=0
note_on channel=0 note=42 velocity=70 time=241
note_on channel=0 note=42 velocity=0 time=157
note_on channel=0 note=42 velocity=58 time=323
note_on channel=0 note=42 velocity=0 time=119
note_on channel=0 note=57 velocity=58 time=121
note_on channel=0 note=61 velocity=58 time=0
note_on channel=0 note=66 velocity=58 time=0
note_on channel=0 note=57 velocity=0 time=119
note_on channel=0 note=61 velocity=0 time=0
note_on channel=0 note=66 velocity=0 time=0
note_on channel=0 note=57 velocity=58 time=361
note_on channel=0 note=61 velocity=58 time=0
note_on channel=0 note=66 velocity=58 time=0
note_on channel=0 note=57 velocity=0 time=119
note_on channel=0 note=61 velocity=0 time=0
note_on channel=0 note=66 velocity=0 time=0
note_on channel=0 note=47 velocity=58 time=121
note_on channel=0 note=47 velocity=0 time=119
note_on channel=0 note=54 velocity=58 time=121
note_on channel=0 note=57 velocity=58 time=0
note_on channel=0 note=62 velocity=58 time=0
note_on channel=0 note=54 velocity=0 time=119
note_on channel=0 note=57 velocity=0 time=0
note_on channel=0 note=62 velocity=0 time=0
note_on channel=0 note=54 velocity=58 time=361
note_on channel=0 note=57 velocity=58 time=0
note_on channel=0 note=62 velocity=58 time=0
note_on channel=0 note=54 velocity=0 time=119
note_on channel=0 note=57 velocity=0 time=0
note_on channel=0 note=62 velocity=0 time=0
note_on channel=0 note=40 velocity=58 time=121
note_on channel=0 note=40 velocity=0 time=119
note_on channel=0 note=62 velocity=58 time=121
note_on channel=0 note=66 velocity=58 time=0
note_on channel=0 note=68 velocity=58 time=0
note_on channel=0 note=62 velocity=0 time=119
note_on channel=0 note=66 velocity=0 time=0
note_on channel=0 note=68 velocity=0 time=0
note_on channel=0 note=62 velocity=58 time=361
note_on channel=0 note=66 velocity=58 time=0
note_on channel=0 note=68 velocity=58 time=0
note_on channel=0 note=62 velocity=0 time=119
note_on channel=0 note=66 velocity=0 time=0
note_on channel=0 note=68 velocity=0 time=0
note_on channel=0 note=45 velocity=58 time=121
note_on channel=0 note=45 velocity=0 time=119
note_on channel=0 note=61 velocity=58 time=121
note_on channel=0 note=64 velocity=58 time=0
note_on channel=0 note=68 velocity=58 time=0
note_on channel=0 note=61 velocity=0 time=119
note_on channel=0 note=64 velocity=0 time=0
note_on channel=0 note=68 velocity=0 time=0
note_on channel=0 note=61 velocity=58 time=361
note_on channel=0 note=64 velocity=58 time=0
note_on channel=0 note=68 velocity=58 time=0
note_on channel=0 note=61 velocity=0 time=119
note_on channel=0 note=64 velocity=0 time=0
note_on channel=0 note=68 velocity=0 time=0
note_on channel=0 note=47 velocity=58 time=121
note_on channel=0 note=47 velocity=0 time=119
note_on channel=0 note=54 velocity=58 time=121
note_on channel=0 note=57 velocity=58 time=0
note_on channel=0 note=62 velocity=58 time=0
note_on channel=0 note=54 velocity=0 time=119
note_on channel=0 note=57 velocity=0 time=0
note_on channel=0 note=62 velocity=0 time=0
note_on channel=0 note=54 velocity=58 time=361
note_on channel=0 note=57 velocity=58 time=0
note_on channel=0 note=62 velocity=58 time=0
note_on channel=0 note=54 velocity=0 time=119
note_on channel=0 note=57 velocity=0 time=0
note_on channel=0 note=62 velocity=0 time=0
note_on channel=0 note=37 velocity=58 time=121
note_on channel=0 note=49 velocity=58 time=0
control_change channel=0 control=64 value=127 time=2
note_on channel=0 note=37 velocity=0 time=237
note_on channel=0 note=49 velocity=0 time=0
note_on channel=0 note=59 velocity=58 time=1
note_on channel=0 note=69 velocity=58 time=0
control_change channel=0 control=2 value=58 time=0
control_change channel=0 control=2 value=59 time=64
control_change channel=0 control=2 value=60 time=32
control_change channel=0 control=2 value=61 time=32
control_change channel=0 control=2 value=62 time=32
control_change channel=0 control=2 value=63 time=32
control_change channel=0 control=2 value=64 time=32
note_on channel=0 note=59 velocity=0 time=15
note_on channel=0 note=69 velocity=0 time=0
note_on channel=0 note=59 velocity=65 time=1
note_on channel=0 note=68 velocity=65 time=0
control_change channel=0 control=2 value=65 time=16
control_change channel=0 control=2 value=66 time=32
control_change channel=0 control=2 value=67 time=32
control_change channel=0 control=2 value=68 time=32
control_change channel=0 control=2 value=69 time=32
control_change channel=0 control=2 value=70 time=32
control_change channel=0 control=2 value=71 time=32
note_on channel=0 note=59 velocity=0 time=31
note_on channel=0 note=68 velocity=0 time=0
note_on channel=0 note=35 velocity=72 time=1
note_on channel=0 note=47 velocity=72 time=0
control_change channel=0 control=2 value=72 time=0
control_change channel=0 control=2 value=73 time=32
control_change channel=0 control=2 value=74 time=32
control_change channel=0 control=2 value=75 time=32
control_change channel=0 control=2 value=76 time=32
control_change channel=0 control=2 value=77 time=32
control_change channel=0 control=2 value=78 time=32
control_change channel=0 control=2 value=79 time=32
note_on channel=0 note=35 velocity=0 time=3
note_on channel=0 note=47 velocity=0 time=0
note_on channel=0 note=33 velocity=80 time=13
note_on channel=0 note=45 velocity=80 time=0
control_change channel=0 control=64 value=0 time=1
note_on channel=0 note=33 velocity=0 time=238
note_on channel=0 note=45 velocity=0 time=0
note_on channel=0 note=54 velocity=80 time=1
note_on channel=0 note=57 velocity=80 time=0
note_on channel=0 note=61 velocity=80 time=0
note_on channel=0 note=54 velocity=0 time=119
note_on channel=0 note=57 velocity=0 time=0
note_on channel=0 note=61 velocity=0 time=0
note_on channel=0 note=54 velocity=80 time=121
note_on channel=0 note=57 velocity=80 time=0
note_on channel=0 note=61 velocity=80 time=0
note_on channel=0 note=54 velocity=0 time=119
note_on channel=0 note=57 velocity=0 time=0
note_on channel=0 note=61 velocity=0 time=0
note_on channel=0 note=35 velocity=80 time=121
note_on channel=0 note=47 velocity=80 time=0
note_on channel=0 note=35 velocity=0 time=455
note_on channel=0 note=47 velocity=0 time=0
note_on channel=0 note=35 velocity=80 time=25
note_on channel=0 note=35 velocity=0 time=119
control_change channel=0 control=2 value=80 time=2
control_change channel=0 control=2 value=79 time=54
control_change channel=0 control=2 value=78 time=27
control_change channel=0 control=2 value=77 time=27
note_on channel=0 note=37 velocity=73 time=11
control_change channel=0 control=2 value=76 time=16
control_change channel=0 control=2 value=75 time=27
control_change channel=0 control=2 value=74 time=27
control_change channel=0 control=2 value=73 time=27
control_change channel=0 control=2 value=72 time=27
control_change channel=0 control=2 value=71 time=27
control_change channel=0 control=2 value=70 time=27
control_change channel=0 control=2 value=69 time=27
control_change channel=0 control=2 value=68 time=27
note_on channel=0 note=37 velocity=0 time=7
note_on channel=0 note=53 velocity=66 time=1
note_on channel=0 note=56 velocity=66 time=0
control_change channel=0 control=2 value=67 time=19
control_change channel=0 control=2 value=66 time=27
control_change channel=0 control=2 value=65 time=27
control_change channel=0 control=2 value=64 time=27
note_on channel=0 note=53 velocity=0 time=19
note_on channel=0 note=56 velocity=0 time=0
control_change channel=0 control=2 value=63 time=8
control_change channel=0 control=2 value=62 time=27
control_change channel=0 control=2 value=61 time=27
control_change channel=0 control=2 value=60 time=27
control_change channel=0 control=2 value=59 time=27
note_on channel=0 note=42 velocity=58 time=5
note_on channel=0 note=54 velocity=58 time=0
note_on channel=0 note=42 velocity=0 time=119
note_on channel=0 note=54 velocity=0 time=0
note_on channel=0 note=57 velocity=58 time=121
note_on channel=0 note=66 velocity=58 time=0
note_on channel=0 note=57 velocity=0 time=119
note_on channel=0 note=66 velocity=0 time=0
note_on channel=0 note=57 velocity=58 time=361
note_on channel=0 note=66 velocity=58 time=0
note_on channel=0 note=57 velocity=0 time=119
note_on channel=0 note=66 velocity=0 time=0
note_on channel=0 note=40 velocity=58 time=121
note_on channel=0 note=52 velocity=58 time=0
note_on channel=0 note=40 velocity=0 time=119
note_on channel=0 note=52 velocity=0 time=0
note_on channel=0 note=55 velocity=58 time=121
note_on channel=0 note=59 velocity=58 time=0
note_on channel=0 note=61 velocity=58 time=0
note_on channel=0 note=64 velocity=58 time=0
note_on channel=0 note=55 velocity=0 time=119
note_on channel=0 note=59 velocity=0 time=0
note_on channel=0 note=61 velocity=0 time=0
note_on channel=0 note=64 velocity=0 time=0
note_on channel=0 note=33 velocity=58 time=121
note_on channel=0 note=45 velocity=58 time=0
note_on channel=0 note=33 velocity=0 time=119
note_on channel=0 note=45 velocity=0 time=0
note_on channel=0 note=55 velocity=58 time=121
note_on channel=0 note=59 velocity=58 time=0
note_on channel=0 note=61 velocity=58 time=0
note_on channel=0 note=64 velocity=58 time=0
note_on channel=0 note=55 velocity=0 time=119
note_on channel=0 note=59 velocity=0 time=0
note_on channel=0 note=61 velocity=0 time=0
note_on channel=0 note=64 velocity=0 time=0
note_on channel=0 note=38 velocity=58 time=121
note_on channel=0 note=50 velocity=58 time=0
note_on channel=0 note=38 velocity=0 time=119
note_on channel=0 note=50 velocity=0 time=0
note_on channel=0 note=54 velocity=58 time=121
note_on channel=0 note=57 velocity=58 time=0
note_on channel=0 note=64 velocity=58 time=0
note_on channel=0 note=54 velocity=0 time=119
note_on channel=0 note=57 velocity=0 time=0
note_on channel=0 note=64 velocity=0 time=0
note_on channel=0 note=54 velocity=58 time=361
note_on channel=0 note=57 velocity=58 time=0
note_on channel=0 note=62 velocity=58 time=0
note_on channel=0 note=54 velocity=0 time=119
note_on channel=0 note=57 velocity=0 time=0
note_on channel=0 note=62 velocity=0 time=0
note_on channel=0 note=47 velocity=58 time=121
note_on channel=0 note=59 velocity=58 time=0
note_on channel=0 note=47 velocity=0 time=119
note_on channel=0 note=59 velocity=0 time=0
control_change channel=0 control=2 value=58 time=2
control_change channel=0 control=2 value=59 time=76
control_change channel=0 control=2 value=60 time=38
note_on channel=0 note=62 velocity=63 time=5
note_on channel=0 note=66 velocity=63 time=0
note_on channel=0 note=69 velocity=63 time=0
control_change channel=0 control=2 value=61 time=33
control_change channel=0 control=2 value=62 time=38
control_change channel=0 control=2 value=63 time=38
note_on channel=0 note=62 velocity=0 time=10
note_on channel=0 note=66 velocity=0 time=0
note_on channel=0 note=69 velocity=0 time=0
control_change channel=0 control=2 value=64 time=28
control_change channel=0 control=2 value=65 time=38
control_change channel=0 control=2 value=66 time=38
note_on channel=0 note=35 velocity=69 time=17
note_on channel=0 note=47 velocity=69 time=0
control_change channel=0 control=2 value=67 time=21
control_change channel=0 control=2 value=68 time=38
control_change channel=0 control=2 value=69 time=38
note_on channel=0 note=35 velocity=0 time=22
note_on channel=0 note=47 velocity=0 time=0
control_change channel=0 control=2 value=70 time=16
control_change channel=0 control=2 value=71 time=38
control_change channel=0 control=2 value=72 time=38
note_on channel=0 note=66 velocity=74 time=29
note_on channel=0 note=69 velocity=74 time=0
note_on channel=0 note=74 velocity=74 time=0
control_change channel=0 control=2 value=73 time=9
control_change channel=0 control=2 value=74 time=38
control_change channel=0 control=2 value=75 time=38
note_on channel=0 note=66 velocity=0 time=34
note_on channel=0 note=69 velocity=0 time=0
note_on channel=0 note=74 velocity=0 time=0
control_change channel=0 control=2 value=76 time=4
control_change channel=0 control=2 value=77 time=38
control_change channel=0 control=2 value=78 time=38
control_change channel=0 control=2 value=79 time=38
note_on channel=0 note=49 velocity=80 time=3
note_on channel=0 note=49 velocity=0 time=119
note_on channel=0 note=66 velocity=80 time=121
note_on channel=0 note=69 velocity=80 time=0
note_on channel=0 note=73 velocity=80 time=0
note_on channel=0 note=66 velocity=0 time=119
note_on channel=0 note=69 velocity=0 time=0
note_on channel=0 note=73 velocity=0 time=108
note_on channel=0 note=66 velocity=80 time=253
note_on channel=0 note=69 velocity=80 time=0
note_on channel=0 note=73 velocity=80 time=0
note_on channel=0 note=66 velocity=0 time=119
note_on channel=0 note=69 velocity=0 time=0
note_on channel=0 note=73 velocity=0 time=0
note_on channel=0 note=49 velocity=80 time=121
note_on channel=0 note=49 velocity=0 time=119
note_on channel=0 note=61 velocity=80 time=121
note_on channel=0 note=65 velocity=80 time=0
note_on channel=0 note=69 velocity=80 time=0
note_on channel=0 note=61 velocity=0 time=119
note_on channel=0 note=65 velocity=0 time=0
note_on channel=0 note=69 velocity=0 time=0
note_on channel=0 note=61 velocity=80 time=121
note_on channel=0 note=65 velocity=80 time=0
note_on channel=0 note=69 velocity=80 time=0
note_on channel=0 note=61 velocity=0 time=227
note_on channel=0 note=65 velocity=0 time=0
note_on channel=0 note=69 velocity=0 time=0
note_on channel=0 note=65 velocity=80 time=13
note_on channel=0 note=68 velocity=80 time=0
note_on channel=0 note=65 velocity=0 time=119
note_on channel=0 note=68 velocity=0 time=0
note_on channel=0 note=30 velocity=80 time=121
note_on channel=0 note=42 velocity=80 time=0
control_change channel=0 control=64 value=127 time=2
note_on channel=0 note=30 velocity=0 time=453
note_on channel=0 note=42 velocity=0 time=0
note_on channel=0 note=58 velocity=80 time=25
note_on channel=0 note=66 velocity=80 time=0
note_on channel=0 note=70 velocity=80 time=0
note_on channel=0 note=58 velocity=0 time=455
note_on channel=0 note=66 velocity=0 time=0
note_on channel=0 note=70 velocity=0 time=0
note_on channel=0 note=59 velocity=80 time=25
note_on channel=0 note=68 velocity=80 time=0
note_on channel=0 note=71 velocity=80 time=0
note_on channel=0 note=59 velocity=0 time=455
note_on channel=0 note=68 velocity=0 time=0
note_on channel=0 note=71 velocity=0 time=0
note_on channel=0 note=61 velocity=80 time=25
note_on channel=0 note=70 velocity=80 time=0
note_on channel=0 note=73 velocity=80 time=0
note_on channel=0 note=61 velocity=0 time=455
note_on channel=0 note=70 velocity=0 time=0
note_on channel=0 note=73 velocity=0 time=0
note_on channel=0 note=35 velocity=80 time=25
note_on channel=0 note=47 velocity=80 time=0
control_change channel=0 control=64 value=0 time=1
control_change channel=0 control=64 value=127 time=1
note_on channel=0 note=35 velocity=0 time=225
note_on channel=0 note=47 velocity=0 time=0
note_on channel=0 note=54 velocity=80 time=13
note_on channel=0 note=57 velocity=80 time=0
note_on channel=0 note=64 velocity=80 time=0
note_on channel=0 note=54 velocity=0 time=227
note_on channel=0 note=57 velocity=0 time=0
note_on channel=0 note=64 velocity=0 time=0
note_on channel=0 note=62 velocity=80 time=13
note_on channel=0 note=62 velocity=0 time=227
note_on channel=0 note=47 velocity=80 time=13
note_on channel=0 note=47 velocity=0 time=227
note_on channel=0 note=40 velocity=80 time=13
note_on channel=0 note=52 velocity=80 time=0
control_change channel=0 control=64 value=0 time=1
control_change channel=0 control=64 value=127 time=1
note_on channel=0 note=40 velocity=0 time=225
note_on channel=0 note=52 velocity=0 time=0
note_on channel=0 note=62 velocity=80 time=13
note_on channel=0 note=66 velocity=80 time=0
note_on channel=0 note=73 velocity=80 time=0
note_on channel=0 note=62 velocity=0 time=227
note_on channel=0 note=66 velocity=0 time=0
note_on channel=0 note=73 velocity=0 time=0
note_on channel=0 note=71 velocity=80 time=13
note_on channel=0 note=71 velocity=0 time=227
note_on channel=0 note=62 velocity=80 time=13
note_on channel=0 note=62 velocity=0 time=227
note_on channel=0 note=33 velocity=80 time=13
note_on channel=0 note=45 velocity=80 time=0
control_change channel=0 control=64 value=0 time=1
control_change channel=0 control=64 value=127 time=1
note_on channel=0 note=33 velocity=0 time=225
note_on channel=0 note=45 velocity=0 time=0
note_on channel=0 note=59 velocity=80 time=13
note_on channel=0 note=61 velocity=80 time=0
note_on channel=0 note=68 velocity=80 time=0
note_on channel=0 note=59 velocity=0 time=227
note_on channel=0 note=61 velocity=0 time=0
note_on channel=0 note=68 velocity=0 time=0
note_on channel=0 note=64 velocity=80 time=13
note_on channel=0 note=64 velocity=0 time=227
note_on channel=0 note=61 velocity=80 time=13
note_on channel=0 note=61 velocity=0 time=227
note_on channel=0 note=38 velocity=80 time=13
note_on channel=0 note=50 velocity=80 time=0
control_change channel=0 control=64 value=0 time=1
control_change channel=0 control=64 value=127 time=1
note_on channel=0 note=38 velocity=0 time=225
note_on channel=0 note=50 velocity=0 time=0
note_on channel=0 note=57 velocity=80 time=13
note_on channel=0 note=61 velocity=80 time=0
note_on channel=0 note=68 velocity=80 time=0
note_on channel=0 note=57 velocity=0 time=227
note_on channel=0 note=61 velocity=0 time=0
note_on channel=0 note=68 velocity=0 time=0
note_on channel=0 note=66 velocity=80 time=13
note_on channel=0 note=66 velocity=0 time=227
note_on channel=0 note=61 velocity=80 time=13
note_on channel=0 note=61 velocity=0 time=227
note_on channel=0 note=44 velocity=80 time=13
note_on channel=0 note=56 velocity=80 time=0
control_change channel=0 control=64 value=0 time=1
control_change channel=0 control=64 value=127 time=1
note_on channel=0 note=44 velocity=0 time=225
note_on channel=0 note=56 velocity=0 time=0
note_on channel=0 note=62 velocity=80 time=13
note_on channel=0 note=66 velocity=80 time=0
note_on channel=0 note=62 velocity=0 time=227
note_on channel=0 note=66 velocity=0 time=0
note_on channel=0 note=71 velocity=80 time=13
note_on channel=0 note=71 velocity=0 time=227
note_on channel=0 note=66 velocity=80 time=13
note_on channel=0 note=66 velocity=0 time=227
note_on channel=0 note=37 velocity=80 time=13
note_on channel=0 note=49 velocity=80 time=0
control_change channel=0 control=64 value=0 time=1
control_change channel=0 control=64 value=127 time=1
note_on channel=0 note=37 velocity=0 time=225
note_on channel=0 note=49 velocity=0 time=0
note_on channel=0 note=61 velocity=80 time=13
note_on channel=0 note=65 velocity=80 time=0
note_on channel=0 note=69 velocity=80 time=0
note_on channel=0 note=61 velocity=0 time=227
note_on channel=0 note=65 velocity=0 time=0
note_on channel=0 note=69 velocity=0 time=0
note_on channel=0 note=35 velocity=80 time=13
note_on channel=0 note=47 velocity=80 time=0
note_on channel=0 note=35 velocity=0 time=227
note_on channel=0 note=47 velocity=0 time=0
note_on channel=0 note=61 velocity=80 time=13
note_on channel=0 note=65 velocity=80 time=0
note_on channel=0 note=68 velocity=80 time=0
note_on channel=0 note=61 velocity=0 time=227
note_on channel=0 note=65 velocity=0 time=0
note_on channel=0 note=68 velocity=0 time=0
note_on channel=0 note=33 velocity=80 time=13
note_on channel=0 note=45 velocity=80 time=0
control_change channel=0 control=64 value=0 time=1
control_change channel=0 control=64 value=127 time=1
note_on channel=0 note=33 velocity=0 time=225
note_on channel=0 note=45 velocity=0 time=0
note_on channel=0 note=57 velocity=80 time=13
note_on channel=0 note=61 velocity=80 time=0
note_on channel=0 note=68 velocity=80 time=0
note_on channel=0 note=57 velocity=0 time=227
note_on channel=0 note=61 velocity=0 time=0
note_on channel=0 note=68 velocity=0 time=0
note_on channel=0 note=66 velocity=80 time=13
note_on channel=0 note=66 velocity=0 time=227
note_on channel=0 note=57 velocity=80 time=13
note_on channel=0 note=61 velocity=80 time=0
note_on channel=0 note=57 velocity=0 time=227
note_on channel=0 note=61 velocity=0 time=0
note_on channel=0 note=34 velocity=80 time=13
note_on channel=0 note=46 velocity=80 time=0
control_change channel=0 control=64 value=0 time=1
control_change channel=0 control=64 value=127 time=1
note_on channel=0 note=34 velocity=0 time=225
note_on channel=0 note=46 velocity=0 time=0
note_on channel=0 note=70 velocity=80 time=13
note_on channel=0 note=73 velocity=80 time=0
note_on channel=0 note=79 velocity=80 time=0
note_on channel=0 note=70 velocity=0 time=119
note_on channel=0 note=73 velocity=0 time=0
note_on channel=0 note=79 velocity=0 time=0
note_on channel=0 note=58 velocity=80 time=121
note_on channel=0 note=61 velocity=80 time=0
note_on channel=0 note=67 velocity=80 time=0
note_on channel=0 note=58 velocity=0 time=227
note_on channel=0 note=61 velocity=0 time=0
note_on channel=0 note=67 velocity=0 time=0
note_on channel=0 note=66 velocity=80 time=13
note_on channel=0 note=66 velocity=0 time=227
note_on channel=0 note=35 velocity=80 time=13
note_on channel=0 note=47 velocity=80 time=0
control_change channel=0 control=64 value=0 time=1
control_change channel=0 control=64 value=127 time=1
note_on channel=0 note=35 velocity=0 time=225
note_on channel=0 note=47 velocity=0 time=0
note_on channel=0 note=54 velocity=80 time=13
note_on channel=0 note=57 velocity=80 time=0
note_on channel=0 note=64 velocity=80 time=0
note_on channel=0 note=54 velocity=0 time=227
note_on channel=0 note=57 velocity=0 time=0
note_on channel=0 note=64 velocity=0 time=0
note_on channel=0 note=62 velocity=80 time=13
note_on channel=0 note=62 velocity=0 time=227
note_on channel=0 note=47 velocity=80 time=13
note_on channel=0 note=47 velocity=0 time=227
note_on channel=0 note=40 velocity=80 time=13
note_on channel=0 note=52 velocity=80 time=0
control_change channel=0 control=64 value=0 time=1
control_change channel=0 control=64 value=127 time=1
note_on channel=0 note=40 velocity=0 time=225
note_on channel=0 note=52 velocity=0 time=0
note_on channel=0 note=62 velocity=80 time=13
note_on channel=0 note=66 velocity=80 time=0
note_on channel=0 note=73 velocity=80 time=0
note_on channel=0 note=62 velocity=0 time=227
note_on channel=0 note=66 velocity=0 time=0
note_on channel=0 note=73 velocity=0 time=0
note_on channel=0 note=71 velocity=80 time=13
note_on channel=0 note=71 velocity=0 time=227
note_on channel=0 note=62 velocity=80 time=13
note_on channel=0 note=62 velocity=0 time=227
note_on channel=0 note=33 velocity=80 time=13
note_on channel=0 note=45 velocity=80 time=0
control_change channel=0 control=64 value=0 time=1
control_change channel=0 control=64 value=127 time=1
note_on channel=0 note=33 velocity=0 time=225
note_on channel=0 note=45 velocity=0 time=0
note_on channel=0 note=59 velocity=80 time=13
note_on channel=0 note=61 velocity=80 time=0
note_on channel=0 note=68 velocity=80 time=0
note_on channel=0 note=59 velocity=0 time=227
note_on channel=0 note=61 velocity=0 time=0
note_on channel=0 note=68 velocity=0 time=0
note_on channel=0 note=64 velocity=80 time=13
note_on channel=0 note=64 velocity=0 time=227
note_on channel=0 note=61 velocity=80 time=13
note_on channel=0 note=61 velocity=0 time=227
note_on channel=0 note=38 velocity=80 time=13
note_on channel=0 note=50 velocity=80 time=0
control_change channel=0 control=64 value=0 time=1
control_change channel=0 control=64 value=127 time=1
note_on channel=0 note=38 velocity=0 time=225
note_on channel=0 note=50 velocity=0 time=0
note_on channel=0 note=57 velocity=80 time=13
note_on channel=0 note=61 velocity=80 time=0
note_on channel=0 note=68 velocity=80 time=0
note_on channel=0 note=57 velocity=0 time=227
note_on channel=0 note=61 velocity=0 time=0
note_on channel=0 note=68 velocity=0 time=0
note_on channel=0 note=66 velocity=80 time=13
note_on channel=0 note=66 velocity=0 time=227
note_on channel=0 note=61 velocity=80 time=13
note_on channel=0 note=61 velocity=0 time=227
note_on channel=0 note=44 velocity=80 time=13
note_on channel=0 note=56 velocity=80 time=0
control_change channel=0 control=64 value=0 time=1
control_change channel=0 control=64 value=127 time=1
note_on channel=0 note=44 velocity=0 time=225
note_on channel=0 note=56 velocity=0 time=0
note_on channel=0 note=63 velocity=80 time=13
note_on channel=0 note=66 velocity=80 time=0
note_on channel=0 note=73 velocity=80 time=0
note_on channel=0 note=63 velocity=0 time=227
note_on channel=0 note=66 velocity=0 time=0
note_on channel=0 note=73 velocity=0 time=0
note_on channel=0 note=71 velocity=80 time=13
note_on channel=0 note=71 velocity=0 time=227
note_on channel=0 note=66 velocity=80 time=13
note_on channel=0 note=66 velocity=0 time=227
note_on channel=0 note=43 velocity=80 time=13
note_on channel=0 note=55 velocity=80 time=0
control_change channel=0 control=64 value=0 time=1
control_change channel=0 control=64 value=127 time=1
note_on channel=0 note=43 velocity=0 time=225
note_on channel=0 note=55 velocity=0 time=0
note_on channel=0 note=62 velocity=80 time=13
note_on channel=0 note=65 velocity=80 time=0
note_on channel=0 note=73 velocity=80 time=0
note_on channel=0 note=62 velocity=0 time=227
note_on channel=0 note=65 velocity=0 time=0
note_on channel=0 note=73 velocity=0 time=0
note_on channel=0 note=71 velocity=80 time=13
note_on channel=0 note=71 velocity=0 time=227
note_on channel=0 note=65 velocity=80 time=13
note_on channel=0 note=65 velocity=0 time=227
note_on channel=0 note=42 velocity=80 time=13
note_on channel=0 note=54 velocity=80 time=0
control_change channel=0 control=64 value=0 time=1
note_on channel=0 note=42 velocity=0 time=238
note_on channel=0 note=54 velocity=0 time=0
note_on channel=0 note=50 velocity=80 time=241
note_on channel=0 note=62 velocity=80 time=0
note_on channel=0 note=50 velocity=0 time=119
note_on channel=0 note=62 velocity=0 time=0
note_on channel=0 note=49 velocity=80 time=121
note_on channel=0 note=61 velocity=80 time=0
note_on channel=0 note=49 velocity=0 time=119
note_on channel=0 note=61 velocity=0 time=0
note_on channel=0 note=47 velocity=80 time=121
note_on channel=0 note=59 velocity=80 time=0
note_on channel=0 note=47 velocity=0 time=239
note_on channel=0 note=59 velocity=0 time=0
note_on channel=0 note=37 velocity=80 time=241
note_on channel=0 note=49 velocity=80 time=0
note_on channel=0 note=37 velocity=0 time=157
note_on channel=0 note=49 velocity=0 time=0
note_on channel=0 note=42 velocity=60 time=323
note_on channel=0 note=54 velocity=60 time=0
control_change channel=0 control=64 value=127 time=2
note_on channel=0 note=42 velocity=0 time=453
note_on channel=0 note=54 velocity=0 time=0
note_on channel=0 note=57 velocity=60 time=25
note_on channel=0 note=57 velocity=0 time=240
note_on channel=0 note=40 velocity=60 time=240
note_on channel=0 note=56 velocity=60 time=0
note_on channel=0 note=40 velocity=0 time=455
note_on channel=0 note=56 velocity=0 time=0
note_on channel=0 note=52 velocity=60 time=25
note_on channel=0 note=52 velocity=0 time=455
note_on channel=0 note=38 velocity=60 time=25
note_on channel=0 note=50 velocity=60 time=0
control_change channel=0 control=64 value=0 time=1
control_change channel=0 control=64 value=127 time=1
note_on channel=0 note=38 velocity=0 time=453
note_on channel=0 note=50 velocity=0 time=0
note_on channel=0 note=54 velocity=60 time=25
note_on channel=0 note=54 velocity=0 time=455
note_on channel=0 note=49 velocity=60 time=25
note_on channel=0 note=61 velocity=60 time=0
note_on channel=0 note=49 velocity=0 time=455
note_on channel=0 note=61 velocity=0 time=0
note_on channel=0 note=52 velocity=60 time=25
note_on channel=0 note=52 velocity=0 time=455
note_on channel=0 note=47 velocity=60 time=25
note_on channel=0 note=59 velocity=60 time=0
control_change channel=0 control=64 value=0 time=1
control_change channel=0 control=64 value=127 time=1
note_on channel=0 note=47 velocity=0 time=453
note_on channel=0 note=59 velocity=0 time=0
note_on channel=0 note=54 velocity=60 time=25
note_on channel=0 note=54 velocity=0 time=455
note_on channel=0 note=45 velocity=60 time=25
note_on channel=0 note=57 velocity=60 time=0
note_on channel=0 note=45 velocity=0 time=341
note_on channel=0 note=57 velocity=0 time=0
note_on channel=0 note=57 velocity=60 time=19
note_on channel=0 note=66 velocity=60 time=0
note_on channel=0 note=57 velocity=0 time=113
note_on channel=0 note=66 velocity=0 time=0
note_on channel=0 note=57 velocity=60 time=7
note_on channel=0 note=66 velocity=60 time=0
note_on channel=0 note=57 velocity=0 time=455
note_on channel=0 note=66 velocity=0 time=0
note_on channel=0 note=32 velocity=60 time=25
note_on channel=0 note=44 velocity=60 time=0
control_change channel=0 control=64 value=0 time=1
control_change channel=0 control=64 value=127 time=1
note_on channel=0 note=32 velocity=0 time=339
note_on channel=0 note=44 velocity=0 time=0
note_on channel=0 note=56 velocity=60 time=19
note_on channel=0 note=59 velocity=60 time=0
note_on channel=0 note=56 velocity=0 time=113
note_on channel=0 note=59 velocity=0 time=0
note_on channel=0 note=56 velocity=60 time=7
note_on channel=0 note=59 velocity=60 time=0
note_on channel=0 note=56 velocity=0 time=455
note_on channel=0 note=59 velocity=0 time=0
note_on channel=0 note=37 velocity=60 time=25
note_on channel=0 note=49 velocity=60 time=0
control_change channel=0 control=64 value=0 time=1
control_change channel=0 control=64 value=127 time=1
note_on channel=0 note=37 velocity=0 time=225
note_on channel=0 note=49 velocity=0 time=0
note_on channel=0 note=53 velocity=60 time=13
note_on channel=0 note=56 velocity=60 time=0
note_on channel=0 note=53 velocity=0 time=227
note_on channel=0 note=56 velocity=0 time=0
note_on channel=0 note=54 velocity=60 time=13
note_on channel=0 note=57 velocity=60 time=0
note_on channel=0 note=54 velocity=0 time=227
note_on channel=0 note=57 velocity=0 time=0
note_on channel=0 note=56 velocity=60 time=13
note_on channel=0 note=59 velocity=60 time=0
note_on channel=0 note=56 velocity=0 time=227
note_on channel=0 note=59 velocity=0 time=0
note_on channel=0 note=42 velocity=60 time=13
note_on channel=0 note=54 velocity=60 time=0
control_change channel=0 control=64 value=0 time=1
control_change channel=0 control=64 value=127 time=1
note_on channel=0 note=42 velocity=0 time=453
note_on channel=0 note=54 velocity=0 time=0
note_on channel=0 note=57 velocity=60 time=25
note_on channel=0 note=57 velocity=0 time=455
note_on channel=0 note=52 velocity=60 time=25
note_on channel=0 note=64 velocity=60 time=0
note_on channel=0 note=52 velocity=0 time=455
note_on channel=0 note=64 velocity=0 time=0
note_on channel=0 note=61 velocity=60 time=25
note_on channel=0 note=61 velocity=0 time=455
note_on channel=0 note=50 velocity=60 time=25
note_on channel=0 note=62 velocity=60 time=0
control_change channel=0 control=64 value=0 time=1
control_change channel=0 control=64 value=127 time=1
note_on channel=0 note=50 velocity=0 time=453
note_on channel=0 note=62 velocity=0 time=0
note_on channel=0 note=54 velocity=60 time=25
note_on channel=0 note=54 velocity=0 time=455
note_on channel=0 note=49 velocity=60 time=25
note_on channel=0 note=61 velocity=60 time=0
note_on channel=0 note=49 velocity=0 time=455
note_on channel=0 note=61 velocity=0 time=0
note_on channel=0 note=54 velocity=60 time=25
note_on channel=0 note=54 velocity=0 time=455
note_on channel=0 note=47 velocity=60 time=25
note_on channel=0 note=59 velocity=60 time=0
control_change channel=0 control=64 value=0 time=1
control_change channel=0 control=64 value=127 time=1
note_on channel=0 note=47 velocity=0 time=453
note_on channel=0 note=59 velocity=0 time=0
note_on channel=0 note=62 velocity=60 time=25
note_on channel=0 note=62 velocity=0 time=455
note_on channel=0 note=45 velocity=60 time=25
note_on channel=0 note=57 velocity=60 time=0
note_on channel=0 note=45 velocity=0 time=341
note_on channel=0 note=57 velocity=0 time=0
note_on channel=0 note=57 velocity=60 time=19
note_on channel=0 note=61 velocity=60 time=0
note_on channel=0 note=66 velocity=60 time=0
note_on channel=0 note=57 velocity=0 time=113
note_on channel=0 note=61 velocity=0 time=0
note_on channel=0 note=66 velocity=0 time=0
note_on channel=0 note=57 velocity=60 time=7
note_on channel=0 note=61 velocity=60 time=0
note_on channel=0 note=66 velocity=60 time=0
note_on channel=0 note=57 velocity=0 time=455
note_on channel=0 note=61 velocity=0 time=0
note_on channel=0 note=66 velocity=0 time=0
note_on channel=0 note=32 velocity=60 time=25
note_on channel=0 note=44 velocity=60 time=0
control_change channel=0 control=2 value=60 time=0
control_change channel=0 control=64 value=0 time=1
control_change channel=0 control=64 value=127 time=1
control_change channel=0 control=2 value=61 time=94
control_change channel=0 control=2 value=62 time=96
control_change channel=0 control=2 value=63 time=96
note_on channel=0 note=32 velocity=0 time=53
note_on channel=0 note=44 velocity=0 time=0
note_on channel=0 note=56 velocity=63 time=19
note_on channel=0 note=59 velocity=63 time=0
note_on channel=0 note=66 velocity=63 time=0
control_change channel=0 control=2 value=64 time=24
note_on channel=0 note=56 velocity=0 time=89
note_on channel=0 note=59 velocity=0 time=0
note_on channel=0 note=66 velocity=0 time=0
note_on channel=0 note=56 velocity=65 time=7
note_on channel=0 note=59 velocity=65 time=0
note_on channel=0 note=66 velocity=65 time=0
control_change channel=0 control=2 value=65 time=0
control_change channel=0 control=2 value=66 time=96
control_change channel=0 control=2 value=67 time=96
control_change channel=0 control=2 value=68 time=96
control_change channel=0 control=2 value=69 time=96
note_on channel=0 note=56 velocity=0 time=71
note_on channel=0 note=59 velocity=0 time=0
note_on channel=0 note=66 velocity=0 time=0
note_on channel=0 note=31 velocity=70 time=25
note_on channel=0 note=43 velocity=70 time=0
control_change channel=0 control=2 value=70 time=0
control_change channel=0 control=64 value=0 time=1
control_change channel=0 control=64 value=127 time=1
control_change channel=0 control=2 value=71 time=94
control_change channel=0 control=2 value=72 time=96
control_change channel=0 control=2 value=73 time=96
note_on channel=0 note=31 velocity=0 time=53
note_on channel=0 note=43 velocity=0 time=0
note_on channel=0 note=55 velocity=73 time=19
note_on channel=0 note=59 velocity=73 time=0
note_on channel=0 note=61 velocity=73 time=0
note_on channel=0 note=66 velocity=73 time=0
control_change channel=0 control=2 value=74 time=24
note_on channel=0 note=55 velocity=0 time=89
note_on channel=0 note=59 velocity=0 time=0
note_on channel=0 note=61 velocity=0 time=0
note_on channel=0 note=66 velocity=0 time=0
note_on channel=0 note=55 velocity=75 time=7
note_on channel=0 note=59 velocity=75 time=0
note_on channel=0 note=61 velocity=75 time=0
note_on channel=0 note=66 velocity=75 time=0
control_change channel=0 control=2 value=75 time=0
control_change channel=0 control=2 value=76 time=96
control_change channel=0 control=2 value=77 time=96
control_change channel=0 control=2 value=78 time=96
control_change channel=0 control=2 value=79 time=96
note_on channel=0 note=55 velocity=0 time=1895
note_on channel=0 note=59 velocity=0 time=0
note_on channel=0 note=61 velocity=0 time=0
note_on channel=0 note=66 velocity=0 time=0
note_on channel=0 note=54 velocity=64 time=121
control_change channel=0 control=64 value=0 time=1
note_on channel=0 note=54 velocity=0 time=156
note_on channel=0 note=56 velocity=64 time=323
note_on channel=0 note=56 velocity=0 time=157
note_on channel=0 note=57 velocity=64 time=323
note_on channel=0 note=57 velocity=0 time=455
note_on channel=0 note=35 velocity=64 time=505
note_on channel=0 note=47 velocity=64 time=0
note_on channel=0 note=35 velocity=0 time=239
note_on channel=0 note=47 velocity=0 time=0
note_on channel=0 note=33 velocity=64 time=721
note_on channel=0 note=45 velocity=64 time=0
note_on channel=0 note=33 velocity=0 time=239
note_on channel=0 note=45 velocity=0 time=0
note_on channel=0 note=35 velocity=64 time=721
note_on channel=0 note=47 velocity=64 time=0
note_on channel=0 note=35 velocity=0 time=239
note_on channel=0 note=47 velocity=0 time=0
note_on channel=0 note=42 velocity=64 time=721
note_on channel=0 note=54 velocity=64 time=0
note_on channel=0 note=42 velocity=0 time=239
note_on channel=0 note=54 velocity=0 time=0
note_on channel=0 note=44 velocity=64 time=721
note_on channel=0 note=56 velocity=64 time=0
note_on channel=0 note=44 velocity=0 time=239
note_on channel=0 note=56 velocity=0 time=0
note_on channel=0 note=37 velocity=64 time=721
note_on channel=0 note=49 velocity=64 time=0
note_on channel=0 note=37 velocity=0 time=239
note_on channel=0 note=49 velocity=0 time=0
note_on channel=0 note=35 velocity=64 time=241
note_on channel=0 note=47 velocity=64 time=0
note_on channel=0 note=35 velocity=0 time=239
note_on channel=0 note=47 velocity=0 time=0
note_on channel=0 note=45 velocity=64 time=241
note_on channel=0 note=57 velocity=64 time=0
note_on channel=0 note=45 velocity=0 time=157
note_on channel=0 note=57 velocity=0 time=0
note_on channel=0 note=53 velocity=64 time=323
note_on channel=0 note=53 velocity=0 time=157
note_on channel=0 note=54 velocity=64 time=323
note_on channel=0 note=54 velocity=0 time=455
note_on channel=0 note=35 velocity=64 time=505
note_on channel=0 note=47 velocity=64 time=0
note_on channel=0 note=35 velocity=0 time=239
note_on channel=0 note=47 velocity=0 time=0
note_on channel=0 note=37 velocity=64 time=721
note_on channel=0 note=49 velocity=64 time=0
note_on channel=0 note=37 velocity=0 time=239
note_on channel=0 note=49 velocity=0 time=0
note_on channel=0 note=35 velocity=64 time=721
note_on channel=0 note=47 velocity=64 time=0
note_on channel=0 note=35 velocity=0 time=239
note_on channel=0 note=47 velocity=0 time=0
note_on channel=0 note=42 velocity=64 time=721
note_on channel=0 note=54 velocity=64 time=0
note_on channel=0 note=42 velocity=0 time=239
note_on channel=0 note=54 velocity=0 time=0
note_on channel=0 note=37 velocity=64 time=241
note_on channel=0 note=49 velocity=64 time=0
note_on channel=0 note=37 velocity=0 time=239
note_on channel=0 note=49 velocity=0 time=0
note_on channel=0 note=42 velocity=64 time=241
note_on channel=0 note=54 velocity=64 time=0
note_on channel=0 note=42 velocity=0 time=239
note_on channel=0 note=54 velocity=0 time=0
note_on channel=0 note=37 velocity=64 time=241
note_on channel=0 note=49 velocity=64 time=0
note_on channel=0 note=37 velocity=0 time=119
note_on channel=0 note=49 velocity=0 time=0
note_on channel=0 note=33 velocity=64 time=121
note_on channel=0 note=45 velocity=64 time=0
note_on channel=0 note=33 velocity=0 time=119
note_on channel=0 note=45 velocity=0 time=0
note_on channel=0 note=30 velocity=64 time=121
note_on channel=0 note=42 velocity=64 time=0
note_on channel=0 note=30 velocity=0 time=320
note_on channel=0 note=42 velocity=0 time=0
note_on channel=0 note=40 velocity=64 time=640
note_on channel=0 note=52 velocity=64 time=0
note_on channel=0 note=40 velocity=0 time=227
note_on channel=0 note=52 velocity=0 time=0
note_on channel=0 note=62 velocity=60 time=13
note_on channel=0 note=66 velocity=60 time=0
note_on channel=0 note=68 velocity=60 time=0
note_on channel=0 note=62 velocity=0 time=119
note_on channel=0 note=66 velocity=0 time=0
note_on channel=0 note=68 velocity=0 time=0
note_on channel=0 note=62 velocity=60 time=121
note_on channel=0 note=66 velocity=60 time=0
note_on channel=0 note=68 velocity=60 time=0
note_on channel=0 note=62 velocity=0 time=119
note_on channel=0 note=66 velocity=0 time=0
note_on channel=0 note=68 velocity=0 time=0
note_on channel=0 note=62 velocity=60 time=121
note_on channel=0 note=66 velocity=60 time=0
note_on channel=0 note=68 velocity=60 time=0
note_on channel=0 note=62 velocity=0 time=119
note_on channel=0 note=66 velocity=0 time=0
note_on channel=0 note=68 velocity=0 time=0
note_on channel=0 note=45 velocity=64 time=121
note_on channel=0 note=57 velocity=64 time=0
note_on channel=0 note=45 velocity=0 time=227
note_on channel=0 note=57 velocity=0 time=0
note_on channel=0 note=61 velocity=60 time=13
note_on channel=0 note=64 velocity=60 time=0
note_on channel=0 note=68 velocity=60 time=0
note_on channel=0 note=61 velocity=0 time=119
note_on channel=0 note=64 velocity=0 time=0
note_on channel=0 note=68 velocity=0 time=0
note_on channel=0 note=61 velocity=60 time=121
note_on channel=0 note=64 velocity=60 time=0
note_on channel=0 note=68 velocity=60 time=0
note_on channel=0 note=61 velocity=0 time=119
note_on channel=0 note=64 velocity=0 time=0
note_on channel=0 note=68 velocity=0 time=0
note_on channel=0 note=61 velocity=60 time=121
note_on channel=0 note=64 velocity=60 time=0
note_on channel=0 note=61 velocity=0 time=119
note_on channel=0 note=64 velocity=0 time=0
note_on channel=0 note=37 velocity=64 time=121
note_on channel=0 note=49 velocity=64 time=0
note_on channel=0 note=37 velocity=0 time=227
note_on channel=0 note=49 velocity=0 time=0
note_on channel=0 note=56 velocity=60 time=13
note_on channel=0 note=59 velocity=60 time=0
note_on channel=0 note=65 velocity=60 time=0
note_on channel=0 note=56 velocity=0 time=119
note_on channel=0 note=59 velocity=0 time=0
note_on channel=0 note=65 velocity=0 time=0
note_on channel=0 note=56 velocity=60 time=121
note_on channel=0 note=59 velocity=60 time=0
note_on channel=0 note=65 velocity=60 time=0
note_on channel=0 note=56 velocity=0 time=119
note_on channel=0 note=59 velocity=0 time=0
note_on channel=0 note=65 velocity=0 time=0
note_on channel=0 note=56 velocity=60 time=121
note_on channel=0 note=59 velocity=60 time=0
note_on channel=0 note=65 velocity=60 time=0
note_on channel=0 note=56 velocity=0 time=119
note_on channel=0 note=59 velocity=0 time=0
note_on channel=0 note=65 velocity=0 time=0
note_on channel=0 note=38 velocity=64 time=121
note_on channel=0 note=50 velocity=64 time=0
note_on channel=0 note=38 velocity=0 time=227
note_on channel=0 note=50 velocity=0 time=0
note_on channel=0 note=57 velocity=60 time=13
note_on channel=0 note=61 velocity=60 time=0
note_on channel=0 note=57 velocity=0 time=119
note_on channel=0 note=61 velocity=0 time=0
note_on channel=0 note=57 velocity=60 time=121
note_on channel=0 note=61 velocity=60 time=0
note_on channel=0 note=57 velocity=0 time=119
note_on channel=0 note=61 velocity=0 time=0
note_on channel=0 note=57 velocity=60 time=121
note_on channel=0 note=61 velocity=60 time=0
note_on channel=0 note=57 velocity=0 time=119
note_on channel=0 note=61 velocity=0 time=0
note_on channel=0 note=35 velocity=64 time=121
note_on channel=0 note=47 velocity=64 time=0
note_on channel=0 note=35 velocity=0 time=227
note_on channel=0 note=47 velocity=0 time=0
note_on channel=0 note=56 velocity=60 time=13
note_on channel=0 note=59 velocity=60 time=0
note_on channel=0 note=62 velocity=60 time=0
note_on channel=0 note=56 velocity=0 time=119
note_on channel=0 note=59 velocity=0 time=0
note_on channel=0 note=62 velocity=0 time=0
note_on channel=0 note=56 velocity=60 time=121
note_on channel=0 note=59 velocity=60 time=0
note_on channel=0 note=62 velocity=60 time=0
note_on channel=0 note=56 velocity=0 time=119
note_on channel=0 note=59 velocity=0 time=0
note_on channel=0 note=62 velocity=0 time=0
note_on channel=0 note=56 velocity=60 time=121
note_on channel=0 note=59 velocity=60 time=0
note_on channel=0 note=62 velocity=60 time=0
note_on channel=0 note=56 velocity=0 time=119
note_on channel=0 note=59 velocity=0 time=0
note_on channel=0 note=62 velocity=0 time=0
note_on channel=0 note=37 velocity=64 time=121
note_on channel=0 note=49 velocity=64 time=0
note_on channel=0 note=37 velocity=0 time=227
note_on channel=0 note=49 velocity=0 time=0
note_on channel=0 note=57 velocity=60 time=13
note_on channel=0 note=61 velocity=60 time=0
note_on channel=0 note=66 velocity=60 time=0
note_on channel=0 note=57 velocity=0 time=119
note_on channel=0 note=61 velocity=0 time=0
note_on channel=0 note=66 velocity=0 time=0
note_on channel=0 note=57 velocity=60 time=121
note_on channel=0 note=61 velocity=60 time=0
note_on channel=0 note=66 velocity=60 time=0
note_on channel=0 note=57 velocity=0 time=119
note_on channel=0 note=61 velocity=0 time=0
note_on channel=0 note=66 velocity=0 time=0
note_on channel=0 note=57 velocity=60 time=121
note_on channel=0 note=61 velocity=60 time=0
note_on channel=0 note=66 velocity=60 time=0
note_on channel=0 note=57 velocity=0 time=119
note_on channel=0 note=61 velocity=0 time=0
note_on channel=0 note=66 velocity=0 time=0
note_on channel=0 note=37 velocity=64 time=121
note_on channel=0 note=49 velocity=64 time=0
note_on channel=0 note=37 velocity=0 time=227
note_on channel=0 note=49 velocity=0 time=0
note_on channel=0 note=59 velocity=60 time=13
note_on channel=0 note=65 velocity=60 time=0
note_on channel=0 note=69 velocity=60 time=0
note_on channel=0 note=59 velocity=0 time=119
note_on channel=0 note=65 velocity=0 time=0
note_on channel=0 note=69 velocity=0 time=0
note_on channel=0 note=59 velocity=60 time=121
note_on channel=0 note=65 velocity=60 time=0
note_on channel=0 note=69 velocity=60 time=0
note_on channel=0 note=59 velocity=0 time=239
note_on channel=0 note=65 velocity=0 time=0
note_on channel=0 note=69 velocity=0 time=0
note_on channel=0 note=59 velocity=64 time=1
note_on channel=0 note=65 velocity=64 time=0
note_on channel=0 note=68 velocity=60 time=0
note_on channel=0 note=59 velocity=0 time=119
note_on channel=0 note=65 velocity=0 time=0
note_on channel=0 note=68 velocity=0 time=0
note_on channel=0 note=42 velocity=64 time=121
note_on channel=0 note=54 velocity=64 time=0
note_on channel=0 note=42 velocity=0 time=239
note_on channel=0 note=54 velocity=0 time=0
note_on channel=0 note=40 velocity=64 time=721
note_on channel=0 note=52 velocity=64 time=0
note_on channel=0 note=40 velocity=0 time=227
note_on channel=0 note=52 velocity=0 time=0
note_on channel=0 note=62 velocity=60 time=13
note_on channel=0 note=66 velocity=60 time=0
note_on channel=0 note=68 velocity=60 time=0
note_on channel=0 note=73 velocity=60 time=0
note_on channel=0 note=62 velocity=0 time=119
note_on channel=0 note=66 velocity=0 time=0
note_on channel=0 note=68 velocity=0 time=0
note_on channel=0 note=73 velocity=0 time=0
note_on channel=0 note=62 velocity=60 time=121
note_on channel=0 note=66 velocity=60 time=0
note_on channel=0 note=68 velocity=60 time=0
note_on channel=0 note=73 velocity=60 time=0
note_on channel=0 note=62 velocity=0 time=119
note_on channel=0 note=66 velocity=0 time=0
note_on channel=0 note=68 velocity=0 time=0
note_on channel=0 note=73 velocity=0 time=0
note_on channel=0 note=62 velocity=60 time=121
note_on channel=0 note=66 velocity=60 time=0
note_on channel=0 note=68 velocity=60 time=0
note_on channel=0 note=71 velocity=60 time=0
note_on channel=0 note=62 velocity=0 time=119
note_on channel=0 note=66 velocity=0 time=0
note_on channel=0 note=68 velocity=0 time=0
note_on channel=0 note=71 velocity=0 time=0
note_on channel=0 note=45 velocity=64 time=121
note_on channel=0 note=57 velocity=64 time=0
note_on channel=0 note=45 velocity=0 time=227
note_on channel=0 note=57 velocity=0 time=0
note_on channel=0 note=61 velocity=60 time=13
note_on channel=0 note=64 velocity=60 time=0
note_on channel=0 note=68 velocity=60 time=0
note_on channel=0 note=61 velocity=0 time=119
note_on channel=0 note=64 velocity=0 time=0
note_on channel=0 note=68 velocity=0 time=0
note_on channel=0 note=61 velocity=60 time=121
note_on channel=0 note=64 velocity=60 time=0
note_on channel=0 note=68 velocity=60 time=0
note_on channel=0 note=61 velocity=0 time=119
note_on channel=0 note=64 velocity=0 time=0
note_on channel=0 note=68 velocity=0 time=0
note_on channel=0 note=57 velocity=60 time=121
note_on channel=0 note=61 velocity=60 time=0
note_on channel=0 note=64 velocity=60 time=0
note_on channel=0 note=57 velocity=0 time=119
note_on channel=0 note=61 velocity=0 time=0
note_on channel=0 note=64 velocity=0 time=0
note_on channel=0 note=37 velocity=64 time=121
note_on channel=0 note=49 velocity=64 time=0
note_on channel=0 note=37 velocity=0 time=227
note_on channel=0 note=49 velocity=0 time=0
note_on channel=0 note=59 velocity=60 time=13
note_on channel=0 note=65 velocity=60 time=0
note_on channel=0 note=69 velocity=60 time=0
note_on channel=0 note=59 velocity=0 time=119
note_on channel=0 note=65 velocity=0 time=0
note_on channel=0 note=69 velocity=0 time=0
note_on channel=0 note=59 velocity=60 time=121
note_on channel=0 note=65 velocity=60 time=0
note_on channel=0 note=69 velocity=60 time=0
note_on channel=0 note=59 velocity=0 time=119
note_on channel=0 note=65 velocity=0 time=0
note_on channel=0 note=69 velocity=0 time=0
note_on channel=0 note=59 velocity=60 time=121
note_on channel=0 note=65 velocity=60 time=0
note_on channel=0 note=68 velocity=60 time=0
note_on channel=0 note=59 velocity=0 time=119
note_on channel=0 note=65 velocity=0 time=0
note_on channel=0 note=68 velocity=0 time=0
note_on channel=0 note=38 velocity=64 time=121
note_on channel=0 note=50 velocity=64 time=0
note_on channel=0 note=38 velocity=0 time=227
note_on channel=0 note=50 velocity=0 time=0
note_on channel=0 note=57 velocity=60 time=13
note_on channel=0 note=61 velocity=60 time=0
note_on channel=0 note=68 velocity=64 time=0
note_on channel=0 note=57 velocity=0 time=119
note_on channel=0 note=61 velocity=0 time=0
note_on channel=0 note=68 velocity=0 time=0
note_on channel=0 note=57 velocity=60 time=121
note_on channel=0 note=61 velocity=60 time=0
note_on channel=0 note=68 velocity=64 time=0
note_on channel=0 note=57 velocity=0 time=119
note_on channel=0 note=61 velocity=0 time=0
note_on channel=0 note=68 velocity=0 time=0
note_on channel=0 note=57 velocity=60 time=121
note_on channel=0 note=61 velocity=60 time=0
note_on channel=0 note=66 velocity=64 time=0
note_on channel=0 note=57 velocity=0 time=119
note_on channel=0 note=61 velocity=0 time=0
note_on channel=0 note=66 velocity=0 time=0
note_on channel=0 note=35 velocity=64 time=121
note_on channel=0 note=47 velocity=64 time=0
note_on channel=0 note=35 velocity=0 time=227
note_on channel=0 note=47 velocity=0 time=0
note_on channel=0 note=59 velocity=60 time=13
note_on channel=0 note=62 velocity=60 time=0
note_on channel=0 note=68 velocity=60 time=0
note_on channel=0 note=59 velocity=0 time=119
note_on channel=0 note=62 velocity=0 time=0
note_on channel=0 note=68 velocity=0 time=0
note_on channel=0 note=59 velocity=60 time=121
note_on channel=0 note=62 velocity=60 time=0
note_on channel=0 note=68 velocity=60 time=0
note_on channel=0 note=59 velocity=0 time=119
note_on channel=0 note=62 velocity=0 time=0
note_on channel=0 note=68 velocity=0 time=0
note_on channel=0 note=59 velocity=60 time=121
note_on channel=0 note=62 velocity=60 time=0
note_on channel=0 note=68 velocity=60 time=0
note_on channel=0 note=59 velocity=0 time=119
note_on channel=0 note=62 velocity=0 time=0
note_on channel=0 note=68 velocity=0 time=0
note_on channel=0 note=37 velocity=64 time=121
note_on channel=0 note=49 velocity=64 time=0
note_on channel=0 note=37 velocity=0 time=227
note_on channel=0 note=49 velocity=0 time=0
note_on channel=0 note=57 velocity=60 time=13
note_on channel=0 note=61 velocity=60 time=0
note_on channel=0 note=66 velocity=60 time=0
note_on channel=0 note=57 velocity=0 time=119
note_on channel=0 note=61 velocity=0 time=0
note_on channel=0 note=66 velocity=0 time=0
note_on channel=0 note=57 velocity=60 time=121
note_on channel=0 note=61 velocity=60 time=0
note_on channel=0 note=66 velocity=60 time=0
note_on channel=0 note=57 velocity=0 time=119
note_on channel=0 note=61 velocity=0 time=0
note_on channel=0 note=66 velocity=0 time=0
note_on channel=0 note=57 velocity=60 time=121
note_on channel=0 note=61 velocity=60 time=0
note_on channel=0 note=66 velocity=60 time=0
note_on channel=0 note=57 velocity=0 time=119
note_on channel=0 note=61 velocity=0 time=0
note_on channel=0 note=66 velocity=0 time=0
note_on channel=0 note=37 velocity=64 time=121
note_on channel=0 note=49 velocity=64 time=0
control_change channel=0 control=64 value=0 time=1
note_on channel=0 note=37 velocity=0 time=226
note_on channel=0 note=49 velocity=0 time=0
note_on channel=0 note=59 velocity=60 time=13
note_on channel=0 note=65 velocity=60 time=0
note_on channel=0 note=69 velocity=60 time=0
note_on channel=0 note=59 velocity=0 time=119
note_on channel=0 note=65 velocity=0 time=0
note_on channel=0 note=69 velocity=0 time=0
note_on channel=0 note=59 velocity=60 time=121
note_on channel=0 note=65 velocity=60 time=0
note_on channel=0 note=69 velocity=60 time=0
note_on channel=0 note=59 velocity=0 time=239
note_on channel=0 note=65 velocity=0 time=0
note_on channel=0 note=69 velocity=0 time=0
note_on channel=0 note=59 velocity=64 time=1
note_on channel=0 note=65 velocity=64 time=0
note_on channel=0 note=68 velocity=60 time=0
note_on channel=0 note=59 velocity=0 time=119
note_on channel=0 note=65 velocity=0 time=0
note_on channel=0 note=68 velocity=0 time=0
note_on channel=0 note=54 velocity=64 time=121
note_on channel=0 note=57 velocity=64 time=0
note_on channel=0 note=54 velocity=0 time=239
note_on channel=0 note=57 velocity=0 time=0
note_on channel=0 note=42 velocity=64 time=241
note_on channel=0 note=54 velocity=64 time=0
note_on channel=0 note=42 velocity=0 time=157
note_on channel=0 note=54 velocity=0 time=0
note_on channel=0 note=66 velocity=57 time=323
note_on channel=0 note=66 velocity=0 time=157
note_on channel=0 note=68 velocity=57 time=323
note_on channel=0 note=68 velocity=0 time=157
note_on channel=0 note=69 velocity=57 time=323
note_on channel=0 note=69 velocity=0 time=227
note_on channel=0 note=73 velocity=57 time=13
note_on channel=0 note=73 velocity=0 time=227
note_on channel=0 note=59 velocity=57 time=493
control_change channel=0 control=64 value=127 time=2
note_on channel=0 note=66 velocity=57 time=238
note_on channel=0 note=66 velocity=0 time=227
note_on channel=0 note=73 velocity=57 time=13
note_on channel=0 note=73 velocity=0 time=227
note_on channel=0 note=74 velocity=57 time=13
note_on channel=0 note=59 velocity=0 time=191
note_on channel=0 note=74 velocity=0 time=36
note_on channel=0 note=57 velocity=57 time=13
control_change channel=0 control=64 value=0 time=1
control_change channel=0 control=64 value=127 time=1
note_on channel=0 note=61 velocity=57 time=238
note_on channel=0 note=61 velocity=0 time=227
note_on channel=0 note=66 velocity=57 time=13
note_on channel=0 note=66 velocity=0 time=227
note_on channel=0 note=73 velocity=57 time=13
note_on channel=0 note=57 velocity=0 time=191
note_on channel=0 note=73 velocity=0 time=36
note_on channel=0 note=56 velocity=57 time=13
note_on channel=0 note=66 velocity=57 time=240
note_on channel=0 note=66 velocity=0 time=227
note_on channel=0 note=56 velocity=0 time=444
note_on channel=0 note=61 velocity=57 time=49
control_change channel=0 control=2 value=57 time=0
control_change channel=0 control=2 value=58 time=82
control_change channel=0 control=2 value=59 time=41
control_change channel=0 control=2 value=60 time=41
control_change channel=0 control=2 value=61 time=41
control_change channel=0 control=2 value=62 time=41
control_change channel=0 control=2 value=63 time=41
control_change channel=0 control=2 value=64 time=41
control_change channel=0 control=2 value=65 time=41
control_change channel=0 control=2 value=66 time=41
control_change channel=0 control=2 value=67 time=41
note_on channel=0 note=61 velocity=0 time=4
note_on channel=0 note=47 velocity=68 time=25
note_on channel=0 note=59 velocity=68 time=0
control_change channel=0 control=2 value=68 time=12
control_change channel=0 control=2 value=69 time=41
control_change channel=0 control=2 value=70 time=41
control_change channel=0 control=2 value=71 time=41
control_change channel=0 control=2 value=72 time=41
control_change channel=0 control=2 value=73 time=41
control_change channel=0 control=2 value=74 time=41
control_change channel=0 control=2 value=75 time=41
control_change channel=0 control=2 value=76 time=41
control_change channel=0 control=2 value=77 time=41
control_change channel=0 control=2 value=78 time=41
note_on channel=0 note=47 velocity=0 time=33
note_on channel=0 note=59 velocity=0 time=0
control_change channel=0 control=2 value=79 time=8
note_on channel=0 note=33 velocity=80 time=17
note_on channel=0 note=45 velocity=80 time=0
control_change channel=0 control=64 value=127 time=2
control_change channel=0 control=2 value=80 time=121
control_change channel=0 control=2 value=81 time=477
control_change channel=0 control=2 value=80 time=26
control_change channel=0 control=2 value=79 time=13
control_change channel=0 control=2 value=78 time=13
control_change channel=0 control=2 value=77 time=13
control_change channel=0 control=2 value=76 time=13
control_change channel=0 control=2 value=75 time=13
control_change channel=0 control=2 value=74 time=13
control_change channel=0 control=2 value=73 time=13
control_change channel=0 control=2 value=72 time=13
control_change channel=0 control=2 value=71 time=13
control_change channel=0 control=2 value=70 time=13
control_change channel=0 control=2 value=69 time=13
control_change channel=0 control=2 value=68 time=13
control_change channel=0 control=2 value=67 time=13
control_change channel=0 control=2 value=66 time=13
control_change channel=0 control=2 value=65 time=26
control_change channel=0 control=2 value=64 time=13
control_change channel=0 control=2 value=63 time=13
control_change channel=0 control=2 value=62 time=13
control_change channel=0 control=2 value=61 time=13
control_change channel=0 control=2 value=60 time=13
note_on channel=0 note=33 velocity=0 time=12
note_on channel=0 note=45 velocity=0 time=0
control_change channel=0 control=2 value=59 time=1
control_change channel=0 control=2 value=58 time=13
control_change channel=0 control=2 value=57 time=13
control_change channel=0 control=2 value=56 time=13
note_on channel=0 note=62 velocity=55 time=9
note_on channel=0 note=66 velocity=55 time=0
note_on channel=0 note=71 velocity=55 time=0
control_change channel=0 control=64 value=0 time=1
note_on channel=0 note=62 velocity=0 time=156
note_on channel=0 note=66 velocity=0 time=0
note_on channel=0 note=71 velocity=0 time=0
note_on channel=0 note=61 velocity=55 time=323
note_on channel=0 note=65 velocity=55 time=0
note_on channel=0 note=68 velocity=55 time=0
note_on channel=0 note=61 velocity=0 time=157
note_on channel=0 note=65 velocity=0 time=0
note_on channel=0 note=68 velocity=0 time=0
note_on channel=0 note=45 velocity=55 time=323
note_on channel=0 note=57 velocity=55 time=0
note_on channel=0 note=45 velocity=0 time=157
note_on channel=0 note=57 velocity=0 time=0
note_on channel=0 note=41 velocity=55 time=323
note_on channel=0 note=53 velocity=55 time=0
note_on channel=0 note=41 velocity=0 time=157
note_on channel=0 note=53 velocity=0 time=0
note_on channel=0 note=42 velocity=55 time=323
note_on channel=0 note=54 velocity=55 time=0
control_change channel=0 control=64 value=127 time=2
note_on channel=0 note=42 velocity=0 time=909
note_on channel=0 note=54 velocity=0 time=0
note_on channel=0 note=47 velocity=55 time=49
control_change channel=0 control=64 value=0 time=1
control_change channel=0 control=64 value=127 time=1
note_on channel=0 note=54 velocity=55 time=238
note_on channel=0 note=54 velocity=0 time=227
note_on channel=0 note=61 velocity=55 time=13
note_on channel=0 note=61 velocity=0 time=227
note_on channel=0 note=62 velocity=55 time=13
note_on channel=0 note=47 velocity=0 time=191
note_on channel=0 note=62 velocity=0 time=36
note_on channel=0 note=45 velocity=55 time=13
control_change channel=0 control=64 value=0 time=1
control_change channel=0 control=64 value=127 time=1
note_on channel=0 note=49 velocity=55 time=238
note_on channel=0 note=49 velocity=0 time=227
note_on channel=0 note=54 velocity=55 time=13
note_on channel=0 note=54 velocity=0 time=227
note_on channel=0 note=61 velocity=55 time=13
note_on channel=0 note=45 velocity=0 time=191
note_on channel=0 note=61 velocity=0 time=36
note_on channel=0 note=44 velocity=55 time=13
note_on channel=0 note=44 velocity=0 time=455
note_on channel=0 note=54 velocity=55 time=25
control_change channel=0 control=64 value=0 time=1
note_on channel=0 note=54 velocity=0 time=77
note_on channel=0 note=52 velocity=55 time=162
note_on channel=0 note=52 velocity=0 time=78
note_on channel=0 note=50 velocity=55 time=162
note_on channel=0 note=50 velocity=0 time=157
note_on channel=0 note=49 velocity=55 time=323
note_on channel=0 note=49 velocity=0 time=455
note_on channel=0 note=42 velocity=64 time=25
note_on channel=0 note=54 velocity=64 time=0
control_change channel=0 control=64 value=127 time=2
note_on channel=0 note=42 velocity=0 time=453
note_on channel=0 note=54 velocity=0 time=0
note_on channel=0 note=37 velocity=64 time=25
note_on channel=0 note=49 velocity=64 time=0
note_on channel=0 note=37 velocity=0 time=911
note_on channel=0 note=49 velocity=0 time=0
note_on channel=0 note=61 velocity=64 time=49
note_on channel=0 note=61 velocity=0 time=455
note_on channel=0 note=54 velocity=58 time=25
control_change channel=0 control=64 value=0 time=1
control_change channel=0 control=64 value=127 time=1
note_on channel=0 note=54 velocity=0 time=225
note_on channel=0 note=61 velocity=58 time=13
note_on channel=0 note=61 velocity=0 time=227
note_on channel=0 note=66 velocity=58 time=13
note_on channel=0 note=66 velocity=0 time=455
note_on channel=0 note=42 velocity=58 time=25
control_change channel=0 control=64 value=0 time=1
control_change channel=0 control=64 value=127 time=1
note_on channel=0 note=42 velocity=0 time=225
note_on channel=0 note=54 velocity=58 time=13
note_on channel=0 note=54 velocity=0 time=227
note_on channel=0 note=61 velocity=58 time=13
note_on channel=0 note=61 velocity=0 time=455
note_on channel=0 note=47 velocity=58 time=25
control_change channel=0 control=64 value=0 time=1
control_change channel=0 control=64 value=127 time=1
note_on channel=0 note=47 velocity=0 time=225
note_on channel=0 note=59 velocity=58 time=13
note_on channel=0 note=59 velocity=0 time=227
note_on channel=0 note=62 velocity=58 time=13
note_on channel=0 note=68 velocity=58 time=0
note_on channel=0 note=62 velocity=0 time=455
note_on channel=0 note=68 velocity=0 time=0
note_on channel=0 note=45 velocity=58 time=25
control_change channel=0 control=64 value=0 time=1
control_change channel=0 control=64 value=127 time=1
note_on channel=0 note=45 velocity=0 time=225
note_on channel=0 note=54 velocity=58 time=13
note_on channel=0 note=54 velocity=0 time=227
note_on channel=0 note=57 velocity=58 time=13
note_on channel=0 note=66 velocity=58 time=0
note_on channel=0 note=57 velocity=0 time=455
note_on channel=0 note=66 velocity=0 time=0
note_on channel=0 note=44 velocity=58 time=25
control_change channel=0 control=64 value=0 time=1
control_change channel=0 control=64 value=127 time=1
note_on channel=0 note=44 velocity=0 time=225
note_on channel=0 note=56 velocity=58 time=13
note_on channel=0 note=56 velocity=0 time=227
note_on channel=0 note=59 velocity=58 time=13
note_on channel=0 note=66 velocity=58 time=0
note_on channel=0 note=59 velocity=0 time=455
note_on channel=0 note=66 velocity=0 time=0
note_on channel=0 note=45 velocity=58 time=25
control_change channel=0 control=64 value=0 time=1
control_change channel=0 control=64 value=127 time=1
note_on channel=0 note=45 velocity=0 time=225
note_on channel=0 note=54 velocity=58 time=13
note_on channel=0 note=54 velocity=0 time=227
note_on channel=0 note=61 velocity=58 time=13
note_on channel=0 note=66 velocity=58 time=0
note_on channel=0 note=61 velocity=0 time=455
note_on channel=0 note=66 velocity=0 time=0
note_on channel=0 note=44 velocity=58 time=25
note_on channel=0 note=56 velocity=58 time=0
control_change channel=0 control=64 value=0 time=1
note_on channel=0 note=44 velocity=0 time=226
note_on channel=0 note=56 velocity=0 time=0
note_on channel=0 note=54 velocity=58 time=13
note_on channel=0 note=59 velocity=58 time=0
note_on channel=0 note=54 velocity=0 time=119
note_on channel=0 note=59 velocity=0 time=0
note_on channel=0 note=59 velocity=58 time=121
note_on channel=0 note=62 velocity=58 time=0
note_on channel=0 note=59 velocity=0 time=157
note_on channel=0 note=62 velocity=0 time=0
note_on channel=0 note=37 velocity=58 time=323
note_on channel=0 note=49 velocity=58 time=0
note_on channel=0 note=37 velocity=0 time=157
note_on channel=0 note=49 velocity=0 time=0
note_on channel=0 note=53 velocity=58 time=323
note_on channel=0 note=56 velocity=58 time=0
note_on channel=0 note=59 velocity=58 time=0
note_on channel=0 note=53 velocity=0 time=455
note_on channel=0 note=56 velocity=0 time=0
note_on channel=0 note=59 velocity=0 time=0
note_on channel=0 note=54 velocity=58 time=25
note_on channel=0 note=57 velocity=58 time=0
control_change channel=0 control=2 value=58 time=121
note_on channel=0 note=54 velocity=0 time=36
note_on channel=0 note=57 velocity=0 time=0
note_on channel=0 note=53 velocity=59 time=323
note_on channel=0 note=57 velocity=59 time=0
control_change channel=0 control=2 value=59 time=153
note_on channel=0 note=53 velocity=0 time=4
note_on channel=0 note=57 velocity=0 time=0
control_change channel=0 control=2 value=60 time=252
note_on channel=0 note=52 velocity=61 time=71
note_on channel=0 note=57 velocity=61 time=0
control_change channel=0 control=64 value=127 time=2
control_change channel=0 control=2 value=61 time=183
control_change channel=0 control=2 value=62 time=256
note_on channel=0 note=52 velocity=0 time=14
note_on channel=0 note=57 velocity=0 time=0
note_on channel=0 note=51 velocity=63 time=25
note_on channel=0 note=59 velocity=63 time=0
control_change channel=0 control=2 value=63 time=217
note_on channel=0 note=51 velocity=0 time=238
note_on channel=0 note=59 velocity=0 time=0
control_change channel=0 control=2 value=64 time=18
note_on channel=0 note=50 velocity=65 time=7
note_on channel=0 note=59 velocity=65 time=0
control_change channel=0 control=64 value=0 time=1
control_change channel=0 control=64 value=127 time=1
control_change channel=0 control=2 value=65 time=247
control_change channel=0 control=2 value=66 time=256
control_change channel=0 control=2 value=67 time=256
note_on channel=0 note=50 velocity=0 time=150
note_on channel=0 note=59 velocity=0 time=0
note_on channel=0 note=49 velocity=69 time=49
note_on channel=0 note=52 velocity=69 time=0
note_on channel=0 note=59 velocity=69 time=0
control_change channel=0 control=64 value=0 time=1
control_change channel=0 control=64 value=127 time=1
control_change channel=0 control=2 value=68 time=55
control_change channel=0 control=2 value=69 time=256
control_change channel=0 control=2 value=70 time=256
control_change channel=0 control=2 value=71 time=256
note_on channel=0 note=49 velocity=0 time=86
note_on channel=0 note=52 velocity=0 time=0
note_on channel=0 note=59 velocity=0 time=0
note_on channel=0 note=50 velocity=72 time=49
control_change channel=0 control=64 value=0 time=1
control_change channel=0 control=64 value=127 time=1
control_change channel=0 control=2 value=72 time=119
note_on channel=0 note=50 velocity=0 time=106
note_on channel=0 note=57 velocity=73 time=13
control_change channel=0 control=2 value=73 time=137
note_on channel=0 note=57 velocity=0 time=90
note_on channel=0 note=64 velocity=74 time=13
control_change channel=0 control=2 value=74 time=153
note_on channel=0 note=64 velocity=0 time=74
note_on channel=0 note=69 velocity=75 time=13
control_change channel=0 control=2 value=75 time=169
note_on channel=0 note=69 velocity=0 time=58
note_on channel=0 note=49 velocity=76 time=13
control_change channel=0 control=64 value=0 time=1
control_change channel=0 control=64 value=127 time=1
control_change channel=0 control=2 value=76 time=183
control_change channel=0 control=2 value=77 time=256
note_on channel=0 note=49 velocity=0 time=14
note_on channel=0 note=37 velocity=78 time=25
note_on channel=0 note=49 velocity=78 time=0
control_change channel=0 control=2 value=78 time=217
note_on channel=0 note=37 velocity=0 time=238
note_on channel=0 note=49 velocity=0 time=0
control_change channel=0 control=2 value=79 time=18
note_on channel=0 note=42 velocity=80 time=7
note_on channel=0 note=54 velocity=80 time=0
control_change channel=0 control=64 value=0 time=1
control_change channel=0 control=64 value=127 time=1
note_on channel=0 note=42 velocity=0 time=339
note_on channel=0 note=54 velocity=0 time=0
note_on channel=0 note=54 velocity=80 time=19
note_on channel=0 note=54 velocity=0 time=113
note_on channel=0 note=57 velocity=106 time=7
note_on channel=0 note=61 velocity=106 time=0
control_change channel=0 control=2 value=120 time=60
control_change channel=0 control=2 value=119 time=2
control_change channel=0 control=2 value=118 time=1
control_change channel=0 control=2 value=117 time=2
control_change channel=0 control=2 value=116 time=1
control_change channel=0 control=2 value=115 time=2
control_change channel=0 control=2 value=114 time=1
control_change channel=0 control=2 value=113 time=2
control_change channel=0 control=2 value=112 time=1
control_change channel=0 control=2 value=111 time=2
control_change channel=0 control=2 value=110 time=1
control_change channel=0 control=2 value=109 time=2
control_change channel=0 control=2 value=108 time=1
control_change channel=0 control=2 value=107 time=2
control_change channel=0 control=2 value=106 time=1
control_change channel=0 control=2 value=105 time=2
control_change channel=0 control=2 value=104 time=1
control_change channel=0 control=2 value=103 time=2
control_change channel=0 control=2 value=102 time=1
control_change channel=0 control=2 value=101 time=2
control_change channel=0 control=2 value=100 time=1
control_change channel=0 control=2 value=99 time=2
control_change channel=0 control=2 value=98 time=1
control_change channel=0 control=2 value=97 time=2
control_change channel=0 control=2 value=96 time=1
control_change channel=0 control=2 value=95 time=2
control_change channel=0 control=2 value=94 time=1
control_change channel=0 control=2 value=93 time=2
control_change channel=0 control=2 value=92 time=1
control_change channel=0 control=2 value=91 time=2
control_change channel=0 control=2 value=90 time=1
control_change channel=0 control=2 value=89 time=2
control_change channel=0 control=2 value=88 time=1
control_change channel=0 control=2 value=87 time=2
control_change channel=0 control=2 value=86 time=1
control_change channel=0 control=2 value=85 time=2
control_change channel=0 control=2 value=84 time=1
control_change channel=0 control=2 value=83 time=2
control_change channel=0 control=2 value=82 time=1
control_change channel=0 control=2 value=81 time=2
note_on channel=0 note=57 velocity=0 time=120
note_on channel=0 note=61 velocity=0 time=0
note_on channel=0 note=49 velocity=80 time=1
note_on channel=0 note=49 velocity=0 time=227
note_on channel=0 note=42 velocity=80 time=13
note_on channel=0 note=54 velocity=80 time=0
control_change channel=0 control=64 value=0 time=1
control_change channel=0 control=64 value=127 time=1
note_on channel=0 note=42 velocity=0 time=339
note_on channel=0 note=54 velocity=0 time=0
note_on channel=0 note=54 velocity=80 time=19
note_on channel=0 note=54 velocity=0 time=113
note_on channel=0 note=58 velocity=106 time=7
note_on channel=0 note=66 velocity=106 time=0
control_change channel=0 control=2 value=120 time=60
control_change channel=0 control=2 value=119 time=2
control_change channel=0 control=2 value=118 time=1
control_change channel=0 control=2 value=117 time=2
control_change channel=0 control=2 value=116 time=1
control_change channel=0 control=2 value=115 time=2
control_change channel=0 control=2 value=114 time=1
control_change channel=0 control=2 value=113 time=2
control_change channel=0 control=2 value=112 time=1
control_change channel=0 control=2 value=111 time=2
control_change channel=0 control=2 value=110 time=1
control_change channel=0 control=2 value=109 time=2
control_change channel=0 control=2 value=108 time=1
control_change channel=0 control=2 value=107 time=2
control_change channel=0 control=2 value=106 time=1
control_change channel=0 control=2 value=105 time=2
control_change channel=0 control=2 value=104 time=1
control_change channel=0 control=2 value=103 time=2
control_change channel=0 control=2 value=102 time=1
control_change channel=0 control=2 value=101 time=2
control_change channel=0 control=2 value=100 time=1
control_change channel=0 control=2 value=99 time=2
control_change channel=0 control=2 value=98 time=1
control_change channel=0 control=2 value=97 time=2
control_change channel=0 control=2 value=96 time=1
control_change channel=0 control=2 value=95 time=2
control_change channel=0 control=2 value=94 time=1
control_change channel=0 control=2 value=93 time=2
control_change channel=0 control=2 value=92 time=1
control_change channel=0 control=2 value=91 time=2
control_change channel=0 control=2 value=90 time=1
control_change channel=0 control=2 value=89 time=2
control_change channel=0 control=2 value=88 time=1
control_change channel=0 control=2 value=87 time=2
control_change channel=0 control=2 value=86 time=1
control_change channel=0 control=2 value=85 time=2
control_change channel=0 control=2 value=84 time=1
control_change channel=0 control=2 value=83 time=2
control_change channel=0 control=2 value=82 time=1
control_change channel=0 control=2 value=81 time=2
note_on channel=0 note=58 velocity=0 time=120
note_on channel=0 note=66 velocity=0 time=0
note_on channel=0 note=54 velocity=80 time=1
note_on channel=0 note=54 velocity=0 time=227
note_on channel=0 note=35 velocity=80 time=13
note_on channel=0 note=47 velocity=80 time=0
control_change channel=0 control=64 value=0 time=1
control_change channel=0 control=64 value=127 time=1
note_on channel=0 note=35 velocity=0 time=681
note_on channel=0 note=47 velocity=0 time=0
note_on channel=0 note=57 velocity=80 time=37
note_on channel=0 note=57 velocity=0 time=227
note_on channel=0 note=37 velocity=80 time=13
note_on channel=0 note=49 velocity=80 time=0
control_change channel=0 control=64 value=0 time=1
note_on channel=0 note=37 velocity=0 time=156
note_on channel=0 note=49 velocity=0 time=0
note_on channel=0 note=37 velocity=96 time=323
note_on channel=0 note=49 velocity=96 time=0
note_on channel=0 note=37 velocity=0 time=455
note_on channel=0 note=49 velocity=0 time=0
note_on channel=0 note=33 velocity=96 time=25
note_on channel=0 note=45 velocity=96 time=0
control_change channel=0 control=64 value=127 time=2
note_on channel=0 note=33 velocity=0 time=795
note_on channel=0 note=45 velocity=0 time=0
note_on channel=0 note=47 velocity=96 time=43
note_on channel=0 note=47 velocity=0 time=113
note_on channel=0 note=35 velocity=96 time=7
note_on channel=0 note=47 velocity=96 time=0
control_change channel=0 control=64 value=0 time=1
control_change channel=0 control=64 value=127 time=1
note_on channel=0 note=35 velocity=0 time=909
note_on channel=0 note=47 velocity=0 time=0
note_on channel=0 note=49 velocity=96 time=49
note_on channel=0 note=61 velocity=96 time=0
control_change channel=0 control=64 value=0 time=1
note_on channel=0 note=49 velocity=0 time=454
note_on channel=0 note=61 velocity=0 time=0
note_on channel=0 note=61 velocity=82 time=25
note_on channel=0 note=61 velocity=0 time=119
note_on channel=0 note=59 velocity=82 time=121
note_on channel=0 note=59 velocity=0 time=119
note_on channel=0 note=57 velocity=82 time=121
note_on channel=0 note=57 velocity=0 time=227
note_on channel=0 note=69 velocity=64 time=253
note_on channel=0 note=69 velocity=0 time=119
note_on channel=0 note=71 velocity=64 time=121
note_on channel=0 note=71 velocity=0 time=119
note_on channel=0 note=73 velocity=64 time=121
control_change channel=0 control=64 value=127 time=2
note_on channel=0 note=73 velocity=0 time=909
note_on channel=0 note=71 velocity=64 time=49
control_change channel=0 control=64 value=0 time=1
control_change channel=0 control=64 value=127 time=1
note_on channel=0 note=71 velocity=0 time=909
note_on channel=0 note=69 velocity=64 time=49
control_change channel=0 control=64 value=0 time=1
control_change channel=0 control=64 value=127 time=1
note_on channel=0 note=69 velocity=0 time=909
note_on channel=0 note=59 velocity=64 time=49
control_change channel=0 control=2 value=64 time=0
control_change channel=0 control=64 value=0 time=1
control_change channel=0 control=64 value=127 time=1
control_change channel=0 control=2 value=65 time=178
note_on channel=0 note=59 velocity=0 time=47
note_on channel=0 note=66 velocity=65 time=13
control_change channel=0 control=2 value=66 time=120
note_on channel=0 note=66 velocity=0 time=107
note_on channel=0 note=73 velocity=66 time=13
control_change channel=0 control=2 value=67 time=60
control_change channel=0 control=2 value=68 time=180
control_change channel=0 control=2 value=69 time=180
note_on channel=0 note=73 velocity=0 time=35
note_on channel=0 note=61 velocity=69 time=25
control_change channel=0 control=64 value=0 time=1
control_change channel=0 control=64 value=127 time=1
control_change channel=0 control=2 value=70 time=118
note_on channel=0 note=61 velocity=0 time=107
note_on channel=0 note=69 velocity=70 time=13
note_on channel=0 note=73 velocity=70 time=0
control_change channel=0 control=2 value=71 time=60
note_on channel=0 note=69 velocity=0 time=167
note_on channel=0 note=73 velocity=0 time=0
control_change channel=0 control=2 value=72 time=13
control_change channel=0 control=2 value=73 time=180
note_on channel=0 note=69 velocity=73 time=60
note_on channel=0 note=73 velocity=73 time=0
control_change channel=0 control=2 value=74 time=120
note_on channel=0 note=69 velocity=0 time=107
note_on channel=0 note=73 velocity=0 time=0
note_on channel=0 note=49 velocity=74 time=13
control_change channel=0 control=64 value=0 time=1
control_change channel=0 control=64 value=127 time=1
control_change channel=0 control=2 value=75 time=58
note_on channel=0 note=49 velocity=0 time=167
note_on channel=0 note=56 velocity=76 time=13
control_change channel=0 control=2 value=76 time=0
control_change channel=0 control=2 value=77 time=180
note_on channel=0 note=56 velocity=0 time=47
note_on channel=0 note=65 velocity=77 time=13
control_change channel=0 control=2 value=78 time=120
control_change channel=0 control=2 value=79 time=180
note_on channel=0 note=65 velocity=0 time=155
note_on channel=0 note=54 velocity=80 time=25
note_on channel=0 note=66 velocity=80 time=0
control_change channel=0 control=64 value=0 time=1
note_on channel=0 note=54 velocity=0 time=238
note_on channel=0 note=66 velocity=0 time=0
note_on channel=0 note=49 velocity=64 time=241
note_on channel=0 note=61 velocity=64 time=0
note_on channel=0 note=49 velocity=0 time=119
note_on channel=0 note=61 velocity=0 time=0
note_on channel=0 note=57 velocity=64 time=121
note_on channel=0 note=57 velocity=0 time=119
note_on channel=0 note=42 velocity=64 time=121
note_on channel=0 note=54 velocity=64 time=0
note_on channel=0 note=42 velocity=0 time=320
note_on channel=0 note=54 velocity=0 time=0
note_on channel=0 note=78 velocity=42 time=160
note_on channel=0 note=78 velocity=0 time=157
<meta message end_of_track time=1>
=== Track 2 ===
<meta message key_signature key='A' time=0>
control_change channel=1 control=121 value=0 time=0
program_change channel=1 program=0 time=0
control_change channel=1 control=7 value=100 time=0
control_change channel=1 control=10 value=64 time=0
control_change channel=1 control=91 value=0 time=0
control_change channel=1 control=93 value=0 time=0
<meta message midi_port port=0 time=0>
control_change channel=1 control=64 value=127 time=962
control_change channel=1 control=64 value=0 time=959
control_change channel=1 control=2 value=120 time=3899
control_change channel=1 control=2 value=119 time=2
control_change channel=1 control=2 value=118 time=1
control_change channel=1 control=2 value=117 time=2
control_change channel=1 control=2 value=116 time=1
control_change channel=1 control=2 value=115 time=2
control_change channel=1 control=2 value=114 time=1
control_change channel=1 control=2 value=113 time=2
control_change channel=1 control=2 value=112 time=1
control_change channel=1 control=2 value=111 time=2
control_change channel=1 control=2 value=110 time=1
control_change channel=1 control=2 value=109 time=2
control_change channel=1 control=2 value=108 time=1
control_change channel=1 control=2 value=107 time=2
control_change channel=1 control=2 value=106 time=1
control_change channel=1 control=2 value=105 time=2
control_change channel=1 control=2 value=104 time=1
control_change channel=1 control=2 value=103 time=2
control_change channel=1 control=2 value=102 time=1
control_change channel=1 control=2 value=101 time=2
control_change channel=1 control=2 value=100 time=1
control_change channel=1 control=2 value=99 time=2
control_change channel=1 control=2 value=98 time=1
control_change channel=1 control=2 value=97 time=2
control_change channel=1 control=2 value=96 time=1
control_change channel=1 control=2 value=95 time=2
control_change channel=1 control=2 value=94 time=1
control_change channel=1 control=2 value=93 time=2
control_change channel=1 control=2 value=92 time=1
control_change channel=1 control=2 value=91 time=2
control_change channel=1 control=2 value=90 time=1
control_change channel=1 control=2 value=89 time=2
control_change channel=1 control=2 value=88 time=1
control_change channel=1 control=2 value=87 time=2
control_change channel=1 control=2 value=86 time=1
control_change channel=1 control=2 value=85 time=2
control_change channel=1 control=2 value=84 time=1
control_change channel=1 control=2 value=83 time=2
control_change channel=1 control=2 value=82 time=1
control_change channel=1 control=2 value=81 time=2
control_change channel=1 control=2 value=120 time=8101
control_change channel=1 control=2 value=119 time=2
control_change channel=1 control=2 value=118 time=1
control_change channel=1 control=2 value=117 time=2
control_change channel=1 control=2 value=116 time=1
control_change channel=1 control=2 value=115 time=2
control_change channel=1 control=2 value=114 time=1
control_change channel=1 control=2 value=113 time=2
control_change channel=1 control=2 value=112 time=1
control_change channel=1 control=2 value=111 time=2
control_change channel=1 control=2 value=110 time=1
control_change channel=1 control=2 value=109 time=2
control_change channel=1 control=2 value=108 time=1
control_change channel=1 control=2 value=107 time=2
control_change channel=1 control=2 value=106 time=1
control_change channel=1 control=2 value=105 time=2
control_change channel=1 control=2 value=104 time=1
control_change channel=1 control=2 value=103 time=2
control_change channel=1 control=2 value=102 time=1
control_change channel=1 control=2 value=101 time=2
control_change channel=1 control=2 value=100 time=1
control_change channel=1 control=2 value=99 time=2
control_change channel=1 control=2 value=98 time=1
control_change channel=1 control=2 value=97 time=2
control_change channel=1 control=2 value=96 time=1
control_change channel=1 control=2 value=95 time=2
control_change channel=1 control=2 value=94 time=1
control_change channel=1 control=2 value=93 time=2
control_change channel=1 control=2 value=92 time=1
control_change channel=1 control=2 value=91 time=2
control_change channel=1 control=2 value=90 time=1
control_change channel=1 control=2 value=89 time=2
control_change channel=1 control=2 value=88 time=1
control_change channel=1 control=2 value=87 time=2
control_change channel=1 control=2 value=86 time=1
control_change channel=1 control=2 value=85 time=2
control_change channel=1 control=2 value=84 time=1
control_change channel=1 control=2 value=83 time=2
control_change channel=1 control=2 value=82 time=1
control_change channel=1 control=2 value=81 time=2
control_change channel=1 control=2 value=112 time=18244
control_change channel=1 control=2 value=111 time=40
control_change channel=1 control=2 value=110 time=20
control_change channel=1 control=2 value=109 time=20
control_change channel=1 control=2 value=108 time=20
control_change channel=1 control=2 value=107 time=20
control_change channel=1 control=2 value=106 time=20
control_change channel=1 control=2 value=105 time=20
control_change channel=1 control=2 value=104 time=20
control_change channel=1 control=2 value=103 time=20
control_change channel=1 control=2 value=102 time=20
control_change channel=1 control=2 value=101 time=20
control_change channel=1 control=2 value=100 time=20
control_change channel=1 control=2 value=99 time=20
control_change channel=1 control=2 value=98 time=20
control_change channel=1 control=2 value=97 time=20
control_change channel=1 control=2 value=96 time=20
control_change channel=1 control=2 value=95 time=20
control_change channel=1 control=2 value=13 time=537
control_change channel=1 control=2 value=12 time=2
control_change channel=1 control=2 value=11 time=1
control_change channel=1 control=2 value=10 time=1
control_change channel=1 control=2 value=9 time=2
control_change channel=1 control=2 value=8 time=1
control_change channel=1 control=2 value=7 time=1
control_change channel=1 control=2 value=6 time=1
control_change channel=1 control=2 value=5 time=2
control_change channel=1 control=2 value=4 time=1
control_change channel=1 control=2 value=3 time=1
control_change channel=1 control=2 value=2 time=2
control_change channel=1 control=2 value=1 time=1
control_change channel=1 control=2 value=0 time=1
control_change channel=1 control=2 value=127 time=1
control_change channel=1 control=2 value=126 time=2
control_change channel=1 control=2 value=125 time=1
control_change channel=1 control=2 value=124 time=1
control_change channel=1 control=2 value=123 time=1
control_change channel=1 control=2 value=122 time=2
control_change channel=1 control=2 value=121 time=1
control_change channel=1 control=2 value=120 time=1
control_change channel=1 control=2 value=119 time=2
control_change channel=1 control=2 value=118 time=1
control_change channel=1 control=2 value=117 time=1
control_change channel=1 control=2 value=116 time=1
control_change channel=1 control=2 value=115 time=2
control_change channel=1 control=2 value=114 time=1
control_change channel=1 control=2 value=113 time=1
control_change channel=1 control=2 value=112 time=2
control_change channel=1 control=2 value=111 time=1
control_change channel=1 control=2 value=110 time=1
control_change channel=1 control=2 value=109 time=1
control_change channel=1 control=2 value=108 time=2
control_change channel=1 control=2 value=107 time=1
control_change channel=1 control=2 value=106 time=1
control_change channel=1 control=2 value=105 time=1
control_change channel=1 control=2 value=104 time=2
control_change channel=1 control=2 value=103 time=1
control_change channel=1 control=2 value=102 time=1
control_change channel=1 control=2 value=101 time=2
control_change channel=1 control=2 value=100 time=1
control_change channel=1 control=2 value=99 time=1
control_change channel=1 control=2 value=98 time=1
control_change channel=1 control=2 value=97 time=2
control_change channel=1 control=2 value=96 time=1
control_change channel=1 control=2 value=95 time=1
control_change channel=1 control=2 value=13 time=901
control_change channel=1 control=2 value=12 time=2
control_change channel=1 control=2 value=11 time=1
control_change channel=1 control=2 value=10 time=1
control_change channel=1 control=2 value=9 time=2
control_change channel=1 control=2 value=8 time=1
control_change channel=1 control=2 value=7 time=1
control_change channel=1 control=2 value=6 time=1
control_change channel=1 control=2 value=5 time=2
control_change channel=1 control=2 value=4 time=1
control_change channel=1 control=2 value=3 time=1
control_change channel=1 control=2 value=2 time=2
control_change channel=1 control=2 value=1 time=1
control_change channel=1 control=2 value=0 time=1
control_change channel=1 control=2 value=127 time=1
control_change channel=1 control=2 value=126 time=2
control_change channel=1 control=2 value=125 time=1
control_change channel=1 control=2 value=124 time=1
control_change channel=1 control=2 value=123 time=1
control_change channel=1 control=2 value=122 time=2
control_change channel=1 control=2 value=121 time=1
control_change channel=1 control=2 value=120 time=1
control_change channel=1 control=2 value=119 time=2
control_change channel=1 control=2 value=118 time=1
control_change channel=1 control=2 value=117 time=1
control_change channel=1 control=2 value=116 time=1
control_change channel=1 control=2 value=115 time=2
control_change channel=1 control=2 value=114 time=1
control_change channel=1 control=2 value=113 time=1
control_change channel=1 control=2 value=112 time=2
control_change channel=1 control=2 value=111 time=1
control_change channel=1 control=2 value=110 time=1
control_change channel=1 control=2 value=109 time=1
control_change channel=1 control=2 value=108 time=2
control_change channel=1 control=2 value=107 time=1
control_change channel=1 control=2 value=106 time=1
control_change channel=1 control=2 value=105 time=1
control_change channel=1 control=2 value=104 time=2
control_change channel=1 control=2 value=103 time=1
control_change channel=1 control=2 value=102 time=1
control_change channel=1 control=2 value=101 time=2
control_change channel=1 control=2 value=100 time=1
control_change channel=1 control=2 value=99 time=1
control_change channel=1 control=2 value=98 time=1
control_change channel=1 control=2 value=97 time=2
control_change channel=1 control=2 value=96 time=1
control_change channel=1 control=2 value=95 time=1
control_change channel=1 control=2 value=94 time=361
control_change channel=1 control=2 value=93 time=48
control_change channel=1 control=2 value=92 time=48
control_change channel=1 control=2 value=91 time=48
control_change channel=1 control=2 value=90 time=48
control_change channel=1 control=2 value=89 time=48
control_change channel=1 control=2 value=88 time=48
control_change channel=1 control=2 value=87 time=48
control_change channel=1 control=2 value=86 time=48
control_change channel=1 control=2 value=85 time=48
control_change channel=1 control=2 value=84 time=48
control_change channel=1 control=2 value=83 time=48
control_change channel=1 control=2 value=82 time=48
control_change channel=1 control=2 value=81 time=48
control_change channel=1 control=2 value=80 time=48
control_change channel=1 control=2 value=79 time=48
control_change channel=1 control=2 value=78 time=48
control_change channel=1 control=2 value=77 time=48
control_change channel=1 control=2 value=76 time=48
control_change channel=1 control=2 value=75 time=48
control_change channel=1 control=2 value=74 time=48
control_change channel=1 control=2 value=73 time=48
control_change channel=1 control=2 value=72 time=48
control_change channel=1 control=2 value=71 time=48
control_change channel=1 control=2 value=70 time=48
control_change channel=1 control=2 value=69 time=48
control_change channel=1 control=2 value=68 time=48
control_change channel=1 control=2 value=67 time=48
control_change channel=1 control=2 value=66 time=48
control_change channel=1 control=2 value=65 time=48
<meta message key_signature key='A' time=4368>
control_change channel=1 control=2 value=96 time=3900
control_change channel=1 control=2 value=95 time=2
control_change channel=1 control=2 value=94 time=2
control_change channel=1 control=2 value=93 time=2
control_change channel=1 control=2 value=92 time=2
control_change channel=1 control=2 value=91 time=2
control_change channel=1 control=2 value=90 time=2
control_change channel=1 control=2 value=89 time=2
control_change channel=1 control=2 value=88 time=1
control_change channel=1 control=2 value=87 time=2
control_change channel=1 control=2 value=86 time=2
control_change channel=1 control=2 value=85 time=2
control_change channel=1 control=2 value=84 time=2
control_change channel=1 control=2 value=83 time=2
control_change channel=1 control=2 value=82 time=2
control_change channel=1 control=2 value=81 time=2
control_change channel=1 control=2 value=80 time=1
control_change channel=1 control=2 value=79 time=2
control_change channel=1 control=2 value=78 time=2
control_change channel=1 control=2 value=77 time=2
control_change channel=1 control=2 value=76 time=2
control_change channel=1 control=2 value=75 time=2
control_change channel=1 control=2 value=74 time=2
control_change channel=1 control=2 value=73 time=2
control_change channel=1 control=2 value=72 time=1
control_change channel=1 control=2 value=71 time=2
control_change channel=1 control=2 value=70 time=2
control_change channel=1 control=2 value=69 time=2
control_change channel=1 control=2 value=68 time=2
control_change channel=1 control=2 value=67 time=2
control_change channel=1 control=2 value=66 time=2
control_change channel=1 control=2 value=65 time=2
control_change channel=1 control=2 value=96 time=421
control_change channel=1 control=2 value=95 time=2
control_change channel=1 control=2 value=94 time=2
control_change channel=1 control=2 value=93 time=2
control_change channel=1 control=2 value=92 time=2
control_change channel=1 control=2 value=91 time=2
control_change channel=1 control=2 value=90 time=2
control_change channel=1 control=2 value=89 time=2
control_change channel=1 control=2 value=88 time=1
control_change channel=1 control=2 value=87 time=2
control_change channel=1 control=2 value=86 time=2
control_change channel=1 control=2 value=85 time=2
control_change channel=1 control=2 value=84 time=2
control_change channel=1 control=2 value=83 time=2
control_change channel=1 control=2 value=82 time=2
control_change channel=1 control=2 value=81 time=2
control_change channel=1 control=2 value=80 time=1
control_change channel=1 control=2 value=79 time=2
control_change channel=1 control=2 value=78 time=2
control_change channel=1 control=2 value=77 time=2
control_change channel=1 control=2 value=76 time=2
control_change channel=1 control=2 value=75 time=2
control_change channel=1 control=2 value=74 time=2
control_change channel=1 control=2 value=73 time=2
control_change channel=1 control=2 value=72 time=1
control_change channel=1 control=2 value=71 time=2
control_change channel=1 control=2 value=70 time=2
control_change channel=1 control=2 value=69 time=2
control_change channel=1 control=2 value=68 time=2
control_change channel=1 control=2 value=67 time=2
control_change channel=1 control=2 value=66 time=2
control_change channel=1 control=2 value=65 time=2
control_change channel=1 control=2 value=96 time=421
control_change channel=1 control=2 value=95 time=2
control_change channel=1 control=2 value=94 time=2
control_change channel=1 control=2 value=93 time=2
control_change channel=1 control=2 value=92 time=2
control_change channel=1 control=2 value=91 time=2
control_change channel=1 control=2 value=90 time=2
control_change channel=1 control=2 value=89 time=2
control_change channel=1 control=2 value=88 time=1
control_change channel=1 control=2 value=87 time=2
control_change channel=1 control=2 value=86 time=2
control_change channel=1 control=2 value=85 time=2
control_change channel=1 control=2 value=84 time=2
control_change channel=1 control=2 value=83 time=2
control_change channel=1 control=2 value=82 time=2
control_change channel=1 control=2 value=81 time=2
control_change channel=1 control=2 value=80 time=1
control_change channel=1 control=2 value=79 time=2
control_change channel=1 control=2 value=78 time=2
control_change channel=1 control=2 value=77 time=2
control_change channel=1 control=2 value=76 time=2
control_change channel=1 control=2 value=75 time=2
control_change channel=1 control=2 value=74 time=2
control_change channel=1 control=2 value=73 time=2
control_change channel=1 control=2 value=72 time=1
control_change channel=1 control=2 value=71 time=2
control_change channel=1 control=2 value=70 time=2
control_change channel=1 control=2 value=69 time=2
control_change channel=1 control=2 value=68 time=2
control_change channel=1 control=2 value=67 time=2
control_change channel=1 control=2 value=66 time=2
control_change channel=1 control=2 value=65 time=2
control_change channel=1 control=2 value=40 time=29764
control_change channel=1 control=2 value=39 time=10
control_change channel=1 control=2 value=38 time=5
control_change channel=1 control=2 value=37 time=5
control_change channel=1 control=2 value=36 time=5
control_change channel=1 control=2 value=35 time=5
control_change channel=1 control=2 value=34 time=5
control_change channel=1 control=2 value=33 time=5
control_change channel=1 control=2 value=32 time=5
control_change channel=1 control=2 value=31 time=5
control_change channel=1 control=2 value=30 time=5
control_change channel=1 control=2 value=29 time=5
control_change channel=1 control=2 value=28 time=5
control_change channel=1 control=2 value=27 time=5
control_change channel=1 control=2 value=26 time=5
control_change channel=1 control=2 value=25 time=5
control_change channel=1 control=2 value=24 time=5
control_change channel=1 control=2 value=23 time=5
control_change channel=1 control=2 value=22 time=5
control_change channel=1 control=2 value=21 time=5
control_change channel=1 control=2 value=20 time=5
control_change channel=1 control=2 value=19 time=5
control_change channel=1 control=2 value=18 time=5
control_change channel=1 control=2 value=17 time=5
control_change channel=1 control=2 value=16 time=5
control_change channel=1 control=2 value=15 time=5
control_change channel=1 control=2 value=14 time=5
control_change channel=1 control=2 value=13 time=5
control_change channel=1 control=2 value=12 time=5
control_change channel=1 control=2 value=11 time=5
control_change channel=1 control=2 value=10 time=5
control_change channel=1 control=2 value=9 time=5
control_change channel=1 control=2 value=8 time=5
control_change channel=1 control=2 value=7 time=5
control_change channel=1 control=2 value=6 time=5
control_change channel=1 control=2 value=5 time=5
control_change channel=1 control=2 value=4 time=5
control_change channel=1 control=2 value=3 time=5
control_change channel=1 control=2 value=2 time=5
control_change channel=1 control=2 value=1 time=5
control_change channel=1 control=2 value=0 time=5
control_change channel=1 control=2 value=127 time=5
control_change channel=1 control=2 value=126 time=5
control_change channel=1 control=2 value=125 time=5
control_change channel=1 control=2 value=124 time=5
control_change channel=1 control=2 value=123 time=5
control_change channel=1 control=2 value=122 time=5
control_change channel=1 control=2 value=121 time=5
control_change channel=1 control=2 value=120 time=5
control_change channel=1 control=2 value=119 time=5
control_change channel=1 control=2 value=118 time=5
control_change channel=1 control=2 value=117 time=5
control_change channel=1 control=2 value=116 time=5
control_change channel=1 control=2 value=115 time=5
control_change channel=1 control=2 value=114 time=5
control_change channel=1 control=2 value=113 time=5
control_change channel=1 control=2 value=112 time=5
control_change channel=1 control=2 value=111 time=5
control_change channel=1 control=2 value=110 time=5
control_change channel=1 control=2 value=109 time=5
control_change channel=1 control=2 value=108 time=5
control_change channel=1 control=2 value=107 time=5
control_change channel=1 control=2 value=106 time=5
control_change channel=1 control=2 value=105 time=5
control_change channel=1 control=2 value=104 time=5
control_change channel=1 control=2 value=103 time=5
control_change channel=1 control=2 value=102 time=5
control_change channel=1 control=2 value=101 time=5
control_change channel=1 control=2 value=100 time=5
control_change channel=1 control=2 value=99 time=5
control_change channel=1 control=2 value=98 time=5
control_change channel=1 control=2 value=97 time=5
control_change channel=1 control=2 value=96 time=5
control_change channel=1 control=2 value=95 time=5
control_change channel=1 control=2 value=13 time=3407
control_change channel=1 control=2 value=12 time=2
control_change channel=1 control=2 value=11 time=1
control_change channel=1 control=2 value=10 time=1
control_change channel=1 control=2 value=9 time=2
control_change channel=1 control=2 value=8 time=1
control_change channel=1 control=2 value=7 time=1
control_change channel=1 control=2 value=6 time=1
control_change channel=1 control=2 value=5 time=2
control_change channel=1 control=2 value=4 time=1
control_change channel=1 control=2 value=3 time=1
control_change channel=1 control=2 value=2 time=2
control_change channel=1 control=2 value=1 time=1
control_change channel=1 control=2 value=0 time=1
control_change channel=1 control=2 value=127 time=1
control_change channel=1 control=2 value=126 time=2
control_change channel=1 control=2 value=125 time=1
control_change channel=1 control=2 value=124 time=1
control_change channel=1 control=2 value=123 time=1
control_change channel=1 control=2 value=122 time=2
control_change channel=1 control=2 value=121 time=1
control_change channel=1 control=2 value=120 time=1
control_change channel=1 control=2 value=119 time=2
control_change channel=1 control=2 value=118 time=1
control_change channel=1 control=2 value=117 time=1
control_change channel=1 control=2 value=116 time=1
control_change channel=1 control=2 value=115 time=2
control_change channel=1 control=2 value=114 time=1
control_change channel=1 control=2 value=113 time=1
control_change channel=1 control=2 value=112 time=2
control_change channel=1 control=2 value=111 time=1
control_change channel=1 control=2 value=110 time=1
control_change channel=1 control=2 value=109 time=1
control_change channel=1 control=2 value=108 time=2
control_change channel=1 control=2 value=107 time=1
control_change channel=1 control=2 value=106 time=1
control_change channel=1 control=2 value=105 time=1
control_change channel=1 control=2 value=104 time=2
control_change channel=1 control=2 value=103 time=1
control_change channel=1 control=2 value=102 time=1
control_change channel=1 control=2 value=101 time=2
control_change channel=1 control=2 value=100 time=1
control_change channel=1 control=2 value=99 time=1
control_change channel=1 control=2 value=98 time=1
control_change channel=1 control=2 value=97 time=2
control_change channel=1 control=2 value=96 time=1
control_change channel=1 control=2 value=95 time=1
control_change channel=1 control=2 value=13 time=1861
control_change channel=1 control=2 value=12 time=2
control_change channel=1 control=2 value=11 time=1
control_change channel=1 control=2 value=10 time=1
control_change channel=1 control=2 value=9 time=2
control_change channel=1 control=2 value=8 time=1
control_change channel=1 control=2 value=7 time=1
control_change channel=1 control=2 value=6 time=1
control_change channel=1 control=2 value=5 time=2
control_change channel=1 control=2 value=4 time=1
control_change channel=1 control=2 value=3 time=1
control_change channel=1 control=2 value=2 time=2
control_change channel=1 control=2 value=1 time=1
control_change channel=1 control=2 value=0 time=1
control_change channel=1 control=2 value=127 time=1
control_change channel=1 control=2 value=126 time=2
control_change channel=1 control=2 value=125 time=1
control_change channel=1 control=2 value=124 time=1
control_change channel=1 control=2 value=123 time=1
control_change channel=1 control=2 value=122 time=2
control_change channel=1 control=2 value=121 time=1
control_change channel=1 control=2 value=120 time=1
control_change channel=1 control=2 value=119 time=2
control_change channel=1 control=2 value=118 time=1
control_change channel=1 control=2 value=117 time=1
control_change channel=1 control=2 value=116 time=1
control_change channel=1 control=2 value=115 time=2
control_change channel=1 control=2 value=114 time=1
control_change channel=1 control=2 value=113 time=1
control_change channel=1 control=2 value=112 time=2
control_change channel=1 control=2 value=111 time=1
control_change channel=1 control=2 value=110 time=1
control_change channel=1 control=2 value=109 time=1
control_change channel=1 control=2 value=108 time=2
control_change channel=1 control=2 value=107 time=1
control_change channel=1 control=2 value=106 time=1
control_change channel=1 control=2 value=105 time=1
control_change channel=1 control=2 value=104 time=2
control_change channel=1 control=2 value=103 time=1
control_change channel=1 control=2 value=102 time=1
control_change channel=1 control=2 value=101 time=2
control_change channel=1 control=2 value=100 time=1
control_change channel=1 control=2 value=99 time=1
control_change channel=1 control=2 value=98 time=1
control_change channel=1 control=2 value=97 time=2
control_change channel=1 control=2 value=96 time=1
control_change channel=1 control=2 value=95 time=1
control_change channel=1 control=2 value=94 time=962
control_change channel=1 control=2 value=93 time=36
control_change channel=1 control=2 value=92 time=18
control_change channel=1 control=2 value=91 time=18
control_change channel=1 control=2 value=90 time=18
control_change channel=1 control=2 value=89 time=18
control_change channel=1 control=2 value=88 time=18
control_change channel=1 control=2 value=87 time=18
control_change channel=1 control=2 value=86 time=18
control_change channel=1 control=2 value=85 time=18
control_change channel=1 control=2 value=84 time=18
control_change channel=1 control=2 value=83 time=18
control_change channel=1 control=2 value=82 time=18
control_change channel=1 control=2 value=81 time=18
control_change channel=1 control=2 value=80 time=18
control_change channel=1 control=2 value=79 time=18
control_change channel=1 control=2 value=78 time=18
control_change channel=1 control=2 value=77 time=18
control_change channel=1 control=2 value=76 time=18
control_change channel=1 control=2 value=75 time=18
control_change channel=1 control=2 value=74 time=18
control_change channel=1 control=2 value=73 time=18
control_change channel=1 control=2 value=72 time=18
control_change channel=1 control=2 value=71 time=18
control_change channel=1 control=2 value=70 time=18
control_change channel=1 control=2 value=69 time=18
control_change channel=1 control=2 value=68 time=18
control_change channel=1 control=2 value=67 time=18
control_change channel=1 control=2 value=66 time=36
control_change channel=1 control=2 value=65 time=18
control_change channel=1 control=2 value=64 time=18
control_change channel=1 control=2 value=63 time=18
control_change channel=1 control=2 value=62 time=18
control_change channel=1 control=2 value=61 time=18
control_change channel=1 control=2 value=60 time=18
control_change channel=1 control=2 value=59 time=18
control_change channel=1 control=2 value=58 time=18
control_change channel=1 control=2 value=57 time=18
control_change channel=1 control=2 value=56 time=18
control_change channel=1 control=2 value=55 time=18
control_change channel=1 control=2 value=54 time=18
control_change channel=1 control=2 value=53 time=18
control_change channel=1 control=2 value=52 time=18
control_change channel=1 control=2 value=51 time=18
control_change channel=1 control=2 value=50 time=18
control_change channel=1 control=2 value=16 time=5831
control_change channel=1 control=2 value=15 time=2
control_change channel=1 control=2 value=14 time=1
control_change channel=1 control=2 value=13 time=1
control_change channel=1 control=2 value=12 time=1
control_change channel=1 control=2 value=11 time=2
control_change channel=1 control=2 value=10 time=1
control_change channel=1 control=2 value=9 time=1
control_change channel=1 control=2 value=8 time=1
control_change channel=1 control=2 value=7 time=2
control_change channel=1 control=2 value=6 time=1
control_change channel=1 control=2 value=5 time=1
control_change channel=1 control=2 value=4 time=1
control_change channel=1 control=2 value=3 time=2
control_change channel=1 control=2 value=2 time=1
control_change channel=1 control=2 value=1 time=1
control_change channel=1 control=2 value=0 time=1
control_change channel=1 control=2 value=127 time=2
control_change channel=1 control=2 value=126 time=1
control_change channel=1 control=2 value=125 time=1
control_change channel=1 control=2 value=124 time=1
control_change channel=1 control=2 value=123 time=2
control_change channel=1 control=2 value=122 time=1
control_change channel=1 control=2 value=121 time=1
control_change channel=1 control=2 value=120 time=1
control_change channel=1 control=2 value=119 time=2
control_change channel=1 control=2 value=118 time=1
control_change channel=1 control=2 value=117 time=1
control_change channel=1 control=2 value=116 time=1
control_change channel=1 control=2 value=115 time=2
control_change channel=1 control=2 value=114 time=1
control_change channel=1 control=2 value=113 time=1
control_change channel=1 control=2 value=112 time=1
control_change channel=1 control=2 value=111 time=2
control_change channel=1 control=2 value=110 time=1
control_change channel=1 control=2 value=109 time=1
control_change channel=1 control=2 value=108 time=1
control_change channel=1 control=2 value=107 time=2
control_change channel=1 control=2 value=106 time=1
control_change channel=1 control=2 value=105 time=1
control_change channel=1 control=2 value=104 time=1
control_change channel=1 control=2 value=103 time=2
control_change channel=1 control=2 value=102 time=1
control_change channel=1 control=2 value=101 time=1
control_change channel=1 control=2 value=100 time=1
control_change channel=1 control=2 value=99 time=2
control_change channel=1 control=2 value=98 time=1
control_change channel=1 control=2 value=97 time=1
control_change channel=1 control=2 value=115 time=421
control_change channel=1 control=2 value=114 time=6
control_change channel=1 control=2 value=113 time=3
control_change channel=1 control=2 value=112 time=3
control_change channel=1 control=2 value=111 time=3
control_change channel=1 control=2 value=110 time=3
control_change channel=1 control=2 value=109 time=3
control_change channel=1 control=2 value=108 time=3
control_change channel=1 control=2 value=107 time=3
control_change channel=1 control=2 value=106 time=3
control_change channel=1 control=2 value=105 time=3
control_change channel=1 control=2 value=104 time=3
control_change channel=1 control=2 value=103 time=3
control_change channel=1 control=2 value=102 time=3
control_change channel=1 control=2 value=101 time=3
control_change channel=1 control=2 value=100 time=3
control_change channel=1 control=2 value=99 time=3
control_change channel=1 control=2 value=98 time=3
control_change channel=1 control=2 value=97 time=3
control_change channel=1 control=2 value=115 time=183
control_change channel=1 control=2 value=114 time=6
control_change channel=1 control=2 value=113 time=3
control_change channel=1 control=2 value=112 time=3
control_change channel=1 control=2 value=111 time=3
control_change channel=1 control=2 value=110 time=3
control_change channel=1 control=2 value=109 time=3
control_change channel=1 control=2 value=108 time=3
control_change channel=1 control=2 value=107 time=3
control_change channel=1 control=2 value=106 time=3
control_change channel=1 control=2 value=105 time=3
control_change channel=1 control=2 value=104 time=3
control_change channel=1 control=2 value=103 time=3
control_change channel=1 control=2 value=102 time=3
control_change channel=1 control=2 value=101 time=3
control_change channel=1 control=2 value=100 time=3
control_change channel=1 control=2 value=99 time=3
control_change channel=1 control=2 value=98 time=3
control_change channel=1 control=2 value=97 time=3
control_change channel=1 control=2 value=16 time=183
control_change channel=1 control=2 value=15 time=2
control_change channel=1 control=2 value=14 time=1
control_change channel=1 control=2 value=13 time=1
control_change channel=1 control=2 value=12 time=1
control_change channel=1 control=2 value=11 time=2
control_change channel=1 control=2 value=10 time=1
control_change channel=1 control=2 value=9 time=1
control_change channel=1 control=2 value=8 time=1
control_change channel=1 control=2 value=7 time=2
control_change channel=1 control=2 value=6 time=1
control_change channel=1 control=2 value=5 time=1
control_change channel=1 control=2 value=4 time=1
control_change channel=1 control=2 value=3 time=2
control_change channel=1 control=2 value=2 time=1
control_change channel=1 control=2 value=1 time=1
control_change channel=1 control=2 value=0 time=1
control_change channel=1 control=2 value=127 time=2
control_change channel=1 control=2 value=126 time=1
control_change channel=1 control=2 value=125 time=1
control_change channel=1 control=2 value=124 time=1
control_change channel=1 control=2 value=123 time=2
control_change channel=1 control=2 value=122 time=1
control_change channel=1 control=2 value=121 time=1
control_change channel=1 control=2 value=120 time=1
control_change channel=1 control=2 value=119 time=2
control_change channel=1 control=2 value=118 time=1
control_change channel=1 control=2 value=117 time=1
control_change channel=1 control=2 value=116 time=1
control_change channel=1 control=2 value=115 time=2
control_change channel=1 control=2 value=114 time=1
control_change channel=1 control=2 value=113 time=1
control_change channel=1 control=2 value=112 time=1
control_change channel=1 control=2 value=111 time=2
control_change channel=1 control=2 value=110 time=1
control_change channel=1 control=2 value=109 time=1
control_change channel=1 control=2 value=108 time=1
control_change channel=1 control=2 value=107 time=2
control_change channel=1 control=2 value=106 time=1
control_change channel=1 control=2 value=105 time=1
control_change channel=1 control=2 value=104 time=1
control_change channel=1 control=2 value=103 time=2
control_change channel=1 control=2 value=102 time=1
control_change channel=1 control=2 value=101 time=1
control_change channel=1 control=2 value=100 time=1
control_change channel=1 control=2 value=99 time=2
control_change channel=1 control=2 value=98 time=1
control_change channel=1 control=2 value=97 time=1
control_change channel=1 control=2 value=84 time=421
control_change channel=1 control=2 value=83 time=8
control_change channel=1 control=2 value=82 time=4
control_change channel=1 control=2 value=81 time=4
control_change channel=1 control=2 value=80 time=4
control_change channel=1 control=2 value=79 time=4
control_change channel=1 control=2 value=78 time=4
control_change channel=1 control=2 value=77 time=4
control_change channel=1 control=2 value=76 time=4
control_change channel=1 control=2 value=75 time=4
control_change channel=1 control=2 value=74 time=4
control_change channel=1 control=2 value=73 time=4
control_change channel=1 control=2 value=72 time=4
control_change channel=1 control=2 value=71 time=4
control_change channel=1 control=2 value=64 time=5644
control_change channel=1 control=2 value=65 time=15
control_change channel=1 control=2 value=66 time=15
control_change channel=1 control=2 value=67 time=15
control_change channel=1 control=2 value=68 time=15
control_change channel=1 control=2 value=69 time=15
control_change channel=1 control=2 value=70 time=15
control_change channel=1 control=2 value=71 time=15
control_change channel=1 control=2 value=72 time=15
control_change channel=1 control=2 value=73 time=15
control_change channel=1 control=2 value=74 time=15
control_change channel=1 control=2 value=75 time=15
control_change channel=1 control=2 value=76 time=15
control_change channel=1 control=2 value=77 time=15
control_change channel=1 control=2 value=78 time=15
control_change channel=1 control=2 value=79 time=15
control_change channel=1 control=2 value=80 time=15
control_change channel=1 control=2 value=81 time=15
control_change channel=1 control=2 value=82 time=15
control_change channel=1 control=2 value=83 time=15
control_change channel=1 control=2 value=84 time=15
control_change channel=1 control=2 value=85 time=15
control_change channel=1 control=2 value=86 time=15
control_change channel=1 control=2 value=87 time=15
control_change channel=1 control=2 value=88 time=15
control_change channel=1 control=2 value=89 time=15
control_change channel=1 control=2 value=90 time=15
control_change channel=1 control=2 value=91 time=15
control_change channel=1 control=2 value=92 time=15
control_change channel=1 control=2 value=93 time=15
control_change channel=1 control=2 value=94 time=15
control_change channel=1 control=2 value=95 time=15
control_change channel=1 control=2 value=16 time=75
control_change channel=1 control=2 value=15 time=2
control_change channel=1 control=2 value=14 time=1
control_change channel=1 control=2 value=13 time=1
control_change channel=1 control=2 value=12 time=1
control_change channel=1 control=2 value=11 time=2
control_change channel=1 control=2 value=10 time=1
control_change channel=1 control=2 value=9 time=1
control_change channel=1 control=2 value=8 time=1
control_change channel=1 control=2 value=7 time=2
control_change channel=1 control=2 value=6 time=1
control_change channel=1 control=2 value=5 time=1
control_change channel=1 control=2 value=4 time=1
control_change channel=1 control=2 value=3 time=2
control_change channel=1 control=2 value=2 time=1
control_change channel=1 control=2 value=1 time=1
control_change channel=1 control=2 value=0 time=1
control_change channel=1 control=2 value=127 time=2
control_change channel=1 control=2 value=126 time=1
control_change channel=1 control=2 value=125 time=1
control_change channel=1 control=2 value=124 time=1
control_change channel=1 control=2 value=123 time=2
control_change channel=1 control=2 value=122 time=1
control_change channel=1 control=2 value=121 time=1
control_change channel=1 control=2 value=120 time=1
control_change channel=1 control=2 value=119 time=2
control_change channel=1 control=2 value=118 time=1
control_change channel=1 control=2 value=117 time=1
control_change channel=1 control=2 value=116 time=1
control_change channel=1 control=2 value=115 time=2
control_change channel=1 control=2 value=114 time=1
control_change channel=1 control=2 value=113 time=1
control_change channel=1 control=2 value=112 time=1
control_change channel=1 control=2 value=111 time=2
control_change channel=1 control=2 value=110 time=1
control_change channel=1 control=2 value=109 time=1
control_change channel=1 control=2 value=108 time=1
control_change channel=1 control=2 value=107 time=2
control_change channel=1 control=2 value=106 time=1
control_change channel=1 control=2 value=105 time=1
control_change channel=1 control=2 value=104 time=1
control_change channel=1 control=2 value=103 time=2
control_change channel=1 control=2 value=102 time=1
control_change channel=1 control=2 value=101 time=1
control_change channel=1 control=2 value=100 time=1
control_change channel=1 control=2 value=99 time=2
control_change channel=1 control=2 value=98 time=1
control_change channel=1 control=2 value=97 time=1
control_change channel=1 control=2 value=16 time=661
control_change channel=1 control=2 value=15 time=2
control_change channel=1 control=2 value=14 time=1
control_change channel=1 control=2 value=13 time=1
control_change channel=1 control=2 value=12 time=1
control_change channel=1 control=2 value=11 time=2
control_change channel=1 control=2 value=10 time=1
control_change channel=1 control=2 value=9 time=1
control_change channel=1 control=2 value=8 time=1
control_change channel=1 control=2 value=7 time=2
control_change channel=1 control=2 value=6 time=1
control_change channel=1 control=2 value=5 time=1
control_change channel=1 control=2 value=4 time=1
control_change channel=1 control=2 value=3 time=2
control_change channel=1 control=2 value=2 time=1
control_change channel=1 control=2 value=1 time=1
control_change channel=1 control=2 value=0 time=1
control_change channel=1 control=2 value=127 time=2
control_change channel=1 control=2 value=126 time=1
control_change channel=1 control=2 value=125 time=1
control_change channel=1 control=2 value=124 time=1
control_change channel=1 control=2 value=123 time=2
control_change channel=1 control=2 value=122 time=1
control_change channel=1 control=2 value=121 time=1
control_change channel=1 control=2 value=120 time=1
control_change channel=1 control=2 value=119 time=2
control_change channel=1 control=2 value=118 time=1
control_change channel=1 control=2 value=117 time=1
control_change channel=1 control=2 value=116 time=1
control_change channel=1 control=2 value=115 time=2
control_change channel=1 control=2 value=114 time=1
control_change channel=1 control=2 value=113 time=1
control_change channel=1 control=2 value=112 time=1
control_change channel=1 control=2 value=111 time=2
control_change channel=1 control=2 value=110 time=1
control_change channel=1 control=2 value=109 time=1
control_change channel=1 control=2 value=108 time=1
control_change channel=1 control=2 value=107 time=2
control_change channel=1 control=2 value=106 time=1
control_change channel=1 control=2 value=105 time=1
control_change channel=1 control=2 value=104 time=1
control_change channel=1 control=2 value=103 time=2
control_change channel=1 control=2 value=102 time=1
control_change channel=1 control=2 value=101 time=1
control_change channel=1 control=2 value=100 time=1
control_change channel=1 control=2 value=99 time=2
control_change channel=1 control=2 value=98 time=1
control_change channel=1 control=2 value=97 time=1
control_change channel=1 control=2 value=16 time=661
control_change channel=1 control=2 value=15 time=2
control_change channel=1 control=2 value=14 time=1
control_change channel=1 control=2 value=13 time=1
control_change channel=1 control=2 value=12 time=1
control_change channel=1 control=2 value=11 time=2
control_change channel=1 control=2 value=10 time=1
control_change channel=1 control=2 value=9 time=1
control_change channel=1 control=2 value=8 time=1
control_change channel=1 control=2 value=7 time=2
control_change channel=1 control=2 value=6 time=1
control_change channel=1 control=2 value=5 time=1
control_change channel=1 control=2 value=4 time=1
control_change channel=1 control=2 value=3 time=2
control_change channel=1 control=2 value=2 time=1
control_change channel=1 control=2 value=1 time=1
control_change channel=1 control=2 value=0 time=1
control_change channel=1 control=2 value=127 time=2
control_change channel=1 control=2 value=126 time=1
control_change channel=1 control=2 value=125 time=1
control_change channel=1 control=2 value=124 time=1
control_change channel=1 control=2 value=123 time=2
control_change channel=1 control=2 value=122 time=1
control_change channel=1 control=2 value=121 time=1
control_change channel=1 control=2 value=120 time=1
control_change channel=1 control=2 value=119 time=2
control_change channel=1 control=2 value=118 time=1
control_change channel=1 control=2 value=117 time=1
control_change channel=1 control=2 value=116 time=1
control_change channel=1 control=2 value=115 time=2
control_change channel=1 control=2 value=114 time=1
control_change channel=1 control=2 value=113 time=1
control_change channel=1 control=2 value=112 time=1
control_change channel=1 control=2 value=111 time=2
control_change channel=1 control=2 value=110 time=1
control_change channel=1 control=2 value=109 time=1
control_change channel=1 control=2 value=108 time=1
control_change channel=1 control=2 value=107 time=2
control_change channel=1 control=2 value=106 time=1
control_change channel=1 control=2 value=105 time=1
control_change channel=1 control=2 value=104 time=1
control_change channel=1 control=2 value=103 time=2
control_change channel=1 control=2 value=102 time=1
control_change channel=1 control=2 value=101 time=1
control_change channel=1 control=2 value=100 time=1
control_change channel=1 control=2 value=99 time=2
control_change channel=1 control=2 value=98 time=1
control_change channel=1 control=2 value=97 time=1
control_change channel=1 control=2 value=96 time=2
control_change channel=1 control=2 value=95 time=44
control_change channel=1 control=2 value=94 time=22
control_change channel=1 control=2 value=93 time=22
control_change channel=1 control=2 value=92 time=22
control_change channel=1 control=2 value=91 time=22
control_change channel=1 control=2 value=90 time=22
control_change channel=1 control=2 value=89 time=22
control_change channel=1 control=2 value=88 time=22
control_change channel=1 control=2 value=87 time=22
control_change channel=1 control=2 value=86 time=22
control_change channel=1 control=2 value=85 time=22
control_change channel=1 control=2 value=84 time=22
control_change channel=1 control=2 value=83 time=22
control_change channel=1 control=2 value=82 time=22
control_change channel=1 control=2 value=81 time=22
control_change channel=1 control=2 value=120 time=13387
control_change channel=1 control=2 value=119 time=2
control_change channel=1 control=2 value=118 time=1
control_change channel=1 control=2 value=117 time=2
control_change channel=1 control=2 value=116 time=1
control_change channel=1 control=2 value=115 time=2
control_change channel=1 control=2 value=114 time=1
control_change channel=1 control=2 value=113 time=2
control_change channel=1 control=2 value=112 time=1
control_change channel=1 control=2 value=111 time=2
control_change channel=1 control=2 value=110 time=1
control_change channel=1 control=2 value=109 time=2
control_change channel=1 control=2 value=108 time=1
control_change channel=1 control=2 value=107 time=2
control_change channel=1 control=2 value=106 time=1
control_change channel=1 control=2 value=105 time=2
control_change channel=1 control=2 value=104 time=1
control_change channel=1 control=2 value=103 time=2
control_change channel=1 control=2 value=102 time=1
control_change channel=1 control=2 value=101 time=2
control_change channel=1 control=2 value=100 time=1
control_change channel=1 control=2 value=99 time=2
control_change channel=1 control=2 value=98 time=1
control_change channel=1 control=2 value=97 time=2
control_change channel=1 control=2 value=96 time=1
control_change channel=1 control=2 value=95 time=2
control_change channel=1 control=2 value=94 time=1
control_change channel=1 control=2 value=93 time=2
control_change channel=1 control=2 value=92 time=1
control_change channel=1 control=2 value=91 time=2
control_change channel=1 control=2 value=90 time=1
control_change channel=1 control=2 value=89 time=2
control_change channel=1 control=2 value=88 time=1
control_change channel=1 control=2 value=87 time=2
control_change channel=1 control=2 value=86 time=1
control_change channel=1 control=2 value=85 time=2
control_change channel=1 control=2 value=84 time=1
control_change channel=1 control=2 value=83 time=2
control_change channel=1 control=2 value=82 time=1
control_change channel=1 control=2 value=81 time=2
control_change channel=1 control=2 value=61 time=23161
control_change channel=1 control=2 value=62 time=176
control_change channel=1 control=2 value=63 time=88
control_change channel=1 control=2 value=64 time=88
control_change channel=1 control=2 value=65 time=88
control_change channel=1 control=2 value=66 time=88
control_change channel=1 control=2 value=67 time=88
control_change channel=1 control=2 value=68 time=88
control_change channel=1 control=2 value=69 time=88
control_change channel=1 control=2 value=70 time=88
control_change channel=1 control=2 value=71 time=88
control_change channel=1 control=2 value=72 time=88
control_change channel=1 control=2 value=73 time=88
control_change channel=1 control=2 value=74 time=88
control_change channel=1 control=2 value=75 time=88
control_change channel=1 control=2 value=76 time=88
control_change channel=1 control=2 value=77 time=88
control_change channel=1 control=2 value=78 time=88
control_change channel=1 control=2 value=79 time=88
control_change channel=1 control=2 value=96 time=2108
control_change channel=1 control=2 value=95 time=2
control_change channel=1 control=2 value=94 time=2
control_change channel=1 control=2 value=93 time=2
control_change channel=1 control=2 value=92 time=2
control_change channel=1 control=2 value=91 time=2
control_change channel=1 control=2 value=90 time=2
control_change channel=1 control=2 value=89 time=2
control_change channel=1 control=2 value=88 time=1
control_change channel=1 control=2 value=87 time=2
control_change channel=1 control=2 value=86 time=2
control_change channel=1 control=2 value=85 time=2
control_change channel=1 control=2 value=84 time=2
control_change channel=1 control=2 value=83 time=2
control_change channel=1 control=2 value=82 time=2
control_change channel=1 control=2 value=81 time=2
control_change channel=1 control=2 value=80 time=1
control_change channel=1 control=2 value=79 time=2
control_change channel=1 control=2 value=78 time=2
control_change channel=1 control=2 value=77 time=2
control_change channel=1 control=2 value=76 time=2
control_change channel=1 control=2 value=75 time=2
control_change channel=1 control=2 value=74 time=2
control_change channel=1 control=2 value=73 time=2
control_change channel=1 control=2 value=72 time=1
control_change channel=1 control=2 value=71 time=2
control_change channel=1 control=2 value=70 time=2
control_change channel=1 control=2 value=69 time=2
control_change channel=1 control=2 value=68 time=2
control_change channel=1 control=2 value=67 time=2
control_change channel=1 control=2 value=66 time=2
control_change channel=1 control=2 value=65 time=2
control_change channel=1 control=2 value=96 time=421
control_change channel=1 control=2 value=95 time=2
control_change channel=1 control=2 value=94 time=2
control_change channel=1 control=2 value=93 time=2
control_change channel=1 control=2 value=92 time=2
control_change channel=1 control=2 value=91 time=2
control_change channel=1 control=2 value=90 time=2
control_change channel=1 control=2 value=89 time=2
control_change channel=1 control=2 value=88 time=1
control_change channel=1 control=2 value=87 time=2
control_change channel=1 control=2 value=86 time=2
control_change channel=1 control=2 value=85 time=2
control_change channel=1 control=2 value=84 time=2
control_change channel=1 control=2 value=83 time=2
control_change channel=1 control=2 value=82 time=2
control_change channel=1 control=2 value=81 time=2
control_change channel=1 control=2 value=80 time=1
control_change channel=1 control=2 value=79 time=2
control_change channel=1 control=2 value=78 time=2
control_change channel=1 control=2 value=77 time=2
control_change channel=1 control=2 value=76 time=2
control_change channel=1 control=2 value=75 time=2
control_change channel=1 control=2 value=74 time=2
control_change channel=1 control=2 value=73 time=2
control_change channel=1 control=2 value=72 time=1
control_change channel=1 control=2 value=71 time=2
control_change channel=1 control=2 value=70 time=2
control_change channel=1 control=2 value=69 time=2
control_change channel=1 control=2 value=68 time=2
control_change channel=1 control=2 value=67 time=2
control_change channel=1 control=2 value=66 time=2
control_change channel=1 control=2 value=65 time=2
control_change channel=1 control=2 value=96 time=421
control_change channel=1 control=2 value=95 time=2
control_change channel=1 control=2 value=94 time=2
control_change channel=1 control=2 value=93 time=2
control_change channel=1 control=2 value=92 time=2
control_change channel=1 control=2 value=91 time=2
control_change channel=1 control=2 value=90 time=2
control_change channel=1 control=2 value=89 time=2
control_change channel=1 control=2 value=88 time=1
control_change channel=1 control=2 value=87 time=2
control_change channel=1 control=2 value=86 time=2
control_change channel=1 control=2 value=85 time=2
control_change channel=1 control=2 value=84 time=2
control_change channel=1 control=2 value=83 time=2
control_change channel=1 control=2 value=82 time=2
control_change channel=1 control=2 value=81 time=2
control_change channel=1 control=2 value=80 time=1
control_change channel=1 control=2 value=79 time=2
control_change channel=1 control=2 value=78 time=2
control_change channel=1 control=2 value=77 time=2
control_change channel=1 control=2 value=76 time=2
control_change channel=1 control=2 value=75 time=2
control_change channel=1 control=2 value=74 time=2
control_change channel=1 control=2 value=73 time=2
control_change channel=1 control=2 value=72 time=1
control_change channel=1 control=2 value=71 time=2
control_change channel=1 control=2 value=70 time=2
control_change channel=1 control=2 value=69 time=2
control_change channel=1 control=2 value=68 time=2
control_change channel=1 control=2 value=67 time=2
control_change channel=1 control=2 value=66 time=2
control_change channel=1 control=2 value=65 time=2
control_change channel=1 control=64 value=127 time=30603
control_change channel=1 control=64 value=0 time=959
control_change channel=1 control=2 value=120 time=3899
control_change channel=1 control=2 value=119 time=2
control_change channel=1 control=2 value=118 time=1
control_change channel=1 control=2 value=117 time=2
control_change channel=1 control=2 value=116 time=1
control_change channel=1 control=2 value=115 time=2
control_change channel=1 control=2 value=114 time=1
control_change channel=1 control=2 value=113 time=2
control_change channel=1 control=2 value=112 time=1
control_change channel=1 control=2 value=111 time=2
control_change channel=1 control=2 value=110 time=1
control_change channel=1 control=2 value=109 time=2
control_change channel=1 control=2 value=108 time=1
control_change channel=1 control=2 value=107 time=2
control_change channel=1 control=2 value=106 time=1
control_change channel=1 control=2 value=105 time=2
control_change channel=1 control=2 value=104 time=1
control_change channel=1 control=2 value=103 time=2
control_change channel=1 control=2 value=102 time=1
control_change channel=1 control=2 value=101 time=2
control_change channel=1 control=2 value=100 time=1
control_change channel=1 control=2 value=99 time=2
control_change channel=1 control=2 value=98 time=1
control_change channel=1 control=2 value=97 time=2
control_change channel=1 control=2 value=96 time=1
control_change channel=1 control=2 value=95 time=2
control_change channel=1 control=2 value=94 time=1
control_change channel=1 control=2 value=93 time=2
control_change channel=1 control=2 value=92 time=1
control_change channel=1 control=2 value=91 time=2
control_change channel=1 control=2 value=90 time=1
control_change channel=1 control=2 value=89 time=2
control_change channel=1 control=2 value=88 time=1
control_change channel=1 control=2 value=87 time=2
control_change channel=1 control=2 value=86 time=1
control_change channel=1 control=2 value=85 time=2
control_change channel=1 control=2 value=84 time=1
control_change channel=1 control=2 value=83 time=2
control_change channel=1 control=2 value=82 time=1
control_change channel=1 control=2 value=81 time=2
control_change channel=1 control=2 value=80 time=361
control_change channel=1 control=2 value=79 time=42
control_change channel=1 control=2 value=78 time=21
control_change channel=1 control=2 value=77 time=21
control_change channel=1 control=2 value=76 time=21
control_change channel=1 control=2 value=75 time=21
control_change channel=1 control=2 value=74 time=21
control_change channel=1 control=2 value=73 time=21
control_change channel=1 control=2 value=72 time=21
control_change channel=1 control=2 value=71 time=21
control_change channel=1 control=2 value=70 time=21
control_change channel=1 control=2 value=69 time=21
control_change channel=1 control=2 value=68 time=21
control_change channel=1 control=2 value=67 time=21
control_change channel=1 control=2 value=66 time=21
control_change channel=1 control=2 value=65 time=21
control_change channel=1 control=2 value=64 time=21
control_change channel=1 control=2 value=63 time=21
control_change channel=1 control=2 value=62 time=21
control_change channel=1 control=2 value=61 time=21
control_change channel=1 control=2 value=60 time=21
control_change channel=1 control=2 value=59 time=21
control_change channel=1 control=2 value=87 time=7278
control_change channel=1 control=2 value=86 time=4
control_change channel=1 control=2 value=85 time=2
control_change channel=1 control=2 value=84 time=2
control_change channel=1 control=2 value=83 time=2
control_change channel=1 control=2 value=82 time=2
control_change channel=1 control=2 value=81 time=2
control_change channel=1 control=2 value=80 time=2
control_change channel=1 control=2 value=79 time=2
control_change channel=1 control=2 value=78 time=2
control_change channel=1 control=2 value=77 time=2
control_change channel=1 control=2 value=76 time=2
control_change channel=1 control=2 value=75 time=2
control_change channel=1 control=2 value=74 time=2
control_change channel=1 control=2 value=73 time=2
control_change channel=1 control=2 value=72 time=2
control_change channel=1 control=2 value=71 time=2
control_change channel=1 control=2 value=70 time=2
control_change channel=1 control=2 value=69 time=2
control_change channel=1 control=2 value=68 time=2
control_change channel=1 control=2 value=67 time=2
control_change channel=1 control=2 value=66 time=2
control_change channel=1 control=2 value=65 time=2
control_change channel=1 control=2 value=64 time=2
control_change channel=1 control=2 value=63 time=2
control_change channel=1 control=2 value=62 time=2
control_change channel=1 control=2 value=61 time=2
control_change channel=1 control=2 value=60 time=2
control_change channel=1 control=2 value=59 time=2
control_change channel=1 control=2 value=58 time=10922
control_change channel=1 control=2 value=59 time=348
control_change channel=1 control=2 value=60 time=174
control_change channel=1 control=2 value=61 time=174
control_change channel=1 control=2 value=62 time=174
control_change channel=1 control=2 value=63 time=174
control_change channel=1 control=2 value=64 time=174
control_change channel=1 control=2 value=65 time=174
control_change channel=1 control=2 value=66 time=174
control_change channel=1 control=2 value=67 time=174
control_change channel=1 control=2 value=68 time=174
control_change channel=1 control=2 value=69 time=174
control_change channel=1 control=2 value=70 time=174
control_change channel=1 control=2 value=71 time=174
control_change channel=1 control=2 value=72 time=174
control_change channel=1 control=2 value=73 time=174
control_change channel=1 control=2 value=74 time=174
control_change channel=1 control=2 value=75 time=174
control_change channel=1 control=2 value=76 time=174
control_change channel=1 control=2 value=77 time=174
control_change channel=1 control=2 value=78 time=174
control_change channel=1 control=2 value=79 time=174
control_change channel=1 control=2 value=112 time=3495
control_change channel=1 control=2 value=111 time=40
control_change channel=1 control=2 value=110 time=20
control_change channel=1 control=2 value=109 time=20
control_change channel=1 control=2 value=108 time=20
control_change channel=1 control=2 value=107 time=20
control_change channel=1 control=2 value=106 time=20
control_change channel=1 control=2 value=105 time=20
control_change channel=1 control=2 value=104 time=20
control_change channel=1 control=2 value=103 time=20
control_change channel=1 control=2 value=102 time=20
control_change channel=1 control=2 value=101 time=20
control_change channel=1 control=2 value=100 time=20
control_change channel=1 control=2 value=99 time=20
control_change channel=1 control=2 value=98 time=20
control_change channel=1 control=2 value=97 time=20
control_change channel=1 control=2 value=96 time=20
control_change channel=1 control=2 value=95 time=20
control_change channel=1 control=2 value=94 time=1917
control_change channel=1 control=2 value=93 time=46
control_change channel=1 control=2 value=92 time=23
control_change channel=1 control=2 value=91 time=23
control_change channel=1 control=2 value=90 time=23
control_change channel=1 control=2 value=89 time=23
control_change channel=1 control=2 value=88 time=23
control_change channel=1 control=2 value=87 time=23
control_change channel=1 control=2 value=86 time=23
control_change channel=1 control=2 value=85 time=23
control_change channel=1 control=2 value=84 time=23
control_change channel=1 control=2 value=83 time=23
control_change channel=1 control=2 value=82 time=23
control_change channel=1 control=2 value=81 time=23
control_change channel=1 control=2 value=80 time=23
control_change channel=1 control=2 value=79 time=23
control_change channel=1 control=2 value=78 time=23
control_change channel=1 control=2 value=77 time=23
control_change channel=1 control=2 value=76 time=23
control_change channel=1 control=2 value=75 time=23
control_change channel=1 control=2 value=74 time=23
control_change channel=1 control=2 value=73 time=23
control_change channel=1 control=2 value=72 time=23
control_change channel=1 control=2 value=71 time=23
control_change channel=1 control=2 value=70 time=23
control_change channel=1 control=2 value=69 time=23
control_change channel=1 control=2 value=68 time=23
control_change channel=1 control=2 value=67 time=23
control_change channel=1 control=2 value=66 time=23
control_change channel=1 control=2 value=65 time=23
control_change channel=1 control=2 value=64 time=23
control_change channel=1 control=2 value=63 time=23
control_change channel=1 control=2 value=62 time=23
control_change channel=1 control=2 value=61 time=23
control_change channel=1 control=2 value=60 time=23
control_change channel=1 control=2 value=59 time=23
control_change channel=1 control=2 value=58 time=23
control_change channel=1 control=2 value=57 time=23
control_change channel=1 control=2 value=56 time=46
control_change channel=1 control=2 value=55 time=23
control_change channel=1 control=2 value=54 time=23
control_change channel=1 control=2 value=53 time=23
control_change channel=1 control=2 value=52 time=23
control_change channel=1 control=2 value=51 time=23
control_change channel=1 control=2 value=50 time=23
control_change channel=1 control=2 value=49 time=23
control_change channel=1 control=2 value=48 time=23
control_change channel=1 control=2 value=47 time=23
control_change channel=1 control=2 value=46 time=23
control_change channel=1 control=2 value=45 time=23
control_change channel=1 control=2 value=44 time=23
control_change channel=1 control=2 value=43 time=23
control_change channel=1 control=2 value=42 time=23
control_change channel=1 control=2 value=41 time=23
control_change channel=1 control=2 value=40 time=23
control_change channel=1 control=2 value=39 time=23
control_change channel=1 control=2 value=38 time=23
control_change channel=1 control=2 value=37 time=23
control_change channel=1 control=2 value=36 time=23
control_change channel=1 control=2 value=35 time=23
control_change channel=1 control=2 value=34 time=23
<meta message end_of_track time=1>
=== Track 3 ===
<meta message key_signature key='A' time=0>
<meta message midi_port port=0 time=0>
control_change channel=1 control=64 value=127 time=1922
control_change channel=1 control=64 value=0 time=959
control_change channel=1 control=64 value=127 time=1
control_change channel=1 control=64 value=0 time=959
control_change channel=1 control=64 value=127 time=1
control_change channel=1 control=64 value=0 time=959
control_change channel=1 control=64 value=127 time=1
control_change channel=1 control=64 value=0 time=959
control_change channel=1 control=2 value=120 time=59
control_change channel=1 control=2 value=119 time=2
control_change channel=1 control=2 value=118 time=1
control_change channel=1 control=2 value=117 time=2
control_change channel=1 control=2 value=116 time=1
control_change channel=1 control=2 value=115 time=2
control_change channel=1 control=2 value=114 time=1
control_change channel=1 control=2 value=113 time=2
control_change channel=1 control=2 value=112 time=1
control_change channel=1 control=2 value=111 time=2
control_change channel=1 control=2 value=110 time=1
control_change channel=1 control=2 value=109 time=2
control_change channel=1 control=2 value=108 time=1
control_change channel=1 control=2 value=107 time=2
control_change channel=1 control=2 value=106 time=1
control_change channel=1 control=2 value=105 time=2
control_change channel=1 control=2 value=104 time=1
control_change channel=1 control=2 value=103 time=2
control_change channel=1 control=2 value=102 time=1
control_change channel=1 control=2 value=101 time=2
control_change channel=1 control=2 value=100 time=1
control_change channel=1 control=2 value=99 time=2
control_change channel=1 control=2 value=98 time=1
control_change channel=1 control=2 value=97 time=2
control_change channel=1 control=2 value=96 time=1
control_change channel=1 control=2 value=95 time=2
control_change channel=1 control=2 value=94 time=1
control_change channel=1 control=2 value=93 time=2
control_change channel=1 control=2 value=92 time=1
control_change channel=1 control=2 value=91 time=2
control_change channel=1 control=2 value=90 time=1
control_change channel=1 control=2 value=89 time=2
control_change channel=1 control=2 value=88 time=1
control_change channel=1 control=2 value=87 time=2
control_change channel=1 control=2 value=86 time=1
control_change channel=1 control=2 value=85 time=2
control_change channel=1 control=2 value=84 time=1
control_change channel=1 control=2 value=83 time=2
control_change channel=1 control=2 value=82 time=1
control_change channel=1 control=2 value=81 time=2
control_change channel=1 control=64 value=127 time=3723
control_change channel=1 control=64 value=0 time=959
control_change channel=1 control=64 value=127 time=1
control_change channel=1 control=64 value=0 time=959
control_change channel=1 control=64 value=127 time=1921
control_change channel=1 control=2 value=120 time=538
control_change channel=1 control=2 value=119 time=2
control_change channel=1 control=2 value=118 time=1
control_change channel=1 control=2 value=117 time=2
control_change channel=1 control=2 value=116 time=1
control_change channel=1 control=2 value=115 time=2
control_change channel=1 control=2 value=114 time=1
control_change channel=1 control=2 value=113 time=2
control_change channel=1 control=2 value=112 time=1
control_change channel=1 control=2 value=111 time=2
control_change channel=1 control=2 value=110 time=1
control_change channel=1 control=2 value=109 time=2
control_change channel=1 control=2 value=108 time=1
control_change channel=1 control=2 value=107 time=2
control_change channel=1 control=2 value=106 time=1
control_change channel=1 control=2 value=105 time=2
control_change channel=1 control=2 value=104 time=1
control_change channel=1 control=2 value=103 time=2
control_change channel=1 control=2 value=102 time=1
control_change channel=1 control=2 value=101 time=2
control_change channel=1 control=2 value=100 time=1
control_change channel=1 control=2 value=99 time=2
control_change channel=1 control=2 value=98 time=1
control_change channel=1 control=2 value=97 time=2
control_change channel=1 control=2 value=96 time=1
control_change channel=1 control=2 value=95 time=2
control_change channel=1 control=2 value=94 time=1
control_change channel=1 control=2 value=93 time=2
control_change channel=1 control=2 value=92 time=1
control_change channel=1 control=2 value=91 time=2
control_change channel=1 control=2 value=90 time=1
control_change channel=1 control=2 value=89 time=2
control_change channel=1 control=2 value=88 time=1
control_change channel=1 control=2 value=87 time=2
control_change channel=1 control=2 value=86 time=1
control_change channel=1 control=2 value=85 time=2
control_change channel=1 control=2 value=84 time=1
control_change channel=1 control=2 value=83 time=2
control_change channel=1 control=2 value=82 time=1
control_change channel=1 control=2 value=81 time=2
control_change channel=1 control=64 value=0 time=1322
control_change channel=1 control=64 value=127 time=1
control_change channel=1 control=64 value=0 time=959
control_change channel=1 control=64 value=127 time=1
control_change channel=1 control=64 value=0 time=959
control_change channel=1 control=64 value=127 time=1
control_change channel=1 control=64 value=0 time=959
control_change channel=1 control=64 value=127 time=1
control_change channel=1 control=64 value=0 time=959
control_change channel=1 control=64 value=127 time=1
control_change channel=1 control=64 value=0 time=959
control_change channel=1 control=64 value=127 time=1
control_change channel=1 control=64 value=0 time=959
control_change channel=1 control=64 value=127 time=2881
control_change channel=1 control=64 value=0 time=959
control_change channel=1 control=64 value=127 time=1
control_change channel=1 control=64 value=0 time=959
control_change channel=1 control=64 value=127 time=1
control_change channel=1 control=64 value=0 time=959
control_change channel=1 control=64 value=127 time=1
control_change channel=1 control=64 value=0 time=959
control_change channel=1 control=64 value=127 time=1
control_change channel=1 control=2 value=120 time=538
control_change channel=1 control=2 value=119 time=2
control_change channel=1 control=2 value=118 time=1
control_change channel=1 control=2 value=117 time=2
control_change channel=1 control=2 value=116 time=1
control_change channel=1 control=2 value=115 time=2
control_change channel=1 control=2 value=114 time=1
control_change channel=1 control=2 value=113 time=2
control_change channel=1 control=2 value=112 time=1
control_change channel=1 control=2 value=111 time=2
control_change channel=1 control=2 value=110 time=1
control_change channel=1 control=2 value=109 time=2
control_change channel=1 control=2 value=108 time=1
control_change channel=1 control=2 value=107 time=2
control_change channel=1 control=2 value=106 time=1
control_change channel=1 control=2 value=105 time=2
control_change channel=1 control=2 value=104 time=1
control_change channel=1 control=2 value=103 time=2
control_change channel=1 control=2 value=102 time=1
control_change channel=1 control=2 value=101 time=2
control_change channel=1 control=2 value=100 time=1
control_change channel=1 control=2 value=99 time=2
control_change channel=1 control=2 value=98 time=1
control_change channel=1 control=2 value=97 time=2
control_change channel=1 control=2 value=96 time=1
control_change channel=1 control=2 value=95 time=2
control_change channel=1 control=2 value=94 time=1
control_change channel=1 control=2 value=93 time=2
control_change channel=1 control=2 value=92 time=1
control_change channel=1 control=2 value=91 time=2
control_change channel=1 control=2 value=90 time=1
control_change channel=1 control=2 value=89 time=2
control_change channel=1 control=2 value=88 time=1
control_change channel=1 control=2 value=87 time=2
control_change channel=1 control=2 value=86 time=1
control_change channel=1 control=2 value=85 time=2
control_change channel=1 control=2 value=84 time=1
control_change channel=1 control=2 value=83 time=2
control_change channel=1 control=2 value=82 time=1
control_change channel=1 control=2 value=81 time=2
control_change channel=1 control=64 value=0 time=362
control_change channel=1 control=64 value=127 time=1
control_change channel=1 control=2 value=120 time=538
control_change channel=1 control=2 value=119 time=2
control_change channel=1 control=2 value=118 time=1
control_change channel=1 control=2 value=117 time=2
control_change channel=1 control=2 value=116 time=1
control_change channel=1 control=2 value=115 time=2
control_change channel=1 control=2 value=114 time=1
control_change channel=1 control=2 value=113 time=2
control_change channel=1 control=2 value=112 time=1
control_change channel=1 control=2 value=111 time=2
control_change channel=1 control=2 value=110 time=1
control_change channel=1 control=2 value=109 time=2
control_change channel=1 control=2 value=108 time=1
control_change channel=1 control=2 value=107 time=2
control_change channel=1 control=2 value=106 time=1
control_change channel=1 control=2 value=105 time=2
control_change channel=1 control=2 value=104 time=1
control_change channel=1 control=2 value=103 time=2
control_change channel=1 control=2 value=102 time=1
control_change channel=1 control=2 value=101 time=2
control_change channel=1 control=2 value=100 time=1
control_change channel=1 control=2 value=99 time=2
control_change channel=1 control=2 value=98 time=1
control_change channel=1 control=2 value=97 time=2
control_change channel=1 control=2 value=96 time=1
control_change channel=1 control=2 value=95 time=2
control_change channel=1 control=2 value=94 time=1
control_change channel=1 control=2 value=93 time=2
control_change channel=1 control=2 value=92 time=1
control_change channel=1 control=2 value=91 time=2
control_change channel=1 control=2 value=90 time=1
control_change channel=1 control=2 value=89 time=2
control_change channel=1 control=2 value=88 time=1
control_change channel=1 control=2 value=87 time=2
control_change channel=1 control=2 value=86 time=1
control_change channel=1 control=2 value=85 time=2
control_change channel=1 control=2 value=84 time=1
control_change channel=1 control=2 value=83 time=2
control_change channel=1 control=2 value=82 time=1
control_change channel=1 control=2 value=81 time=2
control_change channel=1 control=64 value=0 time=362
control_change channel=1 control=64 value=127 time=1
control_change channel=1 control=2 value=120 time=538
control_change channel=1 control=2 value=119 time=2
control_change channel=1 control=2 value=118 time=1
control_change channel=1 control=2 value=117 time=2
control_change channel=1 control=2 value=116 time=1
control_change channel=1 control=2 value=115 time=2
control_change channel=1 control=2 value=114 time=1
control_change channel=1 control=2 value=113 time=2
control_change channel=1 control=2 value=112 time=1
control_change channel=1 control=2 value=111 time=2
control_change channel=1 control=2 value=110 time=1
control_change channel=1 control=2 value=109 time=2
control_change channel=1 control=2 value=108 time=1
control_change channel=1 control=2 value=107 time=2
control_change channel=1 control=2 value=106 time=1
control_change channel=1 control=2 value=105 time=2
control_change channel=1 control=2 value=104 time=1
control_change channel=1 control=2 value=103 time=2
control_change channel=1 control=2 value=102 time=1
control_change channel=1 control=2 value=101 time=2
control_change channel=1 control=2 value=100 time=1
control_change channel=1 control=2 value=99 time=2
control_change channel=1 control=2 value=98 time=1
control_change channel=1 control=2 value=97 time=2
control_change channel=1 control=2 value=96 time=1
control_change channel=1 control=2 value=95 time=2
control_change channel=1 control=2 value=94 time=1
control_change channel=1 control=2 value=93 time=2
control_change channel=1 control=2 value=92 time=1
control_change channel=1 control=2 value=91 time=2
control_change channel=1 control=2 value=90 time=1
control_change channel=1 control=2 value=89 time=2
control_change channel=1 control=2 value=88 time=1
control_change channel=1 control=2 value=87 time=2
control_change channel=1 control=2 value=86 time=1
control_change channel=1 control=2 value=85 time=2
control_change channel=1 control=2 value=84 time=1
control_change channel=1 control=2 value=83 time=2
control_change channel=1 control=2 value=82 time=1
control_change channel=1 control=2 value=81 time=2
control_change channel=1 control=64 value=0 time=362
control_change channel=1 control=64 value=127 time=1
control_change channel=1 control=64 value=0 time=959
control_change channel=1 control=2 value=112 time=602
control_change channel=1 control=2 value=111 time=40
control_change channel=1 control=2 value=110 time=20
control_change channel=1 control=2 value=109 time=20
control_change channel=1 control=2 value=108 time=20
control_change channel=1 control=2 value=107 time=20
control_change channel=1 control=2 value=106 time=20
control_change channel=1 control=2 value=105 time=20
control_change channel=1 control=2 value=104 time=20
control_change channel=1 control=2 value=103 time=20
control_change channel=1 control=2 value=102 time=20
control_change channel=1 control=2 value=101 time=20
control_change channel=1 control=2 value=100 time=20
control_change channel=1 control=2 value=99 time=20
control_change channel=1 control=2 value=98 time=20
control_change channel=1 control=2 value=97 time=20
control_change channel=1 control=2 value=96 time=20
control_change channel=1 control=64 value=127 time=19
control_change channel=1 control=2 value=95 time=1
control_change channel=1 control=2 value=13 time=57
control_change channel=1 control=2 value=12 time=2
control_change channel=1 control=2 value=11 time=1
control_change channel=1 control=2 value=10 time=1
control_change channel=1 control=2 value=9 time=2
control_change channel=1 control=2 value=8 time=1
control_change channel=1 control=2 value=7 time=1
control_change channel=1 control=2 value=6 time=1
control_change channel=1 control=2 value=5 time=2
control_change channel=1 control=2 value=4 time=1
control_change channel=1 control=2 value=3 time=1
control_change channel=1 control=2 value=2 time=2
control_change channel=1 control=2 value=1 time=1
control_change channel=1 control=2 value=0 time=1
control_change channel=1 control=2 value=127 time=1
control_change channel=1 control=2 value=126 time=2
control_change channel=1 control=2 value=125 time=1
control_change channel=1 control=2 value=124 time=1
control_change channel=1 control=2 value=123 time=1
control_change channel=1 control=2 value=122 time=2
control_change channel=1 control=2 value=121 time=1
control_change channel=1 control=2 value=120 time=1
control_change channel=1 control=2 value=119 time=2
control_change channel=1 control=2 value=118 time=1
control_change channel=1 control=2 value=117 time=1
control_change channel=1 control=2 value=116 time=1
control_change channel=1 control=2 value=115 time=2
control_change channel=1 control=2 value=114 time=1
control_change channel=1 control=2 value=113 time=1
control_change channel=1 control=2 value=112 time=2
control_change channel=1 control=2 value=111 time=1
control_change channel=1 control=2 value=110 time=1
control_change channel=1 control=2 value=109 time=1
control_change channel=1 control=2 value=108 time=2
control_change channel=1 control=2 value=107 time=1
control_change channel=1 control=2 value=106 time=1
control_change channel=1 control=2 value=105 time=1
control_change channel=1 control=2 value=104 time=2
control_change channel=1 control=2 value=103 time=1
control_change channel=1 control=2 value=102 time=1
control_change channel=1 control=2 value=101 time=2
control_change channel=1 control=2 value=100 time=1
control_change channel=1 control=2 value=99 time=1
control_change channel=1 control=2 value=98 time=1
control_change channel=1 control=2 value=97 time=2
control_change channel=1 control=2 value=96 time=1
control_change channel=1 control=2 value=95 time=1
control_change channel=1 control=64 value=0 time=842
control_change channel=1 control=64 value=127 time=1
control_change channel=1 control=2 value=13 time=58
control_change channel=1 control=2 value=12 time=2
control_change channel=1 control=2 value=11 time=1
control_change channel=1 control=2 value=10 time=1
control_change channel=1 control=2 value=9 time=2
control_change channel=1 control=2 value=8 time=1
control_change channel=1 control=2 value=7 time=1
control_change channel=1 control=2 value=6 time=1
control_change channel=1 control=2 value=5 time=2
control_change channel=1 control=2 value=4 time=1
control_change channel=1 control=2 value=3 time=1
control_change channel=1 control=2 value=2 time=2
control_change channel=1 control=2 value=1 time=1
control_change channel=1 control=2 value=0 time=1
control_change channel=1 control=2 value=127 time=1
control_change channel=1 control=2 value=126 time=2
control_change channel=1 control=2 value=125 time=1
control_change channel=1 control=2 value=124 time=1
control_change channel=1 control=2 value=123 time=1
control_change channel=1 control=2 value=122 time=2
control_change channel=1 control=2 value=121 time=1
control_change channel=1 control=2 value=120 time=1
control_change channel=1 control=2 value=119 time=2
control_change channel=1 control=2 value=118 time=1
control_change channel=1 control=2 value=117 time=1
control_change channel=1 control=2 value=116 time=1
control_change channel=1 control=2 value=115 time=2
control_change channel=1 control=2 value=114 time=1
control_change channel=1 control=2 value=113 time=1
control_change channel=1 control=2 value=112 time=2
control_change channel=1 control=2 value=111 time=1
control_change channel=1 control=2 value=110 time=1
control_change channel=1 control=2 value=109 time=1
control_change channel=1 control=2 value=108 time=2
control_change channel=1 control=2 value=107 time=1
control_change channel=1 control=2 value=106 time=1
control_change channel=1 control=2 value=105 time=1
control_change channel=1 control=2 value=104 time=2
control_change channel=1 control=2 value=103 time=1
control_change channel=1 control=2 value=102 time=1
control_change channel=1 control=2 value=101 time=2
control_change channel=1 control=2 value=100 time=1
control_change channel=1 control=2 value=99 time=1
control_change channel=1 control=2 value=98 time=1
control_change channel=1 control=2 value=97 time=2
control_change channel=1 control=2 value=96 time=1
control_change channel=1 control=2 value=95 time=1
control_change channel=1 control=2 value=94 time=841
control_change channel=1 control=64 value=0 time=1
control_change channel=1 control=2 value=93 time=47
control_change channel=1 control=2 value=92 time=48
control_change channel=1 control=2 value=91 time=48
control_change channel=1 control=2 value=90 time=48
control_change channel=1 control=2 value=89 time=48
control_change channel=1 control=2 value=88 time=48
control_change channel=1 control=2 value=87 time=48
control_change channel=1 control=2 value=86 time=48
control_change channel=1 control=2 value=85 time=48
control_change channel=1 control=2 value=84 time=48
control_change channel=1 control=2 value=83 time=48
control_change channel=1 control=2 value=82 time=48
control_change channel=1 control=2 value=81 time=48
control_change channel=1 control=2 value=80 time=48
control_change channel=1 control=2 value=79 time=48
control_change channel=1 control=2 value=78 time=48
control_change channel=1 control=2 value=77 time=48
control_change channel=1 control=2 value=76 time=48
control_change channel=1 control=2 value=75 time=48
control_change channel=1 control=2 value=74 time=48
control_change channel=1 control=2 value=73 time=48
control_change channel=1 control=2 value=72 time=48
control_change channel=1 control=2 value=71 time=48
control_change channel=1 control=2 value=70 time=48
control_change channel=1 control=2 value=69 time=48
control_change channel=1 control=2 value=68 time=48
control_change channel=1 control=2 value=67 time=48
control_change channel=1 control=2 value=66 time=48
control_change channel=1 control=2 value=65 time=48
control_change channel=1 control=64 value=127 time=530
control_change channel=1 control=64 value=0 time=959
control_change channel=1 control=64 value=127 time=1
control_change channel=1 control=64 value=0 time=959
control_change channel=1 control=64 value=127 time=1
control_change channel=1 control=64 value=0 time=959
control_change channel=1 control=64 value=127 time=1
<meta message key_signature key='A' time=958>
control_change channel=1 control=64 value=0 time=1
control_change channel=1 control=2 value=96 time=3899
control_change channel=1 control=2 value=95 time=2
control_change channel=1 control=2 value=94 time=2
control_change channel=1 control=2 value=93 time=2
control_change channel=1 control=2 value=92 time=2
control_change channel=1 control=2 value=91 time=2
control_change channel=1 control=2 value=90 time=2
control_change channel=1 control=2 value=89 time=2
control_change channel=1 control=2 value=88 time=1
control_change channel=1 control=2 value=87 time=2
control_change channel=1 control=2 value=86 time=2
control_change channel=1 control=2 value=85 time=2
control_change channel=1 control=2 value=84 time=2
control_change channel=1 control=2 value=83 time=2
control_change channel=1 control=2 value=82 time=2
control_change channel=1 control=2 value=81 time=2
control_change channel=1 control=2 value=80 time=1
control_change channel=1 control=2 value=79 time=2
control_change channel=1 control=2 value=78 time=2
control_change channel=1 control=2 value=77 time=2
control_change channel=1 control=2 value=76 time=2
control_change channel=1 control=2 value=75 time=2
control_change channel=1 control=2 value=74 time=2
control_change channel=1 control=2 value=73 time=2
control_change channel=1 control=2 value=72 time=1
control_change channel=1 control=2 value=71 time=2
control_change channel=1 control=2 value=70 time=2
control_change channel=1 control=2 value=69 time=2
control_change channel=1 control=2 value=68 time=2
control_change channel=1 control=2 value=67 time=2
control_change channel=1 control=2 value=66 time=2
control_change channel=1 control=2 value=65 time=2
control_change channel=1 control=2 value=96 time=421
control_change channel=1 control=2 value=95 time=2
control_change channel=1 control=2 value=94 time=2
control_change channel=1 control=2 value=93 time=2
control_change channel=1 control=2 value=92 time=2
control_change channel=1 control=2 value=91 time=2
control_change channel=1 control=2 value=90 time=2
control_change channel=1 control=2 value=89 time=2
control_change channel=1 control=2 value=88 time=1
control_change channel=1 control=2 value=87 time=2
control_change channel=1 control=2 value=86 time=2
control_change channel=1 control=2 value=85 time=2
control_change channel=1 control=2 value=84 time=2
control_change channel=1 control=2 value=83 time=2
control_change channel=1 control=2 value=82 time=2
control_change channel=1 control=2 value=81 time=2
control_change channel=1 control=2 value=80 time=1
control_change channel=1 control=2 value=79 time=2
control_change channel=1 control=2 value=78 time=2
control_change channel=1 control=2 value=77 time=2
control_change channel=1 control=2 value=76 time=2
control_change channel=1 control=2 value=75 time=2
control_change channel=1 control=2 value=74 time=2
control_change channel=1 control=2 value=73 time=2
control_change channel=1 control=2 value=72 time=1
control_change channel=1 control=2 value=71 time=2
control_change channel=1 control=2 value=70 time=2
control_change channel=1 control=2 value=69 time=2
control_change channel=1 control=2 value=68 time=2
control_change channel=1 control=2 value=67 time=2
control_change channel=1 control=2 value=66 time=2
control_change channel=1 control=2 value=65 time=2
control_change channel=1 control=2 value=96 time=421
control_change channel=1 control=2 value=95 time=2
control_change channel=1 control=2 value=94 time=2
control_change channel=1 control=2 value=93 time=2
control_change channel=1 control=2 value=92 time=2
control_change channel=1 control=2 value=91 time=2
control_change channel=1 control=2 value=90 time=2
control_change channel=1 control=2 value=89 time=2
control_change channel=1 control=2 value=88 time=1
control_change channel=1 control=2 value=87 time=2
control_change channel=1 control=2 value=86 time=2
control_change channel=1 control=2 value=85 time=2
control_change channel=1 control=2 value=84 time=2
control_change channel=1 control=2 value=83 time=2
control_change channel=1 control=2 value=82 time=2
control_change channel=1 control=2 value=81 time=2
control_change channel=1 control=2 value=80 time=1
control_change channel=1 control=2 value=79 time=2
control_change channel=1 control=2 value=78 time=2
control_change channel=1 control=2 value=77 time=2
control_change channel=1 control=2 value=76 time=2
control_change channel=1 control=2 value=75 time=2
control_change channel=1 control=2 value=74 time=2
control_change channel=1 control=2 value=73 time=2
control_change channel=1 control=2 value=72 time=1
control_change channel=1 control=2 value=71 time=2
control_change channel=1 control=2 value=70 time=2
control_change channel=1 control=2 value=69 time=2
control_change channel=1 control=2 value=68 time=2
control_change channel=1 control=2 value=67 time=2
control_change channel=1 control=2 value=66 time=2
control_change channel=1 control=2 value=65 time=2
control_change channel=1 control=2 value=96 time=901
control_change channel=1 control=2 value=95 time=2
control_change channel=1 control=2 value=94 time=2
control_change channel=1 control=2 value=93 time=2
control_change channel=1 control=2 value=92 time=2
control_change channel=1 control=2 value=91 time=2
control_change channel=1 control=2 value=90 time=2
control_change channel=1 control=2 value=89 time=2
control_change channel=1 control=2 value=88 time=1
control_change channel=1 control=2 value=87 time=2
control_change channel=1 control=2 value=86 time=2
control_change channel=1 control=2 value=85 time=2
control_change channel=1 control=2 value=84 time=2
control_change channel=1 control=2 value=83 time=2
control_change channel=1 control=2 value=82 time=2
control_change channel=1 control=2 value=81 time=2
control_change channel=1 control=2 value=80 time=1
control_change channel=1 control=2 value=79 time=2
control_change channel=1 control=2 value=78 time=2
control_change channel=1 control=2 value=77 time=2
control_change channel=1 control=2 value=76 time=2
control_change channel=1 control=2 value=75 time=2
control_change channel=1 control=2 value=74 time=2
control_change channel=1 control=2 value=73 time=2
control_change channel=1 control=2 value=72 time=1
control_change channel=1 control=2 value=71 time=2
control_change channel=1 control=2 value=70 time=2
control_change channel=1 control=2 value=69 time=2
control_change channel=1 control=2 value=68 time=2
control_change channel=1 control=2 value=67 time=2
control_change channel=1 control=2 value=66 time=2
control_change channel=1 control=2 value=65 time=2
control_change channel=1 control=2 value=96 time=901
control_change channel=1 control=2 value=95 time=2
control_change channel=1 control=2 value=94 time=2
control_change channel=1 control=2 value=93 time=2
control_change channel=1 control=2 value=92 time=2
control_change channel=1 control=2 value=91 time=2
control_change channel=1 control=2 value=90 time=2
control_change channel=1 control=2 value=89 time=2
control_change channel=1 control=2 value=88 time=1
control_change channel=1 control=2 value=87 time=2
control_change channel=1 control=2 value=86 time=2
control_change channel=1 control=2 value=85 time=2
control_change channel=1 control=2 value=84 time=2
control_change channel=1 control=2 value=83 time=2
control_change channel=1 control=2 value=82 time=2
control_change channel=1 control=2 value=81 time=2
control_change channel=1 control=2 value=80 time=1
control_change channel=1 control=2 value=79 time=2
control_change channel=1 control=2 value=78 time=2
control_change channel=1 control=2 value=77 time=2
control_change channel=1 control=2 value=76 time=2
control_change channel=1 control=2 value=75 time=2
control_change channel=1 control=2 value=74 time=2
control_change channel=1 control=2 value=73 time=2
control_change channel=1 control=2 value=72 time=1
control_change channel=1 control=2 value=71 time=2
control_change channel=1 control=2 value=70 time=2
control_change channel=1 control=2 value=69 time=2
control_change channel=1 control=2 value=68 time=2
control_change channel=1 control=2 value=67 time=2
control_change channel=1 control=2 value=66 time=2
control_change channel=1 control=2 value=65 time=2
control_change channel=1 control=2 value=96 time=901
control_change channel=1 control=2 value=95 time=2
control_change channel=1 control=2 value=94 time=2
control_change channel=1 control=2 value=93 time=2
control_change channel=1 control=2 value=92 time=2
control_change channel=1 control=2 value=91 time=2
control_change channel=1 control=2 value=90 time=2
control_change channel=1 control=2 value=89 time=2
control_change channel=1 control=2 value=88 time=1
control_change channel=1 control=2 value=87 time=2
control_change channel=1 control=2 value=86 time=2
control_change channel=1 control=2 value=85 time=2
control_change channel=1 control=2 value=84 time=2
control_change channel=1 control=2 value=83 time=2
control_change channel=1 control=2 value=82 time=2
control_change channel=1 control=2 value=81 time=2
control_change channel=1 control=2 value=80 time=1
control_change channel=1 control=2 value=79 time=2
control_change channel=1 control=2 value=78 time=2
control_change channel=1 control=2 value=77 time=2
control_change channel=1 control=2 value=76 time=2
control_change channel=1 control=2 value=75 time=2
control_change channel=1 control=2 value=74 time=2
control_change channel=1 control=2 value=73 time=2
control_change channel=1 control=2 value=72 time=1
control_change channel=1 control=2 value=71 time=2
control_change channel=1 control=2 value=70 time=2
control_change channel=1 control=2 value=69 time=2
control_change channel=1 control=2 value=68 time=2
control_change channel=1 control=2 value=67 time=2
control_change channel=1 control=2 value=66 time=2
control_change channel=1 control=2 value=65 time=2
control_change channel=1 control=2 value=96 time=901
control_change channel=1 control=2 value=95 time=2
control_change channel=1 control=2 value=94 time=2
control_change channel=1 control=2 value=93 time=2
control_change channel=1 control=2 value=92 time=2
control_change channel=1 control=2 value=91 time=2
control_change channel=1 control=2 value=90 time=2
control_change channel=1 control=2 value=89 time=2
control_change channel=1 control=2 value=88 time=1
control_change channel=1 control=2 value=87 time=2
control_change channel=1 control=2 value=86 time=2
control_change channel=1 control=2 value=85 time=2
control_change channel=1 control=2 value=84 time=2
control_change channel=1 control=2 value=83 time=2
control_change channel=1 control=2 value=82 time=2
control_change channel=1 control=2 value=81 time=2
control_change channel=1 control=2 value=80 time=1
control_change channel=1 control=2 value=79 time=2
control_change channel=1 control=2 value=78 time=2
control_change channel=1 control=2 value=77 time=2
control_change channel=1 control=2 value=76 time=2
control_change channel=1 control=2 value=75 time=2
control_change channel=1 control=2 value=74 time=2
control_change channel=1 control=2 value=73 time=2
control_change channel=1 control=2 value=72 time=1
control_change channel=1 control=2 value=71 time=2
control_change channel=1 control=2 value=70 time=2
control_change channel=1 control=2 value=69 time=2
control_change channel=1 control=2 value=68 time=2
control_change channel=1 control=2 value=67 time=2
control_change channel=1 control=2 value=66 time=2
control_change channel=1 control=2 value=65 time=2
control_change channel=1 control=2 value=40 time=25924
control_change channel=1 control=2 value=39 time=10
control_change channel=1 control=2 value=38 time=5
control_change channel=1 control=2 value=37 time=5
control_change channel=1 control=2 value=36 time=5
control_change channel=1 control=2 value=35 time=5
control_change channel=1 control=2 value=34 time=5
control_change channel=1 control=2 value=33 time=5
control_change channel=1 control=2 value=32 time=5
control_change channel=1 control=2 value=31 time=5
control_change channel=1 control=2 value=30 time=5
control_change channel=1 control=2 value=29 time=5
control_change channel=1 control=2 value=28 time=5
control_change channel=1 control=2 value=27 time=5
control_change channel=1 control=2 value=26 time=5
control_change channel=1 control=2 value=25 time=5
control_change channel=1 control=2 value=24 time=5
control_change channel=1 control=2 value=23 time=5
control_change channel=1 control=2 value=22 time=5
control_change channel=1 control=2 value=21 time=5
control_change channel=1 control=2 value=20 time=5
control_change channel=1 control=2 value=19 time=5
control_change channel=1 control=2 value=18 time=5
control_change channel=1 control=2 value=17 time=5
control_change channel=1 control=2 value=16 time=5
control_change channel=1 control=2 value=15 time=5
control_change channel=1 control=2 value=14 time=5
control_change channel=1 control=2 value=13 time=5
control_change channel=1 control=2 value=12 time=5
control_change channel=1 control=2 value=11 time=5
control_change channel=1 control=2 value=10 time=5
control_change channel=1 control=2 value=9 time=5
control_change channel=1 control=2 value=8 time=5
control_change channel=1 control=2 value=7 time=5
control_change channel=1 control=2 value=6 time=5
control_change channel=1 control=2 value=5 time=5
control_change channel=1 control=2 value=4 time=5
control_change channel=1 control=2 value=3 time=5
control_change channel=1 control=2 value=2 time=5
control_change channel=1 control=2 value=1 time=5
control_change channel=1 control=2 value=0 time=5
control_change channel=1 control=2 value=127 time=5
control_change channel=1 control=2 value=126 time=5
control_change channel=1 control=2 value=125 time=5
control_change channel=1 control=2 value=124 time=5
control_change channel=1 control=2 value=123 time=5
control_change channel=1 control=2 value=122 time=5
control_change channel=1 control=2 value=121 time=5
control_change channel=1 control=2 value=120 time=5
control_change channel=1 control=2 value=119 time=5
control_change channel=1 control=2 value=118 time=5
control_change channel=1 control=2 value=117 time=5
control_change channel=1 control=2 value=116 time=5
control_change channel=1 control=2 value=115 time=5
control_change channel=1 control=2 value=114 time=5
control_change channel=1 control=2 value=113 time=5
control_change channel=1 control=2 value=112 time=5
control_change channel=1 control=2 value=111 time=5
control_change channel=1 control=2 value=110 time=5
control_change channel=1 control=2 value=109 time=5
control_change channel=1 control=2 value=108 time=5
control_change channel=1 control=2 value=107 time=5
control_change channel=1 control=2 value=106 time=5
control_change channel=1 control=2 value=105 time=5
control_change channel=1 control=2 value=104 time=5
control_change channel=1 control=2 value=103 time=5
control_change channel=1 control=2 value=102 time=5
control_change channel=1 control=2 value=101 time=5
control_change channel=1 control=2 value=100 time=5
control_change channel=1 control=2 value=99 time=5
control_change channel=1 control=2 value=98 time=5
control_change channel=1 control=2 value=97 time=5
control_change channel=1 control=2 value=96 time=5
control_change channel=1 control=2 value=95 time=5
control_change channel=1 control=64 value=127 time=2869
control_change channel=1 control=64 value=0 time=479
control_change channel=1 control=64 value=127 time=1
control_change channel=1 control=2 value=13 time=58
control_change channel=1 control=2 value=12 time=2
control_change channel=1 control=2 value=11 time=1
control_change channel=1 control=2 value=10 time=1
control_change channel=1 control=2 value=9 time=2
control_change channel=1 control=2 value=8 time=1
control_change channel=1 control=2 value=7 time=1
control_change channel=1 control=2 value=6 time=1
control_change channel=1 control=2 value=5 time=2
control_change channel=1 control=2 value=4 time=1
control_change channel=1 control=2 value=3 time=1
control_change channel=1 control=2 value=2 time=2
control_change channel=1 control=2 value=1 time=1
control_change channel=1 control=2 value=0 time=1
control_change channel=1 control=2 value=127 time=1
control_change channel=1 control=2 value=126 time=2
control_change channel=1 control=2 value=125 time=1
control_change channel=1 control=2 value=124 time=1
control_change channel=1 control=2 value=123 time=1
control_change channel=1 control=2 value=122 time=2
control_change channel=1 control=2 value=121 time=1
control_change channel=1 control=2 value=120 time=1
control_change channel=1 control=2 value=119 time=2
control_change channel=1 control=2 value=118 time=1
control_change channel=1 control=2 value=117 time=1
control_change channel=1 control=2 value=116 time=1
control_change channel=1 control=2 value=115 time=2
control_change channel=1 control=2 value=114 time=1
control_change channel=1 control=2 value=113 time=1
control_change channel=1 control=2 value=112 time=2
control_change channel=1 control=2 value=111 time=1
control_change channel=1 control=2 value=110 time=1
control_change channel=1 control=2 value=109 time=1
control_change channel=1 control=2 value=108 time=2
control_change channel=1 control=2 value=107 time=1
control_change channel=1 control=2 value=106 time=1
control_change channel=1 control=2 value=105 time=1
control_change channel=1 control=2 value=104 time=2
control_change channel=1 control=2 value=103 time=1
control_change channel=1 control=2 value=102 time=1
control_change channel=1 control=2 value=101 time=2
control_change channel=1 control=2 value=100 time=1
control_change channel=1 control=2 value=99 time=1
control_change channel=1 control=2 value=98 time=1
control_change channel=1 control=2 value=97 time=2
control_change channel=1 control=2 value=96 time=1
control_change channel=1 control=2 value=95 time=1
control_change channel=1 control=64 value=0 time=842
control_change channel=1 control=64 value=127 time=1
control_change channel=1 control=2 value=13 time=58
control_change channel=1 control=2 value=12 time=2
control_change channel=1 control=2 value=11 time=1
control_change channel=1 control=2 value=10 time=1
control_change channel=1 control=2 value=9 time=2
control_change channel=1 control=2 value=8 time=1
control_change channel=1 control=2 value=7 time=1
control_change channel=1 control=2 value=6 time=1
control_change channel=1 control=2 value=5 time=2
control_change channel=1 control=2 value=4 time=1
control_change channel=1 control=2 value=3 time=1
control_change channel=1 control=2 value=2 time=2
control_change channel=1 control=2 value=1 time=1
control_change channel=1 control=2 value=0 time=1
control_change channel=1 control=2 value=127 time=1
control_change channel=1 control=2 value=126 time=2
control_change channel=1 control=2 value=125 time=1
control_change channel=1 control=2 value=124 time=1
control_change channel=1 control=2 value=123 time=1
control_change channel=1 control=2 value=122 time=2
control_change channel=1 control=2 value=121 time=1
control_change channel=1 control=2 value=120 time=1
control_change channel=1 control=2 value=119 time=2
control_change channel=1 control=2 value=118 time=1
control_change channel=1 control=2 value=117 time=1
control_change channel=1 control=2 value=116 time=1
control_change channel=1 control=2 value=115 time=2
control_change channel=1 control=2 value=114 time=1
control_change channel=1 control=2 value=113 time=1
control_change channel=1 control=2 value=112 time=2
control_change channel=1 control=2 value=111 time=1
control_change channel=1 control=2 value=110 time=1
control_change channel=1 control=2 value=109 time=1
control_change channel=1 control=2 value=108 time=2
control_change channel=1 control=2 value=107 time=1
control_change channel=1 control=2 value=106 time=1
control_change channel=1 control=2 value=105 time=1
control_change channel=1 control=2 value=104 time=2
control_change channel=1 control=2 value=103 time=1
control_change channel=1 control=2 value=102 time=1
control_change channel=1 control=2 value=101 time=2
control_change channel=1 control=2 value=100 time=1
control_change channel=1 control=2 value=99 time=1
control_change channel=1 control=2 value=98 time=1
control_change channel=1 control=2 value=97 time=2
control_change channel=1 control=2 value=96 time=1
control_change channel=1 control=2 value=95 time=1
control_change channel=1 control=64 value=0 time=842
control_change channel=1 control=64 value=127 time=1
control_change channel=1 control=2 value=13 time=58
control_change channel=1 control=2 value=12 time=2
control_change channel=1 control=2 value=11 time=1
control_change channel=1 control=2 value=10 time=1
control_change channel=1 control=2 value=9 time=2
control_change channel=1 control=2 value=8 time=1
control_change channel=1 control=2 value=7 time=1
control_change channel=1 control=2 value=6 time=1
control_change channel=1 control=2 value=5 time=2
control_change channel=1 control=2 value=4 time=1
control_change channel=1 control=2 value=3 time=1
control_change channel=1 control=2 value=2 time=2
control_change channel=1 control=2 value=1 time=1
control_change channel=1 control=2 value=0 time=1
control_change channel=1 control=2 value=127 time=1
control_change channel=1 control=2 value=126 time=2
control_change channel=1 control=2 value=125 time=1
control_change channel=1 control=2 value=124 time=1
control_change channel=1 control=2 value=123 time=1
control_change channel=1 control=2 value=122 time=2
control_change channel=1 control=2 value=121 time=1
control_change channel=1 control=2 value=120 time=1
control_change channel=1 control=2 value=119 time=2
control_change channel=1 control=2 value=118 time=1
control_change channel=1 control=2 value=117 time=1
control_change channel=1 control=2 value=116 time=1
control_change channel=1 control=2 value=115 time=2
control_change channel=1 control=2 value=114 time=1
control_change channel=1 control=2 value=113 time=1
control_change channel=1 control=2 value=112 time=2
control_change channel=1 control=2 value=111 time=1
control_change channel=1 control=2 value=110 time=1
control_change channel=1 control=2 value=109 time=1
control_change channel=1 control=2 value=108 time=2
control_change channel=1 control=2 value=107 time=1
control_change channel=1 control=2 value=106 time=1
control_change channel=1 control=2 value=105 time=1
control_change channel=1 control=2 value=104 time=2
control_change channel=1 control=2 value=103 time=1
control_change channel=1 control=2 value=102 time=1
control_change channel=1 control=2 value=101 time=2
control_change channel=1 control=2 value=100 time=1
control_change channel=1 control=2 value=99 time=1
control_change channel=1 control=2 value=98 time=1
control_change channel=1 control=2 value=97 time=2
control_change channel=1 control=2 value=96 time=1
control_change channel=1 control=2 value=95 time=1
control_change channel=1 control=64 value=0 time=602
control_change channel=1 control=2 value=94 time=360
control_change channel=1 control=2 value=93 time=36
control_change channel=1 control=2 value=92 time=18
control_change channel=1 control=2 value=91 time=18
control_change channel=1 control=2 value=90 time=18
control_change channel=1 control=2 value=89 time=18
control_change channel=1 control=2 value=88 time=18
control_change channel=1 control=2 value=87 time=18
control_change channel=1 control=2 value=86 time=18
control_change channel=1 control=2 value=85 time=18
control_change channel=1 control=2 value=84 time=18
control_change channel=1 control=2 value=83 time=18
control_change channel=1 control=2 value=82 time=18
control_change channel=1 control=2 value=81 time=18
control_change channel=1 control=2 value=80 time=18
control_change channel=1 control=2 value=79 time=18
control_change channel=1 control=2 value=78 time=18
control_change channel=1 control=2 value=77 time=18
control_change channel=1 control=2 value=76 time=18
control_change channel=1 control=2 value=75 time=18
control_change channel=1 control=2 value=74 time=18
control_change channel=1 control=2 value=73 time=18
control_change channel=1 control=2 value=72 time=18
control_change channel=1 control=2 value=71 time=18
control_change channel=1 control=2 value=70 time=18
control_change channel=1 control=2 value=69 time=18
control_change channel=1 control=2 value=68 time=18
control_change channel=1 control=2 value=67 time=18
control_change channel=1 control=2 value=66 time=36
control_change channel=1 control=2 value=65 time=18
control_change channel=1 control=2 value=64 time=18
control_change channel=1 control=2 value=63 time=18
control_change channel=1 control=2 value=62 time=18
control_change channel=1 control=2 value=61 time=18
control_change channel=1 control=2 value=60 time=18
control_change channel=1 control=2 value=59 time=18
control_change channel=1 control=2 value=58 time=18
control_change channel=1 control=2 value=57 time=18
control_change channel=1 control=2 value=56 time=18
control_change channel=1 control=2 value=55 time=18
control_change channel=1 control=2 value=54 time=18
control_change channel=1 control=2 value=53 time=18
control_change channel=1 control=2 value=52 time=18
control_change channel=1 control=2 value=51 time=18
control_change channel=1 control=2 value=50 time=18
control_change channel=1 control=64 value=127 time=3373
control_change channel=1 control=64 value=0 time=479
control_change channel=1 control=64 value=127 time=1
control_change channel=1 control=2 value=16 time=58
control_change channel=1 control=2 value=15 time=2
control_change channel=1 control=2 value=14 time=1
control_change channel=1 control=2 value=13 time=1
control_change channel=1 control=2 value=12 time=1
control_change channel=1 control=2 value=11 time=2
control_change channel=1 control=2 value=10 time=1
control_change channel=1 control=2 value=9 time=1
control_change channel=1 control=2 value=8 time=1
control_change channel=1 control=2 value=7 time=2
control_change channel=1 control=2 value=6 time=1
control_change channel=1 control=2 value=5 time=1
control_change channel=1 control=2 value=4 time=1
control_change channel=1 control=2 value=3 time=2
control_change channel=1 control=2 value=2 time=1
control_change channel=1 control=2 value=1 time=1
control_change channel=1 control=2 value=0 time=1
control_change channel=1 control=2 value=127 time=2
control_change channel=1 control=2 value=126 time=1
control_change channel=1 control=2 value=125 time=1
control_change channel=1 control=2 value=124 time=1
control_change channel=1 control=2 value=123 time=2
control_change channel=1 control=2 value=122 time=1
control_change channel=1 control=2 value=121 time=1
control_change channel=1 control=2 value=120 time=1
control_change channel=1 control=2 value=119 time=2
control_change channel=1 control=2 value=118 time=1
control_change channel=1 control=2 value=117 time=1
control_change channel=1 control=2 value=116 time=1
control_change channel=1 control=2 value=115 time=2
control_change channel=1 control=2 value=114 time=1
control_change channel=1 control=2 value=113 time=1
control_change channel=1 control=2 value=112 time=1
control_change channel=1 control=2 value=111 time=2
control_change channel=1 control=2 value=110 time=1
control_change channel=1 control=2 value=109 time=1
control_change channel=1 control=2 value=108 time=1
control_change channel=1 control=2 value=107 time=2
control_change channel=1 control=2 value=106 time=1
control_change channel=1 control=2 value=105 time=1
control_change channel=1 control=2 value=104 time=1
control_change channel=1 control=2 value=103 time=2
control_change channel=1 control=2 value=102 time=1
control_change channel=1 control=2 value=101 time=1
control_change channel=1 control=2 value=100 time=1
control_change channel=1 control=2 value=99 time=2
control_change channel=1 control=2 value=98 time=1
control_change channel=1 control=2 value=97 time=1
control_change channel=1 control=2 value=16 time=181
control_change channel=1 control=2 value=15 time=2
control_change channel=1 control=2 value=14 time=1
control_change channel=1 control=2 value=13 time=1
control_change channel=1 control=2 value=12 time=1
control_change channel=1 control=2 value=11 time=2
control_change channel=1 control=2 value=10 time=1
control_change channel=1 control=2 value=9 time=1
control_change channel=1 control=2 value=8 time=1
control_change channel=1 control=2 value=7 time=2
control_change channel=1 control=2 value=6 time=1
control_change channel=1 control=2 value=5 time=1
control_change channel=1 control=2 value=4 time=1
control_change channel=1 control=2 value=3 time=2
control_change channel=1 control=2 value=2 time=1
control_change channel=1 control=2 value=1 time=1
control_change channel=1 control=2 value=0 time=1
control_change channel=1 control=2 value=127 time=2
control_change channel=1 control=2 value=126 time=1
control_change channel=1 control=2 value=125 time=1
control_change channel=1 control=2 value=124 time=1
control_change channel=1 control=2 value=123 time=2
control_change channel=1 control=2 value=122 time=1
control_change channel=1 control=2 value=121 time=1
control_change channel=1 control=2 value=120 time=1
control_change channel=1 control=2 value=119 time=2
control_change channel=1 control=2 value=118 time=1
control_change channel=1 control=2 value=117 time=1
control_change channel=1 control=2 value=116 time=1
control_change channel=1 control=2 value=115 time=2
control_change channel=1 control=2 value=114 time=1
control_change channel=1 control=2 value=113 time=1
control_change channel=1 control=2 value=112 time=1
control_change channel=1 control=2 value=111 time=2
control_change channel=1 control=2 value=110 time=1
control_change channel=1 control=2 value=109 time=1
control_change channel=1 control=2 value=108 time=1
control_change channel=1 control=2 value=107 time=2
control_change channel=1 control=2 value=106 time=1
control_change channel=1 control=2 value=105 time=1
control_change channel=1 control=2 value=104 time=1
control_change channel=1 control=2 value=103 time=2
control_change channel=1 control=2 value=102 time=1
control_change channel=1 control=2 value=101 time=1
control_change channel=1 control=2 value=100 time=1
control_change channel=1 control=2 value=99 time=2
control_change channel=1 control=2 value=98 time=1
control_change channel=1 control=2 value=97 time=1
control_change channel=1 control=2 value=16 time=421
control_change channel=1 control=2 value=15 time=2
control_change channel=1 control=2 value=14 time=1
control_change channel=1 control=2 value=13 time=1
control_change channel=1 control=2 value=12 time=1
control_change channel=1 control=2 value=11 time=2
control_change channel=1 control=2 value=10 time=1
control_change channel=1 control=2 value=9 time=1
control_change channel=1 control=2 value=8 time=1
control_change channel=1 control=2 value=7 time=2
control_change channel=1 control=2 value=6 time=1
control_change channel=1 control=2 value=5 time=1
control_change channel=1 control=2 value=4 time=1
control_change channel=1 control=2 value=3 time=2
control_change channel=1 control=2 value=2 time=1
control_change channel=1 control=2 value=1 time=1
control_change channel=1 control=2 value=0 time=1
control_change channel=1 control=2 value=127 time=2
control_change channel=1 control=2 value=126 time=1
control_change channel=1 control=2 value=125 time=1
control_change channel=1 control=2 value=124 time=1
control_change channel=1 control=2 value=123 time=2
control_change channel=1 control=2 value=122 time=1
control_change channel=1 control=2 value=121 time=1
control_change channel=1 control=2 value=120 time=1
control_change channel=1 control=2 value=119 time=2
control_change channel=1 control=2 value=118 time=1
control_change channel=1 control=2 value=117 time=1
control_change channel=1 control=2 value=116 time=1
control_change channel=1 control=2 value=115 time=2
control_change channel=1 control=2 value=114 time=1
control_change channel=1 control=2 value=113 time=1
control_change channel=1 control=2 value=112 time=1
control_change channel=1 control=2 value=111 time=2
control_change channel=1 control=2 value=110 time=1
control_change channel=1 control=2 value=109 time=1
control_change channel=1 control=2 value=108 time=1
control_change channel=1 control=2 value=107 time=2
control_change channel=1 control=2 value=106 time=1
control_change channel=1 control=2 value=105 time=1
control_change channel=1 control=2 value=104 time=1
control_change channel=1 control=2 value=103 time=2
control_change channel=1 control=2 value=102 time=1
control_change channel=1 control=2 value=101 time=1
control_change channel=1 control=2 value=100 time=1
control_change channel=1 control=2 value=99 time=2
control_change channel=1 control=2 value=98 time=1
control_change channel=1 control=2 value=97 time=1
control_change channel=1 control=64 value=0 time=122
control_change channel=1 control=64 value=127 time=1
control_change channel=1 control=2 value=16 time=58
control_change channel=1 control=2 value=15 time=2
control_change channel=1 control=2 value=14 time=1
control_change channel=1 control=2 value=13 time=1
control_change channel=1 control=2 value=12 time=1
control_change channel=1 control=2 value=11 time=2
control_change channel=1 control=2 value=10 time=1
control_change channel=1 control=2 value=9 time=1
control_change channel=1 control=2 value=8 time=1
control_change channel=1 control=2 value=7 time=2
control_change channel=1 control=2 value=6 time=1
control_change channel=1 control=2 value=5 time=1
control_change channel=1 control=2 value=4 time=1
control_change channel=1 control=2 value=3 time=2
control_change channel=1 control=2 value=2 time=1
control_change channel=1 control=2 value=1 time=1
control_change channel=1 control=2 value=0 time=1
control_change channel=1 control=2 value=127 time=2
control_change channel=1 control=2 value=126 time=1
control_change channel=1 control=2 value=125 time=1
control_change channel=1 control=2 value=124 time=1
control_change channel=1 control=2 value=123 time=2
control_change channel=1 control=2 value=122 time=1
control_change channel=1 control=2 value=121 time=1
control_change channel=1 control=2 value=120 time=1
control_change channel=1 control=2 value=119 time=2
control_change channel=1 control=2 value=118 time=1
control_change channel=1 control=2 value=117 time=1
control_change channel=1 control=2 value=116 time=1
control_change channel=1 control=2 value=115 time=2
control_change channel=1 control=2 value=114 time=1
control_change channel=1 control=2 value=113 time=1
control_change channel=1 control=2 value=112 time=1
control_change channel=1 control=2 value=111 time=2
control_change channel=1 control=2 value=110 time=1
control_change channel=1 control=2 value=109 time=1
control_change channel=1 control=2 value=108 time=1
control_change channel=1 control=2 value=107 time=2
control_change channel=1 control=2 value=106 time=1
control_change channel=1 control=2 value=105 time=1
control_change channel=1 control=2 value=104 time=1
control_change channel=1 control=2 value=103 time=2
control_change channel=1 control=2 value=102 time=1
control_change channel=1 control=2 value=101 time=1
control_change channel=1 control=2 value=100 time=1
control_change channel=1 control=2 value=99 time=2
control_change channel=1 control=2 value=98 time=1
control_change channel=1 control=2 value=97 time=1
control_change channel=1 control=2 value=16 time=181
control_change channel=1 control=2 value=15 time=2
control_change channel=1 control=2 value=14 time=1
control_change channel=1 control=2 value=13 time=1
control_change channel=1 control=2 value=12 time=1
control_change channel=1 control=2 value=11 time=2
control_change channel=1 control=2 value=10 time=1
control_change channel=1 control=2 value=9 time=1
control_change channel=1 control=2 value=8 time=1
control_change channel=1 control=2 value=7 time=2
control_change channel=1 control=2 value=6 time=1
control_change channel=1 control=2 value=5 time=1
control_change channel=1 control=2 value=4 time=1
control_change channel=1 control=2 value=3 time=2
control_change channel=1 control=2 value=2 time=1
control_change channel=1 control=2 value=1 time=1
control_change channel=1 control=2 value=0 time=1
control_change channel=1 control=2 value=127 time=2
control_change channel=1 control=2 value=126 time=1
control_change channel=1 control=2 value=125 time=1
control_change channel=1 control=2 value=124 time=1
control_change channel=1 control=2 value=123 time=2
control_change channel=1 control=2 value=122 time=1
control_change channel=1 control=2 value=121 time=1
control_change channel=1 control=2 value=120 time=1
control_change channel=1 control=2 value=119 time=2
control_change channel=1 control=2 value=118 time=1
control_change channel=1 control=2 value=117 time=1
control_change channel=1 control=2 value=116 time=1
control_change channel=1 control=2 value=115 time=2
control_change channel=1 control=2 value=114 time=1
control_change channel=1 control=2 value=113 time=1
control_change channel=1 control=2 value=112 time=1
control_change channel=1 control=2 value=111 time=2
control_change channel=1 control=2 value=110 time=1
control_change channel=1 control=2 value=109 time=1
control_change channel=1 control=2 value=108 time=1
control_change channel=1 control=2 value=107 time=2
control_change channel=1 control=2 value=106 time=1
control_change channel=1 control=2 value=105 time=1
control_change channel=1 control=2 value=104 time=1
control_change channel=1 control=2 value=103 time=2
control_change channel=1 control=2 value=102 time=1
control_change channel=1 control=2 value=101 time=1
control_change channel=1 control=2 value=100 time=1
control_change channel=1 control=2 value=99 time=2
control_change channel=1 control=2 value=98 time=1
control_change channel=1 control=2 value=97 time=1
control_change channel=1 control=2 value=16 time=421
control_change channel=1 control=2 value=15 time=2
control_change channel=1 control=2 value=14 time=1
control_change channel=1 control=2 value=13 time=1
control_change channel=1 control=2 value=12 time=1
control_change channel=1 control=2 value=11 time=2
control_change channel=1 control=2 value=10 time=1
control_change channel=1 control=2 value=9 time=1
control_change channel=1 control=2 value=8 time=1
control_change channel=1 control=2 value=7 time=2
control_change channel=1 control=2 value=6 time=1
control_change channel=1 control=2 value=5 time=1
control_change channel=1 control=2 value=4 time=1
control_change channel=1 control=2 value=3 time=2
control_change channel=1 control=2 value=2 time=1
control_change channel=1 control=2 value=1 time=1
control_change channel=1 control=2 value=0 time=1
control_change channel=1 control=2 value=127 time=2
control_change channel=1 control=2 value=126 time=1
control_change channel=1 control=2 value=125 time=1
control_change channel=1 control=2 value=124 time=1
control_change channel=1 control=2 value=123 time=2
control_change channel=1 control=2 value=122 time=1
control_change channel=1 control=2 value=121 time=1
control_change channel=1 control=2 value=120 time=1
control_change channel=1 control=2 value=119 time=2
control_change channel=1 control=2 value=118 time=1
control_change channel=1 control=2 value=117 time=1
control_change channel=1 control=2 value=116 time=1
control_change channel=1 control=2 value=115 time=2
control_change channel=1 control=2 value=114 time=1
control_change channel=1 control=2 value=113 time=1
control_change channel=1 control=2 value=112 time=1
control_change channel=1 control=2 value=111 time=2
control_change channel=1 control=2 value=110 time=1
control_change channel=1 control=2 value=109 time=1
control_change channel=1 control=2 value=108 time=1
control_change channel=1 control=2 value=107 time=2
control_change channel=1 control=2 value=106 time=1
control_change channel=1 control=2 value=105 time=1
control_change channel=1 control=2 value=104 time=1
control_change channel=1 control=2 value=103 time=2
control_change channel=1 control=2 value=102 time=1
control_change channel=1 control=2 value=101 time=1
control_change channel=1 control=2 value=100 time=1
control_change channel=1 control=2 value=99 time=2
control_change channel=1 control=2 value=98 time=1
control_change channel=1 control=2 value=97 time=1
control_change channel=1 control=64 value=0 time=122
control_change channel=1 control=2 value=16 time=59
control_change channel=1 control=2 value=15 time=2
control_change channel=1 control=2 value=14 time=1
control_change channel=1 control=2 value=13 time=1
control_change channel=1 control=2 value=12 time=1
control_change channel=1 control=2 value=11 time=2
control_change channel=1 control=2 value=10 time=1
control_change channel=1 control=2 value=9 time=1
control_change channel=1 control=2 value=8 time=1
control_change channel=1 control=2 value=7 time=2
control_change channel=1 control=2 value=6 time=1
control_change channel=1 control=2 value=5 time=1
control_change channel=1 control=2 value=4 time=1
control_change channel=1 control=2 value=3 time=2
control_change channel=1 control=2 value=2 time=1
control_change channel=1 control=2 value=1 time=1
control_change channel=1 control=2 value=0 time=1
control_change channel=1 control=2 value=127 time=2
control_change channel=1 control=2 value=126 time=1
control_change channel=1 control=2 value=125 time=1
control_change channel=1 control=2 value=124 time=1
control_change channel=1 control=2 value=123 time=2
control_change channel=1 control=2 value=122 time=1
control_change channel=1 control=2 value=121 time=1
control_change channel=1 control=2 value=120 time=1
control_change channel=1 control=2 value=119 time=2
control_change channel=1 control=2 value=118 time=1
control_change channel=1 control=2 value=117 time=1
control_change channel=1 control=2 value=116 time=1
control_change channel=1 control=2 value=115 time=2
control_change channel=1 control=2 value=114 time=1
control_change channel=1 control=2 value=113 time=1
control_change channel=1 control=2 value=112 time=1
control_change channel=1 control=2 value=111 time=2
control_change channel=1 control=2 value=110 time=1
control_change channel=1 control=2 value=109 time=1
control_change channel=1 control=2 value=108 time=1
control_change channel=1 control=2 value=107 time=2
control_change channel=1 control=2 value=106 time=1
control_change channel=1 control=2 value=105 time=1
control_change channel=1 control=2 value=104 time=1
control_change channel=1 control=2 value=103 time=2
control_change channel=1 control=2 value=102 time=1
control_change channel=1 control=2 value=101 time=1
control_change channel=1 control=2 value=100 time=1
control_change channel=1 control=2 value=99 time=2
control_change channel=1 control=2 value=98 time=1
control_change channel=1 control=2 value=97 time=1
control_change channel=1 control=2 value=115 time=421
control_change channel=1 control=2 value=114 time=6
control_change channel=1 control=2 value=113 time=3
control_change channel=1 control=2 value=112 time=3
control_change channel=1 control=2 value=111 time=3
control_change channel=1 control=2 value=110 time=3
control_change channel=1 control=2 value=109 time=3
control_change channel=1 control=2 value=108 time=3
control_change channel=1 control=2 value=107 time=3
control_change channel=1 control=2 value=106 time=3
control_change channel=1 control=2 value=105 time=3
control_change channel=1 control=2 value=104 time=3
control_change channel=1 control=2 value=103 time=3
control_change channel=1 control=2 value=102 time=3
control_change channel=1 control=2 value=101 time=3
control_change channel=1 control=2 value=100 time=3
control_change channel=1 control=2 value=99 time=3
control_change channel=1 control=2 value=98 time=3
control_change channel=1 control=2 value=97 time=3
control_change channel=1 control=2 value=115 time=183
control_change channel=1 control=2 value=114 time=6
control_change channel=1 control=2 value=113 time=3
control_change channel=1 control=2 value=112 time=3
control_change channel=1 control=2 value=111 time=3
control_change channel=1 control=2 value=110 time=3
control_change channel=1 control=2 value=109 time=3
control_change channel=1 control=2 value=108 time=3
control_change channel=1 control=2 value=107 time=3
control_change channel=1 control=2 value=106 time=3
control_change channel=1 control=2 value=105 time=3
control_change channel=1 control=2 value=104 time=3
control_change channel=1 control=2 value=103 time=3
control_change channel=1 control=2 value=102 time=3
control_change channel=1 control=2 value=101 time=3
control_change channel=1 control=2 value=100 time=3
control_change channel=1 control=2 value=99 time=3
control_change channel=1 control=2 value=98 time=3
control_change channel=1 control=2 value=97 time=3
control_change channel=1 control=2 value=16 time=183
control_change channel=1 control=2 value=15 time=2
control_change channel=1 control=2 value=14 time=1
control_change channel=1 control=2 value=13 time=1
control_change channel=1 control=2 value=12 time=1
control_change channel=1 control=2 value=11 time=2
control_change channel=1 control=2 value=10 time=1
control_change channel=1 control=2 value=9 time=1
control_change channel=1 control=2 value=8 time=1
control_change channel=1 control=2 value=7 time=2
control_change channel=1 control=2 value=6 time=1
control_change channel=1 control=2 value=5 time=1
control_change channel=1 control=2 value=4 time=1
control_change channel=1 control=2 value=3 time=2
control_change channel=1 control=2 value=2 time=1
control_change channel=1 control=2 value=1 time=1
control_change channel=1 control=2 value=0 time=1
control_change channel=1 control=2 value=127 time=2
control_change channel=1 control=2 value=126 time=1
control_change channel=1 control=2 value=125 time=1
control_change channel=1 control=2 value=124 time=1
control_change channel=1 control=2 value=123 time=2
control_change channel=1 control=2 value=122 time=1
control_change channel=1 control=2 value=121 time=1
control_change channel=1 control=2 value=120 time=1
control_change channel=1 control=2 value=119 time=2
control_change channel=1 control=2 value=118 time=1
control_change channel=1 control=2 value=117 time=1
control_change channel=1 control=2 value=116 time=1
control_change channel=1 control=2 value=115 time=2
control_change channel=1 control=2 value=114 time=1
control_change channel=1 control=2 value=113 time=1
control_change channel=1 control=2 value=112 time=1
control_change channel=1 control=2 value=111 time=2
control_change channel=1 control=2 value=110 time=1
control_change channel=1 control=2 value=109 time=1
control_change channel=1 control=2 value=108 time=1
control_change channel=1 control=2 value=107 time=2
control_change channel=1 control=2 value=106 time=1
control_change channel=1 control=2 value=105 time=1
control_change channel=1 control=2 value=104 time=1
control_change channel=1 control=2 value=103 time=2
control_change channel=1 control=2 value=102 time=1
control_change channel=1 control=2 value=101 time=1
control_change channel=1 control=2 value=100 time=1
control_change channel=1 control=2 value=99 time=2
control_change channel=1 control=2 value=98 time=1
control_change channel=1 control=2 value=97 time=1
control_change channel=1 control=2 value=84 time=421
control_change channel=1 control=2 value=83 time=8
control_change channel=1 control=2 value=82 time=4
control_change channel=1 control=2 value=81 time=4
control_change channel=1 control=2 value=80 time=4
control_change channel=1 control=2 value=79 time=4
control_change channel=1 control=2 value=78 time=4
control_change channel=1 control=2 value=77 time=4
control_change channel=1 control=2 value=76 time=4
control_change channel=1 control=2 value=75 time=4
control_change channel=1 control=2 value=74 time=4
control_change channel=1 control=2 value=73 time=4
control_change channel=1 control=2 value=72 time=4
control_change channel=1 control=2 value=71 time=4
control_change channel=1 control=64 value=127 time=5166
control_change channel=1 control=2 value=64 time=478
control_change channel=1 control=2 value=65 time=15
control_change channel=1 control=2 value=66 time=15
control_change channel=1 control=2 value=67 time=15
control_change channel=1 control=2 value=68 time=15
control_change channel=1 control=2 value=69 time=15
control_change channel=1 control=2 value=70 time=15
control_change channel=1 control=2 value=71 time=15
control_change channel=1 control=2 value=72 time=15
control_change channel=1 control=2 value=73 time=15
control_change channel=1 control=2 value=74 time=15
control_change channel=1 control=2 value=75 time=15
control_change channel=1 control=2 value=76 time=15
control_change channel=1 control=2 value=77 time=15
control_change channel=1 control=2 value=78 time=15
control_change channel=1 control=2 value=79 time=15
control_change channel=1 control=2 value=80 time=15
control_change channel=1 control=2 value=81 time=15
control_change channel=1 control=2 value=82 time=15
control_change channel=1 control=2 value=83 time=15
control_change channel=1 control=2 value=84 time=15
control_change channel=1 control=2 value=85 time=15
control_change channel=1 control=2 value=86 time=15
control_change channel=1 control=2 value=87 time=15
control_change channel=1 control=2 value=88 time=15
control_change channel=1 control=2 value=89 time=15
control_change channel=1 control=2 value=90 time=15
control_change channel=1 control=2 value=91 time=15
control_change channel=1 control=2 value=92 time=15
control_change channel=1 control=2 value=93 time=15
control_change channel=1 control=2 value=94 time=15
control_change channel=1 control=2 value=95 time=15
control_change channel=1 control=64 value=0 time=16
control_change channel=1 control=2 value=16 time=59
control_change channel=1 control=2 value=15 time=2
control_change channel=1 control=2 value=14 time=1
control_change channel=1 control=2 value=13 time=1
control_change channel=1 control=2 value=12 time=1
control_change channel=1 control=2 value=11 time=2
control_change channel=1 control=2 value=10 time=1
control_change channel=1 control=2 value=9 time=1
control_change channel=1 control=2 value=8 time=1
control_change channel=1 control=2 value=7 time=2
control_change channel=1 control=2 value=6 time=1
control_change channel=1 control=2 value=5 time=1
control_change channel=1 control=2 value=4 time=1
control_change channel=1 control=2 value=3 time=2
control_change channel=1 control=2 value=2 time=1
control_change channel=1 control=2 value=1 time=1
control_change channel=1 control=2 value=0 time=1
control_change channel=1 control=2 value=127 time=2
control_change channel=1 control=2 value=126 time=1
control_change channel=1 control=2 value=125 time=1
control_change channel=1 control=2 value=124 time=1
control_change channel=1 control=2 value=123 time=2
control_change channel=1 control=2 value=122 time=1
control_change channel=1 control=2 value=121 time=1
control_change channel=1 control=2 value=120 time=1
control_change channel=1 control=2 value=119 time=2
control_change channel=1 control=2 value=118 time=1
control_change channel=1 control=2 value=117 time=1
control_change channel=1 control=2 value=116 time=1
control_change channel=1 control=2 value=115 time=2
control_change channel=1 control=2 value=114 time=1
control_change channel=1 control=2 value=113 time=1
control_change channel=1 control=2 value=112 time=1
control_change channel=1 control=2 value=111 time=2
control_change channel=1 control=2 value=110 time=1
control_change channel=1 control=2 value=109 time=1
control_change channel=1 control=2 value=108 time=1
control_change channel=1 control=2 value=107 time=2
control_change channel=1 control=2 value=106 time=1
control_change channel=1 control=2 value=105 time=1
control_change channel=1 control=2 value=104 time=1
control_change channel=1 control=2 value=103 time=2
control_change channel=1 control=2 value=102 time=1
control_change channel=1 control=2 value=101 time=1
control_change channel=1 control=2 value=100 time=1
control_change channel=1 control=2 value=99 time=2
control_change channel=1 control=2 value=98 time=1
control_change channel=1 control=2 value=97 time=1
control_change channel=1 control=2 value=16 time=661
control_change channel=1 control=2 value=15 time=2
control_change channel=1 control=2 value=14 time=1
control_change channel=1 control=2 value=13 time=1
control_change channel=1 control=2 value=12 time=1
control_change channel=1 control=2 value=11 time=2
control_change channel=1 control=2 value=10 time=1
control_change channel=1 control=2 value=9 time=1
control_change channel=1 control=2 value=8 time=1
control_change channel=1 control=2 value=7 time=2
control_change channel=1 control=2 value=6 time=1
control_change channel=1 control=2 value=5 time=1
control_change channel=1 control=2 value=4 time=1
control_change channel=1 control=2 value=3 time=2
control_change channel=1 control=2 value=2 time=1
control_change channel=1 control=2 value=1 time=1
control_change channel=1 control=2 value=0 time=1
control_change channel=1 control=2 value=127 time=2
control_change channel=1 control=2 value=126 time=1
control_change channel=1 control=2 value=125 time=1
control_change channel=1 control=2 value=124 time=1
control_change channel=1 control=2 value=123 time=2
control_change channel=1 control=2 value=122 time=1
control_change channel=1 control=2 value=121 time=1
control_change channel=1 control=2 value=120 time=1
control_change channel=1 control=2 value=119 time=2
control_change channel=1 control=2 value=118 time=1
control_change channel=1 control=2 value=117 time=1
control_change channel=1 control=2 value=116 time=1
control_change channel=1 control=2 value=115 time=2
control_change channel=1 control=2 value=114 time=1
control_change channel=1 control=2 value=113 time=1
control_change channel=1 control=2 value=112 time=1
control_change channel=1 control=2 value=111 time=2
control_change channel=1 control=2 value=110 time=1
control_change channel=1 control=2 value=109 time=1
control_change channel=1 control=2 value=108 time=1
control_change channel=1 control=2 value=107 time=2
control_change channel=1 control=2 value=106 time=1
control_change channel=1 control=2 value=105 time=1
control_change channel=1 control=2 value=104 time=1
control_change channel=1 control=2 value=103 time=2
control_change channel=1 control=2 value=102 time=1
control_change channel=1 control=2 value=101 time=1
control_change channel=1 control=2 value=100 time=1
control_change channel=1 control=2 value=99 time=2
control_change channel=1 control=2 value=98 time=1
control_change channel=1 control=2 value=97 time=1
control_change channel=1 control=2 value=16 time=661
control_change channel=1 control=2 value=15 time=2
control_change channel=1 control=2 value=14 time=1
control_change channel=1 control=2 value=13 time=1
control_change channel=1 control=2 value=12 time=1
control_change channel=1 control=2 value=11 time=2
control_change channel=1 control=2 value=10 time=1
control_change channel=1 control=2 value=9 time=1
control_change channel=1 control=2 value=8 time=1
control_change channel=1 control=2 value=7 time=2
control_change channel=1 control=2 value=6 time=1
control_change channel=1 control=2 value=5 time=1
control_change channel=1 control=2 value=4 time=1
control_change channel=1 control=2 value=3 time=2
control_change channel=1 control=2 value=2 time=1
control_change channel=1 control=2 value=1 time=1
control_change channel=1 control=2 value=0 time=1
control_change channel=1 control=2 value=127 time=2
control_change channel=1 control=2 value=126 time=1
control_change channel=1 control=2 value=125 time=1
control_change channel=1 control=2 value=124 time=1
control_change channel=1 control=2 value=123 time=2
control_change channel=1 control=2 value=122 time=1
control_change channel=1 control=2 value=121 time=1
control_change channel=1 control=2 value=120 time=1
control_change channel=1 control=2 value=119 time=2
control_change channel=1 control=2 value=118 time=1
control_change channel=1 control=2 value=117 time=1
control_change channel=1 control=2 value=116 time=1
control_change channel=1 control=2 value=115 time=2
control_change channel=1 control=2 value=114 time=1
control_change channel=1 control=2 value=113 time=1
control_change channel=1 control=2 value=112 time=1
control_change channel=1 control=2 value=111 time=2
control_change channel=1 control=2 value=110 time=1
control_change channel=1 control=2 value=109 time=1
control_change channel=1 control=2 value=108 time=1
control_change channel=1 control=2 value=107 time=2
control_change channel=1 control=2 value=106 time=1
control_change channel=1 control=2 value=105 time=1
control_change channel=1 control=2 value=104 time=1
control_change channel=1 control=2 value=103 time=2
control_change channel=1 control=2 value=102 time=1
control_change channel=1 control=2 value=101 time=1
control_change channel=1 control=2 value=100 time=1
control_change channel=1 control=2 value=99 time=2
control_change channel=1 control=2 value=98 time=1
control_change channel=1 control=2 value=97 time=1
control_change channel=1 control=2 value=96 time=2
control_change channel=1 control=2 value=95 time=44
control_change channel=1 control=2 value=94 time=22
control_change channel=1 control=2 value=93 time=22
control_change channel=1 control=2 value=92 time=22
control_change channel=1 control=2 value=91 time=22
control_change channel=1 control=2 value=90 time=22
control_change channel=1 control=2 value=89 time=22
control_change channel=1 control=2 value=88 time=22
control_change channel=1 control=2 value=87 time=22
control_change channel=1 control=2 value=86 time=22
control_change channel=1 control=2 value=85 time=22
control_change channel=1 control=2 value=84 time=22
control_change channel=1 control=2 value=83 time=22
control_change channel=1 control=2 value=82 time=22
control_change channel=1 control=2 value=81 time=22
control_change channel=1 control=64 value=127 time=5769
control_change channel=1 control=64 value=0 time=1919
control_change channel=1 control=64 value=127 time=1
control_change channel=1 control=64 value=0 time=959
control_change channel=1 control=64 value=127 time=1
control_change channel=1 control=64 value=0 time=959
control_change channel=1 control=64 value=127 time=1
control_change channel=1 control=64 value=0 time=959
control_change channel=1 control=64 value=127 time=1
control_change channel=1 control=64 value=0 time=959
control_change channel=1 control=64 value=127 time=1
control_change channel=1 control=64 value=0 time=959
control_change channel=1 control=64 value=127 time=1
control_change channel=1 control=64 value=0 time=959
control_change channel=1 control=64 value=127 time=1
control_change channel=1 control=64 value=0 time=959
control_change channel=1 control=64 value=127 time=1
control_change channel=1 control=64 value=0 time=959
control_change channel=1 control=64 value=127 time=1
control_change channel=1 control=64 value=0 time=959
control_change channel=1 control=64 value=127 time=1
control_change channel=1 control=64 value=0 time=959
control_change channel=1 control=64 value=127 time=1
control_change channel=1 control=64 value=0 time=959
control_change channel=1 control=64 value=127 time=1
control_change channel=1 control=64 value=0 time=959
control_change channel=1 control=64 value=127 time=11521
control_change channel=1 control=64 value=0 time=1919
control_change channel=1 control=64 value=127 time=1
control_change channel=1 control=64 value=0 time=1919
control_change channel=1 control=64 value=127 time=1
control_change channel=1 control=2 value=90 time=1018
control_change channel=1 control=2 value=89 time=2
control_change channel=1 control=2 value=88 time=2
control_change channel=1 control=2 value=87 time=2
control_change channel=1 control=2 value=86 time=2
control_change channel=1 control=2 value=85 time=2
control_change channel=1 control=2 value=84 time=2
control_change channel=1 control=2 value=83 time=2
control_change channel=1 control=2 value=82 time=2
control_change channel=1 control=2 value=81 time=2
control_change channel=1 control=2 value=80 time=2
control_change channel=1 control=2 value=79 time=2
control_change channel=1 control=2 value=78 time=2
control_change channel=1 control=2 value=77 time=2
control_change channel=1 control=2 value=76 time=2
control_change channel=1 control=2 value=75 time=2
control_change channel=1 control=2 value=74 time=2
control_change channel=1 control=2 value=73 time=2
control_change channel=1 control=2 value=72 time=2
control_change channel=1 control=2 value=71 time=2
control_change channel=1 control=2 value=70 time=2
control_change channel=1 control=2 value=69 time=2
control_change channel=1 control=2 value=68 time=2
control_change channel=1 control=2 value=67 time=2
control_change channel=1 control=2 value=66 time=2
control_change channel=1 control=2 value=65 time=2
control_change channel=1 control=2 value=64 time=2
control_change channel=1 control=2 value=63 time=2
control_change channel=1 control=2 value=62 time=2
control_change channel=1 control=2 value=61 time=2
control_change channel=1 control=2 value=90 time=302
control_change channel=1 control=2 value=89 time=2
control_change channel=1 control=2 value=88 time=2
control_change channel=1 control=2 value=87 time=2
control_change channel=1 control=2 value=86 time=2
control_change channel=1 control=2 value=85 time=2
control_change channel=1 control=2 value=84 time=2
control_change channel=1 control=2 value=83 time=2
control_change channel=1 control=2 value=82 time=2
control_change channel=1 control=2 value=81 time=2
control_change channel=1 control=2 value=80 time=2
control_change channel=1 control=2 value=79 time=2
control_change channel=1 control=2 value=78 time=2
control_change channel=1 control=2 value=77 time=2
control_change channel=1 control=2 value=76 time=2
control_change channel=1 control=2 value=75 time=2
control_change channel=1 control=2 value=74 time=2
control_change channel=1 control=2 value=73 time=2
control_change channel=1 control=2 value=72 time=2
control_change channel=1 control=2 value=71 time=2
control_change channel=1 control=2 value=70 time=2
control_change channel=1 control=2 value=69 time=2
control_change channel=1 control=2 value=68 time=2
control_change channel=1 control=2 value=67 time=2
control_change channel=1 control=2 value=66 time=2
control_change channel=1 control=2 value=65 time=2
control_change channel=1 control=2 value=64 time=2
control_change channel=1 control=2 value=63 time=2
control_change channel=1 control=2 value=62 time=2
control_change channel=1 control=2 value=61 time=2
control_change channel=1 control=64 value=0 time=483
control_change channel=1 control=64 value=127 time=1
control_change channel=1 control=2 value=90 time=58
control_change channel=1 control=2 value=89 time=2
control_change channel=1 control=2 value=88 time=2
control_change channel=1 control=2 value=87 time=2
control_change channel=1 control=2 value=86 time=2
control_change channel=1 control=2 value=85 time=2
control_change channel=1 control=2 value=84 time=2
control_change channel=1 control=2 value=83 time=2
control_change channel=1 control=2 value=82 time=2
control_change channel=1 control=2 value=81 time=2
control_change channel=1 control=2 value=80 time=2
control_change channel=1 control=2 value=79 time=2
control_change channel=1 control=2 value=78 time=2
control_change channel=1 control=2 value=77 time=2
control_change channel=1 control=2 value=76 time=2
control_change channel=1 control=2 value=75 time=2
control_change channel=1 control=2 value=74 time=2
control_change channel=1 control=2 value=73 time=2
control_change channel=1 control=2 value=72 time=2
control_change channel=1 control=2 value=71 time=2
control_change channel=1 control=2 value=70 time=2
control_change channel=1 control=2 value=69 time=2
control_change channel=1 control=2 value=68 time=2
control_change channel=1 control=2 value=67 time=2
control_change channel=1 control=2 value=66 time=2
control_change channel=1 control=2 value=65 time=2
control_change channel=1 control=2 value=64 time=2
control_change channel=1 control=2 value=63 time=2
control_change channel=1 control=2 value=62 time=2
control_change channel=1 control=2 value=61 time=2
control_change channel=1 control=2 value=60 time=3
control_change channel=1 control=2 value=61 time=166
control_change channel=1 control=2 value=62 time=83
control_change channel=1 control=2 value=96 time=50
control_change channel=1 control=2 value=95 time=2
control_change channel=1 control=2 value=94 time=2
control_change channel=1 control=2 value=93 time=2
control_change channel=1 control=2 value=92 time=2
control_change channel=1 control=2 value=91 time=2
control_change channel=1 control=2 value=90 time=2
control_change channel=1 control=2 value=89 time=2
control_change channel=1 control=2 value=88 time=1
control_change channel=1 control=2 value=87 time=2
control_change channel=1 control=2 value=86 time=2
control_change channel=1 control=2 value=85 time=2
control_change channel=1 control=2 value=84 time=2
control_change channel=1 control=2 value=83 time=2
control_change channel=1 control=2 value=82 time=2
control_change channel=1 control=2 value=81 time=2
control_change channel=1 control=2 value=80 time=1
control_change channel=1 control=2 value=79 time=2
control_change channel=1 control=2 value=63 time=1
control_change channel=1 control=2 value=78 time=1
control_change channel=1 control=2 value=77 time=2
control_change channel=1 control=2 value=76 time=2
control_change channel=1 control=2 value=75 time=2
control_change channel=1 control=2 value=74 time=2
control_change channel=1 control=2 value=73 time=2
control_change channel=1 control=2 value=72 time=1
control_change channel=1 control=2 value=71 time=2
control_change channel=1 control=2 value=70 time=2
control_change channel=1 control=2 value=69 time=2
control_change channel=1 control=2 value=68 time=2
control_change channel=1 control=2 value=67 time=2
control_change channel=1 control=2 value=66 time=2
control_change channel=1 control=2 value=65 time=2
control_change channel=1 control=2 value=64 time=57
control_change channel=1 control=2 value=65 time=83
control_change channel=1 control=2 value=66 time=83
control_change channel=1 control=2 value=67 time=83
control_change channel=1 control=2 value=68 time=83
control_change channel=1 control=2 value=69 time=83
control_change channel=1 control=64 value=0 time=10
control_change channel=1 control=64 value=127 time=1
control_change channel=1 control=2 value=105 time=58
control_change channel=1 control=2 value=104 time=2
control_change channel=1 control=2 value=103 time=2
control_change channel=1 control=2 value=102 time=2
control_change channel=1 control=2 value=101 time=1
control_change channel=1 control=2 value=100 time=2
control_change channel=1 control=2 value=99 time=2
control_change channel=1 control=2 value=98 time=1
control_change channel=1 control=2 value=97 time=2
control_change channel=1 control=2 value=96 time=2
control_change channel=1 control=2 value=95 time=2
control_change channel=1 control=2 value=94 time=1
control_change channel=1 control=2 value=93 time=2
control_change channel=1 control=2 value=92 time=2
control_change channel=1 control=2 value=91 time=1
control_change channel=1 control=2 value=90 time=2
control_change channel=1 control=2 value=89 time=2
control_change channel=1 control=2 value=88 time=2
control_change channel=1 control=2 value=87 time=1
control_change channel=1 control=2 value=86 time=2
control_change channel=1 control=2 value=85 time=2
control_change channel=1 control=2 value=84 time=1
control_change channel=1 control=2 value=83 time=2
control_change channel=1 control=2 value=82 time=2
control_change channel=1 control=2 value=81 time=2
control_change channel=1 control=2 value=80 time=1
control_change channel=1 control=2 value=79 time=2
control_change channel=1 control=2 value=78 time=2
control_change channel=1 control=2 value=77 time=1
control_change channel=1 control=2 value=76 time=2
control_change channel=1 control=2 value=75 time=2
control_change channel=1 control=2 value=74 time=2
control_change channel=1 control=2 value=73 time=1
control_change channel=1 control=2 value=72 time=2
control_change channel=1 control=2 value=71 time=2
control_change channel=1 control=2 value=71 time=38
control_change channel=1 control=2 value=72 time=83
control_change channel=1 control=2 value=73 time=83
control_change channel=1 control=2 value=74 time=83
control_change channel=1 control=2 value=111 time=14
control_change channel=1 control=2 value=110 time=2
control_change channel=1 control=2 value=109 time=2
control_change channel=1 control=2 value=108 time=1
control_change channel=1 control=2 value=107 time=2
control_change channel=1 control=2 value=106 time=2
control_change channel=1 control=2 value=105 time=1
control_change channel=1 control=2 value=104 time=2
control_change channel=1 control=2 value=103 time=1
control_change channel=1 control=2 value=102 time=2
control_change channel=1 control=2 value=101 time=2
control_change channel=1 control=2 value=100 time=1
control_change channel=1 control=2 value=99 time=2
control_change channel=1 control=2 value=98 time=2
control_change channel=1 control=2 value=97 time=1
control_change channel=1 control=2 value=96 time=2
control_change channel=1 control=2 value=95 time=1
control_change channel=1 control=2 value=94 time=2
control_change channel=1 control=2 value=93 time=2
control_change channel=1 control=2 value=92 time=1
control_change channel=1 control=2 value=91 time=2
control_change channel=1 control=2 value=90 time=2
control_change channel=1 control=2 value=89 time=1
control_change channel=1 control=2 value=88 time=2
control_change channel=1 control=2 value=87 time=1
control_change channel=1 control=2 value=86 time=2
control_change channel=1 control=2 value=85 time=2
control_change channel=1 control=2 value=84 time=1
control_change channel=1 control=2 value=83 time=2
control_change channel=1 control=2 value=82 time=2
control_change channel=1 control=2 value=81 time=1
control_change channel=1 control=2 value=80 time=2
control_change channel=1 control=2 value=79 time=1
control_change channel=1 control=2 value=78 time=2
control_change channel=1 control=2 value=77 time=2
control_change channel=1 control=2 value=76 time=1
control_change channel=1 control=2 value=75 time=2
control_change channel=1 control=2 value=75 time=10
control_change channel=1 control=2 value=76 time=83
control_change channel=1 control=2 value=77 time=83
control_change channel=1 control=2 value=78 time=83
control_change channel=1 control=2 value=79 time=83
control_change channel=1 control=64 value=0 time=2060
control_change channel=1 control=2 value=96 time=59
control_change channel=1 control=2 value=95 time=2
control_change channel=1 control=2 value=94 time=2
control_change channel=1 control=2 value=93 time=2
control_change channel=1 control=2 value=92 time=2
control_change channel=1 control=2 value=91 time=2
control_change channel=1 control=2 value=90 time=2
control_change channel=1 control=2 value=89 time=2
control_change channel=1 control=2 value=88 time=1
control_change channel=1 control=2 value=87 time=2
control_change channel=1 control=2 value=86 time=2
control_change channel=1 control=2 value=85 time=2
control_change channel=1 control=2 value=84 time=2
control_change channel=1 control=2 value=83 time=2
control_change channel=1 control=2 value=82 time=2
control_change channel=1 control=2 value=81 time=2
control_change channel=1 control=2 value=80 time=1
control_change channel=1 control=2 value=79 time=2
control_change channel=1 control=2 value=78 time=2
control_change channel=1 control=2 value=77 time=2
control_change channel=1 control=2 value=76 time=2
control_change channel=1 control=2 value=75 time=2
control_change channel=1 control=2 value=74 time=2
control_change channel=1 control=2 value=73 time=2
control_change channel=1 control=2 value=72 time=1
control_change channel=1 control=2 value=71 time=2
control_change channel=1 control=2 value=70 time=2
control_change channel=1 control=2 value=69 time=2
control_change channel=1 control=2 value=68 time=2
control_change channel=1 control=2 value=67 time=2
control_change channel=1 control=2 value=66 time=2
control_change channel=1 control=2 value=65 time=2
control_change channel=1 control=2 value=96 time=421
control_change channel=1 control=2 value=95 time=2
control_change channel=1 control=2 value=94 time=2
control_change channel=1 control=2 value=93 time=2
control_change channel=1 control=2 value=92 time=2
control_change channel=1 control=2 value=91 time=2
control_change channel=1 control=2 value=90 time=2
control_change channel=1 control=2 value=89 time=2
control_change channel=1 control=2 value=88 time=1
control_change channel=1 control=2 value=87 time=2
control_change channel=1 control=2 value=86 time=2
control_change channel=1 control=2 value=85 time=2
control_change channel=1 control=2 value=84 time=2
control_change channel=1 control=2 value=83 time=2
control_change channel=1 control=2 value=82 time=2
control_change channel=1 control=2 value=81 time=2
control_change channel=1 control=2 value=80 time=1
control_change channel=1 control=2 value=79 time=2
control_change channel=1 control=2 value=78 time=2
control_change channel=1 control=2 value=77 time=2
control_change channel=1 control=2 value=76 time=2
control_change channel=1 control=2 value=75 time=2
control_change channel=1 control=2 value=74 time=2
control_change channel=1 control=2 value=73 time=2
control_change channel=1 control=2 value=72 time=1
control_change channel=1 control=2 value=71 time=2
control_change channel=1 control=2 value=70 time=2
control_change channel=1 control=2 value=69 time=2
control_change channel=1 control=2 value=68 time=2
control_change channel=1 control=2 value=67 time=2
control_change channel=1 control=2 value=66 time=2
control_change channel=1 control=2 value=65 time=2
control_change channel=1 control=2 value=96 time=421
control_change channel=1 control=2 value=95 time=2
control_change channel=1 control=2 value=94 time=2
control_change channel=1 control=2 value=93 time=2
control_change channel=1 control=2 value=92 time=2
control_change channel=1 control=2 value=91 time=2
control_change channel=1 control=2 value=90 time=2
control_change channel=1 control=2 value=89 time=2
control_change channel=1 control=2 value=88 time=1
control_change channel=1 control=2 value=87 time=2
control_change channel=1 control=2 value=86 time=2
control_change channel=1 control=2 value=85 time=2
control_change channel=1 control=2 value=84 time=2
control_change channel=1 control=2 value=83 time=2
control_change channel=1 control=2 value=82 time=2
control_change channel=1 control=2 value=81 time=2
control_change channel=1 control=2 value=80 time=1
control_change channel=1 control=2 value=79 time=2
control_change channel=1 control=2 value=78 time=2
control_change channel=1 control=2 value=77 time=2
control_change channel=1 control=2 value=76 time=2
control_change channel=1 control=2 value=75 time=2
control_change channel=1 control=2 value=74 time=2
control_change channel=1 control=2 value=73 time=2
control_change channel=1 control=2 value=72 time=1
control_change channel=1 control=2 value=71 time=2
control_change channel=1 control=2 value=70 time=2
control_change channel=1 control=2 value=69 time=2
control_change channel=1 control=2 value=68 time=2
control_change channel=1 control=2 value=67 time=2
control_change channel=1 control=2 value=66 time=2
control_change channel=1 control=2 value=65 time=2
control_change channel=1 control=2 value=96 time=901
control_change channel=1 control=2 value=95 time=2
control_change channel=1 control=2 value=94 time=2
control_change channel=1 control=2 value=93 time=2
control_change channel=1 control=2 value=92 time=2
control_change channel=1 control=2 value=91 time=2
control_change channel=1 control=2 value=90 time=2
control_change channel=1 control=2 value=89 time=2
control_change channel=1 control=2 value=88 time=1
control_change channel=1 control=2 value=87 time=2
control_change channel=1 control=2 value=86 time=2
control_change channel=1 control=2 value=85 time=2
control_change channel=1 control=2 value=84 time=2
control_change channel=1 control=2 value=83 time=2
control_change channel=1 control=2 value=82 time=2
control_change channel=1 control=2 value=81 time=2
control_change channel=1 control=2 value=80 time=1
control_change channel=1 control=2 value=79 time=2
control_change channel=1 control=2 value=78 time=2
control_change channel=1 control=2 value=77 time=2
control_change channel=1 control=2 value=76 time=2
control_change channel=1 control=2 value=75 time=2
control_change channel=1 control=2 value=74 time=2
control_change channel=1 control=2 value=73 time=2
control_change channel=1 control=2 value=72 time=1
control_change channel=1 control=2 value=71 time=2
control_change channel=1 control=2 value=70 time=2
control_change channel=1 control=2 value=69 time=2
control_change channel=1 control=2 value=68 time=2
control_change channel=1 control=2 value=67 time=2
control_change channel=1 control=2 value=66 time=2
control_change channel=1 control=2 value=65 time=2
control_change channel=1 control=2 value=96 time=901
control_change channel=1 control=2 value=95 time=2
control_change channel=1 control=2 value=94 time=2
control_change channel=1 control=2 value=93 time=2
control_change channel=1 control=2 value=92 time=2
control_change channel=1 control=2 value=91 time=2
control_change channel=1 control=2 value=90 time=2
control_change channel=1 control=2 value=89 time=2
control_change channel=1 control=2 value=88 time=1
control_change channel=1 control=2 value=87 time=2
control_change channel=1 control=2 value=86 time=2
control_change channel=1 control=2 value=85 time=2
control_change channel=1 control=2 value=84 time=2
control_change channel=1 control=2 value=83 time=2
control_change channel=1 control=2 value=82 time=2
control_change channel=1 control=2 value=81 time=2
control_change channel=1 control=2 value=80 time=1
control_change channel=1 control=2 value=79 time=2
control_change channel=1 control=2 value=78 time=2
control_change channel=1 control=2 value=77 time=2
control_change channel=1 control=2 value=76 time=2
control_change channel=1 control=2 value=75 time=2
control_change channel=1 control=2 value=74 time=2
control_change channel=1 control=2 value=73 time=2
control_change channel=1 control=2 value=72 time=1
control_change channel=1 control=2 value=71 time=2
control_change channel=1 control=2 value=70 time=2
control_change channel=1 control=2 value=69 time=2
control_change channel=1 control=2 value=68 time=2
control_change channel=1 control=2 value=67 time=2
control_change channel=1 control=2 value=66 time=2
control_change channel=1 control=2 value=65 time=2
control_change channel=1 control=2 value=96 time=901
control_change channel=1 control=2 value=95 time=2
control_change channel=1 control=2 value=94 time=2
control_change channel=1 control=2 value=93 time=2
control_change channel=1 control=2 value=92 time=2
control_change channel=1 control=2 value=91 time=2
control_change channel=1 control=2 value=90 time=2
control_change channel=1 control=2 value=89 time=2
control_change channel=1 control=2 value=88 time=1
control_change channel=1 control=2 value=87 time=2
control_change channel=1 control=2 value=86 time=2
control_change channel=1 control=2 value=85 time=2
control_change channel=1 control=2 value=84 time=2
control_change channel=1 control=2 value=83 time=2
control_change channel=1 control=2 value=82 time=2
control_change channel=1 control=2 value=81 time=2
control_change channel=1 control=2 value=80 time=1
control_change channel=1 control=2 value=79 time=2
control_change channel=1 control=2 value=78 time=2
control_change channel=1 control=2 value=77 time=2
control_change channel=1 control=2 value=76 time=2
control_change channel=1 control=2 value=75 time=2
control_change channel=1 control=2 value=74 time=2
control_change channel=1 control=2 value=73 time=2
control_change channel=1 control=2 value=72 time=1
control_change channel=1 control=2 value=71 time=2
control_change channel=1 control=2 value=70 time=2
control_change channel=1 control=2 value=69 time=2
control_change channel=1 control=2 value=68 time=2
control_change channel=1 control=2 value=67 time=2
control_change channel=1 control=2 value=66 time=2
control_change channel=1 control=2 value=65 time=2
control_change channel=1 control=2 value=96 time=901
control_change channel=1 control=2 value=95 time=2
control_change channel=1 control=2 value=94 time=2
control_change channel=1 control=2 value=93 time=2
control_change channel=1 control=2 value=92 time=2
control_change channel=1 control=2 value=91 time=2
control_change channel=1 control=2 value=90 time=2
control_change channel=1 control=2 value=89 time=2
control_change channel=1 control=2 value=88 time=1
control_change channel=1 control=2 value=87 time=2
control_change channel=1 control=2 value=86 time=2
control_change channel=1 control=2 value=85 time=2
control_change channel=1 control=2 value=84 time=2
control_change channel=1 control=2 value=83 time=2
control_change channel=1 control=2 value=82 time=2
control_change channel=1 control=2 value=81 time=2
control_change channel=1 control=2 value=80 time=1
control_change channel=1 control=2 value=79 time=2
control_change channel=1 control=2 value=78 time=2
control_change channel=1 control=2 value=77 time=2
control_change channel=1 control=2 value=76 time=2
control_change channel=1 control=2 value=75 time=2
control_change channel=1 control=2 value=74 time=2
control_change channel=1 control=2 value=73 time=2
control_change channel=1 control=2 value=72 time=1
control_change channel=1 control=2 value=71 time=2
control_change channel=1 control=2 value=70 time=2
control_change channel=1 control=2 value=69 time=2
control_change channel=1 control=2 value=68 time=2
control_change channel=1 control=2 value=67 time=2
control_change channel=1 control=2 value=66 time=2
control_change channel=1 control=2 value=65 time=2
control_change channel=1 control=64 value=0 time=23882
control_change channel=1 control=64 value=127 time=3841
control_change channel=1 control=64 value=0 time=959
control_change channel=1 control=64 value=127 time=1
control_change channel=1 control=64 value=0 time=959
control_change channel=1 control=64 value=127 time=1
control_change channel=1 control=64 value=0 time=959
control_change channel=1 control=64 value=127 time=1
control_change channel=1 control=64 value=0 time=959
control_change channel=1 control=2 value=120 time=59
control_change channel=1 control=2 value=119 time=2
control_change channel=1 control=2 value=118 time=1
control_change channel=1 control=2 value=117 time=2
control_change channel=1 control=2 value=116 time=1
control_change channel=1 control=2 value=115 time=2
control_change channel=1 control=2 value=114 time=1
control_change channel=1 control=2 value=113 time=2
control_change channel=1 control=2 value=112 time=1
control_change channel=1 control=2 value=111 time=2
control_change channel=1 control=2 value=110 time=1
control_change channel=1 control=2 value=109 time=2
control_change channel=1 control=2 value=108 time=1
control_change channel=1 control=2 value=107 time=2
control_change channel=1 control=2 value=106 time=1
control_change channel=1 control=2 value=105 time=2
control_change channel=1 control=2 value=104 time=1
control_change channel=1 control=2 value=103 time=2
control_change channel=1 control=2 value=102 time=1
control_change channel=1 control=2 value=101 time=2
control_change channel=1 control=2 value=100 time=1
control_change channel=1 control=2 value=99 time=2
control_change channel=1 control=2 value=98 time=1
control_change channel=1 control=2 value=97 time=2
control_change channel=1 control=2 value=96 time=1
control_change channel=1 control=2 value=95 time=2
control_change channel=1 control=2 value=94 time=1
control_change channel=1 control=2 value=93 time=2
control_change channel=1 control=2 value=92 time=1
control_change channel=1 control=2 value=91 time=2
control_change channel=1 control=2 value=90 time=1
control_change channel=1 control=2 value=89 time=2
control_change channel=1 control=2 value=88 time=1
control_change channel=1 control=2 value=87 time=2
control_change channel=1 control=2 value=86 time=1
control_change channel=1 control=2 value=85 time=2
control_change channel=1 control=2 value=84 time=1
control_change channel=1 control=2 value=83 time=2
control_change channel=1 control=2 value=82 time=1
control_change channel=1 control=2 value=81 time=2
control_change channel=1 control=2 value=80 time=361
control_change channel=1 control=2 value=79 time=42
control_change channel=1 control=2 value=78 time=21
control_change channel=1 control=2 value=77 time=21
control_change channel=1 control=2 value=76 time=21
control_change channel=1 control=2 value=75 time=21
control_change channel=1 control=2 value=74 time=21
control_change channel=1 control=2 value=73 time=21
control_change channel=1 control=2 value=72 time=21
control_change channel=1 control=2 value=71 time=21
control_change channel=1 control=2 value=70 time=21
control_change channel=1 control=2 value=69 time=21
control_change channel=1 control=2 value=68 time=21
control_change channel=1 control=2 value=67 time=21
control_change channel=1 control=2 value=66 time=21
control_change channel=1 control=2 value=65 time=21
control_change channel=1 control=2 value=64 time=21
control_change channel=1 control=2 value=63 time=21
control_change channel=1 control=2 value=62 time=21
control_change channel=1 control=2 value=61 time=21
control_change channel=1 control=2 value=60 time=21
control_change channel=1 control=2 value=59 time=21
control_change channel=1 control=64 value=127 time=2900
control_change channel=1 control=64 value=0 time=959
control_change channel=1 control=64 value=127 time=1
control_change channel=1 control=64 value=0 time=959
control_change channel=1 control=64 value=127 time=1921
control_change channel=1 control=2 value=87 time=538
control_change channel=1 control=2 value=86 time=4
control_change channel=1 control=2 value=85 time=2
control_change channel=1 control=2 value=84 time=2
control_change channel=1 control=2 value=83 time=2
control_change channel=1 control=2 value=82 time=2
control_change channel=1 control=2 value=81 time=2
control_change channel=1 control=2 value=80 time=2
control_change channel=1 control=2 value=79 time=2
control_change channel=1 control=2 value=78 time=2
control_change channel=1 control=2 value=77 time=2
control_change channel=1 control=2 value=76 time=2
control_change channel=1 control=2 value=75 time=2
control_change channel=1 control=2 value=74 time=2
control_change channel=1 control=2 value=73 time=2
control_change channel=1 control=2 value=72 time=2
control_change channel=1 control=2 value=71 time=2
control_change channel=1 control=2 value=70 time=2
control_change channel=1 control=2 value=69 time=2
control_change channel=1 control=2 value=68 time=2
control_change channel=1 control=2 value=67 time=2
control_change channel=1 control=2 value=66 time=2
control_change channel=1 control=2 value=65 time=2
control_change channel=1 control=2 value=64 time=2
control_change channel=1 control=2 value=63 time=2
control_change channel=1 control=2 value=62 time=2
control_change channel=1 control=2 value=61 time=2
control_change channel=1 control=2 value=60 time=2
control_change channel=1 control=2 value=59 time=2
control_change channel=1 control=64 value=0 time=1323
control_change channel=1 control=64 value=127 time=1
control_change channel=1 control=64 value=0 time=959
control_change channel=1 control=64 value=127 time=1
control_change channel=1 control=64 value=0 time=959
control_change channel=1 control=64 value=127 time=1
control_change channel=1 control=64 value=0 time=959
control_change channel=1 control=64 value=127 time=1
control_change channel=1 control=64 value=0 time=959
control_change channel=1 control=64 value=127 time=1
control_change channel=1 control=64 value=0 time=959
control_change channel=1 control=64 value=127 time=1
control_change channel=1 control=64 value=0 time=959
control_change channel=1 control=64 value=127 time=2881
control_change channel=1 control=2 value=58 time=958
control_change channel=1 control=64 value=0 time=1
control_change channel=1 control=64 value=127 time=1
control_change channel=1 control=2 value=59 time=346
control_change channel=1 control=2 value=60 time=174
control_change channel=1 control=2 value=61 time=174
control_change channel=1 control=2 value=62 time=174
control_change channel=1 control=64 value=0 time=91
control_change channel=1 control=64 value=127 time=1
control_change channel=1 control=2 value=63 time=82
control_change channel=1 control=2 value=64 time=174
control_change channel=1 control=2 value=65 time=174
control_change channel=1 control=2 value=66 time=174
control_change channel=1 control=2 value=67 time=174
control_change channel=1 control=2 value=68 time=174
control_change channel=1 control=64 value=0 time=7
control_change channel=1 control=64 value=127 time=1
control_change channel=1 control=2 value=69 time=166
control_change channel=1 control=2 value=70 time=174
control_change channel=1 control=2 value=71 time=174
control_change channel=1 control=2 value=72 time=174
control_change channel=1 control=2 value=73 time=174
control_change channel=1 control=64 value=0 time=97
control_change channel=1 control=64 value=127 time=1
control_change channel=1 control=2 value=74 time=76
control_change channel=1 control=2 value=75 time=174
control_change channel=1 control=2 value=76 time=174
control_change channel=1 control=2 value=77 time=174
control_change channel=1 control=2 value=78 time=174
control_change channel=1 control=2 value=79 time=174
control_change channel=1 control=64 value=0 time=13
control_change channel=1 control=64 value=127 time=1
control_change channel=1 control=2 value=120 time=538
control_change channel=1 control=2 value=119 time=2
control_change channel=1 control=2 value=118 time=1
control_change channel=1 control=2 value=117 time=2
control_change channel=1 control=2 value=116 time=1
control_change channel=1 control=2 value=115 time=2
control_change channel=1 control=2 value=114 time=1
control_change channel=1 control=2 value=113 time=2
control_change channel=1 control=2 value=112 time=1
control_change channel=1 control=2 value=111 time=2
control_change channel=1 control=2 value=110 time=1
control_change channel=1 control=2 value=109 time=2
control_change channel=1 control=2 value=108 time=1
control_change channel=1 control=2 value=107 time=2
control_change channel=1 control=2 value=106 time=1
control_change channel=1 control=2 value=105 time=2
control_change channel=1 control=2 value=104 time=1
control_change channel=1 control=2 value=103 time=2
control_change channel=1 control=2 value=102 time=1
control_change channel=1 control=2 value=101 time=2
control_change channel=1 control=2 value=100 time=1
control_change channel=1 control=2 value=99 time=2
control_change channel=1 control=2 value=98 time=1
control_change channel=1 control=2 value=97 time=2
control_change channel=1 control=2 value=96 time=1
control_change channel=1 control=2 value=95 time=2
control_change channel=1 control=2 value=94 time=1
control_change channel=1 control=2 value=93 time=2
control_change channel=1 control=2 value=92 time=1
control_change channel=1 control=2 value=91 time=2
control_change channel=1 control=2 value=90 time=1
control_change channel=1 control=2 value=89 time=2
control_change channel=1 control=2 value=88 time=1
control_change channel=1 control=2 value=87 time=2
control_change channel=1 control=2 value=86 time=1
control_change channel=1 control=2 value=85 time=2
control_change channel=1 control=2 value=84 time=1
control_change channel=1 control=2 value=83 time=2
control_change channel=1 control=2 value=82 time=1
control_change channel=1 control=2 value=81 time=2
control_change channel=1 control=64 value=0 time=362
control_change channel=1 control=64 value=127 time=1
control_change channel=1 control=2 value=120 time=538
control_change channel=1 control=2 value=119 time=2
control_change channel=1 control=2 value=118 time=1
control_change channel=1 control=2 value=117 time=2
control_change channel=1 control=2 value=116 time=1
control_change channel=1 control=2 value=115 time=2
control_change channel=1 control=2 value=114 time=1
control_change channel=1 control=2 value=113 time=2
control_change channel=1 control=2 value=112 time=1
control_change channel=1 control=2 value=111 time=2
control_change channel=1 control=2 value=110 time=1
control_change channel=1 control=2 value=109 time=2
control_change channel=1 control=2 value=108 time=1
control_change channel=1 control=2 value=107 time=2
control_change channel=1 control=2 value=106 time=1
control_change channel=1 control=2 value=105 time=2
control_change channel=1 control=2 value=104 time=1
control_change channel=1 control=2 value=103 time=2
control_change channel=1 control=2 value=102 time=1
control_change channel=1 control=2 value=101 time=2
control_change channel=1 control=2 value=100 time=1
control_change channel=1 control=2 value=99 time=2
control_change channel=1 control=2 value=98 time=1
control_change channel=1 control=2 value=97 time=2
control_change channel=1 control=2 value=96 time=1
control_change channel=1 control=2 value=95 time=2
control_change channel=1 control=2 value=94 time=1
control_change channel=1 control=2 value=93 time=2
control_change channel=1 control=2 value=92 time=1
control_change channel=1 control=2 value=91 time=2
control_change channel=1 control=2 value=90 time=1
control_change channel=1 control=2 value=89 time=2
control_change channel=1 control=2 value=88 time=1
control_change channel=1 control=2 value=87 time=2
control_change channel=1 control=2 value=86 time=1
control_change channel=1 control=2 value=85 time=2
control_change channel=1 control=2 value=84 time=1
control_change channel=1 control=2 value=83 time=2
control_change channel=1 control=2 value=82 time=1
control_change channel=1 control=2 value=81 time=2
control_change channel=1 control=64 value=0 time=362
control_change channel=1 control=64 value=127 time=1
control_change channel=1 control=64 value=0 time=959
control_change channel=1 control=2 value=112 time=602
control_change channel=1 control=2 value=111 time=40
control_change channel=1 control=2 value=110 time=20
control_change channel=1 control=2 value=109 time=20
control_change channel=1 control=2 value=108 time=20
control_change channel=1 control=2 value=107 time=20
control_change channel=1 control=2 value=106 time=20
control_change channel=1 control=2 value=105 time=20
control_change channel=1 control=2 value=104 time=20
control_change channel=1 control=2 value=103 time=20
control_change channel=1 control=2 value=102 time=20
control_change channel=1 control=2 value=101 time=20
control_change channel=1 control=2 value=100 time=20
control_change channel=1 control=2 value=99 time=20
control_change channel=1 control=2 value=98 time=20
control_change channel=1 control=2 value=97 time=20
control_change channel=1 control=2 value=96 time=20
control_change channel=1 control=64 value=127 time=19
control_change channel=1 control=2 value=95 time=1
control_change channel=1 control=64 value=0 time=958
control_change channel=1 control=64 value=127 time=1
control_change channel=1 control=2 value=94 time=958
control_change channel=1 control=64 value=0 time=1
control_change channel=1 control=2 value=93 time=45
control_change channel=1 control=2 value=92 time=23
control_change channel=1 control=2 value=91 time=23
control_change channel=1 control=2 value=90 time=23
control_change channel=1 control=2 value=89 time=23
control_change channel=1 control=2 value=88 time=23
control_change channel=1 control=2 value=87 time=23
control_change channel=1 control=2 value=86 time=23
control_change channel=1 control=2 value=85 time=23
control_change channel=1 control=2 value=84 time=23
control_change channel=1 control=2 value=83 time=23
control_change channel=1 control=2 value=82 time=23
control_change channel=1 control=2 value=81 time=23
control_change channel=1 control=2 value=80 time=23
control_change channel=1 control=2 value=79 time=23
control_change channel=1 control=2 value=78 time=23
control_change channel=1 control=2 value=77 time=23
control_change channel=1 control=2 value=76 time=23
control_change channel=1 control=2 value=75 time=23
control_change channel=1 control=2 value=74 time=23
control_change channel=1 control=2 value=73 time=23
control_change channel=1 control=2 value=72 time=23
control_change channel=1 control=2 value=71 time=23
control_change channel=1 control=2 value=70 time=23
control_change channel=1 control=2 value=69 time=23
control_change channel=1 control=2 value=68 time=23
control_change channel=1 control=2 value=67 time=23
control_change channel=1 control=2 value=66 time=23
control_change channel=1 control=2 value=65 time=23
control_change channel=1 control=2 value=64 time=23
control_change channel=1 control=2 value=63 time=23
control_change channel=1 control=2 value=62 time=23
control_change channel=1 control=2 value=61 time=23
control_change channel=1 control=2 value=60 time=23
control_change channel=1 control=2 value=59 time=23
control_change channel=1 control=2 value=58 time=23
control_change channel=1 control=2 value=57 time=23
control_change channel=1 control=2 value=56 time=46
control_change channel=1 control=2 value=55 time=23
control_change channel=1 control=2 value=54 time=23
control_change channel=1 control=2 value=53 time=23
control_change channel=1 control=2 value=52 time=23
control_change channel=1 control=2 value=51 time=23
control_change channel=1 control=2 value=50 time=23
control_change channel=1 control=2 value=49 time=23
control_change channel=1 control=2 value=48 time=23
control_change channel=1 control=2 value=47 time=23
control_change channel=1 control=2 value=46 time=23
control_change channel=1 control=2 value=45 time=23
control_change channel=1 control=2 value=44 time=23
control_change channel=1 control=2 value=43 time=23
control_change channel=1 control=2 value=42 time=23
control_change channel=1 control=2 value=41 time=23
control_change channel=1 control=2 value=40 time=23
control_change channel=1 control=2 value=39 time=23
control_change channel=1 control=2 value=38 time=23
control_change channel=1 control=2 value=37 time=23
control_change channel=1 control=2 value=36 time=23
control_change channel=1 control=2 value=35 time=23
control_change channel=1 control=2 value=34 time=23
control_change channel=1 control=64 value=127 time=496
control_change channel=1 control=64 value=0 time=959
control_change channel=1 control=64 value=127 time=1
control_change channel=1 control=64 value=0 time=959
control_change channel=1 control=64 value=127 time=1
control_change channel=1 control=64 value=0 time=959
control_change channel=1 control=64 value=127 time=1
control_change channel=1 control=64 value=0 time=959
<meta message end_of_track time=1>
